<svg id="como_funciona_2" data-name="como funciona 2" xmlns="http://www.w3.org/2000/svg" width="293.414" height="218.629" viewBox="0 0 293.414 218.629">
  <g id="freepik--background-complete--inject-2" transform="translate(0 0)">
    <rect id="Rectángulo_721" data-name="Rectángulo 721" width="293.414" height="0.147" transform="translate(0 192.128)" fill="#ebebeb"/>
    <rect id="Rectángulo_722" data-name="Rectángulo 722" width="19.436" height="0.147" transform="translate(30.785 197.714)" fill="#ebebeb"/>
    <rect id="Rectángulo_723" data-name="Rectángulo 723" width="31.607" height="0.147" transform="translate(100.43 197.791)" fill="#ebebeb"/>
    <rect id="Rectángulo_724" data-name="Rectángulo 724" width="11.261" height="0.147" transform="translate(62.069 200.742)" fill="#ebebeb"/>
    <rect id="Rectángulo_725" data-name="Rectángulo 725" width="11.285" height="0.147" transform="translate(250.441 200.672)" fill="#ebebeb"/>
    <rect id="Rectángulo_726" data-name="Rectángulo 726" width="17.775" height="0.147" transform="translate(227.437 200.672)" fill="#ebebeb"/>
    <rect id="Rectángulo_727" data-name="Rectángulo 727" width="24.975" height="0.147" transform="translate(192.673 199.704)" fill="#ebebeb"/>
    <path id="Trazado_732" data-name="Trazado 732" d="M154.866,220.955H41.555A3.351,3.351,0,0,1,38.21,217.6V58.321A3.351,3.351,0,0,1,41.555,55H154.866a3.351,3.351,0,0,1,3.351,3.351V217.6A3.351,3.351,0,0,1,154.866,220.955ZM41.555,55.117a3.2,3.2,0,0,0-3.2,3.2V217.6a3.2,3.2,0,0,0,3.2,3.2H154.866a3.21,3.21,0,0,0,3.2-3.2V58.321a3.21,3.21,0,0,0-3.2-3.2Z" transform="translate(-15.787 -55)" fill="#ebebeb"/>
    <path id="Trazado_733" data-name="Trazado 733" d="M371.167,220.955H257.851A3.357,3.357,0,0,1,254.5,217.6V58.321A3.357,3.357,0,0,1,257.851,55H371.167a3.351,3.351,0,0,1,3.339,3.321V217.6A3.351,3.351,0,0,1,371.167,220.955ZM257.851,55.117a3.21,3.21,0,0,0-3.2,3.2V217.6a3.21,3.21,0,0,0,3.2,3.2H371.167a3.21,3.21,0,0,0,3.2-3.2V58.321a3.21,3.21,0,0,0-3.2-3.2Z" transform="translate(-105.152 -55)" fill="#ebebeb"/>
    <rect id="Rectángulo_728" data-name="Rectángulo 728" width="16.619" height="82.684" transform="translate(193.97 192.128) rotate(180)" fill="#e6e6e6"/>
    <path id="Trazado_734" data-name="Trazado 734" d="M305.367,376.078H302.21V367.1h6.467Z" transform="translate(-124.865 -183.951)" fill="#f0f0f0"/>
    <rect id="Rectángulo_729" data-name="Rectángulo 729" width="16.619" height="82.684" transform="translate(256.08 192.128) rotate(180)" fill="#e6e6e6"/>
    <rect id="Rectángulo_730" data-name="Rectángulo 730" width="64.868" height="77.174" transform="translate(242.219 186.617) rotate(180)" fill="#f0f0f0"/>
    <rect id="Rectángulo_731" data-name="Rectángulo 731" width="15.005" height="28.925" transform="translate(179.798 175.391) rotate(-90)" fill="#e6e6e6"/>
    <rect id="Rectángulo_732" data-name="Rectángulo 732" width="15.005" height="28.925" transform="translate(210.842 175.391) rotate(-90)" fill="#e6e6e6"/>
    <path id="Trazado_735" data-name="Trazado 735" d="M374.432,330.6h5.722a9.037,9.037,0,0,0,6.572-2.829H367.86A9.037,9.037,0,0,0,374.432,330.6Z" transform="translate(-151.989 -167.701)" fill="#f0f0f0"/>
    <path id="Trazado_736" data-name="Trazado 736" d="M321.032,330.6h5.722a9.037,9.037,0,0,0,6.573-2.829H314.46A9.037,9.037,0,0,0,321.032,330.6Z" transform="translate(-129.926 -167.701)" fill="#f0f0f0"/>
    <rect id="Rectángulo_733" data-name="Rectángulo 733" width="15.005" height="28.925" transform="translate(179.793 152.065) rotate(-90)" fill="#e6e6e6"/>
    <rect id="Rectángulo_734" data-name="Rectángulo 734" width="15.005" height="28.925" transform="translate(210.842 152.071) rotate(-90)" fill="#e6e6e6"/>
    <path id="Trazado_737" data-name="Trazado 737" d="M374.432,290.84h5.722a9.055,9.055,0,0,0,6.567-2.84H367.86A9.055,9.055,0,0,0,374.432,290.84Z" transform="translate(-151.989 -151.269)" fill="#f0f0f0"/>
    <path id="Trazado_738" data-name="Trazado 738" d="M321.032,290.853h5.722a9.055,9.055,0,0,0,6.573-2.823H314.46a9.055,9.055,0,0,0,6.573,2.823Z" transform="translate(-129.926 -151.281)" fill="#f0f0f0"/>
    <rect id="Rectángulo_735" data-name="Rectángulo 735" width="15.005" height="28.925" transform="translate(179.798 128.744) rotate(-90)" fill="#e6e6e6"/>
    <rect id="Rectángulo_736" data-name="Rectángulo 736" width="15.005" height="28.925" transform="translate(210.842 128.744) rotate(-90)" fill="#e6e6e6"/>
    <path id="Trazado_739" data-name="Trazado 739" d="M374.432,251.108h5.722a9.037,9.037,0,0,0,6.572-2.829H367.86A9.037,9.037,0,0,0,374.432,251.108Z" transform="translate(-151.989 -134.858)" fill="#f0f0f0"/>
    <path id="Trazado_740" data-name="Trazado 740" d="M321.032,251.109h5.722a9.037,9.037,0,0,0,6.573-2.829H314.46A9.037,9.037,0,0,0,321.032,251.109Z" transform="translate(-129.926 -134.858)" fill="#f0f0f0"/>
    <path id="Trazado_741" data-name="Trazado 741" d="M405.05,376.078h3.157V367.1H401.74Z" transform="translate(-165.987 -183.951)" fill="#f0f0f0"/>
    <path id="Trazado_742" data-name="Trazado 742" d="M401.062,144.77l2.541,6.948h-2.541L385.47,144.77Z" transform="translate(-159.265 -92.09)" fill="#f5f5f5"/>
    <path id="Trazado_743" data-name="Trazado 743" d="M405.4,144.77v6.948L389.81,144.77Z" transform="translate(-161.058 -92.09)" fill="#e6e6e6"/>
    <path id="Trazado_744" data-name="Trazado 744" d="M296.9,144.77l2.541,6.948H296.9L281.31,144.77Z" transform="translate(-116.229 -92.09)" fill="#f5f5f5"/>
    <path id="Trazado_745" data-name="Trazado 745" d="M301.226,144.77v6.948L285.64,144.77Z" transform="translate(-118.018 -92.09)" fill="#e6e6e6"/>
    <rect id="Rectángulo_737" data-name="Rectángulo 737" width="16.953" height="5.287" transform="translate(238.828 47.715)" fill="#e6e6e6"/>
    <rect id="Rectángulo_738" data-name="Rectángulo 738" width="84.286" height="5.287" transform="translate(238.828 53.008) rotate(180)" fill="#f5f5f5"/>
    <path id="Trazado_746" data-name="Trazado 746" d="M377.81,105s.17,18.379,6.514,18.379S390.832,105,390.832,105Z" transform="translate(-156.1 -75.659)" fill="#f0f0f0"/>
    <path id="Trazado_747" data-name="Trazado 747" d="M310.78,126.1s.446,5.992,17.511,5.992S345.8,126.1,345.8,126.1Z" transform="translate(-128.405 -84.376)" fill="#f0f0f0"/>
    <path id="Trazado_748" data-name="Trazado 748" d="M224.36,356.114h1.133l3.245-15.991.587-2.805,3.521-17.429h13.6l7.353,36.225h1.138l-7.494-36.888a.552.552,0,0,0-.546-.446H232.394a.546.546,0,0,0-.54.446l-3.11,15.3-.587,2.8Z" transform="translate(-92.699 -163.986)" fill="#f0f0f0"/>
    <path id="Trazado_749" data-name="Trazado 749" d="M187.23,356.126h1.133l7.359-36.225h13.567l3.521,17.441.587,2.793,3.251,15.991h1.133l-3.814-18.779-.587-2.787-3.11-15.3a.587.587,0,0,0-.546-.446H195.27a.552.552,0,0,0-.546.446Z" transform="translate(-77.358 -163.999)" fill="#f0f0f0"/>
    <path id="Trazado_750" data-name="Trazado 750" d="M235.261,311.58H195.785A3.421,3.421,0,0,0,192.37,315v.117a1.25,1.25,0,0,0,1.25,1.25h43.807a1.25,1.25,0,0,0,1.25-1.25V315a3.421,3.421,0,0,0-3.415-3.415Z" transform="translate(-79.482 -161.011)" fill="#f0f0f0"/>
    <path id="Trazado_751" data-name="Trazado 751" d="M156.85,356.114h1.133l3.245-15.991.587-2.805,3.521-17.429H178.9l7.376,36.225h1.138l-7.494-36.888a.552.552,0,0,0-.546-.446H164.884a.546.546,0,0,0-.54.446l-3.11,15.3-.587,2.8Z" transform="translate(-64.806 -163.986)" fill="#f0f0f0"/>
    <path id="Trazado_752" data-name="Trazado 752" d="M119.72,356.114h1.138l7.353-36.225h13.573l3.521,17.441.587,2.793,3.251,15.991h1.133l-3.814-18.779-.587-2.787-3.1-15.322a.587.587,0,0,0-.546-.446H127.76a.552.552,0,0,0-.546.446Z" transform="translate(-49.465 -163.986)" fill="#f0f0f0"/>
    <path id="Trazado_753" data-name="Trazado 753" d="M167.781,311.58H128.275A3.421,3.421,0,0,0,124.86,315v.117a1.25,1.25,0,0,0,1.25,1.25h43.813a1.244,1.244,0,0,0,1.244-1.25V315a3.421,3.421,0,0,0-3.386-3.415Z" transform="translate(-51.589 -161.011)" fill="#f0f0f0"/>
    <rect id="Rectángulo_739" data-name="Rectángulo 739" width="56.717" height="90.859" transform="translate(106.204 104.221) rotate(180)" fill="#e6e6e6"/>
    <rect id="Rectángulo_740" data-name="Rectángulo 740" width="58.689" height="90.859" transform="translate(104.473 104.221) rotate(180)" fill="#f0f0f0"/>
    <rect id="Rectángulo_741" data-name="Rectángulo 741" width="56.717" height="6.889" transform="translate(106.204 111.104) rotate(180)" fill="#e6e6e6"/>
    <rect id="Rectángulo_742" data-name="Rectángulo 742" width="58.689" height="6.889" transform="translate(98.3 111.104) rotate(180)" fill="#f0f0f0"/>
    <rect id="Rectángulo_743" data-name="Rectángulo 743" width="80.484" height="48.314" transform="translate(99.28 18.55) rotate(90)" fill="#fafafa"/>
    <path id="Trazado_754" data-name="Trazado 754" d="M147.8,167.088,130.807,86.61H116.43l16.995,80.478Z" transform="translate(-48.106 -68.06)" fill="#fff"/>
    <path id="Trazado_755" data-name="Trazado 755" d="M162.96,159.591a.37.37,0,0,0,.37-.37V92.1a.37.37,0,0,0-.739,0v67.121a.37.37,0,0,0,.37.37Z" transform="translate(-67.178 -70.176)" fill="#f0f0f0"/>
    <path id="Trazado_756" data-name="Trazado 756" d="M124.219,167.088,107.224,86.61h-5.6l16.989,80.478Z" transform="translate(-41.986 -68.06)" fill="#fff"/>
    <rect id="Rectángulo_744" data-name="Rectángulo 744" width="80.484" height="0.657" transform="translate(51.629 18.55) rotate(90)" fill="#e6e6e6"/>
    <path id="Trazado_757" data-name="Trazado 757" d="M75.92,92.012h56.717l.481-1.972H76.4Z" transform="translate(-31.368 -69.478)" fill="#f0f0f0" opacity="0.6"/>
    <path id="Trazado_758" data-name="Trazado 758" d="M75.92,99.826h56.717l.481-1.966H76.4Z" transform="translate(-31.368 -72.709)" fill="#f0f0f0" opacity="0.6"/>
    <path id="Trazado_759" data-name="Trazado 759" d="M75.92,107.642h56.717l.481-1.972H76.4Z" transform="translate(-31.368 -75.935)" fill="#f0f0f0" opacity="0.6"/>
    <path id="Trazado_760" data-name="Trazado 760" d="M75.92,115.456h56.717l.481-1.966H76.4Z" transform="translate(-31.368 -79.166)" fill="#f0f0f0" opacity="0.6"/>
    <path id="Trazado_761" data-name="Trazado 761" d="M75.92,123.276h56.717l.481-1.966H76.4Z" transform="translate(-31.368 -82.397)" fill="#f0f0f0" opacity="0.6"/>
    <path id="Trazado_762" data-name="Trazado 762" d="M75.92,131.092h56.717l.481-1.972H76.4Z" transform="translate(-31.368 -85.624)" fill="#f0f0f0" opacity="0.6"/>
  </g>
  <g id="freepik--Shadow--inject-2" transform="translate(32.927 205.343)">
    <ellipse id="freepik--path--inject-2" cx="113.78" cy="6.643" rx="113.78" ry="6.643" fill="#f5f5f5"/>
  </g>
  <g id="freepik--Briefcases--inject-2" transform="translate(49.294 3.11)">
    <rect id="Rectángulo_745" data-name="Rectángulo 745" width="37.68" height="16.783" rx="1.56" transform="translate(56.611 118.792)" fill="#a96cfe"/>
    <rect id="Rectángulo_746" data-name="Rectángulo 746" width="37.68" height="16.783" rx="1.56" transform="translate(56.611 118.792)" fill="#fff" opacity="0.6"/>
    <path id="Trazado_763" data-name="Trazado 763" d="M217.217,262.73H181.355a.915.915,0,0,0-.915.915v4.794l18.661,3.674a.863.863,0,0,0,.346,0l18.667-3.674v-4.794a.916.916,0,0,0-.9-.915Z" transform="translate(-123.846 -143.938)" opacity="0.1"/>
    <path id="Trazado_764" data-name="Trazado 764" d="M217.478,248.96h-10.95v-1.837a2.87,2.87,0,0,0-2.864-2.864h-9.782a2.87,2.87,0,0,0-2.864,2.864v1.837H180.074a.9.9,0,0,0-.9.9v9.043a.91.91,0,0,0,.728.886l18.7,3.679a1.139,1.139,0,0,0,.346,0l18.7-3.679a.915.915,0,0,0,.734-.886v-9.043A.9.9,0,0,0,217.478,248.96ZM193.2,247.124a.7.7,0,0,1,.687-.692h9.782a.7.7,0,0,1,.687.692v1.837H193.2Z" transform="translate(-123.322 -136.307)" fill="#a96cfe"/>
    <path id="Trazado_765" data-name="Trazado 765" d="M217.478,248.96h-10.95v-1.837a2.87,2.87,0,0,0-2.864-2.864h-9.782a2.87,2.87,0,0,0-2.864,2.864v1.837H180.074a.9.9,0,0,0-.9.9v9.043a.91.91,0,0,0,.728.886l18.7,3.679a1.139,1.139,0,0,0,.346,0l18.7-3.679a.915.915,0,0,0,.734-.886v-9.043A.9.9,0,0,0,217.478,248.96ZM193.2,247.124a.7.7,0,0,1,.687-.692h9.782a.7.7,0,0,1,.687.692v1.837H193.2Z" transform="translate(-123.322 -136.307)" fill="#fff" opacity="0.6"/>
    <rect id="Rectángulo_747" data-name="Rectángulo 747" width="5.598" height="4.178" rx="1.48" transform="translate(72.655 124.695)" fill="#a96cfe"/>
    <rect id="Rectángulo_748" data-name="Rectángulo 748" width="5.598" height="4.178" rx="1.48" transform="translate(72.655 124.695)" fill="#fff" opacity="0.3"/>
    <rect id="Rectángulo_749" data-name="Rectángulo 749" width="37.68" height="16.783" rx="1.56" transform="translate(56.611 10.839)" fill="#a96cfe"/>
    <rect id="Rectángulo_750" data-name="Rectángulo 750" width="37.68" height="16.783" rx="1.56" transform="translate(56.611 10.839)" fill="#fff" opacity="0.6"/>
    <path id="Trazado_766" data-name="Trazado 766" d="M217.217,78.77H181.355a.915.915,0,0,0-.915.915V84.48L199.1,88.153a.863.863,0,0,0,.346,0l18.667-3.674V79.685a.915.915,0,0,0-.9-.915Z" transform="translate(-123.846 -67.931)" opacity="0.1"/>
    <path id="Trazado_767" data-name="Trazado 767" d="M217.478,65h-10.95V63.164a2.87,2.87,0,0,0-2.864-2.864h-9.782a2.87,2.87,0,0,0-2.864,2.864V65H180.074a.9.9,0,0,0-.9.9v9.043a.9.9,0,0,0,.728.886l18.7,3.656a.863.863,0,0,0,.346,0l18.7-3.679a.91.91,0,0,0,.739-.863V65.9a.9.9,0,0,0-.91-.9ZM193.2,63.164a.692.692,0,0,1,.687-.692h9.782a.692.692,0,0,1,.687.687v1.837H193.2Z" transform="translate(-123.322 -60.3)" fill="#a96cfe"/>
    <path id="Trazado_768" data-name="Trazado 768" d="M217.478,65h-10.95V63.164a2.87,2.87,0,0,0-2.864-2.864h-9.782a2.87,2.87,0,0,0-2.864,2.864V65H180.074a.9.9,0,0,0-.9.9v9.043a.9.9,0,0,0,.728.886l18.7,3.656a.863.863,0,0,0,.346,0l18.7-3.679a.91.91,0,0,0,.739-.863V65.9a.9.9,0,0,0-.91-.9ZM193.2,63.164a.692.692,0,0,1,.687-.692h9.782a.692.692,0,0,1,.687.687v1.837H193.2Z" transform="translate(-123.322 -60.3)" fill="#fff" opacity="0.6"/>
    <rect id="Rectángulo_751" data-name="Rectángulo 751" width="5.598" height="4.178" rx="1.48" transform="translate(72.655 16.748)" fill="#a96cfe"/>
    <rect id="Rectángulo_752" data-name="Rectángulo 752" width="5.598" height="4.178" rx="1.48" transform="translate(72.655 16.748)" fill="#fff" opacity="0.3"/>
    <rect id="Rectángulo_753" data-name="Rectángulo 753" width="37.68" height="16.783" rx="1.56" transform="translate(0.769 118.792)" fill="#a96cfe"/>
    <rect id="Rectángulo_754" data-name="Rectángulo 754" width="37.68" height="16.783" rx="1.56" transform="translate(0.769 118.792)" fill="#fff" opacity="0.6"/>
    <path id="Trazado_769" data-name="Trazado 769" d="M122.1,262.73H86.225a.915.915,0,0,0-.915.915v4.794l18.661,3.674a.892.892,0,0,0,.352,0l18.667-3.674v-4.794A.915.915,0,0,0,122.1,262.73Z" transform="translate(-84.541 -143.938)" opacity="0.1"/>
    <path id="Trazado_770" data-name="Trazado 770" d="M122.308,248.96h-10.95v-1.837a2.87,2.87,0,0,0-2.864-2.864H98.718a2.87,2.87,0,0,0-2.864,2.864v1.837H84.9a.9.9,0,0,0-.9.9v9.043a.91.91,0,0,0,.728.886l18.7,3.679a1.174,1.174,0,0,0,.352,0l18.7-3.679a.91.91,0,0,0,.728-.886v-9.043A.9.9,0,0,0,122.308,248.96Zm-24.283-1.837a.7.7,0,0,1,.692-.692h9.777a.7.7,0,0,1,.692.692v1.837H98.037Z" transform="translate(-84 -136.307)" fill="#a96cfe"/>
    <path id="Trazado_771" data-name="Trazado 771" d="M122.308,248.96h-10.95v-1.837a2.87,2.87,0,0,0-2.864-2.864H98.718a2.87,2.87,0,0,0-2.864,2.864v1.837H84.9a.9.9,0,0,0-.9.9v9.043a.91.91,0,0,0,.728.886l18.7,3.679a1.174,1.174,0,0,0,.352,0l18.7-3.679a.91.91,0,0,0,.728-.886v-9.043A.9.9,0,0,0,122.308,248.96Zm-24.283-1.837a.7.7,0,0,1,.692-.692h9.777a.7.7,0,0,1,.692.692v1.837H98.037Z" transform="translate(-84 -136.307)" fill="#fff" opacity="0.6"/>
    <rect id="Rectángulo_755" data-name="Rectángulo 755" width="5.598" height="4.178" rx="1.48" transform="translate(16.807 124.695)" fill="#a96cfe"/>
    <rect id="Rectángulo_756" data-name="Rectángulo 756" width="5.598" height="4.178" rx="1.48" transform="translate(16.807 124.695)" fill="#fff" opacity="0.3"/>
    <rect id="Rectángulo_757" data-name="Rectángulo 757" width="37.68" height="16.783" rx="1.56" transform="translate(0.769 10.839)" fill="#a96cfe"/>
    <rect id="Rectángulo_758" data-name="Rectángulo 758" width="37.68" height="16.783" rx="1.56" transform="translate(0.769 10.839)" fill="#fff" opacity="0.6"/>
    <path id="Trazado_772" data-name="Trazado 772" d="M122.1,78.77H86.225a.915.915,0,0,0-.915.915V84.48l18.661,3.674a.886.886,0,0,0,.352,0L122.99,84.48V79.685A.915.915,0,0,0,122.1,78.77Z" transform="translate(-84.541 -67.931)" opacity="0.1"/>
    <path id="Trazado_773" data-name="Trazado 773" d="M122.308,65h-10.95V63.164a2.87,2.87,0,0,0-2.864-2.864H98.718a2.87,2.87,0,0,0-2.864,2.864V65H84.9a.9.9,0,0,0-.9.9v9.043a.9.9,0,0,0,.728.886l18.7,3.656a.886.886,0,0,0,.352,0l18.7-3.679a.9.9,0,0,0,.728-.886V65.9A.9.9,0,0,0,122.308,65ZM98.025,63.164a.7.7,0,0,1,.692-.692h9.777a.7.7,0,0,1,.692.687v1.837H98.037Z" transform="translate(-84 -60.3)" fill="#a96cfe"/>
    <path id="Trazado_774" data-name="Trazado 774" d="M122.308,65h-10.95V63.164a2.87,2.87,0,0,0-2.864-2.864H98.718a2.87,2.87,0,0,0-2.864,2.864V65H84.9a.9.9,0,0,0-.9.9v9.043a.9.9,0,0,0,.728.886l18.7,3.656a.886.886,0,0,0,.352,0l18.7-3.679a.9.9,0,0,0,.728-.886V65.9A.9.9,0,0,0,122.308,65ZM98.025,63.164a.7.7,0,0,1,.692-.692h9.777a.7.7,0,0,1,.692.687v1.837H98.037Z" transform="translate(-84 -60.3)" fill="#fff" opacity="0.6"/>
    <rect id="Rectángulo_759" data-name="Rectángulo 759" width="5.598" height="4.178" rx="1.48" transform="translate(16.807 16.748)" fill="#a96cfe"/>
    <rect id="Rectángulo_760" data-name="Rectángulo 760" width="5.598" height="4.178" rx="1.48" transform="translate(16.807 16.748)" fill="#fff" opacity="0.3"/>
    <path id="Trazado_775" data-name="Trazado 775" d="M117.4,187.533H86.221a.921.921,0,0,1-.921-.921V171.665a.91.91,0,0,1,.076-.358,1.262,1.262,0,0,1,.082-.153.645.645,0,0,1,.117-.135.915.915,0,0,1,.646-.27h29.512a38.485,38.485,0,0,0-.241,6.173,6.28,6.28,0,0,0,.053,1c.041.616.088,1.238.158,1.854a39.319,39.319,0,0,0,1.7,7.758Z" transform="translate(-84.537 -105.935)" fill="#a96cfe"/>
    <path id="Trazado_776" data-name="Trazado 776" d="M117.4,187.533H86.221a.921.921,0,0,1-.921-.921V171.665a.91.91,0,0,1,.076-.358,1.262,1.262,0,0,1,.082-.153.645.645,0,0,1,.117-.135.915.915,0,0,1,.646-.27h29.512a38.485,38.485,0,0,0-.241,6.173,6.28,6.28,0,0,0,.053,1c.041.616.088,1.238.158,1.854a39.319,39.319,0,0,0,1.7,7.758Z" transform="translate(-84.537 -105.935)" fill="#fff" opacity="0.6"/>
    <path id="Trazado_777" data-name="Trazado 777" d="M115.737,170.75a38.484,38.484,0,0,0-.241,6.173,6.278,6.278,0,0,0,.053,1l-8.6,1.69-2.629.516a.693.693,0,0,1-.346,0l-2.623-.511L85.31,176.46v-4.8a.991.991,0,0,1,.07-.352,1.263,1.263,0,0,1,.082-.153.645.645,0,0,1,.117-.135.915.915,0,0,1,.646-.27Z" transform="translate(-84.541 -105.935)" opacity="0.1"/>
    <path id="Trazado_778" data-name="Trazado 778" d="M116.422,156.98h-5.058v-1.837a2.875,2.875,0,0,0-2.87-2.864H98.718a2.864,2.864,0,0,0-2.864,2.864v1.837H84.9a.9.9,0,0,0-.9.9v9.037a.91.91,0,0,0,.734.892h.035l16.038,3.163,2.623.511a.863.863,0,0,0,.346,0l2.629-.516,8.55-1.684a38.486,38.486,0,0,1,.241-6.173,38.931,38.931,0,0,1,1.226-6.132Zm-18.4-1.837a.7.7,0,0,1,.692-.687h9.777a.692.692,0,0,1,.687.687v1.837H98.031Z" transform="translate(-84 -98.303)" fill="#a96cfe"/>
    <path id="Trazado_779" data-name="Trazado 779" d="M116.422,156.98h-5.058v-1.837a2.875,2.875,0,0,0-2.87-2.864H98.718a2.864,2.864,0,0,0-2.864,2.864v1.837H84.9a.9.9,0,0,0-.9.9v9.037a.91.91,0,0,0,.734.892h.035l16.038,3.163,2.623.511a.863.863,0,0,0,.346,0l2.629-.516,8.55-1.684a38.486,38.486,0,0,1,.241-6.173,38.931,38.931,0,0,1,1.226-6.132Zm-18.4-1.837a.7.7,0,0,1,.692-.687h9.777a.692.692,0,0,1,.687.687v1.837H98.031Z" transform="translate(-84 -98.303)" fill="#fff" opacity="0.6"/>
    <rect id="Rectángulo_761" data-name="Rectángulo 761" width="5.598" height="4.178" rx="1.48" transform="translate(16.807 70.719)" fill="#a96cfe"/>
    <rect id="Rectángulo_762" data-name="Rectángulo 762" width="5.598" height="4.178" rx="1.48" transform="translate(16.807 70.719)" fill="#fff" opacity="0.3"/>
    <rect id="Rectángulo_763" data-name="Rectángulo 763" width="37.68" height="16.783" rx="1.56" transform="translate(150.134 135.569) rotate(180)" fill="#a96cfe"/>
    <rect id="Rectángulo_764" data-name="Rectángulo 764" width="37.68" height="16.783" rx="1.56" transform="translate(150.134 135.569) rotate(180)" fill="#fff" opacity="0.6"/>
    <path id="Trazado_780" data-name="Trazado 780" d="M276.539,262.73h35.844a.915.915,0,0,1,.915.915v4.794l-18.685,3.674a.862.862,0,0,1-.346,0L275.6,268.44v-4.794a.915.915,0,0,1,.939-.915Z" transform="translate(-163.164 -143.938)" opacity="0.1"/>
    <path id="Trazado_781" data-name="Trazado 781" d="M275.217,248.96h10.95v-1.837a2.87,2.87,0,0,1,2.864-2.864h9.782a2.87,2.87,0,0,1,2.864,2.864v1.837h10.944a.9.9,0,0,1,.9.9v9.043a.91.91,0,0,1-.728.886l-18.726,3.679a1.173,1.173,0,0,1-.352,0l-18.7-3.679a.91.91,0,0,1-.728-.886v-9.043a.9.9,0,0,1,.927-.9Zm24.283-1.837a.7.7,0,0,0-.687-.692h-9.782a.7.7,0,0,0-.692.692v1.837h11.15Z" transform="translate(-162.622 -136.307)" fill="#a96cfe"/>
    <path id="Trazado_782" data-name="Trazado 782" d="M275.217,248.96h10.95v-1.837a2.87,2.87,0,0,1,2.864-2.864h9.782a2.87,2.87,0,0,1,2.864,2.864v1.837h10.944a.9.9,0,0,1,.9.9v9.043a.91.91,0,0,1-.728.886l-18.726,3.679a1.173,1.173,0,0,1-.352,0l-18.7-3.679a.91.91,0,0,1-.728-.886v-9.043a.9.9,0,0,1,.927-.9Zm24.283-1.837a.7.7,0,0,0-.687-.692h-9.782a.7.7,0,0,0-.692.692v1.837h11.15Z" transform="translate(-162.622 -136.307)" fill="#fff" opacity="0.6"/>
    <rect id="Rectángulo_765" data-name="Rectángulo 765" width="5.598" height="4.178" rx="1.48" transform="translate(134.096 128.874) rotate(180)" fill="#a96cfe"/>
    <rect id="Rectángulo_766" data-name="Rectángulo 766" width="5.598" height="4.178" rx="1.48" transform="translate(134.096 128.874) rotate(180)" fill="#fff" opacity="0.3"/>
    <rect id="Rectángulo_767" data-name="Rectángulo 767" width="37.68" height="16.783" rx="1.56" transform="translate(150.134 27.616) rotate(180)" fill="#a96cfe"/>
    <rect id="Rectángulo_768" data-name="Rectángulo 768" width="37.68" height="16.783" rx="1.56" transform="translate(150.134 27.616) rotate(180)" fill="#fff" opacity="0.6"/>
    <path id="Trazado_783" data-name="Trazado 783" d="M276.555,78.77H312.4a.915.915,0,0,1,.915.915V84.48L294.63,88.153a.863.863,0,0,1-.346,0L275.64,84.48V79.685a.915.915,0,0,1,.915-.915Z" transform="translate(-163.18 -67.931)" opacity="0.1"/>
    <path id="Trazado_784" data-name="Trazado 784" d="M275.217,65h10.95V63.164a2.87,2.87,0,0,1,2.864-2.864h9.782a2.87,2.87,0,0,1,2.887,2.864V65h10.944a.9.9,0,0,1,.9.9v9.043a.9.9,0,0,1-.728.886l-18.749,3.656a.886.886,0,0,1-.352,0l-18.7-3.679a.9.9,0,0,1-.728-.886V65.9a.9.9,0,0,1,.927-.9ZM299.5,63.164a.692.692,0,0,0-.687-.692h-9.782a.7.7,0,0,0-.692.687v1.837h11.15Z" transform="translate(-162.622 -60.3)" fill="#a96cfe"/>
    <path id="Trazado_785" data-name="Trazado 785" d="M275.217,65h10.95V63.164a2.87,2.87,0,0,1,2.864-2.864h9.782a2.87,2.87,0,0,1,2.887,2.864V65h10.944a.9.9,0,0,1,.9.9v9.043a.9.9,0,0,1-.728.886l-18.749,3.656a.886.886,0,0,1-.352,0l-18.7-3.679a.9.9,0,0,1-.728-.886V65.9a.9.9,0,0,1,.927-.9ZM299.5,63.164a.692.692,0,0,0-.687-.692h-9.782a.7.7,0,0,0-.692.687v1.837h11.15Z" transform="translate(-162.622 -60.3)" fill="#fff" opacity="0.6"/>
    <rect id="Rectángulo_769" data-name="Rectángulo 769" width="5.598" height="4.178" rx="1.48" transform="translate(134.096 20.92) rotate(180)" fill="#a96cfe"/>
    <rect id="Rectángulo_770" data-name="Rectángulo 770" width="5.598" height="4.178" rx="1.48" transform="translate(134.096 20.92) rotate(180)" fill="#fff" opacity="0.3"/>
    <path id="Trazado_786" data-name="Trazado 786" d="M285.19,187.533h31.161a.921.921,0,0,0,.915-.921V171.665a.909.909,0,0,0-.076-.358.762.762,0,0,0-.082-.153.644.644,0,0,0-.117-.135.9.9,0,0,0-.646-.27H286.839a38.486,38.486,0,0,1,.241,6.173,6.283,6.283,0,0,1-.053,1c-.035.616-.088,1.238-.158,1.854A39.318,39.318,0,0,1,285.19,187.533Z" transform="translate(-167.126 -105.935)" fill="#a96cfe"/>
    <path id="Trazado_787" data-name="Trazado 787" d="M285.19,187.533h31.161a.921.921,0,0,0,.915-.921V171.665a.909.909,0,0,0-.076-.358.762.762,0,0,0-.082-.153.644.644,0,0,0-.117-.135.9.9,0,0,0-.646-.27H286.839a38.486,38.486,0,0,1,.241,6.173,6.283,6.283,0,0,1-.053,1c-.035.616-.088,1.238-.158,1.854A39.318,39.318,0,0,1,285.19,187.533Z" transform="translate(-167.126 -105.935)" fill="#fff" opacity="0.6"/>
    <path id="Trazado_788" data-name="Trazado 788" d="M288,170.75a38.486,38.486,0,0,1,.241,6.173,6.283,6.283,0,0,1-.053,1l8.615,1.69,2.629.516a.693.693,0,0,0,.346,0l2.623-.511,16.038-3.157v-4.8a.992.992,0,0,0-.07-.352.762.762,0,0,0-.082-.153.645.645,0,0,0-.117-.135.9.9,0,0,0-.646-.27Z" transform="translate(-168.287 -105.935)" opacity="0.1"/>
    <path id="Trazado_789" data-name="Trazado 789" d="M285.883,156.98h5.064v-1.837a2.87,2.87,0,0,1,2.864-2.864h9.777a2.87,2.87,0,0,1,2.87,2.864v1.837H317.4a.9.9,0,0,1,.9.9v9.037a.91.91,0,0,1-.728.892h-.041L301.5,170.976l-2.647.5a.863.863,0,0,1-.346,0l-2.629-.516-8.55-1.684a39.317,39.317,0,0,0-1.467-12.323Zm18.4-1.837a.7.7,0,0,0-.692-.687h-9.777a.692.692,0,0,0-.687.687v1.837h11.15Z" transform="translate(-167.403 -98.303)" fill="#a96cfe"/>
    <path id="Trazado_790" data-name="Trazado 790" d="M285.883,156.98h5.064v-1.837a2.87,2.87,0,0,1,2.864-2.864h9.777a2.87,2.87,0,0,1,2.87,2.864v1.837H317.4a.9.9,0,0,1,.9.9v9.037a.91.91,0,0,1-.728.892h-.041L301.5,170.976l-2.647.5a.863.863,0,0,1-.346,0l-2.629-.516-8.55-1.684a39.317,39.317,0,0,0-1.467-12.323Zm18.4-1.837a.7.7,0,0,0-.692-.687h-9.777a.692.692,0,0,0-.687.687v1.837h11.15Z" transform="translate(-167.403 -98.303)" fill="#fff" opacity="0.6"/>
    <rect id="Rectángulo_771" data-name="Rectángulo 771" width="5.598" height="4.178" rx="1.48" transform="translate(134.096 74.903) rotate(180)" fill="#a96cfe"/>
    <rect id="Rectángulo_772" data-name="Rectángulo 772" width="5.598" height="4.178" rx="1.48" transform="translate(134.096 74.903) rotate(180)" fill="#fff" opacity="0.3"/>
    <rect id="Rectángulo_773" data-name="Rectángulo 773" width="54.141" height="24.113" rx="2.24" transform="translate(50.279 61.171)" fill="#a96cfe"/>
    <path id="Trazado_791" data-name="Trazado 791" d="M215.054,149.8H201a4.026,4.026,0,0,1-4.02-4.02V142.17a4.026,4.026,0,0,1,4.02-4.02h14.055a4.02,4.02,0,0,1,4.02,4.02v3.591a4.02,4.02,0,0,1-4.02,4.037ZM201,141.1a1.086,1.086,0,0,0-1.074,1.068v3.591a1.086,1.086,0,0,0,1.086,1.086h14.055a1.086,1.086,0,0,0,1.086-1.086V142.17a1.086,1.086,0,0,0-1.086-1.086Z" transform="translate(-130.68 -92.465)" fill="#a96cfe"/>
    <path id="Trazado_792" data-name="Trazado 792" d="M222.5,164.54H171a1.314,1.314,0,0,0-1.32,1.314v6.9l26.818,5.281a1.174,1.174,0,0,0,.5,0l26.824-5.281v-6.9a1.314,1.314,0,0,0-1.32-1.314Z" transform="translate(-119.401 -103.369)" opacity="0.2"/>
    <path id="Trazado_793" data-name="Trazado 793" d="M223.067,165.059,196.2,170.341a1.455,1.455,0,0,1-.5,0l-26.871-5.281a1.3,1.3,0,0,1-1.05-1.273V150.817a1.3,1.3,0,0,1,1.3-1.3h53.765a1.3,1.3,0,0,1,1.3,1.3v12.992A1.3,1.3,0,0,1,223.067,165.059Z" transform="translate(-118.611 -97.163)" fill="#a96cfe"/>
    <rect id="Rectángulo_774" data-name="Rectángulo 774" width="8.045" height="6.003" rx="2.12" transform="translate(73.33 69.662)" fill="#a96cfe"/>
    <rect id="Rectángulo_775" data-name="Rectángulo 775" width="8.045" height="6.003" rx="2.12" transform="translate(73.33 69.662)" opacity="0.4"/>
  </g>
  <g id="freepik--Character--inject-2" transform="translate(77.875 22.375)">
    <path id="Trazado_794" data-name="Trazado 794" d="M376.706,187.21c.675,1.391,1.174,2.705,1.76,4.078s1.015,2.74,1.473,4.143a52.921,52.921,0,0,1,2.048,8.72c.059.37.088.769.129,1.174l.059.587v.687a12.32,12.32,0,0,1-.229,2.652,28.449,28.449,0,0,1-1.238,4.46,48.706,48.706,0,0,1-3.732,7.952L374,220.4c.663-2.676,1.332-5.4,1.837-8.04a33.743,33.743,0,0,0,.522-3.82,8.91,8.91,0,0,0-.035-1.573l-.065-.37-.082-.469c-.065-.311-.106-.622-.182-.939a59.849,59.849,0,0,0-2.265-7.629c-.446-1.273-.939-2.541-1.432-3.814s-1.039-2.553-1.543-3.726Z" transform="translate(-231.058 -132.001)" fill="#7f3e3b"/>
    <path id="Trazado_795" data-name="Trazado 795" d="M374.889,242.44l-2.289,2.23,4.994,2.347a5.023,5.023,0,0,0,.376-4.026Z" transform="translate(-231.823 -154.82)" fill="#7f3e3b"/>
    <path id="Trazado_796" data-name="Trazado 796" d="M369.46,249.567l4.213,1.725,2.623-2.729L371.3,246.24Z" transform="translate(-230.525 -156.39)" fill="#7f3e3b"/>
    <path id="Trazado_797" data-name="Trazado 797" d="M190.748,188.5a42.252,42.252,0,1,0-46.694-37.3,42.252,42.252,0,0,0,46.694,37.3Z" transform="translate(-137.285 -97.724)" fill="#a96cfe" opacity="0.2"/>
    <path id="Trazado_798" data-name="Trazado 798" d="M171.42,114.772,235.678,166.1c.276-.587.534-1.174.786-1.76a41.7,41.7,0,0,0,3.052-12.018h0L184.013,108a41.894,41.894,0,0,0-12.593,6.772Z" transform="translate(-148.701 -99.273)" fill="#fff" opacity="0.1"/>
    <path id="Trazado_799" data-name="Trazado 799" d="M146.16,145.942l60.408,48.267a42.251,42.251,0,0,0,14.542-12.488L155.138,129A42.252,42.252,0,0,0,146.16,145.942Z" transform="translate(-138.264 -107.95)" fill="#fff" opacity="0.1"/>
    <path id="Trazado_800" data-name="Trazado 800" d="M285.553,189.364a6.267,6.267,0,0,0-1.015-2.993,4.331,4.331,0,0,0-1.731-1.532l-4.008-1.966c-2.664-1.32-5.346-2.606-8.028-3.891s-5.381-2.547-8.069-3.82-5.4-2.512-8.116-3.726q-8.133-3.685-16.373-7.171c-2.746-1.174-5.5-2.3-8.274-3.4h0a3.433,3.433,0,0,1-2.013-4.237,48.748,48.748,0,1,0-6.526,13.21,3.439,3.439,0,0,1,4.595-.98h0q3.85,2.289,7.734,4.5,7.764,4.425,15.645,8.626c2.623,1.42,5.281,2.787,7.893,4.178s5.281,2.746,7.94,4.108,5.281,2.694,7.975,4.008l4,1.983a4.308,4.308,0,0,0,2.271.446,6.209,6.209,0,0,0,2.987-1.015A6.614,6.614,0,0,0,285.553,189.364Zm-121.1-12.981a38.461,38.461,0,1,1,51.506-17.464,38.461,38.461,0,0,1-51.506,17.464Z" transform="translate(-132.705 -93.129)" fill="#a96cfe"/>
    <path id="Trazado_801" data-name="Trazado 801" d="M342.612,155.854c0,.346-.182.628-.411.628s-.411-.282-.411-.628.182-.634.411-.634S342.612,155.5,342.612,155.854Z" transform="translate(-219.093 -118.783)" fill="#263238"/>
    <path id="Trazado_802" data-name="Trazado 802" d="M341.765,157.37a12.416,12.416,0,0,1-1.655,2.975,2,2,0,0,0,1.661.311Z" transform="translate(-218.399 -119.672)" fill="#630f0f"/>
    <path id="Trazado_803" data-name="Trazado 803" d="M343.973,152.451a.205.205,0,0,0,.117-.37,2.048,2.048,0,0,0-1.837-.317.205.205,0,1,0,.147.381h0a1.637,1.637,0,0,1,1.455.264A.182.182,0,0,0,343.973,152.451Z" transform="translate(-219.222 -117.318)" fill="#263238"/>
    <path id="Trazado_804" data-name="Trazado 804" d="M356.581,160.76c-.622,3.157-1.238,8.937.968,11.038,0,0-.863,3.2-6.719,3.2-6.455,0-3.081-3.2-3.081-3.2,3.521-.839,3.427-3.451,2.811-5.868Z" transform="translate(-221.191 -121.072)" fill="#7f3e3b"/>
    <path id="Trazado_805" data-name="Trazado 805" d="M358.98,176.04c.487.158-.147,3.057-.147,3.057s-.8,2.025-10.792,1.32c-.769-.059-.475-2.84.258-3.245C350.664,175.882,357.407,175.524,358.98,176.04Z" transform="translate(-221.489 -127.292)" fill="#263238"/>
    <path id="Trazado_806" data-name="Trazado 806" d="M401.252,381.71c.54-.053,1.326-1.045,1.549-1.408a.1.1,0,0,0,0-.106.094.094,0,0,0-.1-.047c-.059,0-1.479.27-1.825.822a.493.493,0,0,0-.059.393c.076.258.223.329.34.346Zm1.238-1.309c-.381.528-1.009,1.144-1.309,1.1-.029,0-.117,0-.17-.2a.27.27,0,0,1,.035-.229A2.764,2.764,0,0,1,402.49,380.4Z" transform="translate(-243.474 -211.717)" fill="#a96cfe"/>
    <path id="Trazado_807" data-name="Trazado 807" d="M402.325,379.867a1.893,1.893,0,0,0,.311-.053.1.1,0,0,0,.035-.176c-.035-.035-.986-.845-1.631-.78h0a.551.551,0,0,0-.4.211.323.323,0,0,0-.041.417C400.811,379.82,401.738,379.925,402.325,379.867Zm.047-.205c-.587.07-1.444-.047-1.608-.288a.162.162,0,0,1,.035-.182.387.387,0,0,1,.264-.135h0a2.476,2.476,0,0,1,1.309.6Z" transform="translate(-243.367 -211.182)" fill="#a96cfe"/>
    <path id="Trazado_808" data-name="Trazado 808" d="M331.886,408.379a7.88,7.88,0,0,0,1.326-.117.117.117,0,0,0,.082-.082.1.1,0,0,0-.053-.106c-.065-.041-1.567-.9-2.289-.7a.528.528,0,0,0-.323.241.387.387,0,0,0,0,.446C330.818,408.315,331.334,408.379,331.886,408.379Zm1-.27c-.8.112-1.9.106-2.095-.17-.029-.035-.053-.1,0-.229a.3.3,0,0,1,.2-.141,3.645,3.645,0,0,1,1.9.54Z" transform="translate(-214.453 -222.953)" fill="#a96cfe"/>
    <path id="Trazado_809" data-name="Trazado 809" d="M333.919,407.547a.077.077,0,0,0,.106-.094,2.908,2.908,0,0,0-.669-1.661.78.78,0,0,0-.587-.176c-.282.029-.358.17-.381.288-.076.487.957,1.42,1.473,1.655Zm-1.05-1.76a.587.587,0,0,1,.358.135,2.435,2.435,0,0,1,.587,1.326c-.534-.317-1.232-1.05-1.174-1.344,0,0,0-.094.2-.111Z" transform="translate(-215.206 -222.238)" fill="#a96cfe"/>
    <path id="Trazado_810" data-name="Trazado 810" d="M339.782,401.708h-4.307l-.434-9.988h4.313Z" transform="translate(-216.304 -216.498)" fill="#7f3e3b"/>
    <path id="Trazado_811" data-name="Trazado 811" d="M402.239,370.849l-3.363,2.694L390.32,367.6l3.368-2.694Z" transform="translate(-239.144 -205.421)" fill="#7f3e3b"/>
    <path id="Trazado_812" data-name="Trazado 812" d="M401.778,376.854l3.439-3.409a.381.381,0,0,1,.469-.047l3.3,2.124a.628.628,0,0,1,.088.986c-1.221,1.174-1.872,1.678-3.386,3.175-.927.927-3.2,3.685-4.483,4.959s-2.717.17-2.3-.469a14.428,14.428,0,0,0,2.559-6.637,1.062,1.062,0,0,1,.311-.681Z" transform="translate(-242.662 -208.904)" fill="#263238"/>
    <path id="Trazado_813" data-name="Trazado 813" d="M328.481,407.89h4.695a.37.37,0,0,1,.364.293l.851,3.832a.622.622,0,0,1-.616.763c-1.7,0-4.155-.123-6.291-.123-2.494,0-4.648.135-7.576.135-1.76,0-2.259-1.79-1.52-1.954,3.374-.734,6.126-.816,9.037-2.611A2.019,2.019,0,0,1,328.481,407.89Z" transform="translate(-209.287 -223.179)" fill="#263238"/>
    <path id="Trazado_814" data-name="Trazado 814" d="M374.783,181.426c3.738,1.76,5.281,13.826,5.281,13.826l-8.6,3.374a68.778,68.778,0,0,1-3.233-10.064C367.031,183.116,370.939,179.6,374.783,181.426Z" transform="translate(-229.927 -129.409)" fill="#a96cfe"/>
    <path id="Trazado_815" data-name="Trazado 815" d="M374.783,181.426c3.738,1.76,5.281,13.826,5.281,13.826l-8.6,3.374a68.778,68.778,0,0,1-3.233-10.064C367.031,183.116,370.939,179.6,374.783,181.426Z" transform="translate(-229.927 -129.409)" fill="#fff" opacity="0.3"/>
    <path id="Trazado_816" data-name="Trazado 816" d="M369.228,187.564a4.8,4.8,0,0,0-.915-.335,7.9,7.9,0,0,0-.035,3.932,68.352,68.352,0,0,0,3.228,10.064l2.834-1.109C373.817,196.965,372.215,189,369.228,187.564Z" transform="translate(-229.941 -132.009)" opacity="0.2"/>
    <path id="Trazado_817" data-name="Trazado 817" d="M335.579,180.668s-4.589,5.182-.258,37.264h23.062c.158-3.521-2.066-20.809,1.35-37.487a60.361,60.361,0,0,0-7.723-.974,85.253,85.253,0,0,0-9.8,0,43.133,43.133,0,0,0-6.631,1.2Z" transform="translate(-215.651 -128.745)" fill="#a96cfe"/>
    <path id="Trazado_818" data-name="Trazado 818" d="M335.579,180.668s-4.589,5.182-.258,37.264h23.062c.158-3.521-2.066-20.809,1.35-37.487a60.361,60.361,0,0,0-7.723-.974,85.253,85.253,0,0,0-9.8,0,43.133,43.133,0,0,0-6.631,1.2Z" transform="translate(-215.651 -128.745)" fill="#fff" opacity="0.3"/>
    <path id="Trazado_819" data-name="Trazado 819" d="M340.241,191.07c-1.045-3.134-3.556-4.137-6.115-2.277a73.152,73.152,0,0,0-.464,15.709l4.5-.041S341.784,195.735,340.241,191.07Z" transform="translate(-215.66 -132.269)" opacity="0.2"/>
    <path id="Trazado_820" data-name="Trazado 820" d="M327.719,190.533c-.188,1.573-.446,3-.734,4.483s-.622,2.934-1,4.4a50.38,50.38,0,0,1-3.063,8.7c-.334.722-.722,1.432-1.133,2.142-.211.358-.422.716-.663,1.068a7.416,7.416,0,0,1-1.1,1.344,7.787,7.787,0,0,1-2.817,1.672,12.7,12.7,0,0,1-2.623.616,21.666,21.666,0,0,1-4.806.059,22.557,22.557,0,0,1-2.289-.3c-.763-.135-1.485-.276-2.271-.481l.381-3.216a38.3,38.3,0,0,0,7.934-1.174,9.031,9.031,0,0,0,1.532-.61,2.2,2.2,0,0,0,.822-.651c-.047.041.381-.669.634-1.174s.534-1.174.775-1.76c.493-1.209.915-2.488,1.3-3.8s.728-2.641,1.045-3.99.587-2.711.88-4.108.5-2.782.716-4.078Z" transform="translate(-203.983 -133.017)" fill="#7f3e3b"/>
    <path id="Trazado_821" data-name="Trazado 821" d="M336.966,184.591c1.215,3.938-3.715,15.674-3.715,15.674l-10.381-2.611a48.016,48.016,0,0,1,3.186-10.792C329.4,179.539,335.5,179.844,336.966,184.591Z" transform="translate(-211.276 -129.505)" fill="#a96cfe"/>
    <path id="Trazado_822" data-name="Trazado 822" d="M336.966,184.591c1.215,3.938-3.715,15.674-3.715,15.674l-10.381-2.611a48.016,48.016,0,0,1,3.186-10.792C329.4,179.539,335.5,179.844,336.966,184.591Z" transform="translate(-211.276 -129.505)" fill="#fff" opacity="0.3"/>
    <path id="Trazado_823" data-name="Trazado 823" d="M302.682,225.983l-4.882-.123,2.347,5.076s1.983.264,3.615-2.418l1.719-2.048-1.978-.4A4.822,4.822,0,0,0,302.682,225.983Z" transform="translate(-200.917 -147.97)" fill="#7f3e3b"/>
    <path id="Trazado_824" data-name="Trazado 824" d="M292.55,226.8l2.8,4.208,2.635-.076-2.353-5.076Z" transform="translate(-198.748 -147.97)" fill="#7f3e3b"/>
    <path id="Trazado_825" data-name="Trazado 825" d="M335.05,391.73l.217,5.146h4.313l-.223-5.146Z" transform="translate(-216.308 -216.503)" opacity="0.2"/>
    <path id="Trazado_826" data-name="Trazado 826" d="M393.688,364.91,390.32,367.6l4.413,3.063,3.368-2.694Z" transform="translate(-239.144 -205.421)" opacity="0.2"/>
    <path id="Trazado_827" data-name="Trazado 827" d="M354.368,150.577c-.258,4.272-.188,6.784-2.347,8.978-3.239,3.3-8.515,1.35-9.536-2.934-.921-3.838-.34-10.176,3.838-11.883a5.833,5.833,0,0,1,8.045,5.839Z" transform="translate(-219.224 -114.27)" fill="#7f3e3b"/>
    <path id="Trazado_828" data-name="Trazado 828" d="M358.086,144.357a2.468,2.468,0,0,1,1.543,3.233c-1.062,3.9-3.562,8.38-6.79,8.662-4.02.358-5.833-3.791-6.361-8.081-2.406-1.649-4.19-3.192-3.615-4.906.88-2.641,4.073-4.918,9.155-4.331S359.629,142.808,358.086,144.357Z" transform="translate(-219.492 -112.016)" fill="#263238"/>
    <path id="Trazado_829" data-name="Trazado 829" d="M350.924,154.974a4.835,4.835,0,0,1-1.209,2.858c-.939,1.033-1.925.387-2.089-.868-.147-1.138.158-3.046,1.309-3.615S351,153.695,350.924,154.974Z" transform="translate(-221.49 -117.939)" fill="#7f3e3b"/>
    <path id="Trazado_830" data-name="Trazado 830" d="M350.307,245.11s-1.455,29.06,1.379,41.371c4.489,19.494,24.224,35.116,24.224,35.116l6.338-5.076s-16.238-12.083-17.7-28.314c-1.309-14.577.628-31.319.628-43.1Z" transform="translate(-222.458 -155.923)" fill="#a96cfe"/>
    <path id="Trazado_831" data-name="Trazado 831" d="M350.307,245.11s-1.455,29.06,1.379,41.371c4.489,19.494,24.224,35.116,24.224,35.116l6.338-5.076s-16.238-12.083-17.7-28.314c-1.309-14.577.628-31.319.628-43.1Z" transform="translate(-222.458 -155.923)" opacity="0.2"/>
    <path id="Trazado_832" data-name="Trazado 832" d="M352.479,259.624c-.587-1.133-1.731,2.242-2.529,6.572,0,5.974.106,12.769.628,18.526C354.562,277.358,353.717,261.972,352.479,259.624Z" transform="translate(-222.464 -161.829)" opacity="0.2"/>
    <path id="Trazado_833" data-name="Trazado 833" d="M389.3,369.056l2.406,1.866,7.318-5.933L396.829,363Z" transform="translate(-238.723 -204.632)" fill="#2c6bdb"/>
    <path id="Trazado_834" data-name="Trazado 834" d="M389.3,369.056l2.406,1.866,7.318-5.933L396.829,363Z" transform="translate(-238.723 -204.632)" fill="#fafafa" opacity="0.4"/>
    <path id="Trazado_835" data-name="Trazado 835" d="M331.713,245.11s-6.49,27.522-6.948,40.667c-.511,14.747,4.63,49.522,4.63,49.522H336.7s.9-35.045,1.226-48.478c.352-14.641,8.943-41.712,8.943-41.712Z" transform="translate(-212.044 -155.923)" fill="#a96cfe"/>
    <path id="Trazado_836" data-name="Trazado 836" d="M331.713,245.11s-6.49,27.522-6.948,40.667c-.511,14.747,4.63,49.522,4.63,49.522H336.7s.9-35.045,1.226-48.478c.352-14.641,8.943-41.712,8.943-41.712Z" transform="translate(-212.044 -155.923)" opacity="0.2"/>
    <path id="Trazado_837" data-name="Trazado 837" d="M330.289,393.84c-.035,0,.411,3.034.411,3.034h8.885l.241-2.705Z" transform="translate(-214.34 -217.374)" fill="#2c6bdb"/>
    <path id="Trazado_838" data-name="Trazado 838" d="M330.289,393.84c-.035,0,.411,3.034.411,3.034h8.885l.241-2.705Z" transform="translate(-214.34 -217.374)" fill="#fafafa" opacity="0.4"/>
  </g>
</svg>
