<svg id="Windows-pana" xmlns="http://www.w3.org/2000/svg" width="367" height="304.636" viewBox="0 0 367 304.636">
  <g id="freepik--background-complete--inject-37" transform="translate(0 38.049)">
    <path id="Trazado_409" data-name="Trazado 409" d="M134.221,410.254c13.276-9.811,15.789-27.287,14.745-42.884-.175-2.605,0-5.369-1.3-7.607s-4.317-3.716-6.68-2.5c-1.929.977-2.714,3.256-3.749,5.152a15.363,15.363,0,0,1-6,6.045c-1.67.918-3.724,1.52-5.411.668-2.321-1.169-2.689-4.267-2.755-6.855l-.376-14.5a24.144,24.144,0,0,0-1.044-7.673,8.092,8.092,0,0,0-5.3-5.269c-2.522-.61-5.561.918-6.012,3.473a23.21,23.21,0,0,0,0,3.231,2.674,2.674,0,0,1-1.536,2.622c-1.027.334-2.112-.367-2.922-1.094-2.8-2.5-4.743-5.845-6.571-9.143s-3.615-6.68-6.162-9.443-6.037-4.926-9.8-5.01-7.7,2.338-8.533,6.012,1.444,7.323,3.891,10.2a58.364,58.364,0,0,0,12.583,11.088,4.751,4.751,0,0,1,2.112,2.1c.751,1.678-.918,3.448-2.588,4.075-1.937.71-4.066.576-6.1.885s-4.233,1.269-4.951,3.206c-.985,2.689,1.353,5.386,3.615,7.131a50.491,50.491,0,0,0,15.146,7.982,17.114,17.114,0,0,1,5.611,2.463c1.6,1.286,2.613,3.59,1.737,5.452s-3.281,2.5-5.319,2.213-3.883-1.328-5.845-1.979c-3.649-1.227-8.35-.835-10.521,2.33a8.149,8.149,0,0,0-.651,7.289,19.012,19.012,0,0,0,4.175,6.271,50.482,50.482,0,0,0,22.06,14.244c8.467,2.588,16.248,3.114,24.473-.167" transform="translate(-39.795 -175.838)" fill="#ebebeb"/>
    <path id="Trazado_410" data-name="Trazado 410" d="M79.35,322.21l.259.234.835.66c.71.576,1.753,1.428,3.064,2.555a96.31,96.31,0,0,1,10.4,10.354c2.037,2.33,4.175,5.01,6.387,7.874s4.567,6,6.913,9.36a115.306,115.306,0,0,1,6.847,10.855c1.077,1.945,2.054,3.991,3.039,6.079l3,6.337a234.63,234.63,0,0,1,10.17,24.648,114.959,114.959,0,0,1,5.068,21.133,83.925,83.925,0,0,1,.7,14.645c-.084,1.728-.175,3.073-.276,3.983a8.44,8.44,0,0,1-.092,1.035,1.175,1.175,0,0,0,0,.351s.326-1.9.534-5.36a79.93,79.93,0,0,0-.584-14.687,112.427,112.427,0,0,0-5.01-21.216,231.728,231.728,0,0,0-10.153-24.7c-1.019-2.138-2.012-4.25-3.006-6.337s-1.962-4.175-3.048-6.1a116.562,116.562,0,0,0-6.947-10.88c-2.363-3.34-4.726-6.463-6.964-9.352s-4.375-5.527-6.429-7.857a92.3,92.3,0,0,0-10.47-10.287c-1.328-1.111-2.388-1.945-3.114-2.5l-.835-.635Z" transform="translate(-40.574 -176.292)" fill="#e0e0e0"/>
    <path id="Trazado_411" data-name="Trazado 411" d="M121.168,366.476a7.513,7.513,0,0,0,.2-1.119c.109-.726.234-1.77.376-3.073.276-2.588.543-6.187.835-10.153s.61-7.515.952-10.128c.159-1.294.309-2.338.417-3.056a6.112,6.112,0,0,0,.125-1.127,6.029,6.029,0,0,0-.276,1.1c-.159.71-.342,1.753-.543,3.039-.409,2.58-.785,6.17-1.069,10.145s-.534,7.515-.718,10.153c-.1,1.244-.184,2.279-.25,3.081a5.56,5.56,0,0,0-.05,1.135Z" transform="translate(-47.474 -178.868)" fill="#e0e0e0"/>
    <path id="Trazado_412" data-name="Trazado 412" d="M80.47,365.986a1.026,1.026,0,0,0,.351.05l1,.05c.835.042,2.129.1,3.682.217,3.106.225,7.389.676,12.082,1.394s8.917,1.561,11.957,2.254c1.52.342,2.739.643,3.582.835l.977.242a1.5,1.5,0,0,0,.351.058,1.136,1.136,0,0,0-.326-.134l-.96-.309c-.835-.259-2.046-.6-3.565-.977-3.023-.768-7.247-1.67-11.957-2.38s-9-1.127-12.124-1.277c-1.553-.083-2.822-.1-3.691-.092h-1.01a1.5,1.5,0,0,0-.351.067Z" transform="translate(-40.759 -183.505)" fill="#e0e0e0"/>
    <path id="Trazado_413" data-name="Trazado 413" d="M140.23,407.393a3,3,0,0,0,.209-.417c.134-.326.317-.726.534-1.227.451-1.069,1.077-2.63,1.829-4.567,1.495-3.874,3.4-9.293,5.427-15.3s3.883-11.422,5.31-15.322c.71-1.912,1.294-3.473,1.712-4.609.192-.509.342-.927.459-1.252a2.179,2.179,0,0,0,.142-.451,2.162,2.162,0,0,0-.209.417l-.534,1.227c-.459,1.069-1.077,2.63-1.829,4.567-1.495,3.874-3.4,9.293-5.427,15.3s-3.883,11.422-5.31,15.322c-.71,1.912-1.294,3.473-1.712,4.609-.192.509-.342.927-.468,1.252A1.8,1.8,0,0,0,140.23,407.393Z" transform="translate(-50.622 -183.23)" fill="#e0e0e0"/>
    <path id="Trazado_414" data-name="Trazado 414" d="M85.92,400.6a2.759,2.759,0,0,0,.451.159l1.319.376,4.868,1.369c4.1,1.152,9.744,2.822,15.981,4.676s11.9,3.49,16.023,4.576c2.062.543,3.732.969,4.893,1.244l1.336.309a2.718,2.718,0,0,0,.476.084,2.012,2.012,0,0,0-.459-.159l-1.319-.384-4.859-1.361c-4.1-1.161-9.744-2.822-15.981-4.684s-11.9-3.482-15.981-4.567c-2.062-.551-3.732-.977-4.893-1.244l-1.336-.309a1.979,1.979,0,0,0-.518-.084Z" transform="translate(-41.659 -189.229)" fill="#e0e0e0"/>
    <rect id="Rectángulo_609" data-name="Rectángulo 609" width="132.734" height="88.899" transform="translate(0 2.647)" fill="#ebebeb"/>
    <rect id="Rectángulo_610" data-name="Rectángulo 610" width="132.734" height="8.884" transform="translate(0 2.647)" fill="#e0e0e0"/>
    <path id="Trazado_415" data-name="Trazado 415" d="M39.375,155.743a1.077,1.077,0,1,1-1.077-.994,1.035,1.035,0,0,1,1.077.994Z" transform="translate(-33.622 -148.655)" fill="#fafafa"/>
    <path id="Trazado_416" data-name="Trazado 416" d="M43.575,155.743a1.077,1.077,0,1,1-1.077-.994,1.035,1.035,0,0,1,1.077.994Z" transform="translate(-34.315 -148.655)" fill="#fafafa"/>
    <path id="Trazado_417" data-name="Trazado 417" d="M47.665,155.743a1.077,1.077,0,1,1-1.069-.994,1.027,1.027,0,0,1,1.069.994Z" transform="translate(-34.99 -148.655)" fill="#fafafa"/>
    <rect id="Rectángulo_611" data-name="Rectángulo 611" width="132.734" height="88.899" transform="translate(234.024)" fill="#ebebeb"/>
    <rect id="Rectángulo_612" data-name="Rectángulo 612" width="132.734" height="8.884" transform="translate(234.024)" fill="#e0e0e0"/>
    <path id="Trazado_418" data-name="Trazado 418" d="M319.646,152.576a1.077,1.077,0,1,1-1.073-.982A1.077,1.077,0,0,1,319.646,152.576Z" transform="translate(-79.878 -148.134)" fill="#fafafa"/>
    <path id="Trazado_419" data-name="Trazado 419" d="M323.795,152.572a1.077,1.077,0,1,1-1.077-1,1.035,1.035,0,0,1,1.077,1Z" transform="translate(-80.562 -148.13)" fill="#fafafa"/>
    <path id="Trazado_420" data-name="Trazado 420" d="M327.945,152.572a1.077,1.077,0,1,1-1.077-1,1.035,1.035,0,0,1,1.077,1Z" transform="translate(-81.246 -148.13)" fill="#fafafa"/>
  </g>
  <g id="freepik--Windows--inject-37" transform="translate(26.919 0)">
    <rect id="Rectángulo_613" data-name="Rectángulo 613" width="169.364" height="113.43" transform="translate(0 19.872)" fill="#fff"/>
    <rect id="Rectángulo_614" data-name="Rectángulo 614" width="169.364" height="11.33" transform="translate(0.167 19.062)" fill="#ebebeb"/>
    <path id="Trazado_421" data-name="Trazado 421" d="M75.539,130.277A1.369,1.369,0,1,1,74.17,129,1.328,1.328,0,0,1,75.539,130.277Z" transform="translate(-66.413 -106.356)" fill="#fafafa"/>
    <path id="Trazado_422" data-name="Trazado 422" d="M80.829,130.277A1.369,1.369,0,1,1,79.46,129,1.328,1.328,0,0,1,80.829,130.277Z" transform="translate(-67.286 -106.356)" fill="#fafafa"/>
    <path id="Trazado_423" data-name="Trazado 423" d="M86.119,130.277A1.369,1.369,0,1,1,84.733,129a1.319,1.319,0,0,1,1.386,1.277Z" transform="translate(-68.159 -106.355)" fill="#fafafa"/>
    <path id="Trazado_424" data-name="Trazado 424" d="M234.689,238.081V230.04c0-5.244,0-12.95-.05-22.811,0-19.705-.058-48.035-.1-82.586l.192.192-169.389.05h0l.242-.242V238.081l-.217-.225,122.03.109,34.851.058h.15l-34.8.058-122.18.109H65.2V124.3H235v.192c-.042,34.6-.083,62.973-.109,82.711,0,9.836,0,17.534-.042,22.761v5.945A12.587,12.587,0,0,1,234.689,238.081Z" transform="translate(-65.158 -105.58)" fill="#263238"/>
    <rect id="Rectángulo_615" data-name="Rectángulo 615" width="38.509" height="2.58" transform="translate(11.197 82.369)" fill="#a96cfe"/>
    <rect id="Rectángulo_616" data-name="Rectángulo 616" width="38.509" height="2.58" transform="translate(60.936 46.608)" fill="#a96cfe"/>
    <path id="Trazado_425" data-name="Trazado 425" d="M233.909,169.142c0,.134-21.442.242-47.885.242s-47.894-.109-47.894-.242,21.434-.242,47.894-.242S233.909,168.983,233.909,169.142Z" transform="translate(-77.194 -112.941)" fill="#263238"/>
    <path id="Trazado_426" data-name="Trazado 426" d="M233.909,175.882c0,.125-21.442.234-47.885.234s-47.894-.109-47.894-.234,21.434-.242,47.894-.242S233.909,175.749,233.909,175.882Z" transform="translate(-77.194 -114.053)" fill="#263238"/>
    <path id="Trazado_427" data-name="Trazado 427" d="M233.909,182.612c0,.134-21.442.242-47.885.242s-47.894-.109-47.894-.242,21.434-.242,47.894-.242S233.909,182.479,233.909,182.612Z" transform="translate(-77.194 -115.164)" fill="#263238"/>
    <path id="Trazado_428" data-name="Trazado 428" d="M233.909,189.352c0,.134-21.442.242-47.885.242s-47.894-.109-47.894-.242,21.434-.242,47.894-.242S233.909,189.219,233.909,189.352Z" transform="translate(-77.194 -116.276)" fill="#263238"/>
    <path id="Trazado_429" data-name="Trazado 429" d="M233.909,196.092c0,.134-21.442.234-47.885.234s-47.894-.1-47.894-.234,21.434-.242,47.894-.242S233.909,195.975,233.909,196.092Z" transform="translate(-77.194 -117.388)" fill="#263238"/>
    <path id="Trazado_430" data-name="Trazado 430" d="M175.52,202.824c0,.134-8.35.242-18.695.242s-18.695-.109-18.695-.242,8.35-.234,18.695-.234S175.52,202.69,175.52,202.824Z" transform="translate(-77.194 -118.501)" fill="#263238"/>
    <path id="Trazado_431" data-name="Trazado 431" d="M239.556,215.952c0,.134-14.094.242-31.478.242s-31.478-.109-31.478-.242,14.094-.242,31.478-.242S239.556,215.777,239.556,215.952Z" transform="translate(-83.543 -120.666)" fill="#263238"/>
    <path id="Trazado_432" data-name="Trazado 432" d="M239.556,223.052c0,.134-14.094.242-31.478.242s-31.478-.109-31.478-.242,14.094-.242,31.478-.242S239.556,222.919,239.556,223.052Z" transform="translate(-83.543 -121.838)" fill="#263238"/>
    <path id="Trazado_433" data-name="Trazado 433" d="M239.556,230.2c0,.134-14.094.242-31.478.242s-31.478-.109-31.478-.242,14.094-.242,31.478-.242S239.556,230.069,239.556,230.2Z" transform="translate(-83.543 -123.018)" fill="#263238"/>
    <path id="Trazado_434" data-name="Trazado 434" d="M239.556,237.352c0,.134-14.094.242-31.478.242s-31.478-.109-31.478-.242,14.094-.242,31.478-.242S239.556,237.219,239.556,237.352Z" transform="translate(-83.543 -124.198)" fill="#263238"/>
    <path id="Trazado_435" data-name="Trazado 435" d="M117.373,215.214c0,.134-8.4.242-18.762.242s-18.762-.109-18.762-.242,8.4-.234,18.762-.234S117.373,215.08,117.373,215.214Z" transform="translate(-67.576 -120.546)" fill="#263238"/>
    <path id="Trazado_436" data-name="Trazado 436" d="M117.373,220.832c0,.134-8.4.242-18.762.242s-18.762-.109-18.762-.242,8.4-.242,18.762-.242S117.373,220.7,117.373,220.832Z" transform="translate(-67.576 -121.471)" fill="#263238"/>
    <path id="Trazado_437" data-name="Trazado 437" d="M117.373,226.452c0,.125-8.4.234-18.762.234s-18.762-.109-18.762-.234,8.4-.242,18.762-.242S117.373,226.319,117.373,226.452Z" transform="translate(-67.576 -122.399)" fill="#263238"/>
    <path id="Trazado_438" data-name="Trazado 438" d="M117.373,232.062c0,.134-8.4.242-18.762.242s-18.762-.109-18.762-.242,8.4-.242,18.762-.242S117.373,231.97,117.373,232.062Z" transform="translate(-67.576 -123.325)" fill="#263238"/>
    <path id="Trazado_439" data-name="Trazado 439" d="M117.373,237.682c0,.134-8.4.242-18.762.242s-18.762-.109-18.762-.242,8.4-.242,18.762-.242S117.373,237.549,117.373,237.682Z" transform="translate(-67.576 -124.252)" fill="#263238"/>
    <rect id="Rectángulo_617" data-name="Rectángulo 617" width="27.32" height="26.435" transform="translate(60.911 92.397)" fill="#a96cfe"/>
    <g id="Grupo_53" data-name="Grupo 53" transform="translate(63.031 102.959)" opacity="0.3">
      <path id="Trazado_440" data-name="Trazado 440" d="M140.64,238.792l7.556-13.6,6.179,8.7,3.757-4.617,5.586,9.519Z" transform="translate(-140.64 -225.19)"/>
    </g>
    <g id="Grupo_54" data-name="Grupo 54" transform="translate(75.464 98.325)" opacity="0.3">
      <path id="Trazado_441" data-name="Trazado 441" d="M159.471,221.611a1.971,1.971,0,1,1-1.971-1.971A1.971,1.971,0,0,1,159.471,221.611Z" transform="translate(-155.53 -219.64)"/>
    </g>
    <path id="Trazado_442" data-name="Trazado 442" d="M163.71,237.16v-6.1c0-3.858,0-9.36-.058-15.956l.109.109H140.682l.125-.125h0v22.035l-.109-.109,16.7.058h.067l-16.758.058h-.117V214.984h0l.134-.134h23.2v.117c0,6.63,0,12.149-.058,16.031v5.928C163.718,237.135,163.718,237.16,163.71,237.16Z" transform="translate(-77.6 -120.524)" opacity="0.3"/>
    <rect id="Rectángulo_618" data-name="Rectángulo 618" width="38.609" height="37.348" transform="translate(9.627 39.235)" fill="#a96cfe"/>
    <g id="Grupo_55" data-name="Grupo 55" transform="translate(12.616 54.172)" opacity="0.3">
      <path id="Trazado_443" data-name="Trazado 443" d="M80.26,185.981,90.939,166.76l8.742,12.282,5.3-6.521,7.9,13.46Z" transform="translate(-80.26 -166.76)"/>
    </g>
    <g id="Grupo_56" data-name="Grupo 56" transform="translate(30.192 47.651)" opacity="0.3">
      <circle id="Elipse_99" data-name="Elipse 99" cx="2.78" cy="2.78" r="2.78"/>
    </g>
    <path id="Trazado_444" data-name="Trazado 444" d="M112.853,183.692a1.179,1.179,0,0,1,0-.15v-2.1c0-1.478,0-3.624-.042-6.346,0-5.452-.05-13.217-.083-22.544l.159.15H80.273a2.028,2.028,0,0,1,.175-.184h0v31.152l-.159-.159,23.588.084,6.68.042h.033l-6.621.042-23.688.083h-.159V152.473h0c-.159.167.225-.225.192-.184h32.772v.159c0,9.368-.058,17.167-.083,22.653v8.391a.768.768,0,0,1-.15.2Z" transform="translate(-67.615 -110.199)" opacity="0.3"/>
    <rect id="Rectángulo_619" data-name="Rectángulo 619" width="164.004" height="109.839" transform="translate(149.517 25.291)" fill="#fff"/>
    <rect id="Rectángulo_620" data-name="Rectángulo 620" width="164.004" height="10.971" transform="translate(149.676 24.515)" fill="#ebebeb"/>
    <path id="Trazado_445" data-name="Trazado 445" d="M254.276,136.636a1.328,1.328,0,1,1-1.328-1.236,1.278,1.278,0,0,1,1.328,1.236Z" transform="translate(-95.925 -107.412)" fill="#fafafa"/>
    <path id="Trazado_446" data-name="Trazado 446" d="M259.406,136.636a1.328,1.328,0,1,1-1.328-1.236,1.286,1.286,0,0,1,1.328,1.236Z" transform="translate(-96.772 -107.412)" fill="#fafafa"/>
    <path id="Trazado_447" data-name="Trazado 447" d="M264.526,136.636A1.328,1.328,0,1,1,263.2,135.4a1.278,1.278,0,0,1,1.328,1.236Z" transform="translate(-97.617 -107.412)" fill="#fafafa"/>
    <path id="Trazado_448" data-name="Trazado 448" d="M408.385,241.048v-7.79c0-5.077,0-12.524-.05-22.085,0-19.087-.058-46.524-.1-79.973l.192.192-163.987.05h0l.242-.242V241.048l-.225-.225,118.172.109,33.749.058h.1l-33.707.058-118.314.109h-.217V131h.25l163.987.05h.192v.192c-.042,33.5-.075,60.952-.1,80.09,0,9.535,0,16.975-.05,22.043v5.761A9.92,9.92,0,0,1,408.385,241.048Z" transform="translate(-94.706 -106.686)" fill="#263238"/>
    <rect id="Rectángulo_621" data-name="Rectángulo 621" width="37.289" height="2.497" transform="translate(160.355 85.818)" fill="#a96cfe"/>
    <rect id="Rectángulo_622" data-name="Rectángulo 622" width="37.289" height="2.497" transform="translate(208.524 51.183)" fill="#a96cfe"/>
    <path id="Trazado_449" data-name="Trazado 449" d="M407.668,174.262c0,.134-20.766.242-46.374.242s-46.374-.109-46.374-.242,20.757-.242,46.374-.242S407.668,174.129,407.668,174.262Z" transform="translate(-106.371 -113.786)" fill="#263238"/>
    <path id="Trazado_450" data-name="Trazado 450" d="M407.668,180.784c0,.134-20.766.242-46.374.242s-46.374-.109-46.374-.242,20.757-.234,46.374-.234S407.668,180.65,407.668,180.784Z" transform="translate(-106.371 -114.863)" fill="#263238"/>
    <path id="Trazado_451" data-name="Trazado 451" d="M407.668,187.312c0,.134-20.766.234-46.374.234s-46.374-.1-46.374-.234,20.757-.242,46.374-.242S407.668,187.179,407.668,187.312Z" transform="translate(-106.371 -115.939)" fill="#263238"/>
    <path id="Trazado_452" data-name="Trazado 452" d="M407.668,193.832c0,.134-20.766.242-46.374.242s-46.374-.109-46.374-.242,20.757-.242,46.374-.242S407.668,193.7,407.668,193.832Z" transform="translate(-106.371 -117.016)" fill="#263238"/>
    <path id="Trazado_453" data-name="Trazado 453" d="M407.668,200.354c0,.134-20.766.242-46.374.242s-46.374-.109-46.374-.242,20.757-.234,46.374-.234S407.668,200.229,407.668,200.354Z" transform="translate(-106.371 -118.093)" fill="#263238"/>
    <path id="Trazado_454" data-name="Trazado 454" d="M351.094,206.882c0,.134-8.107.242-18.1.242s-18.1-.109-18.1-.242,8.1-.242,18.1-.242S351.094,206.749,351.094,206.882Z" transform="translate(-106.366 -119.169)" fill="#263238"/>
    <path id="Trazado_455" data-name="Trazado 455" d="M413.111,219.542c0,.134-13.643.242-30.476.242s-30.485-.109-30.485-.242,13.643-.242,30.485-.242S413.111,219.409,413.111,219.542Z" transform="translate(-112.515 -121.259)" fill="#263238"/>
    <path id="Trazado_456" data-name="Trazado 456" d="M413.111,226.464c0,.134-13.643.242-30.476.242s-30.485-.109-30.485-.242,13.643-.234,30.485-.234S413.111,226.339,413.111,226.464Z" transform="translate(-112.515 -122.402)" fill="#263238"/>
    <path id="Trazado_457" data-name="Trazado 457" d="M413.111,233.392c0,.134-13.643.242-30.476.242s-30.485-.109-30.485-.242,13.643-.242,30.485-.242S413.111,233.259,413.111,233.392Z" transform="translate(-112.515 -123.544)" fill="#263238"/>
    <path id="Trazado_458" data-name="Trazado 458" d="M413.111,240.314c0,.134-13.643.242-30.476.242s-30.485-.109-30.485-.242,13.643-.234,30.485-.234S413.111,240.18,413.111,240.314Z" transform="translate(-112.515 -124.688)" fill="#263238"/>
    <path id="Trazado_459" data-name="Trazado 459" d="M294.816,218.882c0,.134-8.141.234-18.169.234s-18.177-.1-18.177-.234,8.133-.242,18.177-.242S294.816,218.749,294.816,218.882Z" transform="translate(-97.055 -121.15)" fill="#263238"/>
    <path id="Trazado_460" data-name="Trazado 460" d="M294.816,224.314c0,.134-8.141.242-18.169.242s-18.177-.109-18.177-.242,8.133-.234,18.177-.234S294.816,224.189,294.816,224.314Z" transform="translate(-97.055 -122.047)" fill="#263238"/>
    <path id="Trazado_461" data-name="Trazado 461" d="M294.816,229.754c0,.134-8.141.242-18.169.242s-18.177-.109-18.177-.242,8.133-.234,18.177-.234S294.816,229.62,294.816,229.754Z" transform="translate(-97.055 -122.945)" fill="#263238"/>
    <path id="Trazado_462" data-name="Trazado 462" d="M294.816,235.192c0,.134-8.141.242-18.169.242s-18.177-.109-18.177-.242,8.133-.242,18.177-.242S294.816,235.059,294.816,235.192Z" transform="translate(-97.055 -123.841)" fill="#263238"/>
    <path id="Trazado_463" data-name="Trazado 463" d="M294.816,240.632c0,.134-8.141.242-18.169.242s-18.177-.109-18.177-.242,8.133-.242,18.177-.242S294.816,240.5,294.816,240.632Z" transform="translate(-97.055 -124.739)" fill="#263238"/>
    <rect id="Rectángulo_623" data-name="Rectángulo 623" width="26.46" height="25.6" transform="translate(208.499 95.52)" fill="#a96cfe"/>
    <g id="Grupo_57" data-name="Grupo 57" transform="translate(210.553 105.756)" opacity="0.3">
      <path id="Trazado_464" data-name="Trazado 464" d="M317.32,241.716l7.314-13.176,5.987,8.425,3.64-4.475,5.411,9.226Z" transform="translate(-317.32 -228.54)"/>
    </g>
    <g id="Grupo_58" data-name="Grupo 58" transform="translate(222.601 101.289)" opacity="0.3">
      <path id="Trazado_465" data-name="Trazado 465" d="M335.557,225.094a1.9,1.9,0,1,1-1.9-1.9,1.9,1.9,0,0,1,1.9,1.9Z" transform="translate(-331.75 -223.19)"/>
    </g>
    <path id="Trazado_466" data-name="Trazado 466" d="M339.658,240.153a.907.907,0,0,0,0-.1v-5.8c0-3.732,0-9.059-.058-15.455l.109.109H317.356s.234-.234.125-.117h0v21.35l-.109-.109,16.165.058h.067l-16.232.05h-.109V218.8h0c-.117.109.15-.159.125-.134H339.85v.109c0,6.421-.042,11.773-.058,15.53v5.736a.267.267,0,0,1-.134.109Z" transform="translate(-106.753 -121.154)" opacity="0.3"/>
    <rect id="Rectángulo_624" data-name="Rectángulo 624" width="215.671" height="144.449" transform="translate(57.796 1.269)" fill="#fff"/>
    <rect id="Rectángulo_625" data-name="Rectángulo 625" width="215.671" height="14.428" transform="translate(58.005 0.242)" fill="#e0e0e0"/>
    <path id="Trazado_467" data-name="Trazado 467" d="M147.591,109.26a1.745,1.745,0,1,1-1.737-1.62,1.67,1.67,0,0,1,1.737,1.62Z" transform="translate(-78.181 -102.83)" fill="#fafafa"/>
    <path id="Trazado_468" data-name="Trazado 468" d="M154.311,109.259a1.745,1.745,0,1,1-1.745-1.62,1.67,1.67,0,0,1,1.745,1.62Z" transform="translate(-79.29 -102.83)" fill="#fafafa"/>
    <path id="Trazado_469" data-name="Trazado 469" d="M161.068,109.259a1.753,1.753,0,1,1-1.745-1.62,1.67,1.67,0,0,1,1.745,1.62Z" transform="translate(-80.402 -102.83)" fill="#fafafa"/>
    <path id="Trazado_470" data-name="Trazado 470" d="M350.255,246.571c0-1.57-.075-56.46-.192-144.449l.192.192-215.654.05h0l.242-.242V246.571l-.225-.217,215.671.217-215.671.217H134.4V101.88h.251l215.654.05h.192v.192C350.322,190.111,350.263,245,350.255,246.571Z" transform="translate(-76.579 -101.88)" fill="#263238"/>
    <rect id="Rectángulo_626" data-name="Rectángulo 626" width="49.037" height="3.281" transform="translate(72.049 80.858)" fill="#a96cfe"/>
    <rect id="Rectángulo_627" data-name="Rectángulo 627" width="49.037" height="3.281" transform="translate(135.389 35.311)" fill="#a96cfe"/>
    <path id="Trazado_471" data-name="Trazado 471" d="M349.276,158.762c0,.125-27.3.234-60.952.234s-60.994-.109-60.994-.234,27.3-.242,60.994-.242S349.276,158.629,349.276,158.762Z" transform="translate(-91.916 -111.228)" fill="#263238"/>
    <path id="Trazado_472" data-name="Trazado 472" d="M349.276,167.334c0,.134-27.3.242-60.952.242s-60.994-.109-60.994-.242,27.3-.234,60.994-.234S349.276,167.209,349.276,167.334Z" transform="translate(-91.916 -112.644)" fill="#263238"/>
    <path id="Trazado_473" data-name="Trazado 473" d="M349.276,175.954c0,.134-27.3.242-60.952.242s-60.994-.109-60.994-.242,27.3-.234,60.994-.234S349.276,175.787,349.276,175.954Z" transform="translate(-91.916 -114.066)" fill="#263238"/>
    <path id="Trazado_474" data-name="Trazado 474" d="M349.276,184.494c0,.134-27.3.242-60.952.242s-60.994-.109-60.994-.242,27.3-.234,60.994-.234S349.276,184.36,349.276,184.494Z" transform="translate(-91.916 -115.476)" fill="#263238"/>
    <path id="Trazado_475" data-name="Trazado 475" d="M349.276,193.072c0,.134-27.3.242-60.952.242s-60.994-.109-60.994-.242,27.3-.242,60.994-.242S349.276,192.972,349.276,193.072Z" transform="translate(-91.916 -116.89)" fill="#263238"/>
    <path id="Trazado_476" data-name="Trazado 476" d="M274.91,201.652c0,.134-10.654.242-23.8.242s-23.8-.109-23.8-.242,10.654-.242,23.8-.242S274.91,201.519,274.91,201.652Z" transform="translate(-91.911 -118.306)" fill="#263238"/>
    <path id="Trazado_477" data-name="Trazado 477" d="M356.466,218.3c0,.134-17.943.242-40.078.242s-40.078-.109-40.078-.242,17.943-.242,40.078-.242S356.466,218.169,356.466,218.3Z" transform="translate(-99.999 -121.054)" fill="#263238"/>
    <path id="Trazado_478" data-name="Trazado 478" d="M356.466,227.412c0,.134-17.943.242-40.078.242s-40.078-.109-40.078-.242,17.943-.242,40.078-.242S356.466,227.279,356.466,227.412Z" transform="translate(-99.999 -122.557)" fill="#263238"/>
    <path id="Trazado_479" data-name="Trazado 479" d="M356.466,236.514c0,.134-17.943.242-40.078.242s-40.078-.109-40.078-.242,17.943-.234,40.078-.234S356.466,236.389,356.466,236.514Z" transform="translate(-99.999 -124.061)" fill="#263238"/>
    <path id="Trazado_480" data-name="Trazado 480" d="M356.466,245.622c0,.134-17.943.242-40.078.242s-40.078-.109-40.078-.242,17.943-.242,40.078-.242S356.466,245.489,356.466,245.622Z" transform="translate(-99.999 -125.563)" fill="#263238"/>
    <path id="Trazado_481" data-name="Trazado 481" d="M200.873,217.432c0,.134-10.7.242-23.9.242s-23.9-.109-23.9-.242,10.7-.242,23.9-.242S200.873,217.3,200.873,217.432Z" transform="translate(-79.662 -120.91)" fill="#263238"/>
    <path id="Trazado_482" data-name="Trazado 482" d="M200.873,224.582c0,.134-10.7.242-23.9.242s-23.9-.109-23.9-.242,10.7-.242,23.9-.242S200.873,224.449,200.873,224.582Z" transform="translate(-79.662 -122.09)" fill="#263238"/>
    <path id="Trazado_483" data-name="Trazado 483" d="M200.873,231.734c0,.134-10.7.242-23.9.242s-23.9-.109-23.9-.242,10.7-.234,23.9-.234S200.873,231.6,200.873,231.734Z" transform="translate(-79.662 -123.272)" fill="#263238"/>
    <path id="Trazado_484" data-name="Trazado 484" d="M200.873,238.884c0,.134-10.7.242-23.9.242s-23.9-.109-23.9-.242,10.7-.234,23.9-.234S200.873,238.759,200.873,238.884Z" transform="translate(-79.662 -124.452)" fill="#263238"/>
    <path id="Trazado_485" data-name="Trazado 485" d="M200.873,246.042c0,.134-10.7.234-23.9.234s-23.9-.1-23.9-.234,10.7-.242,23.9-.242S200.873,245.909,200.873,246.042Z" transform="translate(-79.662 -125.632)" fill="#263238"/>
    <rect id="Rectángulo_628" data-name="Rectángulo 628" width="34.793" height="33.657" transform="translate(135.356 93.624)" fill="#a96cfe"/>
    <g id="Grupo_59" data-name="Grupo 59" transform="translate(138.061 107.076)" opacity="0.3">
      <path id="Trazado_486" data-name="Trazado 486" d="M230.5,247.445l9.619-17.326,7.874,11.072,4.784-5.878,7.114,12.132Z" transform="translate(-230.5 -230.12)"/>
    </g>
    <g id="Grupo_60" data-name="Grupo 60" transform="translate(153.9 101.206)" opacity="0.3">
      <path id="Trazado_487" data-name="Trazado 487" d="M254.48,225.595a2.5,2.5,0,1,1-2.5-2.5A2.5,2.5,0,0,1,254.48,225.595Z" transform="translate(-249.47 -223.09)"/>
    </g>
    <path id="Trazado_488" data-name="Trazado 488" d="M259.87,245.414v-7.757c0-4.918-.042-11.923-.075-20.331l.142.142H230.546l.159-.159h0v28.071l-.142-.142,21.25.075h.092l-21.342.075h-.15V217.326h0c-.15.142.2-.209.167-.167h29.533v.142c0,8.45-.05,15.48-.067,20.415,0,2.438,0,4.359-.042,5.686v1.87C260,245.373,259.878,245.414,259.87,245.414Z" transform="translate(-92.418 -120.905)" opacity="0.3"/>
    <rect id="Rectángulo_629" data-name="Rectángulo 629" width="49.163" height="47.568" transform="translate(70.053 25.926)" fill="#a96cfe"/>
    <g id="Grupo_61" data-name="Grupo 61" transform="translate(73.861 44.946)" opacity="0.3">
      <path id="Trazado_489" data-name="Trazado 489" d="M153.61,180.183l13.6-24.473,11.122,15.639,6.763-8.308,10.053,17.142Z" transform="translate(-153.61 -155.71)"/>
    </g>
    <g id="Grupo_62" data-name="Grupo 62" transform="translate(96.246 36.638)" opacity="0.3">
      <path id="Trazado_490" data-name="Trazado 490" d="M187.5,149.3a3.532,3.532,0,1,1-1.034-2.506A3.54,3.54,0,0,1,187.5,149.3Z" transform="translate(-180.42 -145.76)"/>
    </g>
    <path id="Trazado_491" data-name="Trazado 491" d="M195.113,177.291a1.73,1.73,0,0,1,0-.192v-2.7c0-1.887,0-4.617-.05-8.082,0-6.947-.067-16.833-.109-28.714l.2.2H153.623l.225-.225h0v39.669l-.209-.2,30.059.1,8.475.05h.058l-8.425.05-30.167.1h-.2V137.621h0c-.209.2.284-.292.242-.242h41.731v.2c0,11.932-.075,21.868-.1,28.848,0,3.44,0,6.154-.05,8.032v2.63A.71.71,0,0,1,195.113,177.291Z" transform="translate(-79.712 -107.738)" opacity="0.3"/>
  </g>
  <g id="freepik--Floor--inject-37" transform="translate(4.626 304.127)">
    <path id="Trazado_492" data-name="Trazado 492" d="M400.824,466.379c0,.142-81.133.25-181.187.25s-181.187-.109-181.187-.25,81.108-.259,181.187-.259S400.824,466.237,400.824,466.379Z" transform="translate(-38.45 -466.12)" fill="#263238"/>
  </g>
  <g id="freepik--Character--inject-37" transform="translate(100.411 43.455)">
    <path id="Trazado_493" data-name="Trazado 493" d="M258.649,457.586l-2.129,7.089,15.163-.175.676-7.59Z" transform="translate(-170.224 -203.928)" fill="#a96cfe"/>
    <path id="Trazado_494" data-name="Trazado 494" d="M272.029,464.2a10.355,10.355,0,0,1-2.2.175H264.49l-5.319-.167a11.09,11.09,0,0,1-2.171-.242,10.084,10.084,0,0,1,2.2-.167h5.335l5.319.167a10.783,10.783,0,0,1,2.171.234Z" transform="translate(-170.304 -205.064)" fill="#263238"/>
    <path id="Trazado_495" data-name="Trazado 495" d="M267.149,456.57a11.088,11.088,0,0,1,.058,3.2,10.563,10.563,0,0,1-.417,3.173,10.769,10.769,0,0,1-.058-3.2,10.5,10.5,0,0,1,.418-3.173Z" transform="translate(-171.895 -203.872)" fill="#263238"/>
    <path id="Trazado_496" data-name="Trazado 496" d="M256.52,465.854l15.163-.175.134-1.436-15.046-.192-.251,1.637" transform="translate(-170.224 -205.106)" fill="#fff" opacity="0.6"/>
    <path id="Trazado_497" data-name="Trazado 497" d="M314.292,429.281,288.116,293.658h0l-.15-.584h0c-4.016-15.948-7.189-19.864-7.189-19.864l-39.193,1.069c-3.081,5.527-3.465,18.8-3.465,18.8-.426,1.586,17.434,134.546,17.434,134.546l13.435-1.1-4.576-125.094L299.48,429.607Z" transform="translate(-167.186 -173.611)" fill="#263238"/>
    <path id="Trazado_498" data-name="Trazado 498" d="M278.125,301.928c0,.134-4.333,1.369-9.744,2.772s-9.828,2.43-9.861,2.3,4.325-1.369,9.744-2.772S278.125,301.8,278.125,301.928Z" transform="translate(-170.554 -178.348)" fill="#455a64"/>
    <path id="Trazado_499" data-name="Trazado 499" d="M225.285,212.587l-30.059,1.829-25.884-23.187-.267-.835c-.159-.434-.317-.918-.476-1.478a5.845,5.845,0,0,1-.225-1.979,9.184,9.184,0,0,1,.359-2.5c.292-.71-.409-1.4-.994-1.044s-1.411,2.3-1.319,4.768-2.4-.451-3.34-1.495-3.958-4.133-4.492-4.091c-.793.058-.885.935.075,1.954s3.6,4.292,3.039,4.768-5.227-4.91-5.227-4.91-.835-1.319-1.478-.785c-1.2.96,4.175,6.3,4.692,6.8.359.351-.234.893-.6.5s-4.534-5.486-5.77-4.517c-.944.735,4.384,4.434,4.667,5.978s-3.757-3.223-4.634-2.5c-.326.276-.534.526,2.179,2.922a69.717,69.717,0,0,0,5.72,4.91h0l27.07,29.875,37.815,3.34Z" transform="translate(-153.167 -158.652)" fill="#ffbe9d"/>
    <path id="Trazado_500" data-name="Trazado 500" d="M339.019,159.54c-1.052-.468-3.615,5.244-3.766,3.674s3.941-6.6,2.822-7.039c-1.453-.584-4.033,5.444-4.292,5.937s-.96.125-.71-.309c.367-.626,4.041-7.247,2.622-7.832-.785-.326-1.2,1.161-1.2,1.161s-3,6.471-3.657,6.17.96-4.175,1.595-5.427.309-2.062-.468-1.9c-.526.117-2.58,3.924-3.181,5.185s-2.2,4.751-2.8,2.355-1.929-4.025-2.588-4.175a.764.764,0,0,0-.668,1.277,9.519,9.519,0,0,1,1.035,2.263,5.844,5.844,0,0,1,.326,1.971c0,.576,0,1.085-.042,1.545l-.042.835L305.546,194.7l-29.366,6.563,5.227,18.929,34.476-14.7,17.76-36.229h0a71.335,71.335,0,0,0,4.133-6.3C339.671,159.907,339.4,159.715,339.019,159.54Z" transform="translate(-173.469 -153.924)" fill="#ffbe9d"/>
    <path id="Trazado_501" data-name="Trazado 501" d="M274.71,233.256l.476-1.737c1.2-.751,15.355-9.577,15.864-9.661s-6.321-16.248-6.321-16.248l-16.106,2.3a16.309,16.309,0,0,0-2.722-.543l-18.929-.159s-5.01.835-7.189,2.413l-17.133,6.463,3.908,19.906,13.468-1.161c.184,1.495,1.01,7.164,1.369,8.634,1.194,4.876,1.9,11.4-.635,15.706,0,0-5.193,10.354-5.2,19l47.777-5.586s-2.054-8.391-10.729-19.555l.417-11.781Z" transform="translate(-164.635 -162.454)" fill="#455a64"/>
    <path id="Trazado_502" data-name="Trazado 502" d="M250.543,162.33c-3.974,1.8-5.569,6.2-5.962,10.22s0,8.233-1.528,12.007c-1.311,3.181-4.008,6.087-3.707,9.494.225,2.5,2.121,4.776,2.463,7.306.668,4.9-4.534,9.285-3.582,14.194A8.8,8.8,0,0,0,242.4,221a29.224,29.224,0,0,0,6.763,2.906c3.156,1.06,6.68,2.1,9.769.994,2.755-.977,4.634-3.49,7.515-4.217s5.644.443,8.5.5a9.56,9.56,0,0,0,7.03-2.672,6.346,6.346,0,0,0,1.453-6.68c-1.269-3.139-5.185-5.16-5.795-8.45-.543-2.972,1.879-5.928,1.119-8.867-.835-3.273-5.235-5.01-6.3-8.224-1.269-3.866,2.789-7.991,1.211-11.773-.935-2.221-3.607-3.624-4.333-5.9-.493-1.57.042-3.256-.317-4.851-.61-2.755-3.716-4.534-6.738-5.16a15.789,15.789,0,0,0-10.9,1.52,11.13,11.13,0,0,0-5.694,8.433" transform="translate(-167.186 -154.635)" fill="#263238"/>
    <path id="Trazado_503" data-name="Trazado 503" d="M260.09,159.615a13.359,13.359,0,0,1,17.893,9.894c.609,3.073.159,6.387,1.495,9.185,1.445,3.081,4.851,5.193,5.36,8.55s-1.92,6.2-2.421,9.443c-.526,3.34,1.06,6.788.676,10.187a8.851,8.851,0,0,1-15.38,4.926" transform="translate(-170.814 -154.717)" fill="#263238"/>
    <path id="Trazado_504" data-name="Trazado 504" d="M240.4,213.8a.331.331,0,0,0-.05-.134,3.093,3.093,0,0,1-.083-.409,3.7,3.7,0,0,1,.225-1.595,10.858,10.858,0,0,1,1.2-2.238,10.853,10.853,0,0,0,1.495-2.914,6.362,6.362,0,0,0-.3-3.858,18.033,18.033,0,0,0-2.2-4.008,18.285,18.285,0,0,1-2.455-4.559,8.959,8.959,0,0,1,.117-5.569,8.717,8.717,0,0,1,1.361-2.5A25.517,25.517,0,0,1,241.557,184a11.948,11.948,0,0,0,1.62-2,5.01,5.01,0,0,0,.726-2.263,22.235,22.235,0,0,0-.6-4.542,9.293,9.293,0,0,1,.225-4.083,9.819,9.819,0,0,1,3.19-4.9,8.517,8.517,0,0,1,1.336-.885,2.1,2.1,0,0,1,.518-.225,17.41,17.41,0,0,0-1.728,1.252,9.944,9.944,0,0,0-3.023,4.843,9.134,9.134,0,0,0-.159,3.924,21.709,21.709,0,0,1,.651,4.642,5.36,5.36,0,0,1-.777,2.5,12.833,12.833,0,0,1-1.67,2.079,25.565,25.565,0,0,0-1.812,1.987,8.392,8.392,0,0,0-1.286,2.38,8.558,8.558,0,0,0-.117,5.269,17.735,17.735,0,0,0,2.371,4.45,18.035,18.035,0,0,1,2.213,4.125,6.721,6.721,0,0,1,.25,4.083,11.03,11.03,0,0,1-1.595,2.972,11.984,11.984,0,0,0-1.252,2.154,4.175,4.175,0,0,0-.234,2.037Z" transform="translate(-167.143 -155.769)" fill="#263238"/>
    <path id="Trazado_505" data-name="Trazado 505" d="M279.081,220.854s.192-.2.526-.61a4.926,4.926,0,0,0,.927-2.054,6,6,0,0,0-.359-3.515,4.892,4.892,0,0,0-1.269-1.8,5.16,5.16,0,0,0-2.2-1.11,14.479,14.479,0,0,1-2.705-.9,2.772,2.772,0,0,1-1.545-2.672,5.486,5.486,0,0,1,1.495-3c.768-.835,1.67-1.57,2.4-2.5a3.382,3.382,0,0,0,.885-3.156,4.975,4.975,0,0,0-2.5-2.5,15.806,15.806,0,0,1-3.34-2.163,3.74,3.74,0,0,1-1.077-1.82,4.818,4.818,0,0,1,0-2.129c.309-1.378.927-2.605,1.269-3.858a3.8,3.8,0,0,0-.484-3.532c-1.611-1.887-4.492-2.188-6.079-4.175a7.347,7.347,0,0,1-1.436-3.231,14.46,14.46,0,0,1-.234-3.34c.083-2.129.367-4.066.25-5.845a7.148,7.148,0,0,0-1.511-4.4,5.477,5.477,0,0,0-3.031-1.778,3.448,3.448,0,0,0-2.2.267c-.468.234-.66.451-.685.426a.659.659,0,0,1,.15-.15,2.246,2.246,0,0,1,.484-.359,3.39,3.39,0,0,1,2.279-.367,5.586,5.586,0,0,1,3.206,1.778,7.515,7.515,0,0,1,1.67,4.559,57.615,57.615,0,0,1-.192,5.845,14.1,14.1,0,0,0,.25,3.215,6.779,6.779,0,0,0,1.361,3.031,8.233,8.233,0,0,0,2.889,2.012,9.493,9.493,0,0,1,3.215,2.163,3.674,3.674,0,0,1,.785,1.9,5.67,5.67,0,0,1-.2,2.054c-.367,1.311-.977,2.5-1.261,3.832a3.482,3.482,0,0,0,.927,3.507,15.238,15.238,0,0,0,3.248,2.1,9.951,9.951,0,0,1,1.62,1.111,3.665,3.665,0,0,1,1.094,1.67,3.122,3.122,0,0,1,0,1.954,5.578,5.578,0,0,1-.944,1.62c-.751.952-1.67,1.67-2.421,2.5a5.01,5.01,0,0,0-1.411,2.747,2.371,2.371,0,0,0,1.328,2.313,13.718,13.718,0,0,0,2.622.9,5.552,5.552,0,0,1,2.3,1.211,5.126,5.126,0,0,1,1.311,1.92,6.12,6.12,0,0,1,.292,3.657,4.777,4.777,0,0,1-1.035,2.079A3.666,3.666,0,0,1,279.081,220.854Z" transform="translate(-170.167 -155.012)" fill="#455a64"/>
    <path id="Trazado_506" data-name="Trazado 506" d="M251.4,223.584a3.659,3.659,0,0,1-.292-.635c-.184-.426-.434-1.052-.726-1.87a25.116,25.116,0,0,1-.835-3.048,13.669,13.669,0,0,1-.326-4.175,8.441,8.441,0,0,1,1.971-4.709,20.239,20.239,0,0,0,1.72-2.2,5.051,5.051,0,0,0,.743-2.739,13.326,13.326,0,0,0-2.121-5.895,15.13,15.13,0,0,1-2.4-6.529,5.085,5.085,0,0,1,1.035-3.448,15.18,15.18,0,0,1,2.655-2.2,4.175,4.175,0,0,0,1.62-2.588,7.456,7.456,0,0,0-.125-3.039c-.417-1.987-1.186-3.8-1.536-5.628a16.557,16.557,0,0,1,2.388-12.015,13.362,13.362,0,0,1,1.211-1.595,3.967,3.967,0,0,1,.493-.5,18.278,18.278,0,0,0-1.545,2.2,16.891,16.891,0,0,0-2.355,6.847,16.482,16.482,0,0,0,.2,5.01c.351,1.77,1.127,3.574,1.578,5.611a7.958,7.958,0,0,1,.142,3.215,4.709,4.709,0,0,1-1.77,2.872,15.813,15.813,0,0,0-2.58,2.121,4.6,4.6,0,0,0-.935,3.131,14.4,14.4,0,0,0,2.338,6.321,13.186,13.186,0,0,1,2.154,6.12,5.536,5.536,0,0,1-.835,2.964,20.953,20.953,0,0,1-1.778,2.238,8.049,8.049,0,0,0-1.937,4.492,13.3,13.3,0,0,0,.242,4.116,29.639,29.639,0,0,0,.835,3.048c.267.785.476,1.419.635,1.9A3.853,3.853,0,0,1,251.4,223.584Z" transform="translate(-169.002 -155.054)" fill="#455a64"/>
    <path id="Trazado_507" data-name="Trazado 507" d="M327.252,461.435l-.058-1.545-15.664.451.142,5.093h.969c4.308.109,21.909.259,24.765-.626C340.587,463.848,327.252,461.435,327.252,461.435Z" transform="translate(-179.303 -204.42)" fill="#a96cfe"/>
    <g id="Grupo_63" data-name="Grupo 63" transform="translate(132.252 256.731)" opacity="0.6">
      <path id="Trazado_508" data-name="Trazado 508" d="M317.321,465.425a5.01,5.01,0,0,0-2.087-3.039,5.536,5.536,0,0,0-3.674-.96l.125,4.058Z" transform="translate(-311.56 -461.4)" fill="#fff"/>
    </g>
    <g id="Grupo_64" data-name="Grupo 64" transform="translate(132.369 258.409)" opacity="0.6">
      <path id="Trazado_509" data-name="Trazado 509" d="M333.8,463.41s4.684,1.119,4.125,1.845-18.369,1.194-26.226.76V465.7l20.774-.384S332.891,463.468,333.8,463.41Z" transform="translate(-311.7 -463.41)" fill="#fff"/>
    </g>
    <path id="Trazado_510" data-name="Trazado 510" d="M311.42,466h1.044l2.831.042c2.4,0,5.711,0,9.36-.092s6.964-.25,9.36-.384l2.831-.184.768-.067h-.776l-2.831.134c-2.4.109-5.7.242-9.352.334s-6.964.125-9.36.142h-3.607Z" transform="translate(-179.285 -205.316)" fill="#263238"/>
    <path id="Trazado_511" data-name="Trazado 511" d="M336.585,465.544a3.807,3.807,0,0,1,1.428-2.3,2.029,2.029,0,0,0-1.1.944A1.82,1.82,0,0,0,336.585,465.544Z" transform="translate(-183.434 -204.973)" fill="#263238"/>
    <path id="Trazado_512" data-name="Trazado 512" d="M331,463.257a1.853,1.853,0,0,0,.476-.568c.217-.342.359-.635.309-.66s-.25.234-.468.576A2.644,2.644,0,0,0,331,463.257Z" transform="translate(-182.516 -204.773)" fill="#263238"/>
    <path id="Trazado_513" data-name="Trazado 513" d="M329.469,462.634a2.477,2.477,0,0,0,.534-.351c.259-.225.443-.451.409-.484s-.276.125-.534.351S329.427,462.6,329.469,462.634Z" transform="translate(-182.263 -204.734)" fill="#263238"/>
    <path id="Trazado_514" data-name="Trazado 514" d="M328.46,461.167a4.022,4.022,0,1,0,.835-.1A1.97,1.97,0,0,0,328.46,461.167Z" transform="translate(-182.097 -204.611)" fill="#263238"/>
    <path id="Trazado_515" data-name="Trazado 515" d="M328.1,460a2.413,2.413,0,0,0,1.845.083,4.679,4.679,0,0,0-.927,0A4.891,4.891,0,0,0,328.1,460Z" transform="translate(-182.038 -204.438)" fill="#263238"/>
    <path id="Trazado_516" data-name="Trazado 516" d="M331.59,461.74a2.756,2.756,0,0,0,1,0,6.261,6.261,0,0,0,1.06-.242,2.986,2.986,0,0,0,.6-.25.5.5,0,0,0,.242-.292.376.376,0,0,0-.167-.376,1.92,1.92,0,0,0-2.254.559,1.554,1.554,0,0,0-.309.635v.25a2.5,2.5,0,0,1,.434-.835,1.754,1.754,0,0,1,.835-.543,1.669,1.669,0,0,1,1.194,0c.167.109.109.284-.067.384a2.982,2.982,0,0,1-.551.242,8.349,8.349,0,0,1-1.027.275A6.279,6.279,0,0,0,331.59,461.74Z" transform="translate(-182.614 -204.508)" fill="#263238"/>
    <path id="Trazado_517" data-name="Trazado 517" d="M331.635,461.648a.835.835,0,0,0,.1-.651,1.512,1.512,0,0,0-.3-.668,1.01,1.01,0,0,0-.835-.459.376.376,0,0,0-.3.443,1.027,1.027,0,0,0,.184.409,2.722,2.722,0,0,0,.493.551,1.612,1.612,0,0,0,.584.367s-.209-.167-.493-.451a3.524,3.524,0,0,1-.434-.551c-.142-.192-.25-.543,0-.593a.952.952,0,0,1,.676.376,1.562,1.562,0,0,1,.3.6,3.475,3.475,0,0,1,.025.626Z" transform="translate(-182.399 -204.416)" fill="#263238"/>
    <path id="Trazado_518" data-name="Trazado 518" d="M311.66,461.355a6.962,6.962,0,0,1,1.152,0,5.235,5.235,0,0,1,2.5.9,4.743,4.743,0,0,1,1.67,2.021,10.023,10.023,0,0,1,.326,1.027.834.834,0,0,0,0-.292,3.556,3.556,0,0,0-.192-.777,4.458,4.458,0,0,0-1.67-2.121,5.01,5.01,0,0,0-2.647-.885,5.85,5.85,0,0,0-.835.042.91.91,0,0,0-.309.083Z" transform="translate(-179.325 -204.641)" fill="#263238"/>
    <path id="Trazado_519" data-name="Trazado 519" d="M320.76,464.441a9.134,9.134,0,0,0,2.279.15,9.647,9.647,0,0,0,2.279-.225,19.813,19.813,0,0,0-2.279.05C321.787,464.466,320.768,464.391,320.76,464.441Z" transform="translate(-180.826 -205.155)" fill="#263238"/>
    <path id="Trazado_520" data-name="Trazado 520" d="M317.1,464.549a2.9,2.9,0,0,0,.2.417c.109.217.175.4.225.4s.075-.234-.058-.484S317.133,464.516,317.1,464.549Z" transform="translate(-180.222 -205.188)" fill="#263238"/>
    <path id="Trazado_521" data-name="Trazado 521" d="M315.67,463a.744.744,0,0,0,.234.334c.159.15.334.242.367.2s-.067-.184-.234-.326A.883.883,0,0,0,315.67,463Z" transform="translate(-179.986 -204.933)" fill="#263238"/>
    <path id="Trazado_522" data-name="Trazado 522" d="M313.68,462.3c0,.042.217.042.451.109s.4.175.434.142-.092-.234-.384-.309S313.663,462.252,313.68,462.3Z" transform="translate(-179.658 -204.803)" fill="#263238"/>
    <path id="Trazado_523" data-name="Trazado 523" d="M312.26,461.994c0,.042.075.117.209.159s.25.042.267,0-.075-.117-.209-.167A.409.409,0,0,0,312.26,461.994Z" transform="translate(-179.424 -204.762)" fill="#263238"/>
  </g>
  <g id="freepik--Plant--inject-37" transform="translate(290.803 252.724)">
    <path id="Trazado_524" data-name="Trazado 524" d="M411.3,441.87a12.291,12.291,0,0,1,7.648-.919,6.363,6.363,0,0,1,3.774,1.67c.943,1.044,1.127,2.872.042,3.766a3.616,3.616,0,0,1-2.38.61c-2.021,0-4.258-.384-5.845.835-.918.693-1.528,1.845-2.63,2.188a2.6,2.6,0,0,1-2.864-1.277,4.459,4.459,0,0,1-.326-3.281A5.01,5.01,0,0,1,411.3,441.87Z" transform="translate(-385.706 -410.523)" fill="#a96cfe"/>
    <path id="Trazado_525" data-name="Trazado 525" d="M411.3,441.87a12.291,12.291,0,0,1,7.648-.919,6.363,6.363,0,0,1,3.774,1.67c.943,1.044,1.127,2.872.042,3.766a3.616,3.616,0,0,1-2.38.61c-2.021,0-4.258-.384-5.845.835-.918.693-1.528,1.845-2.63,2.188a2.6,2.6,0,0,1-2.864-1.277,4.459,4.459,0,0,1-.326-3.281A5.01,5.01,0,0,1,411.3,441.87Z" transform="translate(-385.706 -410.523)" fill="#fff" opacity="0.2"/>
    <path id="Trazado_526" data-name="Trazado 526" d="M405.192,425.617c1.428,2.037,4.175,1.361,5.469.125a10.192,10.192,0,0,0,2.313-4.751c1.127-3.908,2.263-8.016,1.428-12a6.679,6.679,0,0,0-1.536-3.265,3.482,3.482,0,0,0-3.3-1.1c-1.394.367-2.263,1.737-2.889,3.031a28.581,28.581,0,0,0-2.822,12.3,9.928,9.928,0,0,0,1.336,5.678" transform="translate(-384.929 -404.556)" fill="#a96cfe"/>
    <path id="Trazado_527" data-name="Trazado 527" d="M405.192,425.617c1.428,2.037,4.175,1.361,5.469.125a10.192,10.192,0,0,0,2.313-4.751c1.127-3.908,2.263-8.016,1.428-12a6.679,6.679,0,0,0-1.536-3.265,3.482,3.482,0,0,0-3.3-1.1c-1.394.367-2.263,1.737-2.889,3.031a28.581,28.581,0,0,0-2.822,12.3,9.928,9.928,0,0,0,1.336,5.678" transform="translate(-384.929 -404.556)" opacity="0.3"/>
    <path id="Trazado_528" data-name="Trazado 528" d="M397.556,429.819a7.389,7.389,0,0,0,1.152-6.8,13.092,13.092,0,0,0-4.033-5.845,21.709,21.709,0,0,0-7.206-4.258,7.865,7.865,0,0,0-3.24-.551,3.4,3.4,0,0,0-2.722,1.67c-.76,1.445,0,3.2.751,4.634a54.957,54.957,0,0,0,4.734,7.206,12.829,12.829,0,0,0,5.21,4.459c2.163.827,4.409.735,5.561-.768" transform="translate(-381.193 -405.845)" fill="#a96cfe"/>
    <path id="Trazado_529" data-name="Trazado 529" d="M405.338,462.771a4.894,4.894,0,0,0,.125-.927l.251-2.5a36.4,36.4,0,0,1,.559-3.691,28.919,28.919,0,0,1,1.344-4.359,15.865,15.865,0,0,1,2.229-3.949A8.35,8.35,0,0,1,412.66,445a7.916,7.916,0,0,1,2.363-.735,4.251,4.251,0,0,0,.918-.134,4.234,4.234,0,0,0-.935,0,7.273,7.273,0,0,0-2.5.643,8.35,8.35,0,0,0-2.964,2.363,15.614,15.614,0,0,0-2.3,4.025,26.642,26.642,0,0,0-1.336,4.425,31.957,31.957,0,0,0-.493,3.741c-.075,1.069-.109,1.929-.125,2.5a4.6,4.6,0,0,0,.058.935Z" transform="translate(-385.167 -411.084)" fill="#263238"/>
    <path id="Trazado_530" data-name="Trazado 530" d="M405.52,455.915a2.95,2.95,0,0,0,0-.434c0-.317,0-.726,0-1.219,0-1.06,0-2.6.058-4.5.092-3.791.417-7.882,1.052-13.643.593-5.411,1.394-11.689,2.246-15.814.184-.927.359-1.77.534-2.5s.309-1.369.443-1.887.209-.877.284-1.186a2.505,2.505,0,0,0,.075-.426,1.671,1.671,0,0,0-.15.4l-.351,1.177c-.159.509-.326,1.136-.509,1.87s-.392,1.57-.593,2.5a141.44,141.44,0,0,0-2.346,14.67c-.626,5.77-.919,11.03-.944,14.837,0,1.9,0,3.44.067,4.5,0,.5.058.9.075,1.227A1.668,1.668,0,0,0,405.52,455.915Z" transform="translate(-385.175 -406.164)" fill="#263238"/>
    <path id="Trazado_531" data-name="Trazado 531" d="M402.911,446.392a9.354,9.354,0,0,0,0-1.277c-.05-.835-.167-2.012-.392-3.465a48.249,48.249,0,0,0-1.127-5.052,41.836,41.836,0,0,0-2.112-5.97,31.9,31.9,0,0,0-6.2-9.652,16.006,16.006,0,0,0-1.461-1.353c-.225-.192-.417-.376-.618-.526l-.568-.392a8.277,8.277,0,0,0-1.077-.685,37.413,37.413,0,0,1,3.524,3.148,33.4,33.4,0,0,1,6.045,9.61,46.7,46.7,0,0,1,2.121,5.92,49.125,49.125,0,0,1,1.2,5.01c.267,1.445.417,2.622.509,3.432a8.125,8.125,0,0,0,.15,1.252Z" transform="translate(-382.541 -406.778)" fill="#263238"/>
  </g>
</svg>
