<svg id="como_funciona_3" data-name="como funciona 3" xmlns="http://www.w3.org/2000/svg" width="293.414" height="218.629" viewBox="0 0 293.414 218.629">
  <g id="freepik--background-complete--inject-86" transform="translate(0 0)">
    <rect id="Rectángulo_630" data-name="Rectángulo 630" width="293.414" height="0.147" transform="translate(0 192.128)" fill="#ebebeb"/>
    <rect id="Rectángulo_631" data-name="Rectángulo 631" width="19.436" height="0.147" transform="translate(244.578 201.57)" fill="#ebebeb"/>
    <rect id="Rectángulo_632" data-name="Rectángulo 632" width="5.1" height="0.147" transform="translate(189.27 203.166)" fill="#ebebeb"/>
    <rect id="Rectángulo_633" data-name="Rectángulo 633" width="11.261" height="0.147" transform="translate(232.73 196.124)" fill="#ebebeb"/>
    <rect id="Rectángulo_634" data-name="Rectángulo 634" width="25.345" height="0.147" transform="translate(30.785 197.11)" fill="#ebebeb"/>
    <rect id="Rectángulo_635" data-name="Rectángulo 635" width="3.715" height="0.147" transform="translate(61.359 197.11)" fill="#ebebeb"/>
    <rect id="Rectángulo_636" data-name="Rectángulo 636" width="54.974" height="0.147" transform="translate(77.15 199.586)" fill="#ebebeb"/>
    <path id="Trazado_617" data-name="Trazado 617" d="M154.866,220.955H41.555A3.351,3.351,0,0,1,38.21,217.6V58.321A3.351,3.351,0,0,1,41.555,55H154.866a3.351,3.351,0,0,1,3.351,3.351V217.6A3.351,3.351,0,0,1,154.866,220.955ZM41.555,55.117a3.2,3.2,0,0,0-3.2,3.2V217.6a3.2,3.2,0,0,0,3.2,3.2H154.866a3.21,3.21,0,0,0,3.2-3.2V58.321a3.21,3.21,0,0,0-3.2-3.2Z" transform="translate(-15.787 -55)" fill="#ebebeb"/>
    <path id="Trazado_618" data-name="Trazado 618" d="M371.167,220.955H257.851A3.357,3.357,0,0,1,254.5,217.6V58.321A3.357,3.357,0,0,1,257.851,55H371.167a3.351,3.351,0,0,1,3.339,3.321V217.6A3.351,3.351,0,0,1,371.167,220.955ZM257.851,55.117a3.21,3.21,0,0,0-3.2,3.2V217.6a3.21,3.21,0,0,0,3.2,3.2H371.167a3.21,3.21,0,0,0,3.2-3.2V58.321a3.21,3.21,0,0,0-3.2-3.2Z" transform="translate(-105.152 -55)" fill="#ebebeb"/>
    <rect id="Rectángulo_637" data-name="Rectángulo 637" width="103.452" height="130.998" transform="translate(155.967 59.551)" fill="#f0f0f0"/>
    <rect id="Rectángulo_638" data-name="Rectángulo 638" width="96.14" height="28.015" transform="translate(159.623 64.328)" fill="#e0e0e0"/>
    <rect id="Rectángulo_639" data-name="Rectángulo 639" width="5.463" height="23.479" transform="translate(159.623 68.858)" fill="#ebebeb"/>
    <rect id="Rectángulo_640" data-name="Rectángulo 640" width="5.463" height="23.479" transform="translate(186.03 68.858)" fill="#ebebeb"/>
    <rect id="Rectángulo_641" data-name="Rectángulo 641" width="5.488" height="23.584" transform="translate(217.091 69.625) rotate(-9.744)" fill="#ebebeb"/>
    <rect id="Rectángulo_642" data-name="Rectángulo 642" width="5.463" height="20.386" transform="translate(166.389 71.957)" fill="#ebebeb"/>
    <rect id="Rectángulo_643" data-name="Rectángulo 643" width="5.463" height="20.386" transform="translate(178.947 71.957)" fill="#ebebeb"/>
    <rect id="Rectángulo_644" data-name="Rectángulo 644" width="5.463" height="20.386" transform="translate(210.63 71.957)" fill="#ebebeb"/>
    <rect id="Rectángulo_645" data-name="Rectángulo 645" width="5.463" height="20.386" transform="translate(193.342 72.428) rotate(-12.53)" fill="#ebebeb"/>
    <rect id="Rectángulo_646" data-name="Rectángulo 646" width="2.729" height="24.641" transform="translate(173.848 67.697)" fill="#ebebeb"/>
    <rect id="Rectángulo_647" data-name="Rectángulo 647" width="2.729" height="24.641" transform="translate(206.329 67.697)" fill="#ebebeb"/>
    <rect id="Rectángulo_648" data-name="Rectángulo 648" width="96.14" height="28.015" transform="translate(255.763 124.789) rotate(180)" fill="#e0e0e0"/>
    <rect id="Rectángulo_649" data-name="Rectángulo 649" width="5.463" height="23.479" transform="translate(255.763 124.789) rotate(180)" fill="#ebebeb"/>
    <rect id="Rectángulo_650" data-name="Rectángulo 650" width="5.463" height="23.479" transform="translate(229.356 124.789) rotate(180)" fill="#ebebeb"/>
    <rect id="Rectángulo_651" data-name="Rectángulo 651" width="5.463" height="23.479" transform="matrix(-0.985, -0.17, 0.17, -0.985, 195.317, 124.781)" fill="#ebebeb"/>
    <rect id="Rectángulo_652" data-name="Rectángulo 652" width="5.463" height="20.386" transform="translate(248.997 124.789) rotate(180)" fill="#ebebeb"/>
    <rect id="Rectángulo_653" data-name="Rectángulo 653" width="5.463" height="20.386" transform="translate(236.445 124.789) rotate(180)" fill="#ebebeb"/>
    <rect id="Rectángulo_654" data-name="Rectángulo 654" width="5.463" height="20.386" transform="translate(204.756 124.789) rotate(180)" fill="#ebebeb"/>
    <rect id="Rectángulo_655" data-name="Rectángulo 655" width="5.487" height="20.476" transform="translate(217.237 123.599) rotate(-167.347)" fill="#ebebeb"/>
    <rect id="Rectángulo_656" data-name="Rectángulo 656" width="2.729" height="24.641" transform="translate(241.544 124.789) rotate(180)" fill="#ebebeb"/>
    <rect id="Rectángulo_657" data-name="Rectángulo 657" width="2.729" height="24.641" transform="translate(209.058 124.789) rotate(180)" fill="#ebebeb"/>
    <rect id="Rectángulo_658" data-name="Rectángulo 658" width="5.463" height="23.479" transform="translate(159.623 101.31)" fill="#ebebeb"/>
    <rect id="Rectángulo_659" data-name="Rectángulo 659" width="5.463" height="20.386" transform="translate(166.389 104.403)" fill="#ebebeb"/>
    <rect id="Rectángulo_660" data-name="Rectángulo 660" width="5.463" height="20.386" transform="translate(178.947 104.403)" fill="#ebebeb"/>
    <rect id="Rectángulo_661" data-name="Rectángulo 661" width="2.729" height="24.641" transform="translate(173.848 100.142)" fill="#ebebeb"/>
    <rect id="Rectángulo_662" data-name="Rectángulo 662" width="96.14" height="28.015" transform="translate(159.623 129.225)" fill="#e0e0e0"/>
    <rect id="Rectángulo_663" data-name="Rectángulo 663" width="5.463" height="23.479" transform="translate(214.803 133.756)" fill="#ebebeb"/>
    <rect id="Rectángulo_664" data-name="Rectángulo 664" width="5.463" height="23.479" transform="matrix(0.985, -0.17, 0.17, 0.985, 244.869, 134.09)" fill="#ebebeb"/>
    <rect id="Rectángulo_665" data-name="Rectángulo 665" width="5.463" height="20.386" transform="translate(195.167 136.854)" fill="#ebebeb"/>
    <rect id="Rectángulo_666" data-name="Rectángulo 666" width="5.463" height="20.386" transform="translate(207.72 136.854)" fill="#ebebeb"/>
    <rect id="Rectángulo_667" data-name="Rectángulo 667" width="5.463" height="20.386" transform="translate(239.403 136.854)" fill="#ebebeb"/>
    <rect id="Rectángulo_668" data-name="Rectángulo 668" width="5.463" height="20.386" transform="translate(222.117 137.325) rotate(-12.53)" fill="#ebebeb"/>
    <rect id="Rectángulo_669" data-name="Rectángulo 669" width="2.729" height="24.641" transform="translate(202.62 132.594)" fill="#ebebeb"/>
    <rect id="Rectángulo_670" data-name="Rectángulo 670" width="2.729" height="24.641" transform="translate(235.101 132.594)" fill="#ebebeb"/>
    <rect id="Rectángulo_671" data-name="Rectángulo 671" width="5.463" height="23.479" transform="matrix(0.985, -0.17, 0.17, 0.985, 182.04, 134.089)" fill="#ebebeb"/>
    <rect id="Rectángulo_672" data-name="Rectángulo 672" width="5.463" height="20.386" transform="translate(176.571 136.854)" fill="#ebebeb"/>
    <rect id="Rectángulo_673" data-name="Rectángulo 673" width="5.463" height="20.386" transform="translate(159.286 137.33) rotate(-12.53)" fill="#ebebeb"/>
    <rect id="Rectángulo_674" data-name="Rectángulo 674" width="2.729" height="24.641" transform="translate(172.269 132.594)" fill="#ebebeb"/>
    <rect id="Rectángulo_675" data-name="Rectángulo 675" width="16.155" height="22.863" transform="translate(82.561 92.478) rotate(180)" fill="#e0e0e0"/>
    <rect id="Rectángulo_676" data-name="Rectángulo 676" width="14.049" height="20.715" transform="translate(81.505 91.399) rotate(180)" fill="#ebebeb"/>
    <rect id="Rectángulo_677" data-name="Rectángulo 677" width="16.155" height="22.863" transform="translate(62.263 84.55) rotate(180)" fill="#e0e0e0"/>
    <rect id="Rectángulo_678" data-name="Rectángulo 678" width="14.049" height="20.715" transform="translate(61.206 83.47) rotate(180)" fill="#ebebeb"/>
    <rect id="Rectángulo_679" data-name="Rectángulo 679" width="14.547" height="20.586" transform="translate(66.406 65.273) rotate(-90)" fill="#e0e0e0"/>
    <rect id="Rectángulo_680" data-name="Rectángulo 680" width="12.652" height="18.649" transform="translate(67.374 64.328) rotate(-90)" fill="#ebebeb"/>
    <rect id="Rectángulo_681" data-name="Rectángulo 681" width="16.155" height="22.863" transform="translate(39.394 58.607) rotate(-90)" fill="#e0e0e0"/>
    <rect id="Rectángulo_682" data-name="Rectángulo 682" width="14.049" height="20.715" transform="translate(40.474 57.55) rotate(-90)" fill="#ebebeb"/>
    <rect id="Rectángulo_683" data-name="Rectángulo 683" width="12.652" height="17.904" transform="translate(66.4 27.886)" fill="#e0e0e0"/>
    <rect id="Rectángulo_684" data-name="Rectángulo 684" width="11.003" height="16.22" transform="translate(67.227 28.725)" fill="#ebebeb"/>
  </g>
  <g id="freepik--Shadow--inject-86" transform="translate(32.927 205.343)">
    <ellipse id="freepik--path--inject-86" cx="113.78" cy="6.643" rx="113.78" ry="6.643" fill="#f5f5f5"/>
  </g>
  <g id="freepik--Plant--inject-86" transform="translate(220.043 128.978)">
    <path id="Trazado_619" data-name="Trazado 619" d="M395.221,336.641s-4.507-8.8.646-17.523,6.643-10.757,3.357-12.517-4.789,6.96-4.789,6.96a17.778,17.778,0,0,1-.481-12.323c2.289-6.314,3.72-16.549.587-17.646s-.587,12.787-3.31,17.523a37.6,37.6,0,0,1-2.647-10.328c-.376-5.047.211-13.127-2.253-15.2s-4.049-.634-1.626,10.522a105.04,105.04,0,0,1,2.406,20.228s-5.352-14.635-8.943-15.064-3.586,4.313-.511,8.421,9,11.478,9.976,15.258c0,0-5.868-11.015-11.15-7.629s4.6,10.029,9.008,12.429,7.459,17.476,7.459,17.476Z" transform="translate(-374.969 -274.788)" fill="#a96cfe"/>
    <path id="Trazado_620" data-name="Trazado 620" d="M395.221,336.641s-4.507-8.8.646-17.523,6.643-10.757,3.357-12.517-4.789,6.96-4.789,6.96a17.778,17.778,0,0,1-.481-12.323c2.289-6.314,3.72-16.549.587-17.646s-.587,12.787-3.31,17.523a37.6,37.6,0,0,1-2.647-10.328c-.376-5.047.211-13.127-2.253-15.2s-4.049-.634-1.626,10.522a105.04,105.04,0,0,1,2.406,20.228s-5.352-14.635-8.943-15.064-3.586,4.313-.511,8.421,9,11.478,9.976,15.258c0,0-5.868-11.015-11.15-7.629s4.6,10.029,9.008,12.429,7.459,17.476,7.459,17.476Z" transform="translate(-374.969 -274.788)" fill="#fff" opacity="0.6"/>
    <path id="Trazado_621" data-name="Trazado 621" d="M399.106,342.718s4.4-8.885-.874-17.517-6.79-10.657-3.521-12.482,4.877,6.9,4.877,6.9A17.783,17.783,0,0,0,399.9,307.3c-2.371-6.273-3.938-16.49-.833-17.634s.769,12.781,3.521,17.476a37.081,37.081,0,0,0,2.512-10.357c.305-5.076-.387-13.127,2.054-15.228s4.031-.692,1.76,10.5a105.358,105.358,0,0,0-2.136,20.251s5.158-14.706,8.744-15.175,3.644,4.26.622,8.415-8.849,11.59-9.771,15.392c0,0,5.727-11.091,11.056-7.787s-4.466,10.093-8.838,12.552-7.23,17.57-7.23,17.57Z" transform="translate(-382.417 -277.244)" fill="#a96cfe"/>
    <path id="Trazado_622" data-name="Trazado 622" d="M399.106,342.718s4.4-8.885-.874-17.517-6.79-10.657-3.521-12.482,4.877,6.9,4.877,6.9A17.783,17.783,0,0,0,399.9,307.3c-2.371-6.273-3.938-16.49-.833-17.634s.769,12.781,3.521,17.476a37.081,37.081,0,0,0,2.512-10.357c.305-5.076-.387-13.127,2.054-15.228s4.031-.692,1.76,10.5a105.358,105.358,0,0,0-2.136,20.251s5.158-14.706,8.744-15.175,3.644,4.26.622,8.415-8.849,11.59-9.771,15.392c0,0,5.727-11.091,11.056-7.787s-4.466,10.093-8.838,12.552-7.23,17.57-7.23,17.57Z" transform="translate(-382.417 -277.244)" fill="#fff" opacity="0.7"/>
    <path id="Trazado_623" data-name="Trazado 623" d="M412.388,375.57H376.11l2.934,23.285h30.409Z" transform="translate(-375.441 -316.428)" fill="#a96cfe"/>
  </g>
  <g id="freepik--Sofa--inject-86" transform="translate(27.938 103.869)">
    <rect id="Rectángulo_685" data-name="Rectángulo 685" width="110.03" height="12.764" transform="translate(12.817 94.767)" fill="#a96cfe"/>
    <rect id="Rectángulo_686" data-name="Rectángulo 686" width="110.03" height="12.764" transform="translate(12.817 94.767)" fill="#fff" opacity="0.4"/>
    <rect id="Rectángulo_687" data-name="Rectángulo 687" width="64.041" height="12.764" transform="translate(58.801 94.767)" fill="#fff" opacity="0.4"/>
    <rect id="Rectángulo_688" data-name="Rectángulo 688" width="110.03" height="12.764" transform="translate(63.9 94.767)" fill="#a96cfe"/>
    <rect id="Rectángulo_689" data-name="Rectángulo 689" width="110.03" height="12.764" transform="translate(63.9 94.767)" fill="#fff" opacity="0.4"/>
    <rect id="Rectángulo_690" data-name="Rectángulo 690" width="64.041" height="12.764" transform="translate(109.89 94.767)" fill="#fff" opacity="0.4"/>
    <rect id="Rectángulo_691" data-name="Rectángulo 691" width="122.679" height="29.659" rx="8.64" transform="translate(8.223 67.945)" fill="#a96cfe"/>
    <rect id="Rectángulo_692" data-name="Rectángulo 692" width="75.495" height="29.659" rx="8.64" transform="translate(55.407 67.945)" fill="#fff" opacity="0.6"/>
    <rect id="Rectángulo_693" data-name="Rectángulo 693" width="122.679" height="29.659" rx="8.64" transform="translate(8.223 67.945)" fill="#fff" opacity="0.6"/>
    <rect id="Rectángulo_694" data-name="Rectángulo 694" width="123.353" height="29.659" rx="8.64" transform="translate(57.429 67.945)" fill="#a96cfe"/>
    <rect id="Rectángulo_695" data-name="Rectángulo 695" width="76.169" height="29.659" rx="8.64" transform="translate(104.614 67.945)" fill="#fff" opacity="0.6"/>
    <rect id="Rectángulo_696" data-name="Rectángulo 696" width="123.353" height="29.659" rx="8.64" transform="translate(57.429 67.945)" fill="#fff" opacity="0.6"/>
    <path id="Trazado_624" data-name="Trazado 624" d="M130.963,300.765H58.783L47.792,243.971A10.064,10.064,0,0,1,57.668,232h51.676a10.064,10.064,0,0,1,9.876,8.151Z" transform="translate(-47.609 -232)" fill="#a96cfe"/>
    <path id="Trazado_625" data-name="Trazado 625" d="M79.287,300.765h-20.5l-11-56.793A10.064,10.064,0,0,1,57.668,232h0a10.07,10.07,0,0,1,9.882,8.151Z" transform="translate(-47.609 -232)" fill="#a96cfe"/>
    <g id="Grupo_66" data-name="Grupo 66" transform="translate(0 0)" opacity="0.6">
      <path id="Trazado_626" data-name="Trazado 626" d="M130.963,300.765H58.783L47.792,243.971A10.064,10.064,0,0,1,57.668,232h51.676a10.064,10.064,0,0,1,9.876,8.151Z" transform="translate(-47.609 -232)" fill="#fff"/>
      <path id="Trazado_627" data-name="Trazado 627" d="M79.287,300.765h-20.5l-11-56.793A10.064,10.064,0,0,1,57.668,232h0a10.07,10.07,0,0,1,9.882,8.151Z" transform="translate(-47.609 -232)" fill="#fff"/>
    </g>
    <path id="Trazado_628" data-name="Trazado 628" d="M138.045,300.659H86.369L74.632,240.092A10.017,10.017,0,0,0,64.75,232h51.676a10.017,10.017,0,0,1,9.876,8.1Z" transform="translate(-54.691 -232)" fill="#fff" opacity="0.6"/>
  </g>
  <g id="freepik--Character-1--inject-86" transform="translate(63.641 86.93)">
    <path id="Trazado_629" data-name="Trazado 629" d="M152.954,248.37c4.777,1.056,4.26,16.713,7.957,20.909,2.67,3.034,12.957,3.814,15.111,5.769s0,5.769,0,5.769-17.746-.4-22.129-2.4S152.954,248.37,152.954,248.37Z" transform="translate(-126.306 -221.825)" fill="#a96cfe"/>
    <path id="Trazado_630" data-name="Trazado 630" d="M152.954,248.37c4.777,1.056,4.26,16.713,7.957,20.909,2.67,3.034,12.957,3.814,15.111,5.769s0,5.769,0,5.769-17.746-.4-22.129-2.4S152.954,248.37,152.954,248.37Z" transform="translate(-126.306 -221.825)" opacity="0.1"/>
    <path id="Trazado_631" data-name="Trazado 631" d="M173.517,315.583c-.059.1-.123.141-.194.129-2.042-.37-7.523,2.629-14.19,6.091l-1.872.962-.64.323c-3.363,1.719-6.936,3.456-10.469,4.877a41.362,41.362,0,0,1-11.872,3.2c-.493.041-.968.059-1.438.059-16.214,0-10.933-26.754-10.933-26.754l19.365-1.485,2.283,3.938,1.238,2.13,2.793-.751c1.4-.376,3.492-.863,5.868-1.373l.587-.123c.8-.17,1.643-.34,2.5-.511,6.32-1.279,13.573-2.518,16.261-2.535C174.72,303.753,174.386,314.31,173.517,315.583Z" transform="translate(-113.672 -244.393)" fill="#e4897b"/>
    <path id="Trazado_632" data-name="Trazado 632" d="M156.892,306.232l3.756,18.614s-12.91,10.51-24.06,6.408-7.629-23.039-7.629-23.039l14.671-4.5,4.014,4.789Z" transform="translate(-116.705 -244.694)" fill="#a96cfe"/>
    <path id="Trazado_633" data-name="Trazado 633" d="M160.651,324.792a4.561,4.561,0,0,0-.622.4,52.606,52.606,0,0,1-7.875,4.483h0c-4.325,1.76-9.736,3.28-14.829,1.7-.246-.076-.487-.123-.728-.211-11.15-4.108-7.629-23.021-7.629-23.021l14.671-4.483,2.934,3.521,1.05,1.256,8.726-2.124.546-.135.182.91,1.643,8.145,1.579,7.811Z" transform="translate(-116.709 -244.67)" fill="#fff" opacity="0.6"/>
    <path id="Trazado_634" data-name="Trazado 634" d="M175.83,307.057l3.914,20.152,2.347-1.854-3.128-18.685Z" transform="translate(-136.289 -245.913)" fill="#a96cfe"/>
    <path id="Trazado_635" data-name="Trazado 635" d="M182.091,325.355l-2.347,1.854-.135-.7-.37-1.9-1.59-8.192-1.549-7.963-.17-.9-.1-.5,3.134-.387.194,1.15,1.467,8.767,1.127,6.737Z" transform="translate(-136.289 -245.913)" fill="#fff" opacity="0.4"/>
    <path id="Trazado_636" data-name="Trazado 636" d="M188.168,320.269c-.059.1-.123.141-.194.129-2.042-.37-7.523,2.629-14.19,6.091l.34,2.03-2.347,1.854-.135-.769a52.6,52.6,0,0,1-7.875,4.483h0l-2.934-1.508-4.284-2.242,1.76-16.009,2.541,3.521s5.927,1.438,8.861,1.719l.651.065c.8.065,1.59.112,2.347.117.516,0,1,0,1.467-.041C179.172,319.359,184.63,319.171,188.168,320.269Z" transform="translate(-128.323 -249.078)" opacity="0.2"/>
    <path id="Trazado_637" data-name="Trazado 637" d="M222.21,334.861l-.182,3.879h-.452c-.587.035-1.655.088-3.128.158-8.315.381-28.931,1.109-37.721-.651l-40.4.8,8.879-15.551,55.532,8.644,17.094,2.658Z" transform="translate(-121.622 -252.867)" fill="#e4897b"/>
    <path id="Trazado_638" data-name="Trazado 638" d="M286.086,332.243c-.07,1.514-.129,2.881-.188,4.143-.082,1.725-.147,3.263-.217,4.73-.117,2.553-2.212.857-6.743.546-.112,0-.153-.37-.158-.9,0-1.133.164-3.046.258-3.961a2.243,2.243,0,0,1,.053-.522,20.668,20.668,0,0,0,1.573-1.631,13.327,13.327,0,0,0,2.834-4.695C284.4,326.768,286.244,328.652,286.086,332.243Z" transform="translate(-178.825 -254.861)" fill="#263238"/>
    <path id="Trazado_639" data-name="Trazado 639" d="M152.041,315.377l-4.548,15.885-8.943-.857s-23.15,8.838-17.018-26.055L139.865,301l5.064,12.177Z" transform="translate(-113.428 -243.571)" fill="#a96cfe"/>
    <path id="Trazado_640" data-name="Trazado 640" d="M152.041,315.377l-4.548,15.885-8.943-.857s-23.15,8.838-17.018-26.055L139.865,301l5.064,12.177Z" transform="translate(-113.428 -243.571)" fill="#fff" opacity="0.6"/>
    <path id="Trazado_641" data-name="Trazado 641" d="M168.965,324.02l-5.135,17.006h3.034l4.5-16.138Z" transform="translate(-131.331 -253.082)" fill="#a96cfe"/>
    <path id="Trazado_642" data-name="Trazado 642" d="M168.965,324.02l-5.135,17.006h3.034l4.5-16.138Z" transform="translate(-131.331 -253.082)" fill="#fff" opacity="0.4"/>
    <path id="Trazado_643" data-name="Trazado 643" d="M274.044,340.472c-.082,1.725-.147,3.263-.217,4.73-.117,2.553-2.212.857-6.743.546-.112,0-.153-.37-.158-.9-.587.035-1.655.088-3.128.158-4.284-2.412-10.281-5.217-13.708-6.778l17.094,2.658a2.242,2.242,0,0,1,.053-.522,20.678,20.678,0,0,0,1.573-1.631Z" transform="translate(-166.971 -258.953)" opacity="0.2"/>
    <path id="Trazado_644" data-name="Trazado 644" d="M208.968,304.31c-.7,0-.223,11.813.522,11.948,3.151.587,46.148,13.256,46.148,13.256l1.256-3.762S216.016,304.275,208.968,304.31Z" transform="translate(-149.839 -244.938)" fill="#e4897b"/>
    <path id="Trazado_645" data-name="Trazado 645" d="M287.831,340.555c-.411-.147,1.614-5.141,1.614-5.141s4.237-2.077,5.968-4.888,2.993-.493,1.86,2.934-2,6.009-2.805,8.433S292.1,342.087,287.831,340.555Z" transform="translate(-182.542 -255.251)" fill="#263238"/>
    <path id="Trazado_646" data-name="Trazado 646" d="M143.381,307.67l1.567,2.441s-16.824,20.052-20.832,21.226c0,0-2.265-1.9-2.206-6.426S143.381,307.67,143.381,307.67Z" transform="translate(-114.01 -246.327)" fill="#a96cfe"/>
    <path id="Trazado_647" data-name="Trazado 647" d="M143.381,307.67l1.567,2.441s-16.824,20.052-20.832,21.226c0,0-2.265-1.9-2.206-6.426S143.381,307.67,143.381,307.67Z" transform="translate(-114.01 -246.327)" opacity="0.1"/>
    <path id="Trazado_648" data-name="Trazado 648" d="M137.545,210.2a6.737,6.737,0,0,1,2.84,5.751c-.147,3.861-.945,9.841,0,12.018s-2.441,2.782-2.441,2.782a2.934,2.934,0,0,0,0-1.825s0,1.009-1.35,1.373-12.13.634-14.553-1.373,2.641-18.192,5.428-19.166S137.545,210.2,137.545,210.2Z" transform="translate(-113.801 -205.731)" fill="#263238"/>
    <path id="Trazado_649" data-name="Trazado 649" d="M153.259,224.11c0,2.347-.076,7.382,1.021,9.342s-.511,2.782-.511,2.782" transform="translate(-126.963 -211.802)" fill="none" stroke="#263238" stroke-linecap="round" stroke-linejoin="round" stroke-width="0.5"/>
    <path id="Trazado_650" data-name="Trazado 650" d="M137.647,277.138l3.063,6.936-22.253,20.539c-5.035-2.2-1.1-37.645-5.364-50.467-.205-.587-.417-1.262-.646-1.925a1.69,1.69,0,0,1,1.133-2.16,58.825,58.825,0,0,1,6.338-1.426,61.915,61.915,0,0,1,8.7-.915c3.773,0,8.1.393,8.1.393s.587.147,1,4.143C138.075,255.994,138.422,263.494,137.647,277.138Z" transform="translate(-110.066 -221.557)" fill="#a96cfe"/>
    <path id="Trazado_651" data-name="Trazado 651" d="M126.76,243.074s1.438,2.042,6.209,2.652c0,0,2.347-1.555,1.361-3.445,0,0-1.033-.323-1.256-1.966a7.969,7.969,0,0,1,.44-3.421c.053-.176.117-.364.182-.552l-6.033-3.773S129.788,240.216,126.76,243.074Z" transform="translate(-116.015 -215.297)" fill="#e4897b"/>
    <path id="Trazado_652" data-name="Trazado 652" d="M130.61,236.3s.323,4.313,4.055,5.557a7.969,7.969,0,0,1,.44-3.421C132.9,237.3,130.61,236.3,130.61,236.3Z" transform="translate(-117.606 -216.838)" opacity="0.2"/>
    <path id="Trazado_653" data-name="Trazado 653" d="M122.75,248.82s.546-3.462,1.931-3.65a7.431,7.431,0,0,0,7.775.352s.845-.123.863,1.473,1.972,1.291.587,4.108S126.236,254.765,122.75,248.82Z" transform="translate(-114.358 -220.503)" fill="#a96cfe"/>
    <path id="Trazado_654" data-name="Trazado 654" d="M122.75,248.82s.546-3.462,1.931-3.65a7.431,7.431,0,0,0,7.775.352s.845-.123.863,1.473,1.972,1.291.587,4.108S126.236,254.765,122.75,248.82Z" transform="translate(-114.358 -220.503)" opacity="0.1"/>
    <path id="Trazado_655" data-name="Trazado 655" d="M135.563,212.157c4.929.839,6.068,3.75,5.563,8.9-.634,6.455-2.811,10.7-8.744,8.286C124.342,226.07,127.376,210.76,135.563,212.157Z" transform="translate(-116.391 -206.826)" fill="#e4897b"/>
    <path id="Trazado_656" data-name="Trazado 656" d="M145.031,226a10.6,10.6,0,0,0,1.086,2.289,1.379,1.379,0,0,1-1.4.335Z" transform="translate(-123.436 -212.583)" fill="#de5753"/>
    <path id="Trazado_657" data-name="Trazado 657" d="M139.531,223.841c-.059.411-.329.7-.587.669s-.44-.4-.381-.81.329-.7.587-.663S139.589,223.436,139.531,223.841Z" transform="translate(-120.887 -211.357)" fill="#263238"/>
    <path id="Trazado_658" data-name="Trazado 658" d="M139.37,222.847l.939-.217S139.74,223.334,139.37,222.847Z" transform="translate(-121.225 -211.19)" fill="#263238"/>
    <path id="Trazado_659" data-name="Trazado 659" d="M148.167,224.961c-.059.411-.329.7-.587.669s-.446-.4-.387-.81.329-.7.587-.663A.649.649,0,0,1,148.167,224.961Z" transform="translate(-124.453 -211.82)" fill="#263238"/>
    <path id="Trazado_660" data-name="Trazado 660" d="M148,224.007l.933-.217S148.393,224.5,148,224.007Z" transform="translate(-124.791 -211.67)" fill="#263238"/>
    <path id="Trazado_661" data-name="Trazado 661" d="M139.535,218.523a2.6,2.6,0,0,0-2.265.381" transform="translate(-120.357 -209.448)" fill="none" stroke="#263238" stroke-linecap="round" stroke-linejoin="round" stroke-width="0.725"/>
    <path id="Trazado_662" data-name="Trazado 662" d="M147.3,219.285a2.347,2.347,0,0,1,1.9.739" transform="translate(-124.502 -209.806)" fill="none" stroke="#263238" stroke-linecap="round" stroke-linejoin="round" stroke-width="0.725"/>
    <path id="Trazado_663" data-name="Trazado 663" d="M128.029,218.049s3-3.656,3.181-6.842c0,0,10.457-2.347,9.243,7.676,0,0,2.459-8.644-5.986-10.287s-10.522,10.739-6.743,15.2C127.724,223.8,126.169,220.343,128.029,218.049Z" transform="translate(-115.665 -205.33)" fill="#263238"/>
    <path id="Trazado_664" data-name="Trazado 664" d="M128.106,225.166a2.195,2.195,0,0,0-1.989-2.347c-1.555-.094-2.823,2.934.851,4.325C127.5,227.314,127.895,226.832,128.106,225.166Z" transform="translate(-115.114 -211.267)" fill="#e4897b"/>
    <path id="Trazado_665" data-name="Trazado 665" d="M136.929,210.768s2.347-2.717.4-4.988-10.146-2.717-12.91-.293-2.471,3.738-2.471,3.738a17.511,17.511,0,0,0-1.543,8.732c.516,4.618-1.268,7.482-.082,8.949a3.722,3.722,0,0,0,2.347,1.549,6.079,6.079,0,0,1,0-3.31c.54-1.467,0-.44,0-.44s.628,3.814,1.279,4.254a6.842,6.842,0,0,0,2.259.587,12.194,12.194,0,0,1-.945-5.745c.37-2.864,1.907-5.8,1.543-9.172a9.055,9.055,0,0,1,1.649-5.98S134.312,207.98,136.929,210.768Z" transform="translate(-113.186 -203.436)" fill="#263238"/>
    <path id="Trazado_666" data-name="Trazado 666" d="M145.282,209.588a2.864,2.864,0,0,0,1.89-3.016c-.223-2.347-4.589-3.767-7.042-3.368" transform="translate(-121.539 -203.136)" fill="none" stroke="#263238" stroke-linecap="round" stroke-linejoin="round" stroke-width="0.5"/>
    <path id="Trazado_667" data-name="Trazado 667" d="M121.949,212.5a16.537,16.537,0,0,0-2.746,9.254c.282,4.935-1.408,6.455-.892,7.987" transform="translate(-112.483 -207.005)" fill="none" stroke="#263238" stroke-linecap="round" stroke-linejoin="round" stroke-width="0.5"/>
    <path id="Trazado_668" data-name="Trazado 668" d="M138.27,231.5s.182,1.367,2.934,1.473" transform="translate(-120.771 -214.855)" fill="none" stroke="#263238" stroke-linecap="round" stroke-linejoin="round" stroke-width="0.5"/>
    <path id="Trazado_669" data-name="Trazado 669" d="M165.594,296.18s3.374.675,4.008.874a33.882,33.882,0,0,1,5.411,3.521c.8.786-4.384,2.06-5.411,1.76s-2.881-2.494-2.881-2.494l-3.72-.587Z" transform="translate(-130.988 -241.579)" fill="#e4897b"/>
    <path id="Trazado_670" data-name="Trazado 670" d="M111.965,251.69s-2.8.962-3.386,9.178.7,21.713,6.455,25.433,26.619-4.108,26.619-4.108.91-4.26,0-5.188c-3.767-3.844-16.836-.34-21.4-2.471S117.9,255.815,111.965,251.69Z" transform="translate(-108.45 -223.197)" fill="#a96cfe"/>
    <path id="Trazado_671" data-name="Trazado 671" d="M111.965,251.69s-2.8.962-3.386,9.178.7,21.713,6.455,25.433,26.619-4.108,26.619-4.108.91-4.26,0-5.188c-3.767-3.844-16.836-.34-21.4-2.471S117.9,255.815,111.965,251.69Z" transform="translate(-108.45 -223.197)" opacity="0.1"/>
    <path id="Trazado_672" data-name="Trazado 672" d="M164.517,294.83l-.687,5.434,2.934.129,1.273-4.771Z" transform="translate(-131.331 -241.021)" fill="#a96cfe"/>
    <path id="Trazado_673" data-name="Trazado 673" d="M164.517,294.83l-.687,5.434,2.934.129,1.273-4.771Z" transform="translate(-131.331 -241.021)" opacity="0.2"/>
    <path id="Trazado_674" data-name="Trazado 674" d="M199.383,305v1.725c0,.44-.522.622-.957.622H163.974c-.44,0-.974-.182-.974-.622V305Z" transform="translate(-130.988 -245.223)" fill="#263238"/>
    <path id="Trazado_675" data-name="Trazado 675" d="M199.383,305v1.725c0,.44-.522.622-.957.622H163.974c-.44,0-.974-.182-.974-.622V305Z" transform="translate(-130.988 -245.223)" fill="#fff" opacity="0.4"/>
    <path id="Trazado_676" data-name="Trazado 676" d="M207.647,305v1.725c0,.44-.522.622-.957.622H183.968c-.446,0-.968-.182-.968-.622V305Z" transform="translate(-139.252 -245.223)" opacity="0.2"/>
    <path id="Trazado_677" data-name="Trazado 677" d="M214.6,273.878l-4.108,18.6a1.391,1.391,0,0,1-1.332,1.056H186.766a.9.9,0,0,1-.845-1.174l4.108-18.462a1.285,1.285,0,0,1,1.32-.9h22.405C214.359,273,214.734,273.268,214.6,273.878Z" transform="translate(-140.442 -232)" fill="#263238"/>
    <path id="Trazado_678" data-name="Trazado 678" d="M215.134,273.878l-4.108,18.6a1.391,1.391,0,0,1-1.332,1.056H188.063a.91.91,0,0,1-.851-1.174L191.32,273.9a1.285,1.285,0,0,1,1.326-.9h21.642C214.893,273,215.269,273.267,215.134,273.878Z" transform="translate(-140.976 -231.999)" fill="#fff" opacity="0.4"/>
    <path id="Trazado_679" data-name="Trazado 679" d="M212.719,288.581h0a3.2,3.2,0,0,1-2.934,2.887c-1.226,0-2-1.3-1.637-2.887a3.492,3.492,0,0,1,2.829-2.881c-.358,1.59.4,2.881,1.649,2.881Z" transform="translate(-149.606 -237.249)" opacity="0.2"/>
  </g>
  <g id="freepik--Bubble-1--inject-86" transform="translate(65.725 57.508)">
    <path id="Trazado_680" data-name="Trazado 680" d="M139.188,153h-23.8A3.31,3.31,0,0,0,112,156.192V169.1a3.368,3.368,0,0,0,3.386,3.263H125.6l1.813,4.6,1.813-4.6H139.2a3.316,3.316,0,0,0,3.327-3.263v-12.91A3.257,3.257,0,0,0,139.188,153Z" transform="translate(-112 -152.998)" fill="#a96cfe"/>
    <path id="Trazado_681" data-name="Trazado 681" d="M139.188,153h-23.8A3.31,3.31,0,0,0,112,156.192V169.1a3.368,3.368,0,0,0,3.386,3.263H125.6l1.813,4.6,1.813-4.6H139.2a3.316,3.316,0,0,0,3.327-3.263v-12.91A3.257,3.257,0,0,0,139.188,153Z" transform="translate(-112 -152.998)" fill="#fff" opacity="0.6"/>
    <path id="Trazado_682" data-name="Trazado 682" d="M119,168.889l6.825-4.988,2.124.587,2.864-1.76,4.566,1.467,5.334-4.695v10.27H119Z" transform="translate(-114.892 -155.685)" opacity="0.2"/>
    <path id="Trazado_683" data-name="Trazado 683" d="M119,162v8.8h21.713v-8.216l-6.948,5.281-2.952-2.471-6.631,3.057-4.595,1.76V162Z" transform="translate(-114.892 -156.718)" fill="#fff"/>
  </g>
  <g id="freepik--Line--inject-86" transform="translate(138.128 107.043)">
    <line id="Línea_155" data-name="Línea 155" y2="1.467" transform="translate(52.005 3.867)" fill="none" stroke="#a96cfe" stroke-linejoin="round" stroke-width="2"/>
    <line id="Línea_156" data-name="Línea 156" y2="22.065" transform="translate(52.005 7.054)" fill="none" stroke="#a96cfe" stroke-linejoin="round" stroke-width="2" stroke-dasharray="4.884 2.93"/>
    <path id="Trazado_684" data-name="Trazado 684" d="M322.967,288.5v1.467H321.5" transform="translate(-270.962 -258.519)" fill="none" stroke="#a96cfe" stroke-linejoin="round" stroke-width="2"/>
    <line id="Línea_157" data-name="Línea 157" x1="44.399" transform="translate(4.442 31.448)" fill="none" stroke="#a96cfe" stroke-linejoin="round" stroke-width="2" stroke-dasharray="4.819 2.892"/>
    <line id="Línea_158" data-name="Línea 158" x1="1.467" transform="translate(2.124 31.448)" fill="none" stroke="#a96cfe" stroke-linejoin="round" stroke-width="2"/>
    <circle id="Elipse_100" data-name="Elipse 100" cx="2.124" cy="2.124" r="2.124" transform="translate(49.88)" fill="#a96cfe"/>
    <circle id="Elipse_101" data-name="Elipse 101" cx="2.124" cy="2.124" r="2.124" transform="translate(0 29.324)" fill="#a96cfe"/>
  </g>
  <g id="freepik--Character-2--inject-86" transform="translate(122.441 10.713)">
    <rect id="Rectángulo_697" data-name="Rectángulo 697" width="134.812" height="93.694" rx="6.3" transform="translate(0 0)" fill="#263238"/>
    <rect id="Rectángulo_698" data-name="Rectángulo 698" width="134.812" height="93.694" rx="6.3" transform="translate(0 0)" fill="#fff" opacity="0.4"/>
    <rect id="Rectángulo_699" data-name="Rectángulo 699" width="134.812" height="61.339" transform="translate(0 15.503)" fill="#a96cfe"/>
    <rect id="Rectángulo_700" data-name="Rectángulo 700" width="134.812" height="61.339" transform="translate(0 15.503)" opacity="0.4"/>
    <path id="Trazado_685" data-name="Trazado 685" d="M339.863,153.1v-12.91h-2.347V124.347h-2.934v15.844H329.3v23.473H318.737V140.192H299.958v23.473h-9.389v1.174h-8.8V141.365h-3.521v13.5h-8.8v-4.108H253.6v-12.91h-2.347V122h-2.934v15.844h-5.281v23.473H232.473V137.844H213.695v23.473H209v8.8H343.384V153.1Z" transform="translate(-208.794 -93.396)" fill="#a96cfe"/>
    <path id="Trazado_686" data-name="Trazado 686" d="M339.863,153.1v-12.91h-2.347V124.347h-2.934v15.844H329.3v23.473H318.737V140.192H299.958v23.473h-9.389v1.174h-8.8V141.365h-3.521v13.5h-8.8v-4.108H253.6v-12.91h-2.347V122h-2.934v15.844h-5.281v23.473H232.473V137.844H213.695v23.473H209v8.8H343.384V153.1Z" transform="translate(-208.794 -93.396)" opacity="0.3"/>
    <rect id="Rectángulo_701" data-name="Rectángulo 701" width="23.592" height="49.206" transform="translate(8.763 27.636)" fill="#a96cfe"/>
    <g id="Grupo_67" data-name="Grupo 67" transform="translate(8.763 32.355)" opacity="0.4">
      <rect id="Rectángulo_702" data-name="Rectángulo 702" width="23.592" height="0.674" transform="translate(0 0)"/>
    </g>
    <rect id="Rectángulo_703" data-name="Rectángulo 703" width="23.592" height="0.674" transform="translate(8.763 36.399)" opacity="0.4"/>
    <rect id="Rectángulo_704" data-name="Rectángulo 704" width="23.592" height="0.674" transform="translate(8.763 50.554)" opacity="0.4"/>
    <rect id="Rectángulo_705" data-name="Rectángulo 705" width="23.592" height="0.674" transform="translate(8.763 55.273)" opacity="0.4"/>
    <rect id="Rectángulo_706" data-name="Rectángulo 706" width="23.592" height="0.674" transform="translate(8.763 59.317)" opacity="0.4"/>
    <rect id="Rectángulo_707" data-name="Rectángulo 707" width="23.592" height="0.674" transform="translate(8.763 64.71)" opacity="0.4"/>
    <rect id="Rectángulo_708" data-name="Rectángulo 708" width="23.592" height="27.636" transform="translate(42.466 49.206)" fill="#a96cfe"/>
    <rect id="Rectángulo_709" data-name="Rectángulo 709" width="23.592" height="0.674" transform="translate(42.466 53.925)" opacity="0.4"/>
    <rect id="Rectángulo_710" data-name="Rectángulo 710" width="23.592" height="0.674" transform="translate(42.466 57.969)" opacity="0.4"/>
    <rect id="Rectángulo_711" data-name="Rectángulo 711" width="23.592" height="0.674" transform="translate(42.466 63.362)" opacity="0.4"/>
    <rect id="Rectángulo_712" data-name="Rectángulo 712" width="23.592" height="37.073" transform="translate(76.169 39.769)" fill="#a96cfe"/>
    <rect id="Rectángulo_713" data-name="Rectángulo 713" width="23.592" height="0.674" transform="translate(76.169 44.488)" opacity="0.4"/>
    <rect id="Rectángulo_714" data-name="Rectángulo 714" width="23.592" height="0.674" transform="translate(76.169 54.599)" opacity="0.4"/>
    <rect id="Rectángulo_715" data-name="Rectángulo 715" width="23.592" height="0.674" transform="translate(76.169 68.08)" opacity="0.4"/>
    <rect id="Rectángulo_716" data-name="Rectángulo 716" width="23.592" transform="translate(76.169 72.798)" opacity="0.4"/>
    <g id="Grupo_68" data-name="Grupo 68" transform="translate(8.763 27.636)" opacity="0.2">
      <rect id="Rectángulo_717" data-name="Rectángulo 717" width="23.592" height="49.206" transform="translate(0 0)"/>
    </g>
    <g id="Grupo_69" data-name="Grupo 69" transform="translate(42.466 49.206)" opacity="0.2">
      <rect id="Rectángulo_718" data-name="Rectángulo 718" width="23.592" height="27.636" transform="translate(0 0)"/>
    </g>
    <g id="Grupo_70" data-name="Grupo 70" transform="translate(76.169 39.77)" opacity="0.2">
      <rect id="Rectángulo_719" data-name="Rectángulo 719" width="23.592" height="37.073" transform="translate(0 0)"/>
    </g>
    <path id="Trazado_687" data-name="Trazado 687" d="M385.619,197.88H342l8.538-45.344A5.569,5.569,0,0,1,356.008,148h32.276a5.563,5.563,0,0,1,5.469,6.6Z" transform="translate(-263.746 -104.138)" fill="#a96cfe"/>
    <path id="Trazado_688" data-name="Trazado 688" d="M385.619,197.88H342l8.538-45.344A5.569,5.569,0,0,1,356.008,148h32.276a5.563,5.563,0,0,1,5.469,6.6Z" transform="translate(-263.746 -104.138)" fill="#fff" opacity="0.4"/>
    <path id="Trazado_689" data-name="Trazado 689" d="M408.343,197.88H397l8.544-45.344A5.563,5.563,0,0,1,411.014,148h0a5.563,5.563,0,0,1,5.469,6.6Z" transform="translate(-286.47 -104.138)" opacity="0.2"/>
    <g id="freepik--group--inject-86" transform="translate(36.005 25.319)">
      <path id="Trazado_690" data-name="Trazado 690" d="M336.048,175.827s-.651,1.76-1.69,4.014c-1.655,3.609-4.29,8.48-6.819,9.448-2.072.8-7.277.945-11.924.9s-8.615-.276-8.615-.276V186.39l15.258-4.067s8.051-14.53,12.81-16.684Z" transform="translate(-285.289 -136.745)" fill="#a96cfe"/>
      <path id="Trazado_691" data-name="Trazado 691" d="M340.423,184.568c-1.655,3.609-4.29,8.48-6.819,9.448-2.071.8-7.277.945-11.924.9,0,0,7.435-4.026,9.577-6.144,2.377-2.347,8.5-11.69,8.5-11.69Z" transform="translate(-291.355 -141.472)" opacity="0.2"/>
      <path id="Trazado_692" data-name="Trazado 692" d="M367.516,159.921c1.426-.651,9.947-.651,9.947-.651v6.3l-12.03,2.248S364.658,161.212,367.516,159.921Z" transform="translate(-309.392 -134.114)" fill="#a96cfe"/>
      <path id="Trazado_693" data-name="Trazado 693" d="M378.594,204c-.241-5.452-2.535-23.221.587-40.4a50.185,50.185,0,0,0-7.318-.728,92.874,92.874,0,0,0-10.768.235,47.028,47.028,0,0,0-7.253,1.479s-3.368,12.517.381,39.417Z" transform="translate(-304.068 -135.575)" fill="#fff"/>
      <path id="Trazado_694" data-name="Trazado 694" d="M382.891,193.206c2.148-.475,4.747-2.559,6.872-4.612a112.341,112.341,0,0,1,.587-11.514C387.328,181.534,379.183,194.051,382.891,193.206Z" transform="translate(-316.253 -141.472)" opacity="0.1"/>
      <path id="Trazado_695" data-name="Trazado 695" d="M376.506,142.34c-.587,3.48-1.144,9.841,1.326,12.1a11.1,11.1,0,0,1-7.811,3.521c-4.436.194-2.934-3.31-2.934-3.31,3.85-1.009,3.685-3.873,2.934-6.549Z" transform="translate(-310.014 -127.119)" fill="#b97964"/>
      <path id="Trazado_696" data-name="Trazado 696" d="M376.1,146.36l-3.844,3.427a11.007,11.007,0,0,1,.376,1.9c1.473-.246,3.462-1.907,3.586-3.456A5.152,5.152,0,0,0,376.1,146.36Z" transform="translate(-312.253 -128.78)" opacity="0.2"/>
      <path id="Trazado_697" data-name="Trazado 697" d="M365.589,126.016c1.919,1.3,1.045,3.521-3.3,6.972-1.76-2.289-2.06-6.737-.651-7.852S363.881,124.889,365.589,126.016Z" transform="translate(-307.495 -119.796)" fill="#263238"/>
      <path id="Trazado_698" data-name="Trazado 698" d="M373.525,128.324c-.211,4.695-.1,7.459-2.424,9.906-3.521,3.685-9.331,1.637-10.563-3.034-1.068-4.19-.552-11.15,4.008-13.116a6.414,6.414,0,0,1,8.978,6.244Z" transform="translate(-307.215 -118.525)" fill="#b97964"/>
      <path id="Trazado_699" data-name="Trazado 699" d="M370.5,135.016c0,.381-.194.692-.44.7s-.452-.3-.458-.681.182-.692.434-.7S370.468,134.641,370.5,135.016Z" transform="translate(-311.154 -123.809)" fill="#263238"/>
      <path id="Trazado_700" data-name="Trazado 700" d="M363.094,135.157c0,.381-.194.692-.44.7s-.458-.3-.464-.687.188-.7.44-.7S363.088,134.781,363.094,135.157Z" transform="translate(-308.092 -123.867)" fill="#263238"/>
      <path id="Trazado_701" data-name="Trazado 701" d="M364.911,135.9a13.732,13.732,0,0,1-1.76,3.3,2.195,2.195,0,0,0,1.831.311Z" transform="translate(-308.489 -124.458)" fill="#a24e3f"/>
      <path id="Trazado_702" data-name="Trazado 702" d="M371.8,132.274a.252.252,0,0,0,.147,0,.235.235,0,0,0,.041-.317,2.236,2.236,0,0,0-1.843-.9.217.217,0,0,0-.205.229h0a.229.229,0,0,0,.241.2h0a1.761,1.761,0,0,1,1.449.722.211.211,0,0,0,.17.065Z" transform="translate(-311.294 -122.458)" fill="#263238"/>
      <path id="Trazado_703" data-name="Trazado 703" d="M360.165,132.063a.246.246,0,0,0,.205-.129,1.761,1.761,0,0,1,1.244-1.039.229.229,0,0,0,.188-.258.223.223,0,0,0-.246-.188,2.218,2.218,0,0,0-1.59,1.3.223.223,0,0,0,.106.293h0A.275.275,0,0,0,360.165,132.063Z" transform="translate(-307.165 -122.205)" fill="#263238"/>
      <path id="Trazado_704" data-name="Trazado 704" d="M378.752,125.545c-2.183.792-1.872,3.151,1.5,7.564,2.277-1.79,3.65-6.033,2.559-7.453S380.671,124.859,378.752,125.545Z" transform="translate(-314.361 -119.871)" fill="#263238"/>
      <path id="Trazado_705" data-name="Trazado 705" d="M383.878,137.563a4.472,4.472,0,0,1-2.083,2.705c-1.361.775-2.418-.358-2.347-1.837.059-1.338.839-3.351,2.347-3.521A2.016,2.016,0,0,1,383.878,137.563Z" transform="translate(-315.221 -124.043)" fill="#b97964"/>
      <path id="Trazado_706" data-name="Trazado 706" d="M375.381,122.738s.986-2.758-2.259-5.029c-2.8-1.966-10.264-1.69-12.353.657a8.544,8.544,0,0,0-2.019,5.358l1.138-1.76-.311,2.2,3.04-2.347-.945,2.347s3.134-.44,4.695-2.2l-.8,1.6s1.919.235,4.483-1.672c0,0-1.9,2.2.628,3.521S375.381,122.738,375.381,122.738Z" transform="translate(-306.671 -116.402)" fill="#263238"/>
      <path id="Trazado_707" data-name="Trazado 707" d="M370.087,143.38A3.286,3.286,0,0,1,367,144.847" transform="translate(-310.08 -127.548)" fill="none" stroke="#263238" stroke-linecap="round" stroke-linejoin="round" stroke-width="0.5"/>
      <path id="Trazado_708" data-name="Trazado 708" d="M390.5,204.048c-.376-11.214-1.062-32.8-1.009-40.4a42.11,42.11,0,0,0-6.7-.7,25.68,25.68,0,0,0-5.44,1.4s-.076,24.166,2.136,39.711Z" transform="translate(-314.36 -135.624)" fill="#a96cfe"/>
      <path id="Trazado_709" data-name="Trazado 709" d="M390.5,204.048c-.376-11.214-1.062-32.8-1.009-40.4a42.11,42.11,0,0,0-6.7-.7,25.68,25.68,0,0,0-5.44,1.4s-.076,24.166,2.136,39.711Z" transform="translate(-314.36 -135.624)" fill="#fff" opacity="0.2"/>
      <path id="Trazado_710" data-name="Trazado 710" d="M382.182,159.27l-4.812,3.556,1.737,3.914,5.141-5.393Z" transform="translate(-314.364 -134.114)" fill="#a96cfe"/>
      <path id="Trazado_711" data-name="Trazado 711" d="M353.41,203.723c2.793-36.583,6.262-39.535,6.262-39.535l-.681-2.048-7.042,2.165c-3.275,4.812-3.943,29.066-4.078,39.417Z" transform="translate(-302.176 -135.299)" fill="#a96cfe"/>
      <path id="Trazado_712" data-name="Trazado 712" d="M353.41,203.723c2.793-36.583,6.262-39.535,6.262-39.535l-.681-2.048-7.042,2.165c-3.275,4.812-3.943,29.066-4.078,39.417Z" transform="translate(-302.176 -135.299)" fill="#fff" opacity="0.2"/>
      <path id="Trazado_713" data-name="Trazado 713" d="M332.909,198.5s-8.849-.27-9.753-.364-4.747-2.253-5.557-2.347-3,3.333-3.274,4.143,6.115,2.975,6.749,2.887a11.691,11.691,0,0,0,2.089-.775l9.747,1.138Z" transform="translate(-288.312 -149.201)" fill="#b97964"/>
      <path id="Trazado_714" data-name="Trazado 714" d="M371.144,164.15c8.268,2.981-6.244,25.369-10.751,27.675S333,189.3,333,189.3l.9-4.63s20.257.516,22.123.047,6.3-10.017,8.855-14.524A14.418,14.418,0,0,1,371.144,164.15Z" transform="translate(-296.032 -136.13)" fill="#a96cfe"/>
      <path id="Trazado_715" data-name="Trazado 715" d="M334.979,198l-1.174,6.267-2.165-.8.81-5.469Z" transform="translate(-295.47 -150.116)" fill="#a96cfe"/>
      <path id="Trazado_716" data-name="Trazado 716" d="M334.979,198l-1.174,6.267-2.165-.8.81-5.469Z" transform="translate(-295.47 -150.116)" fill="#fff" opacity="0.2"/>
      <path id="Trazado_717" data-name="Trazado 717" d="M366.349,160.5s-3.433,2.347-3.216,4.595l2.84-1.584A4.342,4.342,0,0,1,366.349,160.5Z" transform="translate(-308.478 -134.622)" fill="#a96cfe"/>
      <rect id="Rectángulo_720" data-name="Rectángulo 720" width="55.168" height="2.846" rx="1.08" transform="translate(56.633 55.765) rotate(180)" fill="#a96cfe"/>
      <path id="Trazado_718" data-name="Trazado 718" d="M273,207.31v1.584c0,.352,0,.452.335.452h53.906c.352,0,.921-.1.921-.452V207.31c0-.346-.587-.311-.921-.311H273.335C273,207,273,206.964,273,207.31Z" transform="translate(-271.241 -153.834)" fill="#fff" opacity="0.5"/>
      <path id="Trazado_719" data-name="Trazado 719" d="M328,207.31v1.584c0,.352.182.452.528.452h21.437c.352,0,.921-.1.921-.452V207.31c0-.346-.587-.311-.921-.311H328.528C328.182,207,328,206.964,328,207.31Z" transform="translate(-293.966 -153.834)" opacity="0.2"/>
      <path id="Trazado_720" data-name="Trazado 720" d="M280,203v1.725c0,.44.446.622.88.622h34.453c.44,0,1.05-.182,1.05-.622V203Z" transform="translate(-274.134 -152.182)" fill="#263238"/>
      <path id="Trazado_721" data-name="Trazado 721" d="M280,203v1.725c0,.44.446.622.88.622h34.453c.44,0,1.05-.182,1.05-.622V203Z" transform="translate(-274.134 -152.182)" fill="#fff" opacity="0.6"/>
      <path id="Trazado_722" data-name="Trazado 722" d="M280,203v1.725c0,.44.446.622.88.622H303.6c.44,0,1.045-.182,1.045-.622V203Z" transform="translate(-274.134 -152.182)" opacity="0.2"/>
      <path id="Trazado_723" data-name="Trazado 723" d="M270.031,171.873l4.108,18.6a1.4,1.4,0,0,0,1.332,1.056h22.405a.9.9,0,0,0,.839-1.174L294.607,171.9a1.279,1.279,0,0,0-1.332-.91h-22.4C270.271,170.993,269.9,171.263,270.031,171.873Z" transform="translate(-270.003 -138.953)" fill="#263238"/>
      <path id="Trazado_724" data-name="Trazado 724" d="M270.031,171.873l4.108,18.6a1.4,1.4,0,0,0,1.332,1.056h22.405a.9.9,0,0,0,.839-1.174L294.607,171.9a1.279,1.279,0,0,0-1.332-.91h-22.4C270.271,170.993,269.9,171.263,270.031,171.873Z" transform="translate(-270.003 -138.953)" fill="#fff" opacity="0.6"/>
      <path id="Trazado_725" data-name="Trazado 725" d="M270.031,171.873l4.108,18.6a1.4,1.4,0,0,0,1.332,1.056h21.642a.9.9,0,0,0,.845-1.174L293.85,171.9a1.285,1.285,0,0,0-1.332-.91H270.876C270.271,170.993,269.9,171.263,270.031,171.873Z" transform="translate(-270.003 -138.953)" fill="#fff" opacity="0.4"/>
      <path id="Trazado_726" data-name="Trazado 726" d="M292.655,188.515l-.381-1.725H286.44l.381,1.725Z" transform="translate(-276.794 -145.484)" opacity="0.2"/>
    </g>
    <path id="Trazado_727" data-name="Trazado 727" d="M233.224,153.551a5.773,5.773,0,0,1-.1,1.045l-8.151,43.284H212.7a3.7,3.7,0,0,1-3.7-3.7V148h18.655a5.563,5.563,0,0,1,5.569,5.551Z" transform="translate(-208.794 -104.138)" fill="#a96cfe"/>
    <path id="Trazado_728" data-name="Trazado 728" d="M233.224,153.551a5.773,5.773,0,0,1-.1,1.045l-8.151,43.284H212.7a3.7,3.7,0,0,1-3.7-3.7V148h18.655a5.563,5.563,0,0,1,5.569,5.551Z" transform="translate(-208.794 -104.138)" fill="#fff" opacity="0.4"/>
    <path id="Trazado_729" data-name="Trazado 729" d="M228.246,197.88H216.92l8.544-45.344A5.557,5.557,0,0,1,230.928,148h0a5.563,5.563,0,0,1,5.469,6.6Z" transform="translate(-212.066 -104.138)" opacity="0.2"/>
  </g>
  <g id="freepik--Bubble-2--inject-86" transform="translate(184.851 23.472)">
    <path id="Trazado_730" data-name="Trazado 730" d="M335.328,95h-16.76A3.475,3.475,0,0,0,315,98.192V111.1a3.534,3.534,0,0,0,3.568,3.263H328.4l8.057,4.6-3.269-4.6h2.165A3.163,3.163,0,0,0,338.5,111.1V98.192A3.1,3.1,0,0,0,335.328,95Z" transform="translate(-315 -94.999)" fill="#fff"/>
    <circle id="Elipse_102" data-name="Elipse 102" cx="6.59" cy="6.59" r="6.59" transform="translate(3.786 14.424) rotate(-76.72)" fill="#a96cfe"/>
    <circle id="Elipse_103" data-name="Elipse 103" cx="6.59" cy="6.59" r="6.59" transform="translate(3.786 14.424) rotate(-76.72)" fill="#fff" opacity="0.4"/>
    <path id="Trazado_731" data-name="Trazado 731" d="M329.67,108.523l2.541,3L336.319,106" transform="translate(-321.061 -99.544)" fill="none" stroke="#fff" stroke-linecap="round" stroke-linejoin="round" stroke-width="2"/>
  </g>
</svg>
