<svg xmlns="http://www.w3.org/2000/svg" width="435.294" height="324.347" viewBox="0 0 435.294 324.347">
  <g id="Working_remotely-rafiki" data-name="Working remotely-rafiki" transform="translate(0 -55)">
    <g id="freepik--background-complete--inject-86" transform="translate(0 55)">
      <rect id="Rectángulo_630" data-name="Rectángulo 630" width="435.294" height="0.218" transform="translate(0 285.031)" fill="#ebebeb"/>
      <rect id="Rectángulo_631" data-name="Rectángulo 631" width="28.834" height="0.218" transform="translate(362.844 299.039)" fill="#ebebeb"/>
      <rect id="Rectángulo_632" data-name="Rectángulo 632" width="7.565" height="0.218" transform="translate(280.791 301.406)" fill="#ebebeb"/>
      <rect id="Rectángulo_633" data-name="Rectángulo 633" width="16.707" height="0.218" transform="translate(345.267 290.959)" fill="#ebebeb"/>
      <rect id="Rectángulo_634" data-name="Rectángulo 634" width="37.601" height="0.218" transform="translate(45.671 292.422)" fill="#ebebeb"/>
      <rect id="Rectángulo_635" data-name="Rectángulo 635" width="5.511" height="0.218" transform="translate(91.029 292.422)" fill="#ebebeb"/>
      <rect id="Rectángulo_636" data-name="Rectángulo 636" width="81.557" height="0.218" transform="translate(114.456 296.096)" fill="#ebebeb"/>
      <path id="Trazado_617" data-name="Trazado 617" d="M211.274,301.2H43.172a4.971,4.971,0,0,1-4.962-4.971V59.928A4.971,4.971,0,0,1,43.172,55h168.1a4.971,4.971,0,0,1,4.971,4.971v236.26A4.971,4.971,0,0,1,211.274,301.2ZM43.172,55.174a4.753,4.753,0,0,0-4.745,4.753v236.3a4.753,4.753,0,0,0,4.745,4.753h168.1a4.762,4.762,0,0,0,4.753-4.753V59.928a4.762,4.762,0,0,0-4.753-4.753Z" transform="translate(-4.945 -55)" fill="#ebebeb"/>
      <path id="Trazado_618" data-name="Trazado 618" d="M427.582,301.2H259.471a4.98,4.98,0,0,1-4.971-4.971V59.928A4.98,4.98,0,0,1,259.471,55H427.582a4.971,4.971,0,0,1,4.954,4.928v236.3A4.971,4.971,0,0,1,427.582,301.2ZM259.471,55.174a4.762,4.762,0,0,0-4.753,4.753v236.3a4.762,4.762,0,0,0,4.753,4.753H427.582a4.762,4.762,0,0,0,4.753-4.753V59.928a4.762,4.762,0,0,0-4.753-4.753Z" transform="translate(-32.935 -55)" fill="#ebebeb"/>
      <rect id="Rectángulo_637" data-name="Rectángulo 637" width="153.476" height="194.342" transform="translate(231.385 88.347)" fill="#f0f0f0"/>
      <rect id="Rectángulo_638" data-name="Rectángulo 638" width="142.629" height="41.562" transform="translate(236.809 95.434)" fill="#e0e0e0"/>
      <rect id="Rectángulo_639" data-name="Rectángulo 639" width="8.105" height="34.832" transform="translate(236.809 102.155)" fill="#ebebeb"/>
      <rect id="Rectángulo_640" data-name="Rectángulo 640" width="8.105" height="34.832" transform="translate(275.985 102.155)" fill="#ebebeb"/>
      <rect id="Rectángulo_641" data-name="Rectángulo 641" width="8.142" height="34.989" transform="translate(322.065 103.292) rotate(-9.744)" fill="#ebebeb"/>
      <rect id="Rectángulo_642" data-name="Rectángulo 642" width="8.105" height="30.244" transform="translate(246.847 106.752)" fill="#ebebeb"/>
      <rect id="Rectángulo_643" data-name="Rectángulo 643" width="8.105" height="30.244" transform="translate(265.477 106.752)" fill="#ebebeb"/>
      <rect id="Rectángulo_644" data-name="Rectángulo 644" width="8.105" height="30.244" transform="translate(312.48 106.752)" fill="#ebebeb"/>
      <rect id="Rectángulo_645" data-name="Rectángulo 645" width="8.105" height="30.244" transform="translate(286.832 107.451) rotate(-12.53)" fill="#ebebeb"/>
      <rect id="Rectángulo_646" data-name="Rectángulo 646" width="4.048" height="36.556" transform="translate(257.912 100.431)" fill="#ebebeb"/>
      <rect id="Rectángulo_647" data-name="Rectángulo 647" width="4.048" height="36.556" transform="translate(306.099 100.431)" fill="#ebebeb"/>
      <rect id="Rectángulo_648" data-name="Rectángulo 648" width="142.629" height="41.562" transform="translate(379.437 185.131) rotate(180)" fill="#e0e0e0"/>
      <rect id="Rectángulo_649" data-name="Rectángulo 649" width="8.105" height="34.832" transform="translate(379.437 185.131) rotate(180)" fill="#ebebeb"/>
      <rect id="Rectángulo_650" data-name="Rectángulo 650" width="8.105" height="34.832" transform="translate(340.261 185.131) rotate(180)" fill="#ebebeb"/>
      <rect id="Rectángulo_651" data-name="Rectángulo 651" width="8.105" height="34.832" transform="matrix(-0.985, -0.17, 0.17, -0.985, 289.763, 185.119)" fill="#ebebeb"/>
      <rect id="Rectángulo_652" data-name="Rectángulo 652" width="8.105" height="30.244" transform="translate(369.399 185.131) rotate(180)" fill="#ebebeb"/>
      <rect id="Rectángulo_653" data-name="Rectángulo 653" width="8.105" height="30.244" transform="translate(350.778 185.131) rotate(180)" fill="#ebebeb"/>
      <rect id="Rectángulo_654" data-name="Rectángulo 654" width="8.105" height="30.244" transform="translate(303.766 185.131) rotate(180)" fill="#ebebeb"/>
      <rect id="Rectángulo_655" data-name="Rectángulo 655" width="8.141" height="30.377" transform="translate(322.282 183.365) rotate(-167.347)" fill="#ebebeb"/>
      <rect id="Rectángulo_656" data-name="Rectángulo 656" width="4.048" height="36.556" transform="translate(358.343 185.131) rotate(180)" fill="#ebebeb"/>
      <rect id="Rectángulo_657" data-name="Rectángulo 657" width="4.048" height="36.556" transform="translate(310.147 185.131) rotate(180)" fill="#ebebeb"/>
      <rect id="Rectángulo_658" data-name="Rectángulo 658" width="8.105" height="34.832" transform="translate(236.809 150.298)" fill="#ebebeb"/>
      <rect id="Rectángulo_659" data-name="Rectángulo 659" width="8.105" height="30.244" transform="translate(246.847 154.886)" fill="#ebebeb"/>
      <rect id="Rectángulo_660" data-name="Rectángulo 660" width="8.105" height="30.244" transform="translate(265.477 154.886)" fill="#ebebeb"/>
      <rect id="Rectángulo_661" data-name="Rectángulo 661" width="4.048" height="36.556" transform="translate(257.912 148.566)" fill="#ebebeb"/>
      <rect id="Rectángulo_662" data-name="Rectángulo 662" width="142.629" height="41.562" transform="translate(236.809 191.712)" fill="#e0e0e0"/>
      <rect id="Rectángulo_663" data-name="Rectángulo 663" width="8.105" height="34.832" transform="translate(318.67 198.433)" fill="#ebebeb"/>
      <rect id="Rectángulo_664" data-name="Rectángulo 664" width="8.105" height="34.832" transform="matrix(0.985, -0.17, 0.17, 0.985, 363.275, 198.929)" fill="#ebebeb"/>
      <rect id="Rectángulo_665" data-name="Rectángulo 665" width="8.105" height="30.244" transform="translate(289.54 203.03)" fill="#ebebeb"/>
      <rect id="Rectángulo_666" data-name="Rectángulo 666" width="8.105" height="30.244" transform="translate(308.162 203.03)" fill="#ebebeb"/>
      <rect id="Rectángulo_667" data-name="Rectángulo 667" width="8.105" height="30.244" transform="translate(355.165 203.03)" fill="#ebebeb"/>
      <rect id="Rectángulo_668" data-name="Rectángulo 668" width="8.105" height="30.244" transform="translate(329.521 203.728) rotate(-12.53)" fill="#ebebeb"/>
      <rect id="Rectángulo_669" data-name="Rectángulo 669" width="4.048" height="36.556" transform="translate(300.597 196.71)" fill="#ebebeb"/>
      <rect id="Rectángulo_670" data-name="Rectángulo 670" width="4.048" height="36.556" transform="translate(348.784 196.71)" fill="#ebebeb"/>
      <rect id="Rectángulo_671" data-name="Rectángulo 671" width="8.105" height="34.832" transform="matrix(0.985, -0.17, 0.17, 0.985, 270.066, 198.927)" fill="#ebebeb"/>
      <rect id="Rectángulo_672" data-name="Rectángulo 672" width="8.105" height="30.244" transform="translate(261.951 203.03)" fill="#ebebeb"/>
      <rect id="Rectángulo_673" data-name="Rectángulo 673" width="8.105" height="30.244" transform="translate(236.308 203.736) rotate(-12.53)" fill="#ebebeb"/>
      <rect id="Rectángulo_674" data-name="Rectángulo 674" width="4.048" height="36.556" transform="translate(255.57 196.71)" fill="#ebebeb"/>
      <rect id="Rectángulo_675" data-name="Rectángulo 675" width="23.967" height="33.918" transform="translate(122.483 137.196) rotate(180)" fill="#e0e0e0"/>
      <rect id="Rectángulo_676" data-name="Rectángulo 676" width="20.842" height="30.732" transform="translate(120.916 135.594) rotate(180)" fill="#ebebeb"/>
      <rect id="Rectángulo_677" data-name="Rectángulo 677" width="23.967" height="33.918" transform="translate(92.369 125.434) rotate(180)" fill="#e0e0e0"/>
      <rect id="Rectángulo_678" data-name="Rectángulo 678" width="20.842" height="30.732" transform="translate(90.802 123.833) rotate(180)" fill="#ebebeb"/>
      <rect id="Rectángulo_679" data-name="Rectángulo 679" width="21.582" height="30.54" transform="translate(98.516 96.836) rotate(-90)" fill="#e0e0e0"/>
      <rect id="Rectángulo_680" data-name="Rectángulo 680" width="18.77" height="27.667" transform="translate(99.952 95.434) rotate(-90)" fill="#ebebeb"/>
      <rect id="Rectángulo_681" data-name="Rectángulo 681" width="23.967" height="33.918" transform="translate(58.443 86.946) rotate(-90)" fill="#e0e0e0"/>
      <rect id="Rectángulo_682" data-name="Rectángulo 682" width="20.842" height="30.732" transform="translate(60.044 85.379) rotate(-90)" fill="#ebebeb"/>
      <rect id="Rectángulo_683" data-name="Rectángulo 683" width="18.77" height="26.562" transform="translate(98.507 41.37)" fill="#e0e0e0"/>
      <rect id="Rectángulo_684" data-name="Rectángulo 684" width="16.324" height="24.063" transform="translate(99.735 42.615)" fill="#ebebeb"/>
    </g>
    <g id="freepik--Shadow--inject-86" transform="translate(48.849 359.636)">
      <ellipse id="freepik--path--inject-86" cx="168.798" cy="9.855" rx="168.798" ry="9.855" fill="#f5f5f5"/>
    </g>
    <g id="freepik--Plant--inject-86" transform="translate(326.444 246.345)">
      <path id="Trazado_619" data-name="Trazado 619" d="M405.014,366.55s-6.686-13.059.958-26,9.855-15.958,4.98-18.57-7.1,10.325-7.1,10.325-4.109-8.915-.714-18.282,5.52-24.551.871-26.179-.871,18.97-4.91,26a55.788,55.788,0,0,1-3.926-15.322c-.557-7.487.313-19.475-3.343-22.548s-6.007-.94-2.412,15.61a155.832,155.832,0,0,1,3.569,30.009s-7.94-21.712-13.268-22.348-5.319,6.4-.757,12.493,13.355,17.029,14.8,22.635c0,0-8.706-16.341-16.541-11.318s6.825,14.878,13.364,18.439,11.065,25.926,11.065,25.926Z" transform="translate(-374.969 -274.788)" fill="#a96cfe"/>
      <path id="Trazado_620" data-name="Trazado 620" d="M405.014,366.55s-6.686-13.059.958-26,9.855-15.958,4.98-18.57-7.1,10.325-7.1,10.325-4.109-8.915-.714-18.282,5.52-24.551.871-26.179-.871,18.97-4.91,26a55.788,55.788,0,0,1-3.926-15.322c-.557-7.487.313-19.475-3.343-22.548s-6.007-.94-2.412,15.61a155.832,155.832,0,0,1,3.569,30.009s-7.94-21.712-13.268-22.348-5.319,6.4-.757,12.493,13.355,17.029,14.8,22.635c0,0-8.706-16.341-16.541-11.318s6.825,14.878,13.364,18.439,11.065,25.926,11.065,25.926Z" transform="translate(-374.969 -274.788)" fill="#fff" opacity="0.6"/>
      <path id="Trazado_621" data-name="Trazado 621" d="M402.062,372.691s6.521-13.181-1.3-25.987-10.073-15.81-5.224-18.517,7.235,10.238,7.235,10.238,3.987-8.976.47-18.282-5.842-24.464-1.236-26.161,1.14,18.961,5.224,25.926a55.009,55.009,0,0,0,3.726-15.366c.453-7.531-.575-19.475,3.047-22.592s5.981-1.027,2.612,15.575a156.3,156.3,0,0,0-3.169,30.044s7.653-21.817,12.972-22.513,5.406,6.32.923,12.484-13.128,17.194-14.5,22.836c0,0,8.5-16.454,16.4-11.553s-6.625,14.974-13.111,18.622-10.726,26.065-10.726,26.065Z" transform="translate(-377.302 -275.557)" fill="#a96cfe"/>
      <path id="Trazado_622" data-name="Trazado 622" d="M402.062,372.691s6.521-13.181-1.3-25.987-10.073-15.81-5.224-18.517,7.235,10.238,7.235,10.238,3.987-8.976.47-18.282-5.842-24.464-1.236-26.161,1.14,18.961,5.224,25.926a55.009,55.009,0,0,0,3.726-15.366c.453-7.531-.575-19.475,3.047-22.592s5.981-1.027,2.612,15.575a156.3,156.3,0,0,0-3.169,30.044s7.653-21.817,12.972-22.513,5.406,6.32.923,12.484-13.128,17.194-14.5,22.836c0,0,8.5-16.454,16.4-11.553s-6.625,14.974-13.111,18.622-10.726,26.065-10.726,26.065Z" transform="translate(-377.302 -275.557)" fill="#fff" opacity="0.7"/>
      <path id="Trazado_623" data-name="Trazado 623" d="M429.93,375.57H376.11l4.353,34.545h45.114Z" transform="translate(-375.117 -287.83)" fill="#a96cfe"/>
    </g>
    <g id="freepik--Sofa--inject-86" transform="translate(41.448 209.094)">
      <rect id="Rectángulo_685" data-name="Rectángulo 685" width="163.235" height="18.935" transform="translate(19.014 140.592)" fill="#a96cfe"/>
      <rect id="Rectángulo_686" data-name="Rectángulo 686" width="163.235" height="18.935" transform="translate(19.014 140.592)" fill="#fff" opacity="0.4"/>
      <rect id="Rectángulo_687" data-name="Rectángulo 687" width="95.007" height="18.935" transform="translate(87.234 140.592)" fill="#fff" opacity="0.4"/>
      <rect id="Rectángulo_688" data-name="Rectángulo 688" width="163.235" height="18.935" transform="translate(94.799 140.592)" fill="#a96cfe"/>
      <rect id="Rectángulo_689" data-name="Rectángulo 689" width="163.235" height="18.935" transform="translate(94.799 140.592)" fill="#fff" opacity="0.4"/>
      <rect id="Rectángulo_690" data-name="Rectángulo 690" width="95.007" height="18.935" transform="translate(163.027 140.592)" fill="#fff" opacity="0.4"/>
      <rect id="Rectángulo_691" data-name="Rectángulo 691" width="182" height="44" rx="8.64" transform="translate(12.199 100.799)" fill="#a96cfe"/>
      <rect id="Rectángulo_692" data-name="Rectángulo 692" width="112" height="44" rx="8.64" transform="translate(82.199 100.799)" fill="#fff" opacity="0.6"/>
      <rect id="Rectángulo_693" data-name="Rectángulo 693" width="182" height="44" rx="8.64" transform="translate(12.199 100.799)" fill="#fff" opacity="0.6"/>
      <rect id="Rectángulo_694" data-name="Rectángulo 694" width="183" height="44" rx="8.64" transform="translate(85.199 100.799)" fill="#a96cfe"/>
      <rect id="Rectángulo_695" data-name="Rectángulo 695" width="113" height="44" rx="8.64" transform="translate(155.199 100.799)" fill="#fff" opacity="0.6"/>
      <rect id="Rectángulo_696" data-name="Rectángulo 696" width="183" height="44" rx="8.64" transform="translate(85.199 100.799)" fill="#fff" opacity="0.6"/>
      <path id="Trazado_624" data-name="Trazado 624" d="M171.268,334.016H64.186L47.88,249.76A14.931,14.931,0,0,1,62.532,232H139.2a14.931,14.931,0,0,1,14.652,12.092Z" transform="translate(-47.609 -232)" fill="#a96cfe"/>
      <path id="Trazado_625" data-name="Trazado 625" d="M94.6,334.016H64.195L47.88,249.76A14.931,14.931,0,0,1,62.532,232h0a14.939,14.939,0,0,1,14.661,12.092Z" transform="translate(-47.609 -232)" fill="#a96cfe"/>
      <g id="Grupo_66" data-name="Grupo 66" transform="translate(0 0)" opacity="0.6">
        <path id="Trazado_626" data-name="Trazado 626" d="M171.268,334.016H64.186L47.88,249.76A14.931,14.931,0,0,1,62.532,232H139.2a14.931,14.931,0,0,1,14.652,12.092Z" transform="translate(-47.609 -232)" fill="#fff"/>
        <path id="Trazado_627" data-name="Trazado 627" d="M94.6,334.016H64.195L47.88,249.76A14.931,14.931,0,0,1,62.532,232h0a14.939,14.939,0,0,1,14.661,12.092Z" transform="translate(-47.609 -232)" fill="#fff"/>
      </g>
      <path id="Trazado_628" data-name="Trazado 628" d="M173.487,333.859H96.822L79.411,244.005A14.861,14.861,0,0,0,64.75,232h76.664a14.861,14.861,0,0,1,14.652,12.014Z" transform="translate(-49.827 -232)" fill="#fff" opacity="0.6"/>
    </g>
    <g id="freepik--Character-1--inject-86" transform="translate(94.415 183.966)">
      <path id="Trazado_629" data-name="Trazado 629" d="M153.576,248.37c7.087,1.567,6.32,24.794,11.805,31.019,3.961,4.5,19.223,5.659,22.418,8.558s0,8.558,0,8.558-26.327-.592-32.83-3.561S153.576,248.37,153.576,248.37Z" transform="translate(-114.043 -208.99)" fill="#a96cfe"/>
      <path id="Trazado_630" data-name="Trazado 630" d="M153.576,248.37c7.087,1.567,6.32,24.794,11.805,31.019,3.961,4.5,19.223,5.659,22.418,8.558s0,8.558,0,8.558-26.327-.592-32.83-3.561S153.576,248.37,153.576,248.37Z" transform="translate(-114.043 -208.99)" opacity="0.1"/>
      <path id="Trazado_631" data-name="Trazado 631" d="M198.868,321.673c-.087.148-.183.209-.287.192-3.03-.548-11.161,3.9-21.051,9.037l-2.777,1.428-.949.479c-4.988,2.551-10.29,5.128-15.531,7.235-6.172,2.5-12.258,4.353-17.612,4.753-.731.061-1.436.087-2.133.087-24.054,0-16.219-39.69-16.219-39.69l28.729-2.2,3.387,5.842,1.837,3.16,4.144-1.114c2.081-.557,5.18-1.28,8.706-2.037l.871-.183c1.193-.252,2.438-.5,3.709-.757,9.376-1.9,20.137-3.735,24.124-3.761C200.653,304.122,200.157,319.784,198.868,321.673Z" transform="translate(-110.085 -216.058)" fill="#e4897b"/>
      <path id="Trazado_632" data-name="Trazado 632" d="M170.654,307.446l5.572,27.615s-19.153,15.592-35.694,9.507-11.318-34.179-11.318-34.179l21.765-6.669,5.955,7.1Z" transform="translate(-111.035 -216.153)" fill="#a96cfe"/>
      <path id="Trazado_633" data-name="Trazado 633" d="M176.227,335.01a6.766,6.766,0,0,0-.923.6,78.046,78.046,0,0,1-11.683,6.651h0c-6.416,2.612-14.443,4.867-22,2.516-.366-.113-.723-.183-1.08-.313-16.541-6.094-11.318-34.153-11.318-34.153l21.765-6.651,4.353,5.223,1.558,1.863,12.946-3.151.81-.2.27,1.349,2.438,12.084,2.342,11.588Z" transform="translate(-111.037 -216.145)" fill="#fff" opacity="0.6"/>
      <path id="Trazado_634" data-name="Trazado 634" d="M175.83,307.245l5.807,29.9,3.482-2.751-4.64-27.72Z" transform="translate(-117.169 -216.535)" fill="#a96cfe"/>
      <path id="Trazado_635" data-name="Trazado 635" d="M185.119,334.39l-3.482,2.751-.2-1.036-.548-2.821-2.359-12.153-2.3-11.814-.252-1.332-.148-.74,4.649-.575.287,1.706,2.176,13.007,1.672,9.994Z" transform="translate(-117.169 -216.535)" fill="#fff" opacity="0.4"/>
      <path id="Trazado_636" data-name="Trazado 636" d="M203.457,323.14c-.087.148-.183.209-.287.192-3.03-.548-11.161,3.9-21.051,9.037l.5,3.012-3.482,2.751-.2-1.14a78.043,78.043,0,0,1-11.683,6.651h0l-4.353-2.237-6.355-3.326,2.612-23.75,3.77,5.224s8.793,2.133,13.146,2.551l.966.1c1.193.1,2.359.165,3.482.174.766,0,1.489,0,2.176-.061C190.111,321.791,198.208,321.512,203.457,323.14Z" transform="translate(-114.674 -217.526)" opacity="0.2"/>
      <path id="Trazado_637" data-name="Trazado 637" d="M261.8,340.355l-.27,5.755h-.67c-.871.052-2.455.131-4.64.235-12.336.566-42.92,1.645-55.961-.966l-59.931,1.193L153.5,323.5l82.384,12.824,25.36,3.944Z" transform="translate(-112.575 -218.713)" fill="#e4897b"/>
      <path id="Trazado_638" data-name="Trazado 638" d="M289.619,334.136c-.1,2.246-.191,4.275-.279,6.146-.122,2.56-.218,4.84-.322,7.017-.174,3.787-3.282,1.271-10,.81-.165,0-.226-.548-.235-1.332,0-1.68.244-4.518.383-5.876a3.328,3.328,0,0,1,.078-.775,30.655,30.655,0,0,0,2.333-2.42,19.771,19.771,0,0,0,4.2-6.965C287.12,326.014,289.854,328.808,289.619,334.136Z" transform="translate(-130.492 -219.337)" fill="#263238"/>
      <path id="Trazado_639" data-name="Trazado 639" d="M167.294,322.329,160.547,345.9l-13.268-1.271s-34.345,13.111-25.247-38.654l27.2-4.971,7.513,18.065Z" transform="translate(-110.009 -215.801)" fill="#a96cfe"/>
      <path id="Trazado_640" data-name="Trazado 640" d="M167.294,322.329,160.547,345.9l-13.268-1.271s-34.345,13.111-25.247-38.654l27.2-4.971,7.513,18.065Z" transform="translate(-110.009 -215.801)" fill="#fff" opacity="0.6"/>
      <path id="Trazado_641" data-name="Trazado 641" d="M171.448,324.02l-7.618,25.23h4.5l6.677-23.941Z" transform="translate(-115.617 -218.78)" fill="#a96cfe"/>
      <path id="Trazado_642" data-name="Trazado 642" d="M171.448,324.02l-7.618,25.23h4.5l6.677-23.941Z" transform="translate(-115.617 -218.78)" fill="#fff" opacity="0.4"/>
      <path id="Trazado_643" data-name="Trazado 643" d="M285.627,341.556c-.122,2.56-.218,4.84-.322,7.017-.174,3.787-3.282,1.271-10,.81-.165,0-.226-.548-.235-1.332-.871.052-2.455.131-4.64.235-6.355-3.578-15.253-7.74-20.337-10.055l25.36,3.944a3.326,3.326,0,0,1,.078-.775,30.665,30.665,0,0,0,2.333-2.42Z" transform="translate(-126.78 -220.619)" opacity="0.2"/>
      <path id="Trazado_644" data-name="Trazado 644" d="M209.134,304.31c-1.045,0-.331,17.525.775,17.725,4.675.871,68.463,19.667,68.463,19.667l1.863-5.58S219.59,304.258,209.134,304.31Z" transform="translate(-121.413 -216.229)" fill="#e4897b"/>
      <path id="Trazado_645" data-name="Trazado 645" d="M287.858,346.012c-.609-.218,2.394-7.626,2.394-7.626s6.286-3.082,8.854-7.252,4.44-.731,2.76,4.353S298.9,344.4,297.7,348,294.2,348.284,287.858,346.012Z" transform="translate(-131.657 -219.459)" fill="#263238"/>
      <path id="Trazado_646" data-name="Trazado 646" d="M153.765,307.67l2.324,3.622s-24.96,29.748-30.906,31.489c0,0-3.36-2.821-3.273-9.533S153.765,307.67,153.765,307.67Z" transform="translate(-110.191 -216.664)" fill="#a96cfe"/>
      <path id="Trazado_647" data-name="Trazado 647" d="M153.765,307.67l2.324,3.622s-24.96,29.748-30.906,31.489c0,0-3.36-2.821-3.273-9.533S153.765,307.67,153.765,307.67Z" transform="translate(-110.191 -216.664)" opacity="0.1"/>
      <path id="Trazado_648" data-name="Trazado 648" d="M145.35,210.577a9.994,9.994,0,0,1,4.214,8.532c-.218,5.728-1.4,14.6,0,17.83s-3.622,4.127-3.622,4.127a4.353,4.353,0,0,0,0-2.708s0,1.5-2,2.037-18,.94-21.591-2.037,3.918-26.988,8.053-28.433S145.35,210.577,145.35,210.577Z" transform="translate(-110.126 -203.949)" fill="#263238"/>
      <path id="Trazado_649" data-name="Trazado 649" d="M153.26,224.11c0,3.482-.113,10.952,1.515,13.86s-.757,4.127-.757,4.127" transform="translate(-114.248 -205.85)" fill="none" stroke="#263238" stroke-linecap="round" stroke-linejoin="round" stroke-width="0.5"/>
      <path id="Trazado_650" data-name="Trazado 650" d="M149.874,291.363l4.544,10.29-33.013,30.471c-7.47-3.265-1.637-55.848-7.957-74.871-.3-.871-.618-1.872-.958-2.856a2.507,2.507,0,0,1,1.68-3.2,87.262,87.262,0,0,1,9.4-2.116,91.853,91.853,0,0,1,12.9-1.358c5.6,0,12.014.583,12.014.583s.871.218,1.489,6.146C150.509,260,151.023,271.121,149.874,291.363Z" transform="translate(-108.956 -208.906)" fill="#a96cfe"/>
      <path id="Trazado_651" data-name="Trazado 651" d="M126.76,248.154s2.133,3.03,9.211,3.935c0,0,3.482-2.307,2.02-5.11,0,0-1.532-.479-1.863-2.916a11.823,11.823,0,0,1,.653-5.076c.078-.261.174-.54.27-.818l-8.95-5.6S131.252,243.914,126.76,248.154Z" transform="translate(-110.819 -206.945)" fill="#e4897b"/>
      <path id="Trazado_652" data-name="Trazado 652" d="M130.61,236.3s.479,6.4,6.016,8.244a11.823,11.823,0,0,1,.653-5.076C134.014,237.78,130.61,236.3,130.61,236.3Z" transform="translate(-111.317 -207.428)" opacity="0.2"/>
      <path id="Trazado_653" data-name="Trazado 653" d="M122.75,250.585s.81-5.136,2.864-5.415c0,0,4.71,3.8,11.535.522,0,0,1.254-.183,1.28,2.185s2.925,1.915.871,6.094S127.921,259.4,122.75,250.585Z" transform="translate(-110.3 -208.576)" fill="#a96cfe"/>
      <path id="Trazado_654" data-name="Trazado 654" d="M122.75,250.585s.81-5.136,2.864-5.415c0,0,4.71,3.8,11.535.522,0,0,1.254-.183,1.28,2.185s2.925,1.915.871,6.094S127.921,259.4,122.75,250.585Z" transform="translate(-110.3 -208.576)" opacity="0.1"/>
      <path id="Trazado_655" data-name="Trazado 655" d="M139.379,212.2c7.313,1.245,9,5.563,8.253,13.2-.94,9.576-4.17,15.871-12.972,12.293C122.734,232.842,127.235,210.128,139.379,212.2Z" transform="translate(-110.937 -204.292)" fill="#e4897b"/>
      <path id="Trazado_656" data-name="Trazado 656" d="M145.181,226a15.731,15.731,0,0,0,1.611,3.4,2.046,2.046,0,0,1-2.072.5Z" transform="translate(-113.143 -206.095)" fill="#de5753"/>
      <path id="Trazado_657" data-name="Trazado 657" d="M140,224.232c-.087.609-.488,1.045-.871.992s-.653-.6-.566-1.2.488-1.045.871-.984S140.091,223.631,140,224.232Z" transform="translate(-112.345 -205.711)" fill="#263238"/>
      <path id="Trazado_658" data-name="Trazado 658" d="M139.37,222.952l1.393-.322S139.918,223.675,139.37,222.952Z" transform="translate(-112.451 -205.659)" fill="#263238"/>
      <path id="Trazado_659" data-name="Trazado 659" d="M148.643,225.352c-.087.609-.488,1.045-.871.992s-.662-.6-.575-1.2.488-1.045.871-.984A.963.963,0,0,1,148.643,225.352Z" transform="translate(-113.462 -205.856)" fill="#263238"/>
      <path id="Trazado_660" data-name="Trazado 660" d="M148,224.112l1.384-.322S148.583,224.843,148,224.112Z" transform="translate(-113.568 -205.809)" fill="#263238"/>
      <path id="Trazado_661" data-name="Trazado 661" d="M140.63,218.576a3.857,3.857,0,0,0-3.36.566" transform="translate(-112.179 -205.113)" fill="none" stroke="#263238" stroke-linecap="round" stroke-linejoin="round" stroke-width="0.725"/>
      <path id="Trazado_662" data-name="Trazado 662" d="M147.3,219.288a3.482,3.482,0,0,1,2.812,1.1" transform="translate(-113.477 -205.225)" fill="none" stroke="#263238" stroke-linecap="round" stroke-linejoin="round" stroke-width="0.725"/>
      <path id="Trazado_663" data-name="Trazado 663" d="M129.053,222.692s4.449-5.424,4.719-10.151c0,0,15.514-3.482,13.712,11.387,0,0,3.648-12.824-8.88-15.261s-15.61,15.932-10,22.557C128.6,231.224,126.293,226.1,129.053,222.692Z" transform="translate(-110.709 -203.823)" fill="#263238"/>
      <path id="Trazado_664" data-name="Trazado 664" d="M129.812,226.3a3.256,3.256,0,0,0-2.951-3.482c-2.307-.139-4.188,4.353,1.262,6.416C128.907,229.488,129.5,228.774,129.812,226.3Z" transform="translate(-110.537 -205.683)" fill="#e4897b"/>
      <path id="Trazado_665" data-name="Trazado 665" d="M145.157,214.107s3.482-4.031.6-7.4-15.052-4.031-19.153-.435-3.665,5.546-3.665,5.546a25.978,25.978,0,0,0-2.29,12.954c.766,6.852-1.88,11.1-.122,13.276a5.522,5.522,0,0,0,3.482,2.3,9.019,9.019,0,0,1,0-4.91c.8-2.176,0-.653,0-.653s.932,5.659,1.9,6.312a10.15,10.15,0,0,0,3.352.871,18.091,18.091,0,0,1-1.4-8.523c.548-4.248,2.829-8.6,2.29-13.607a13.433,13.433,0,0,1,2.446-8.871S141.275,209.972,145.157,214.107Z" transform="translate(-109.933 -203.23)" fill="#263238"/>
      <path id="Trazado_666" data-name="Trazado 666" d="M147.774,212.707a4.248,4.248,0,0,0,2.8-4.475c-.331-3.482-6.808-5.589-10.447-5" transform="translate(-112.549 -203.136)" fill="none" stroke="#263238" stroke-linecap="round" stroke-linejoin="round" stroke-width="0.5"/>
      <path id="Trazado_667" data-name="Trazado 667" d="M123.756,212.5s-4.492,6.408-4.074,13.729-2.089,9.576-1.323,11.849" transform="translate(-109.713 -204.348)" fill="none" stroke="#263238" stroke-linecap="round" stroke-linejoin="round" stroke-width="0.5"/>
      <path id="Trazado_668" data-name="Trazado 668" d="M138.27,231.5s.27,2.028,4.353,2.185" transform="translate(-112.309 -206.807)" fill="none" stroke="#263238" stroke-linecap="round" stroke-linejoin="round" stroke-width="0.5"/>
      <path id="Trazado_669" data-name="Trazado 669" d="M166.848,296.18s5.006,1,5.946,1.3a50.268,50.268,0,0,1,8.027,5.224c1.184,1.167-6.5,3.056-8.027,2.612s-4.275-3.7-4.275-3.7l-5.52-.871Z" transform="translate(-115.509 -215.177)" fill="#e4897b"/>
      <path id="Trazado_670" data-name="Trazado 670" d="M113.665,251.69s-4.153,1.428-5.023,13.616,1.036,32.212,9.576,37.731,39.49-6.094,39.49-6.094,1.349-6.32,0-7.7c-5.589-5.7-24.977-.5-31.75-3.665S122.475,257.81,113.665,251.69Z" transform="translate(-108.45 -209.419)" fill="#a96cfe"/>
      <path id="Trazado_671" data-name="Trazado 671" d="M113.665,251.69s-4.153,1.428-5.023,13.616,1.036,32.212,9.576,37.731,39.49-6.094,39.49-6.094,1.349-6.32,0-7.7c-5.589-5.7-24.977-.5-31.75-3.665S122.475,257.81,113.665,251.69Z" transform="translate(-108.45 -209.419)" opacity="0.1"/>
      <path id="Trazado_672" data-name="Trazado 672" d="M164.849,294.83l-1.019,8.062,4.353.192,1.889-7.078Z" transform="translate(-115.617 -215.002)" fill="#a96cfe"/>
      <path id="Trazado_673" data-name="Trazado 673" d="M164.849,294.83l-1.019,8.062,4.353.192,1.889-7.078Z" transform="translate(-115.617 -215.002)" opacity="0.2"/>
      <path id="Trazado_674" data-name="Trazado 674" d="M216.976,305v2.56c0,.653-.775.923-1.419.923H164.445c-.653,0-1.445-.27-1.445-.923V305Z" transform="translate(-115.509 -216.318)" fill="#263238"/>
      <path id="Trazado_675" data-name="Trazado 675" d="M216.976,305v2.56c0,.653-.775.923-1.419.923H164.445c-.653,0-1.445-.27-1.445-.923V305Z" transform="translate(-115.509 -216.318)" fill="#fff" opacity="0.4"/>
      <path id="Trazado_676" data-name="Trazado 676" d="M219.565,305v2.56c0,.653-.775.923-1.419.923H184.436c-.662,0-1.436-.27-1.436-.923V305Z" transform="translate(-118.097 -216.318)" opacity="0.2"/>
      <path id="Trazado_677" data-name="Trazado 677" d="M228.487,274.305l-6.094,27.6a2.063,2.063,0,0,1-1.976,1.567H187.195a1.341,1.341,0,0,1-1.254-1.741l6.094-27.389A1.907,1.907,0,0,1,193.994,273h33.239C228.13,273,228.687,273.4,228.487,274.305Z" transform="translate(-118.47 -212.177)" fill="#263238"/>
      <path id="Trazado_678" data-name="Trazado 678" d="M228.654,274.305l-6.094,27.6a2.063,2.063,0,0,1-1.976,1.567h-32.09a1.349,1.349,0,0,1-1.262-1.741l6.094-27.389A1.907,1.907,0,0,1,195.293,273H227.4C228.3,273,228.854,273.4,228.654,274.305Z" transform="translate(-118.637 -212.176)" fill="#fff" opacity="0.4"/>
      <path id="Trazado_679" data-name="Trazado 679" d="M214.972,289.975h0c0,2.359-2.533,4.283-4.353,4.283s-2.96-1.924-2.429-4.283,2.377-4.2,4.2-4.275c-.531,2.359.6,4.275,2.446,4.275Z" transform="translate(-121.34 -213.821)" opacity="0.2"/>
    </g>
    <g id="freepik--Bubble-1--inject-86" transform="translate(97.506 140.316)">
      <path id="Trazado_680" data-name="Trazado 680" d="M152.334,153H117.023A4.91,4.91,0,0,0,112,157.736v19.153a5,5,0,0,0,5.023,4.84h15.148l2.69,6.825,2.69-6.825h14.8a4.919,4.919,0,0,0,4.936-4.84V157.736A4.832,4.832,0,0,0,152.334,153Z" transform="translate(-112 -152.998)" fill="#a96cfe"/>
      <path id="Trazado_681" data-name="Trazado 681" d="M152.334,153H117.023A4.91,4.91,0,0,0,112,157.736v19.153a5,5,0,0,0,5.023,4.84h15.148l2.69,6.825,2.69-6.825h14.8a4.919,4.919,0,0,0,4.936-4.84V157.736A4.832,4.832,0,0,0,152.334,153Z" transform="translate(-112 -152.998)" fill="#fff" opacity="0.6"/>
      <path id="Trazado_682" data-name="Trazado 682" d="M119,173.429l10.125-7.4,3.152.871,4.248-2.612,6.773,2.176,7.914-6.965v15.235H119Z" transform="translate(-112.906 -153.84)" opacity="0.2"/>
      <path id="Trazado_683" data-name="Trazado 683" d="M119,162v13.059h32.212V162.871L140.9,170.706l-4.379-3.665-9.838,4.536-6.817,2.612V162Z" transform="translate(-112.906 -154.163)" fill="#fff"/>
    </g>
    <g id="freepik--Line--inject-86" transform="translate(204.919 213.804)">
      <line id="Línea_155" data-name="Línea 155" y2="2.176" transform="translate(77.152 5.737)" fill="none" stroke="#a96cfe" stroke-linejoin="round" stroke-width="2"/>
      <line id="Línea_156" data-name="Línea 156" y2="32.734" transform="translate(77.152 10.464)" fill="none" stroke="#a96cfe" stroke-linejoin="round" stroke-width="2" stroke-dasharray="4.884 2.93"/>
      <path id="Trazado_684" data-name="Trazado 684" d="M323.677,288.5v2.176H321.5" transform="translate(-246.525 -244.022)" fill="none" stroke="#a96cfe" stroke-linejoin="round" stroke-width="2"/>
      <line id="Línea_157" data-name="Línea 157" x1="65.869" transform="translate(6.59 46.655)" fill="none" stroke="#a96cfe" stroke-linejoin="round" stroke-width="2" stroke-dasharray="4.819 2.892"/>
      <line id="Línea_158" data-name="Línea 158" x1="2.176" transform="translate(3.152 46.655)" fill="none" stroke="#a96cfe" stroke-linejoin="round" stroke-width="2"/>
      <circle id="Elipse_100" data-name="Elipse 100" cx="3.152" cy="3.152" r="3.152" transform="translate(74)" fill="#a96cfe"/>
      <circle id="Elipse_101" data-name="Elipse 101" cx="3.152" cy="3.152" r="3.152" transform="translate(0 43.503)" fill="#a96cfe"/>
    </g>
    <g id="freepik--Character-2--inject-86" transform="translate(181.688 71.179)">
      <rect id="Rectángulo_697" data-name="Rectángulo 697" width="200" height="139" rx="6.3" transform="translate(-0.041 -0.286)" fill="#263238"/>
      <rect id="Rectángulo_698" data-name="Rectángulo 698" width="200" height="139" rx="6.3" transform="translate(-0.041 -0.286)" fill="#fff" opacity="0.4"/>
      <rect id="Rectángulo_699" data-name="Rectángulo 699" width="200" height="91" transform="translate(-0.041 22.714)" fill="#a96cfe"/>
      <rect id="Rectángulo_700" data-name="Rectángulo 700" width="200" height="91" transform="translate(-0.041 22.714)" opacity="0.4"/>
      <path id="Trazado_685" data-name="Trazado 685" d="M403.141,168.141V148.988h-3.482V125.482h-4.353v23.506h-7.835v34.824H371.8V148.988H343.941v34.824H330.012v1.741H316.953V150.729h-5.224v20.024H298.671v-6.094H275.165V145.506h-3.482V122h-4.353v23.506h-7.835v34.824H243.824V145.506H215.965v34.824H209v13.059H408.365V168.141Z" transform="translate(-208.735 -79.85)" fill="#a96cfe"/>
      <path id="Trazado_686" data-name="Trazado 686" d="M403.141,168.141V148.988h-3.482V125.482h-4.353v23.506h-7.835v34.824H371.8V148.988H343.941v34.824H330.012v1.741H316.953V150.729h-5.224v20.024H298.671v-6.094H275.165V145.506h-3.482V122h-4.353v23.506h-7.835v34.824H243.824V145.506H215.965v34.824H209v13.059H408.365V168.141Z" transform="translate(-208.735 -79.85)" opacity="0.3"/>
      <rect id="Rectángulo_701" data-name="Rectángulo 701" width="35" height="73" transform="translate(12.959 40.714)" fill="#a96cfe"/>
      <g id="Grupo_67" data-name="Grupo 67" transform="translate(13.248 47.315)" opacity="0.4">
        <rect id="Rectángulo_702" data-name="Rectángulo 702" width="35" height="1" transform="translate(-0.289 0.399)"/>
      </g>
      <rect id="Rectángulo_703" data-name="Rectángulo 703" width="35" height="1" transform="translate(12.959 53.714)" opacity="0.4"/>
      <rect id="Rectángulo_704" data-name="Rectángulo 704" width="35" height="1" transform="translate(12.959 74.714)" opacity="0.4"/>
      <rect id="Rectángulo_705" data-name="Rectángulo 705" width="35" height="1" transform="translate(12.959 81.714)" opacity="0.4"/>
      <rect id="Rectángulo_706" data-name="Rectángulo 706" width="35" height="1" transform="translate(12.959 87.714)" opacity="0.4"/>
      <rect id="Rectángulo_707" data-name="Rectángulo 707" width="35" height="1" transform="translate(12.959 95.714)" opacity="0.4"/>
      <rect id="Rectángulo_708" data-name="Rectángulo 708" width="35" height="41" transform="translate(62.959 72.714)" fill="#a96cfe"/>
      <rect id="Rectángulo_709" data-name="Rectángulo 709" width="35" height="1" transform="translate(62.959 79.714)" opacity="0.4"/>
      <rect id="Rectángulo_710" data-name="Rectángulo 710" width="35" height="1" transform="translate(62.959 85.714)" opacity="0.4"/>
      <rect id="Rectángulo_711" data-name="Rectángulo 711" width="35" height="1" transform="translate(62.959 93.714)" opacity="0.4"/>
      <rect id="Rectángulo_712" data-name="Rectángulo 712" width="35" height="55" transform="translate(112.959 58.714)" fill="#a96cfe"/>
      <rect id="Rectángulo_713" data-name="Rectángulo 713" width="35" height="1" transform="translate(112.959 65.714)" opacity="0.4"/>
      <rect id="Rectángulo_714" data-name="Rectángulo 714" width="35" height="1" transform="translate(112.959 80.714)" opacity="0.4"/>
      <rect id="Rectángulo_715" data-name="Rectángulo 715" width="35" height="1" transform="translate(112.959 100.714)" opacity="0.4"/>
      <rect id="Rectángulo_716" data-name="Rectángulo 716" width="35" transform="translate(112.959 107.714)" opacity="0.4"/>
      <g id="Grupo_68" data-name="Grupo 68" transform="translate(13.248 40.691)" opacity="0.2">
        <rect id="Rectángulo_717" data-name="Rectángulo 717" width="35" height="73" transform="translate(-0.289 0.023)"/>
      </g>
      <g id="Grupo_69" data-name="Grupo 69" transform="translate(63.402 72.865)" opacity="0.2">
        <rect id="Rectángulo_718" data-name="Rectángulo 718" width="35" height="41" transform="translate(-0.442 -0.15)"/>
      </g>
      <g id="Grupo_70" data-name="Grupo 70" transform="translate(112.609 58.67)" opacity="0.2">
        <rect id="Rectángulo_719" data-name="Rectángulo 719" width="35" height="55" transform="translate(0.35 0.044)"/>
      </g>
      <path id="Trazado_687" data-name="Trazado 687" d="M406.711,222H342l12.667-67.27a8.262,8.262,0,0,1,8.114-6.73h47.882a8.253,8.253,0,0,1,8.114,9.785Z" transform="translate(-225.947 -83.215)" fill="#a96cfe"/>
      <path id="Trazado_688" data-name="Trazado 688" d="M406.711,222H342l12.667-67.27a8.262,8.262,0,0,1,8.114-6.73h47.882a8.253,8.253,0,0,1,8.114,9.785Z" transform="translate(-225.947 -83.215)" fill="#fff" opacity="0.4"/>
      <path id="Trazado_689" data-name="Trazado 689" d="M413.828,222H397l12.676-67.27A8.253,8.253,0,0,1,417.79,148h0a8.253,8.253,0,0,1,8.114,9.785Z" transform="translate(-233.064 -83.215)" opacity="0.2"/>
      <g id="freepik--group--inject-86" transform="translate(53.374 37.276)">
        <path id="Trazado_690" data-name="Trazado 690" d="M350.094,180.753s-.966,2.612-2.507,5.955c-2.455,5.354-6.364,12.58-10.116,14.016-3.073,1.184-10.8,1.4-17.69,1.332s-12.78-.409-12.78-.409v-5.224l22.635-6.033s11.944-21.556,19-24.751Z" transform="translate(-274.791 -122.774)" fill="#a96cfe"/>
        <path id="Trazado_691" data-name="Trazado 691" d="M349.487,188.189c-2.455,5.354-6.364,12.58-10.116,14.016-3.073,1.184-10.8,1.4-17.69,1.332,0,0,11.03-5.972,14.208-9.115,3.526-3.482,12.606-17.342,12.606-17.342Z" transform="translate(-276.691 -124.254)" opacity="0.2"/>
        <path id="Trazado_692" data-name="Trazado 692" d="M368.57,160.236c2.116-.966,14.756-.966,14.756-.966v9.341l-17.847,3.334S364.33,162.152,368.57,160.236Z" transform="translate(-282.341 -121.949)" fill="#a96cfe"/>
        <path id="Trazado_693" data-name="Trazado 693" d="M391.235,223.916c-.357-8.088-3.761-34.449.871-59.94a74.45,74.45,0,0,0-10.856-1.08,137.786,137.786,0,0,0-15.975.348,69.766,69.766,0,0,0-10.76,2.194s-5,18.57.566,58.477Z" transform="translate(-280.673 -122.407)" fill="#fff"/>
        <path id="Trazado_694" data-name="Trazado 694" d="M383.351,201c3.186-.705,7.043-3.8,10.195-6.843a166.663,166.663,0,0,1,.871-17.081C389.932,183.688,377.848,202.257,383.351,201Z" transform="translate(-284.489 -124.254)" opacity="0.1"/>
        <path id="Trazado_695" data-name="Trazado 695" d="M381.179,142.34c-.871,5.163-1.7,14.6,1.968,17.952a16.463,16.463,0,0,1-11.588,5.224c-6.582.287-4.353-4.91-4.353-4.91,5.711-1.5,5.467-5.746,4.353-9.716Z" transform="translate(-282.535 -119.758)" fill="#b97964"/>
        <path id="Trazado_696" data-name="Trazado 696" d="M377.962,146.36l-5.7,5.084a16.331,16.331,0,0,1,.557,2.821c2.185-.366,5.137-2.829,5.319-5.128A7.643,7.643,0,0,0,377.962,146.36Z" transform="translate(-283.236 -120.279)" opacity="0.2"/>
        <path id="Trazado_697" data-name="Trazado 697" d="M367.932,126.692c2.847,1.933,1.55,5.224-4.9,10.343-2.612-3.4-3.056-9.994-.966-11.648S365.4,125.02,367.932,126.692Z" transform="translate(-281.746 -117.465)" fill="#263238"/>
        <path id="Trazado_698" data-name="Trazado 698" d="M380.032,131.6c-.313,6.965-.148,11.065-3.6,14.7-5.224,5.467-13.842,2.429-15.671-4.5-1.584-6.216-.818-16.541,5.946-19.458a9.516,9.516,0,0,1,13.32,9.263Z" transform="translate(-281.659 -117.067)" fill="#b97964"/>
        <path id="Trazado_699" data-name="Trazado 699" d="M370.932,135.349c0,.566-.287,1.027-.653,1.036s-.67-.444-.679-1.01.27-1.027.644-1.045S370.888,134.791,370.932,135.349Z" transform="translate(-282.892 -118.722)" fill="#263238"/>
        <path id="Trazado_700" data-name="Trazado 700" d="M363.531,135.489c0,.566-.287,1.027-.653,1.036s-.679-.444-.688-1.019.279-1.036.653-1.036S363.522,134.931,363.531,135.489Z" transform="translate(-281.933 -118.74)" fill="#263238"/>
        <path id="Trazado_701" data-name="Trazado 701" d="M365.762,135.9a20.371,20.371,0,0,1-2.612,4.893,3.256,3.256,0,0,0,2.716.461Z" transform="translate(-282.057 -118.925)" fill="#a24e3f"/>
        <path id="Trazado_702" data-name="Trazado 702" d="M372.7,132.862a.374.374,0,0,0,.218,0,.348.348,0,0,0,.061-.47,3.317,3.317,0,0,0-2.734-1.332.322.322,0,0,0-.3.339h0a.34.34,0,0,0,.357.3h0a2.612,2.612,0,0,1,2.15,1.071.314.314,0,0,0,.252.1Z" transform="translate(-282.936 -118.298)" fill="#263238"/>
        <path id="Trazado_703" data-name="Trazado 703" d="M360.272,132.844a.366.366,0,0,0,.3-.192,2.612,2.612,0,0,1,1.846-1.541.34.34,0,0,0,.279-.383.331.331,0,0,0-.366-.279,3.291,3.291,0,0,0-2.359,1.924.331.331,0,0,0,.157.435h0a.408.408,0,0,0,.139.035Z" transform="translate(-281.643 -118.219)" fill="#263238"/>
        <path id="Trazado_704" data-name="Trazado 704" d="M379.424,125.906c-3.239,1.175-2.777,4.675,2.22,11.222,3.378-2.655,5.415-8.95,3.8-11.056S382.271,124.887,379.424,125.906Z" transform="translate(-283.897 -117.488)" fill="#263238"/>
        <path id="Trazado_705" data-name="Trazado 705" d="M386.022,138.852a6.634,6.634,0,0,1-3.091,4.013c-2.02,1.149-3.587-.531-3.482-2.725.087-1.985,1.245-4.971,3.482-5.224S386.536,136.771,386.022,138.852Z" transform="translate(-284.166 -118.795)" fill="#b97964"/>
        <path id="Trazado_706" data-name="Trazado 706" d="M383.422,125.8s1.463-4.092-3.352-7.461c-4.153-2.916-15.227-2.507-18.326.975a12.676,12.676,0,0,0-2.995,7.948l1.689-2.612-.461,3.265,4.51-3.482-1.4,3.482s4.649-.653,6.965-3.265l-1.184,2.368s2.847.348,6.651-2.481c0,0-2.812,3.265.932,5.224S383.422,125.8,383.422,125.8Z" transform="translate(-281.488 -116.402)" fill="#263238"/>
        <path id="Trazado_707" data-name="Trazado 707" d="M371.579,143.38A4.875,4.875,0,0,1,367,145.556" transform="translate(-282.556 -119.893)" fill="none" stroke="#263238" stroke-linecap="round" stroke-linejoin="round" stroke-width="0.5"/>
        <path id="Trazado_708" data-name="Trazado 708" d="M396.861,223.932c-.557-16.637-1.576-48.657-1.5-59.94,0,0-6.912-1.236-9.933-1.045a38.1,38.1,0,0,0-8.07,2.072s-.113,35.851,3.169,58.913Z" transform="translate(-283.896 -122.422)" fill="#a96cfe"/>
        <path id="Trazado_709" data-name="Trazado 709" d="M396.861,223.932c-.557-16.637-1.576-48.657-1.5-59.94,0,0-6.912-1.236-9.933-1.045a38.1,38.1,0,0,0-8.07,2.072s-.113,35.851,3.169,58.913Z" transform="translate(-283.896 -122.422)" fill="#fff" opacity="0.2"/>
        <path id="Trazado_710" data-name="Trazado 710" d="M384.509,159.27l-7.139,5.276,2.577,5.807,7.626-8Z" transform="translate(-283.898 -121.949)" fill="#a96cfe"/>
        <path id="Trazado_711" data-name="Trazado 711" d="M356.088,223.83c4.144-54.273,9.289-58.652,9.289-58.652l-1.01-3.038-10.447,3.212c-4.858,7.139-5.85,43.12-6.051,58.477Z" transform="translate(-280.08 -122.321)" fill="#a96cfe"/>
        <path id="Trazado_712" data-name="Trazado 712" d="M356.088,223.83c4.144-54.273,9.289-58.652,9.289-58.652l-1.01-3.038-10.447,3.212c-4.858,7.139-5.85,43.12-6.051,58.477Z" transform="translate(-280.08 -122.321)" fill="#fff" opacity="0.2"/>
        <path id="Trazado_713" data-name="Trazado 713" d="M341.9,199.812s-13.128-.4-14.469-.54-7.043-3.343-8.245-3.482-4.457,4.945-4.858,6.146,9.072,4.414,10.012,4.283a17.343,17.343,0,0,0,3.1-1.149l14.46,1.689Z" transform="translate(-275.738 -126.675)" fill="#b97964"/>
        <path id="Trazado_714" data-name="Trazado 714" d="M389.588,164.15c12.267,4.423-9.263,37.636-15.949,41.057S333,201.455,333,201.455l1.332-6.869s30.053.766,32.821.07,9.35-14.861,13.137-21.547A21.39,21.39,0,0,1,389.588,164.15Z" transform="translate(-278.156 -122.581)" fill="#a96cfe"/>
        <path id="Trazado_715" data-name="Trazado 715" d="M336.594,198l-1.741,9.3-3.212-1.184,1.2-8.114Z" transform="translate(-277.98 -126.961)" fill="#a96cfe"/>
        <path id="Trazado_716" data-name="Trazado 716" d="M336.594,198l-1.741,9.3-3.212-1.184,1.2-8.114Z" transform="translate(-277.98 -126.961)" fill="#fff" opacity="0.2"/>
        <path id="Trazado_717" data-name="Trazado 717" d="M367.909,160.5s-5.093,3.482-4.771,6.817l4.214-2.351S366.707,162.093,367.909,160.5Z" transform="translate(-282.054 -122.108)" fill="#a96cfe"/>
        <rect id="Rectángulo_720" data-name="Rectángulo 720" width="81.844" height="4.222" rx="1.08" transform="translate(84.018 82.731) rotate(180)" fill="#a96cfe"/>
        <path id="Trazado_718" data-name="Trazado 718" d="M273,207.461v2.351c0,.522,0,.67.5.67h79.972c.522,0,1.367-.148,1.367-.67v-2.351c0-.514-.871-.461-1.367-.461H273.5C273,207,273,206.948,273,207.461Z" transform="translate(-270.391 -128.126)" fill="#fff" opacity="0.5"/>
        <path id="Trazado_719" data-name="Trazado 719" d="M328,207.461v2.351c0,.522.27.67.784.67h31.8c.522,0,1.367-.148,1.367-.67v-2.351c0-.514-.871-.461-1.367-.461h-31.8C328.27,207,328,206.948,328,207.461Z" transform="translate(-277.509 -128.126)" opacity="0.2"/>
        <path id="Trazado_720" data-name="Trazado 720" d="M280,203v2.56c0,.653.662.923,1.306.923h51.112c.653,0,1.558-.27,1.558-.923V203Z" transform="translate(-271.297 -127.608)" fill="#263238"/>
        <path id="Trazado_721" data-name="Trazado 721" d="M280,203v2.56c0,.653.662.923,1.306.923h51.112c.653,0,1.558-.27,1.558-.923V203Z" transform="translate(-271.297 -127.608)" fill="#fff" opacity="0.6"/>
        <path id="Trazado_722" data-name="Trazado 722" d="M280,203v2.56c0,.653.662.923,1.306.923h33.709c.653,0,1.55-.27,1.55-.923V203Z" transform="translate(-271.297 -127.608)" opacity="0.2"/>
        <path id="Trazado_723" data-name="Trazado 723" d="M270.044,172.3l6.094,27.6a2.081,2.081,0,0,0,1.976,1.567h33.239a1.332,1.332,0,0,0,1.245-1.741L306.5,172.338a1.9,1.9,0,0,0-1.976-1.349H271.3C270.4,171,269.844,171.4,270.044,172.3Z" transform="translate(-270.003 -123.465)" fill="#263238"/>
        <path id="Trazado_724" data-name="Trazado 724" d="M270.044,172.3l6.094,27.6a2.081,2.081,0,0,0,1.976,1.567h33.239a1.332,1.332,0,0,0,1.245-1.741L306.5,172.338a1.9,1.9,0,0,0-1.976-1.349H271.3C270.4,171,269.844,171.4,270.044,172.3Z" transform="translate(-270.003 -123.465)" fill="#fff" opacity="0.6"/>
        <path id="Trazado_725" data-name="Trazado 725" d="M270.044,172.3l6.094,27.6a2.081,2.081,0,0,0,1.976,1.567h32.107a1.341,1.341,0,0,0,1.254-1.741l-6.094-27.389a1.907,1.907,0,0,0-1.976-1.349H271.3C270.4,171,269.844,171.4,270.044,172.3Z" transform="translate(-270.003 -123.465)" fill="#fff" opacity="0.4"/>
        <path id="Trazado_726" data-name="Trazado 726" d="M295.66,189.35l-.566-2.56H286.44l.566,2.56Z" transform="translate(-272.13 -125.511)" opacity="0.2"/>
      </g>
      <path id="Trazado_727" data-name="Trazado 727" d="M244.938,156.236a8.567,8.567,0,0,1-.148,1.55L232.7,222H214.485A5.485,5.485,0,0,1,209,216.515V148h27.676a8.253,8.253,0,0,1,8.262,8.236Z" transform="translate(-208.735 -83.215)" fill="#a96cfe"/>
      <path id="Trazado_728" data-name="Trazado 728" d="M244.938,156.236a8.567,8.567,0,0,1-.148,1.55L232.7,222H214.485A5.485,5.485,0,0,1,209,216.515V148h27.676a8.253,8.253,0,0,1,8.262,8.236Z" transform="translate(-208.735 -83.215)" fill="#fff" opacity="0.4"/>
      <path id="Trazado_729" data-name="Trazado 729" d="M233.722,222h-16.8L229.6,154.73A8.244,8.244,0,0,1,237.7,148h0a8.253,8.253,0,0,1,8.114,9.785Z" transform="translate(-209.76 -83.215)" opacity="0.2"/>
    </g>
    <g id="freepik--Bubble-2--inject-86" transform="translate(274.235 89.822)">
      <path id="Trazado_730" data-name="Trazado 730" d="M345.157,95H320.293C317.612,95,315,97.063,315,99.736v19.153c0,2.673,2.612,4.84,5.293,4.84h14.591l11.953,6.825-4.849-6.825H345.2a4.693,4.693,0,0,0,4.666-4.84V99.736A4.605,4.605,0,0,0,345.157,95Z" transform="translate(-315 -94.999)" fill="#fff"/>
      <circle id="Elipse_102" data-name="Elipse 102" cx="9.777" cy="9.777" r="9.777" transform="translate(5.617 21.398) rotate(-76.72)" fill="#a96cfe"/>
      <circle id="Elipse_103" data-name="Elipse 103" cx="9.777" cy="9.777" r="9.777" transform="translate(5.617 21.398) rotate(-76.72)" fill="#fff" opacity="0.4"/>
      <path id="Trazado_731" data-name="Trazado 731" d="M329.67,109.744l3.77,4.457,6.094-8.2" transform="translate(-316.898 -96.422)" fill="none" stroke="#fff" stroke-linecap="round" stroke-linejoin="round" stroke-width="2"/>
    </g>
  </g>
</svg>
