<svg xmlns="http://www.w3.org/2000/svg" width="435.294" height="324.347" viewBox="0 0 435.294 324.347">
  <g id="Job_hunt-rafiki" data-name="Job hunt-rafiki" transform="translate(0 -55)">
    <g id="freepik--background-complete--inject-2" transform="translate(0 55)">
      <rect id="Rectángulo_721" data-name="Rectángulo 721" width="435.294" height="0.218" transform="translate(0 285.031)" fill="#ebebeb"/>
      <rect id="Rectángulo_722" data-name="Rectángulo 722" width="28.834" height="0.218" transform="translate(45.671 293.319)" fill="#ebebeb"/>
      <rect id="Rectángulo_723" data-name="Rectángulo 723" width="46.89" height="0.218" transform="translate(148.993 293.432)" fill="#ebebeb"/>
      <rect id="Rectángulo_724" data-name="Rectángulo 724" width="16.707" height="0.218" transform="translate(92.082 297.811)" fill="#ebebeb"/>
      <rect id="Rectángulo_725" data-name="Rectángulo 725" width="16.741" height="0.218" transform="translate(371.541 297.707)" fill="#ebebeb"/>
      <rect id="Rectángulo_726" data-name="Rectángulo 726" width="26.37" height="0.218" transform="translate(337.414 297.707)" fill="#ebebeb"/>
      <rect id="Rectángulo_727" data-name="Rectángulo 727" width="37.052" height="0.218" transform="translate(285.84 296.27)" fill="#ebebeb"/>
      <path id="Trazado_732" data-name="Trazado 732" d="M211.274,301.2H43.172a4.971,4.971,0,0,1-4.962-4.971V59.928A4.971,4.971,0,0,1,43.172,55h168.1a4.971,4.971,0,0,1,4.971,4.971v236.26A4.971,4.971,0,0,1,211.274,301.2ZM43.172,55.174a4.753,4.753,0,0,0-4.745,4.753v236.3a4.753,4.753,0,0,0,4.745,4.753h168.1a4.762,4.762,0,0,0,4.753-4.753V59.928a4.762,4.762,0,0,0-4.753-4.753Z" transform="translate(-4.945 -55)" fill="#ebebeb"/>
      <path id="Trazado_733" data-name="Trazado 733" d="M427.582,301.2H259.471a4.98,4.98,0,0,1-4.971-4.971V59.928A4.98,4.98,0,0,1,259.471,55H427.582a4.971,4.971,0,0,1,4.954,4.928v236.3A4.971,4.971,0,0,1,427.582,301.2ZM259.471,55.174a4.762,4.762,0,0,0-4.753,4.753v236.3a4.762,4.762,0,0,0,4.753,4.753H427.582a4.762,4.762,0,0,0,4.753-4.753V59.928a4.762,4.762,0,0,0-4.753-4.753Z" transform="translate(-32.935 -55)" fill="#ebebeb"/>
      <rect id="Rectángulo_728" data-name="Rectángulo 728" width="24.655" height="122.666" transform="translate(287.764 285.031) rotate(180)" fill="#e6e6e6"/>
      <path id="Trazado_734" data-name="Trazado 734" d="M306.894,380.42H302.21V367.1H311.8Z" transform="translate(-39.109 -95.389)" fill="#f0f0f0"/>
      <rect id="Rectángulo_729" data-name="Rectángulo 729" width="24.655" height="122.666" transform="translate(379.908 285.031) rotate(180)" fill="#e6e6e6"/>
      <rect id="Rectángulo_730" data-name="Rectángulo 730" width="96.235" height="114.491" transform="translate(359.344 276.856) rotate(180)" fill="#f0f0f0"/>
      <rect id="Rectángulo_731" data-name="Rectángulo 731" width="22.261" height="42.911" transform="translate(266.74 260.202) rotate(-90)" fill="#e6e6e6"/>
      <rect id="Rectángulo_732" data-name="Rectángulo 732" width="22.261" height="42.911" transform="translate(312.794 260.202) rotate(-90)" fill="#e6e6e6"/>
      <path id="Trazado_735" data-name="Trazado 735" d="M377.611,331.966H386.1a13.407,13.407,0,0,0,9.751-4.2H367.86A13.407,13.407,0,0,0,377.611,331.966Z" transform="translate(-47.605 -90.299)" fill="#f0f0f0"/>
      <path id="Trazado_736" data-name="Trazado 736" d="M324.211,331.966H332.7a13.407,13.407,0,0,0,9.751-4.2H314.46A13.407,13.407,0,0,0,324.211,331.966Z" transform="translate(-40.695 -90.299)" fill="#f0f0f0"/>
      <rect id="Rectángulo_733" data-name="Rectángulo 733" width="22.261" height="42.911" transform="translate(266.731 225.596) rotate(-90)" fill="#e6e6e6"/>
      <rect id="Rectángulo_734" data-name="Rectángulo 734" width="22.261" height="42.911" transform="translate(312.794 225.604) rotate(-90)" fill="#e6e6e6"/>
      <path id="Trazado_737" data-name="Trazado 737" d="M377.611,292.214H386.1A13.433,13.433,0,0,0,395.841,288H367.86a13.433,13.433,0,0,0,9.751,4.214Z" transform="translate(-47.605 -85.153)" fill="#f0f0f0"/>
      <path id="Trazado_738" data-name="Trazado 738" d="M324.211,292.218H332.7a13.433,13.433,0,0,0,9.751-4.187H314.46a13.433,13.433,0,0,0,9.751,4.188Z" transform="translate(-40.695 -85.157)" fill="#f0f0f0"/>
      <rect id="Rectángulo_735" data-name="Rectángulo 735" width="22.261" height="42.911" transform="translate(266.74 190.999) rotate(-90)" fill="#e6e6e6"/>
      <rect id="Rectángulo_736" data-name="Rectángulo 736" width="22.261" height="42.911" transform="translate(312.794 190.998) rotate(-90)" fill="#e6e6e6"/>
      <path id="Trazado_739" data-name="Trazado 739" d="M377.611,252.476H386.1a13.407,13.407,0,0,0,9.751-4.2H367.86A13.407,13.407,0,0,0,377.611,252.476Z" transform="translate(-47.605 -80.013)" fill="#f0f0f0"/>
      <path id="Trazado_740" data-name="Trazado 740" d="M324.211,252.476H332.7a13.407,13.407,0,0,0,9.751-4.2H314.46A13.407,13.407,0,0,0,324.211,252.476Z" transform="translate(-40.695 -80.013)" fill="#f0f0f0"/>
      <path id="Trazado_741" data-name="Trazado 741" d="M406.65,380.42h4.684V367.1H401.74Z" transform="translate(-51.99 -95.389)" fill="#f0f0f0"/>
      <path id="Trazado_742" data-name="Trazado 742" d="M408.6,144.77l3.77,10.308H408.6L385.47,144.77Z" transform="translate(-49.884 -66.617)" fill="#f5f5f5"/>
      <path id="Trazado_743" data-name="Trazado 743" d="M412.933,144.77v10.308L389.81,144.77Z" transform="translate(-50.446 -66.617)" fill="#e6e6e6"/>
      <path id="Trazado_744" data-name="Trazado 744" d="M304.433,144.77l3.77,10.308h-3.77L281.31,144.77Z" transform="translate(-36.405 -66.617)" fill="#f5f5f5"/>
      <path id="Trazado_745" data-name="Trazado 745" d="M308.763,144.77v10.308L285.64,144.77Z" transform="translate(-36.965 -66.617)" fill="#e6e6e6"/>
      <rect id="Rectángulo_737" data-name="Rectángulo 737" width="25.151" height="7.844" transform="translate(354.312 70.788)" fill="#e6e6e6"/>
      <rect id="Rectángulo_738" data-name="Rectángulo 738" width="125.043" height="7.844" transform="translate(354.312 78.64) rotate(180)" fill="#f5f5f5"/>
      <path id="Trazado_746" data-name="Trazado 746" d="M377.81,105s.252,27.267,9.664,27.267S397.128,105,397.128,105Z" transform="translate(-48.893 -61.471)" fill="#f0f0f0"/>
      <path id="Trazado_747" data-name="Trazado 747" d="M310.78,126.1s.662,8.889,25.978,8.889,25.978-8.889,25.978-8.889Z" transform="translate(-40.218 -64.201)" fill="#f0f0f0"/>
      <path id="Trazado_748" data-name="Trazado 748" d="M224.36,374.167h1.68l4.814-23.724.871-4.161,5.224-25.857h20.18l10.908,53.741h1.689l-11.117-54.725a.818.818,0,0,0-.81-.662H236.278a.81.81,0,0,0-.8.662l-4.614,22.7-.871,4.153Z" transform="translate(-29.035 -89.136)" fill="#f0f0f0"/>
      <path id="Trazado_749" data-name="Trazado 749" d="M187.23,374.171h1.68l10.917-53.741h20.128l5.224,25.874.871,4.144,4.823,23.724h1.68l-5.659-27.859-.871-4.135-4.614-22.7a.871.871,0,0,0-.81-.662H199.157a.818.818,0,0,0-.81.662Z" transform="translate(-24.23 -89.14)" fill="#f0f0f0"/>
      <path id="Trazado_750" data-name="Trazado 750" d="M256,311.58H197.437a5.076,5.076,0,0,0-5.067,5.067v.174a1.854,1.854,0,0,0,1.854,1.854h64.989a1.854,1.854,0,0,0,1.854-1.854v-.174A5.076,5.076,0,0,0,256,311.58Z" transform="translate(-24.895 -88.204)" fill="#f0f0f0"/>
      <path id="Trazado_751" data-name="Trazado 751" d="M156.85,374.167h1.68l4.814-23.724.871-4.161,5.224-25.857h20.128l10.943,53.741H202.2l-11.117-54.725a.818.818,0,0,0-.81-.662h-21.5a.81.81,0,0,0-.8.662l-4.614,22.7-.871,4.153Z" transform="translate(-20.298 -89.136)" fill="#f0f0f0"/>
      <path id="Trazado_752" data-name="Trazado 752" d="M119.72,374.167h1.689l10.908-53.741h20.137l5.224,25.874.871,4.144,4.823,23.724h1.68l-5.659-27.859-.871-4.135-4.605-22.731a.871.871,0,0,0-.81-.662h-21.46a.818.818,0,0,0-.81.662Z" transform="translate(-15.493 -89.136)" fill="#f0f0f0"/>
      <path id="Trazado_753" data-name="Trazado 753" d="M188.535,311.58H129.927a5.076,5.076,0,0,0-5.067,5.067v.174a1.854,1.854,0,0,0,1.854,1.854h65a1.846,1.846,0,0,0,1.846-1.854v-.174a5.076,5.076,0,0,0-5.023-5.067Z" transform="translate(-16.158 -88.204)" fill="#f0f0f0"/>
      <rect id="Rectángulo_739" data-name="Rectángulo 739" width="84.142" height="134.793" transform="translate(157.559 154.617) rotate(180)" fill="#e6e6e6"/>
      <rect id="Rectángulo_740" data-name="Rectángulo 740" width="87.068" height="134.793" transform="translate(154.991 154.617) rotate(180)" fill="#f0f0f0"/>
      <rect id="Rectángulo_741" data-name="Rectángulo 741" width="84.142" height="10.221" transform="translate(157.559 164.829) rotate(180)" fill="#e6e6e6"/>
      <rect id="Rectángulo_742" data-name="Rectángulo 742" width="87.068" height="10.221" transform="translate(145.832 164.829) rotate(180)" fill="#f0f0f0"/>
      <rect id="Rectángulo_743" data-name="Rectángulo 743" width="119.401" height="71.676" transform="translate(147.286 27.519) rotate(90)" fill="#fafafa"/>
      <path id="Trazado_754" data-name="Trazado 754" d="M162.972,206,137.759,86.61H116.43L141.642,206Z" transform="translate(-15.067 -59.091)" fill="#fff"/>
      <path id="Trazado_755" data-name="Trazado 755" d="M163.138,192.4a.548.548,0,0,0,.548-.548V92.278a.548.548,0,0,0-1.1,0v99.578a.548.548,0,0,0,.548.548Z" transform="translate(-21.041 -59.753)" fill="#f0f0f0"/>
      <path id="Trazado_756" data-name="Trazado 756" d="M135.146,206,109.934,86.61H101.62L126.824,206Z" transform="translate(-13.151 -59.091)" fill="#fff"/>
      <rect id="Rectángulo_744" data-name="Rectángulo 744" width="119.401" height="0.975" transform="translate(76.594 27.519) rotate(90)" fill="#e6e6e6"/>
      <path id="Trazado_757" data-name="Trazado 757" d="M75.92,92.965h84.142l.714-2.925H76.634Z" transform="translate(-9.825 -59.535)" fill="#f0f0f0" opacity="0.6"/>
      <path id="Trazado_758" data-name="Trazado 758" d="M75.92,100.776h84.142l.714-2.916H76.634Z" transform="translate(-9.825 -60.547)" fill="#f0f0f0" opacity="0.6"/>
      <path id="Trazado_759" data-name="Trazado 759" d="M75.92,108.6h84.142l.714-2.925H76.634Z" transform="translate(-9.825 -61.557)" fill="#f0f0f0" opacity="0.6"/>
      <path id="Trazado_760" data-name="Trazado 760" d="M75.92,116.406h84.142l.714-2.916H76.634Z" transform="translate(-9.825 -62.569)" fill="#f0f0f0" opacity="0.6"/>
      <path id="Trazado_761" data-name="Trazado 761" d="M75.92,124.226h84.142l.714-2.916H76.634Z" transform="translate(-9.825 -63.581)" fill="#f0f0f0" opacity="0.6"/>
      <path id="Trazado_762" data-name="Trazado 762" d="M75.92,132.045h84.142l.714-2.925H76.634Z" transform="translate(-9.825 -64.592)" fill="#f0f0f0" opacity="0.6"/>
    </g>
    <g id="freepik--Shadow--inject-2" transform="translate(48.849 359.637)">
      <ellipse id="freepik--path--inject-2" cx="168.798" cy="9.855" rx="168.798" ry="9.855" fill="#f5f5f5"/>
    </g>
    <g id="freepik--Briefcases--inject-2" transform="translate(73.129 59.614)">
      <rect id="Rectángulo_745" data-name="Rectángulo 745" width="55.901" height="24.899" rx="1.56" transform="translate(83.986 176.233)" fill="#a96cfe"/>
      <rect id="Rectángulo_746" data-name="Rectángulo 746" width="55.901" height="24.899" rx="1.56" transform="translate(83.986 176.233)" fill="#fff" opacity="0.6"/>
      <path id="Trazado_763" data-name="Trazado 763" d="M235,262.73H181.8a1.358,1.358,0,0,0-1.358,1.358V271.2l27.685,5.45a1.28,1.28,0,0,0,.514,0l27.693-5.45v-7.113A1.358,1.358,0,0,0,235,262.73Z" transform="translate(-96.48 -86.497)" opacity="0.1"/>
      <path id="Trazado_764" data-name="Trazado 764" d="M236,251.233H219.757v-2.725a4.257,4.257,0,0,0-4.249-4.248H201a4.257,4.257,0,0,0-4.248,4.248v2.725H180.511a1.341,1.341,0,0,0-1.341,1.341V265.99a1.349,1.349,0,0,0,1.08,1.315L208,272.763a1.691,1.691,0,0,0,.514,0l27.746-5.459a1.358,1.358,0,0,0,1.088-1.315V252.574A1.341,1.341,0,0,0,236,251.233Zm-36.025-2.725A1.036,1.036,0,0,1,201,247.481h14.513a1.036,1.036,0,0,1,1.019,1.027v2.725H199.986Z" transform="translate(-96.316 -84.106)" fill="#a96cfe"/>
      <path id="Trazado_765" data-name="Trazado 765" d="M236,251.233H219.757v-2.725a4.257,4.257,0,0,0-4.249-4.248H201a4.257,4.257,0,0,0-4.248,4.248v2.725H180.511a1.341,1.341,0,0,0-1.341,1.341V265.99a1.349,1.349,0,0,0,1.08,1.315L208,272.763a1.691,1.691,0,0,0,.514,0l27.746-5.459a1.358,1.358,0,0,0,1.088-1.315V252.574A1.341,1.341,0,0,0,236,251.233Zm-36.025-2.725A1.036,1.036,0,0,1,201,247.481h14.513a1.036,1.036,0,0,1,1.019,1.027v2.725H199.986Z" transform="translate(-96.316 -84.106)" fill="#fff" opacity="0.6"/>
      <rect id="Rectángulo_747" data-name="Rectángulo 747" width="8.305" height="6.199" rx="1.48" transform="translate(107.788 184.992)" fill="#a96cfe"/>
      <rect id="Rectángulo_748" data-name="Rectángulo 748" width="8.305" height="6.199" rx="1.48" transform="translate(107.788 184.992)" fill="#fff" opacity="0.3"/>
      <rect id="Rectángulo_749" data-name="Rectángulo 749" width="55.901" height="24.899" rx="1.56" transform="translate(83.986 16.08)" fill="#a96cfe"/>
      <rect id="Rectángulo_750" data-name="Rectángulo 750" width="55.901" height="24.899" rx="1.56" transform="translate(83.986 16.08)" fill="#fff" opacity="0.6"/>
      <path id="Trazado_766" data-name="Trazado 766" d="M235,78.77H181.8a1.358,1.358,0,0,0-1.358,1.358v7.113l27.685,5.45a1.28,1.28,0,0,0,.514,0l27.693-5.45V80.128A1.358,1.358,0,0,0,235,78.77Z" transform="translate(-96.48 -62.69)" opacity="0.1"/>
      <path id="Trazado_767" data-name="Trazado 767" d="M236,67.273H219.757V64.548a4.257,4.257,0,0,0-4.249-4.248H201a4.257,4.257,0,0,0-4.248,4.248v2.725H180.511a1.341,1.341,0,0,0-1.341,1.341V82.03a1.341,1.341,0,0,0,1.08,1.315L208,88.768a1.28,1.28,0,0,0,.514,0l27.746-5.459a1.349,1.349,0,0,0,1.1-1.28V68.614A1.341,1.341,0,0,0,236,67.273Zm-36.025-2.725A1.027,1.027,0,0,1,201,63.521h14.513a1.027,1.027,0,0,1,1.019,1.019v2.725H199.986Z" transform="translate(-96.316 -60.3)" fill="#a96cfe"/>
      <path id="Trazado_768" data-name="Trazado 768" d="M236,67.273H219.757V64.548a4.257,4.257,0,0,0-4.249-4.248H201a4.257,4.257,0,0,0-4.248,4.248v2.725H180.511a1.341,1.341,0,0,0-1.341,1.341V82.03a1.341,1.341,0,0,0,1.08,1.315L208,88.768a1.28,1.28,0,0,0,.514,0l27.746-5.459a1.349,1.349,0,0,0,1.1-1.28V68.614A1.341,1.341,0,0,0,236,67.273Zm-36.025-2.725A1.027,1.027,0,0,1,201,63.521h14.513a1.027,1.027,0,0,1,1.019,1.019v2.725H199.986Z" transform="translate(-96.316 -60.3)" fill="#fff" opacity="0.6"/>
      <rect id="Rectángulo_751" data-name="Rectángulo 751" width="8.305" height="6.199" rx="1.48" transform="translate(107.788 24.847)" fill="#a96cfe"/>
      <rect id="Rectángulo_752" data-name="Rectángulo 752" width="8.305" height="6.199" rx="1.48" transform="translate(107.788 24.847)" fill="#fff" opacity="0.3"/>
      <rect id="Rectángulo_753" data-name="Rectángulo 753" width="55.901" height="24.899" rx="1.56" transform="translate(1.14 176.233)" fill="#a96cfe"/>
      <rect id="Rectángulo_754" data-name="Rectángulo 754" width="55.901" height="24.899" rx="1.56" transform="translate(1.14 176.233)" fill="#fff" opacity="0.6"/>
      <path id="Trazado_769" data-name="Trazado 769" d="M139.887,262.73H86.668a1.358,1.358,0,0,0-1.358,1.358V271.2l27.685,5.45a1.324,1.324,0,0,0,.522,0l27.693-5.45v-7.113A1.358,1.358,0,0,0,139.887,262.73Z" transform="translate(-84.17 -86.497)" opacity="0.1"/>
      <path id="Trazado_770" data-name="Trazado 770" d="M140.832,251.233H124.587v-2.725a4.257,4.257,0,0,0-4.248-4.248h-14.5a4.257,4.257,0,0,0-4.248,4.248v2.725H85.341A1.341,1.341,0,0,0,84,252.574V265.99a1.349,1.349,0,0,0,1.08,1.315l27.746,5.459a1.743,1.743,0,0,0,.522,0l27.746-5.459a1.349,1.349,0,0,0,1.08-1.315V252.574A1.341,1.341,0,0,0,140.832,251.233Zm-36.025-2.725a1.045,1.045,0,0,1,1.027-1.027h14.5a1.045,1.045,0,0,1,1.027,1.027v2.725H104.824Z" transform="translate(-84 -84.106)" fill="#a96cfe"/>
      <path id="Trazado_771" data-name="Trazado 771" d="M140.832,251.233H124.587v-2.725a4.257,4.257,0,0,0-4.248-4.248h-14.5a4.257,4.257,0,0,0-4.248,4.248v2.725H85.341A1.341,1.341,0,0,0,84,252.574V265.99a1.349,1.349,0,0,0,1.08,1.315l27.746,5.459a1.743,1.743,0,0,0,.522,0l27.746-5.459a1.349,1.349,0,0,0,1.08-1.315V252.574A1.341,1.341,0,0,0,140.832,251.233Zm-36.025-2.725a1.045,1.045,0,0,1,1.027-1.027h14.5a1.045,1.045,0,0,1,1.027,1.027v2.725H104.824Z" transform="translate(-84 -84.106)" fill="#fff" opacity="0.6"/>
      <rect id="Rectángulo_755" data-name="Rectángulo 755" width="8.305" height="6.199" rx="1.48" transform="translate(24.934 184.992)" fill="#a96cfe"/>
      <rect id="Rectángulo_756" data-name="Rectángulo 756" width="8.305" height="6.199" rx="1.48" transform="translate(24.934 184.992)" fill="#fff" opacity="0.3"/>
      <rect id="Rectángulo_757" data-name="Rectángulo 757" width="55.901" height="24.899" rx="1.56" transform="translate(1.14 16.08)" fill="#a96cfe"/>
      <rect id="Rectángulo_758" data-name="Rectángulo 758" width="55.901" height="24.899" rx="1.56" transform="translate(1.14 16.08)" fill="#fff" opacity="0.6"/>
      <path id="Trazado_772" data-name="Trazado 772" d="M139.887,78.77H86.668a1.358,1.358,0,0,0-1.358,1.358v7.113l27.685,5.45a1.315,1.315,0,0,0,.522,0l27.693-5.45V80.128A1.358,1.358,0,0,0,139.887,78.77Z" transform="translate(-84.17 -62.69)" opacity="0.1"/>
      <path id="Trazado_773" data-name="Trazado 773" d="M140.832,67.273H124.587V64.548a4.257,4.257,0,0,0-4.248-4.248h-14.5a4.257,4.257,0,0,0-4.248,4.248v2.725H85.341A1.341,1.341,0,0,0,84,68.614V82.03a1.341,1.341,0,0,0,1.08,1.315l27.746,5.424a1.315,1.315,0,0,0,.522,0l27.746-5.459A1.341,1.341,0,0,0,142.173,82V68.614a1.341,1.341,0,0,0-1.341-1.341Zm-36.025-2.725a1.036,1.036,0,0,1,1.027-1.027h14.5a1.036,1.036,0,0,1,1.027,1.019v2.725H104.824Z" transform="translate(-84 -60.3)" fill="#a96cfe"/>
      <path id="Trazado_774" data-name="Trazado 774" d="M140.832,67.273H124.587V64.548a4.257,4.257,0,0,0-4.248-4.248h-14.5a4.257,4.257,0,0,0-4.248,4.248v2.725H85.341A1.341,1.341,0,0,0,84,68.614V82.03a1.341,1.341,0,0,0,1.08,1.315l27.746,5.424a1.315,1.315,0,0,0,.522,0l27.746-5.459A1.341,1.341,0,0,0,142.173,82V68.614a1.341,1.341,0,0,0-1.341-1.341Zm-36.025-2.725a1.036,1.036,0,0,1,1.027-1.027h14.5a1.036,1.036,0,0,1,1.027,1.019v2.725H104.824Z" transform="translate(-84 -60.3)" fill="#fff" opacity="0.6"/>
      <rect id="Rectángulo_759" data-name="Rectángulo 759" width="8.305" height="6.199" rx="1.48" transform="translate(24.934 24.847)" fill="#a96cfe"/>
      <rect id="Rectángulo_760" data-name="Rectángulo 760" width="8.305" height="6.199" rx="1.48" transform="translate(24.934 24.847)" fill="#fff" opacity="0.3"/>
      <path id="Trazado_775" data-name="Trazado 775" d="M132.921,195.649H86.667a1.367,1.367,0,0,1-1.367-1.367V172.108a1.35,1.35,0,0,1,.113-.531,1.872,1.872,0,0,1,.122-.226.958.958,0,0,1,.174-.2,1.358,1.358,0,0,1,.958-.4h43.782a57.093,57.093,0,0,0-.357,9.159,9.316,9.316,0,0,0,.078,1.48c.061.914.131,1.837.235,2.751a58.332,58.332,0,0,0,2.516,11.509Z" transform="translate(-84.168 -74.593)" fill="#a96cfe"/>
      <path id="Trazado_776" data-name="Trazado 776" d="M132.921,195.649H86.667a1.367,1.367,0,0,1-1.367-1.367V172.108a1.35,1.35,0,0,1,.113-.531,1.872,1.872,0,0,1,.122-.226.958.958,0,0,1,.174-.2,1.358,1.358,0,0,1,.958-.4h43.782a57.093,57.093,0,0,0-.357,9.159,9.316,9.316,0,0,0,.078,1.48c.061.914.131,1.837.235,2.751a58.332,58.332,0,0,0,2.516,11.509Z" transform="translate(-84.168 -74.593)" fill="#fff" opacity="0.6"/>
      <path id="Trazado_777" data-name="Trazado 777" d="M130.45,170.75a57.093,57.093,0,0,0-.357,9.159,9.316,9.316,0,0,0,.078,1.48L117.409,183.9l-3.9.766a1.027,1.027,0,0,1-.514,0L109.1,183.9,85.31,179.221V172.1a1.472,1.472,0,0,1,.1-.522,1.873,1.873,0,0,1,.122-.226.957.957,0,0,1,.174-.2,1.358,1.358,0,0,1,.958-.4Z" transform="translate(-84.17 -74.593)" opacity="0.1"/>
      <path id="Trazado_778" data-name="Trazado 778" d="M132.1,159.253h-7.5v-2.725a4.266,4.266,0,0,0-4.257-4.248h-14.5a4.248,4.248,0,0,0-4.248,4.248v2.725H85.341A1.341,1.341,0,0,0,84,160.594V174a1.349,1.349,0,0,0,1.088,1.323h.052l23.793,4.692,3.892.757a1.28,1.28,0,0,0,.514,0l3.9-.766,12.684-2.5a57.1,57.1,0,0,1,.357-9.159,57.756,57.756,0,0,1,1.82-9.1Zm-27.293-2.725a1.036,1.036,0,0,1,1.027-1.019h14.5a1.027,1.027,0,0,1,1.019,1.019v2.725H104.816Z" transform="translate(-84 -72.203)" fill="#a96cfe"/>
      <path id="Trazado_779" data-name="Trazado 779" d="M132.1,159.253h-7.5v-2.725a4.266,4.266,0,0,0-4.257-4.248h-14.5a4.248,4.248,0,0,0-4.248,4.248v2.725H85.341A1.341,1.341,0,0,0,84,160.594V174a1.349,1.349,0,0,0,1.088,1.323h.052l23.793,4.692,3.892.757a1.28,1.28,0,0,0,.514,0l3.9-.766,12.684-2.5a57.1,57.1,0,0,1,.357-9.159,57.756,57.756,0,0,1,1.82-9.1Zm-27.293-2.725a1.036,1.036,0,0,1,1.027-1.019h14.5a1.027,1.027,0,0,1,1.019,1.019v2.725H104.816Z" transform="translate(-84 -72.203)" fill="#fff" opacity="0.6"/>
      <rect id="Rectángulo_761" data-name="Rectángulo 761" width="8.305" height="6.199" rx="1.48" transform="translate(24.934 104.915)" fill="#a96cfe"/>
      <rect id="Rectángulo_762" data-name="Rectángulo 762" width="8.305" height="6.199" rx="1.48" transform="translate(24.934 104.915)" fill="#fff" opacity="0.3"/>
      <rect id="Rectángulo_763" data-name="Rectángulo 763" width="55.901" height="24.899" rx="1.56" transform="translate(222.731 201.124) rotate(180)" fill="#a96cfe"/>
      <rect id="Rectángulo_764" data-name="Rectángulo 764" width="55.901" height="24.899" rx="1.56" transform="translate(222.731 201.124) rotate(180)" fill="#fff" opacity="0.6"/>
      <path id="Trazado_780" data-name="Trazado 780" d="M276.993,262.73h53.176a1.358,1.358,0,0,1,1.358,1.358V271.2l-27.72,5.45a1.279,1.279,0,0,1-.514,0L275.6,271.2v-7.113a1.358,1.358,0,0,1,1.393-1.358Z" transform="translate(-108.795 -86.497)" opacity="0.1"/>
      <path id="Trazado_781" data-name="Trazado 781" d="M275.666,251.233h16.245v-2.725a4.257,4.257,0,0,1,4.249-4.248h14.513a4.257,4.257,0,0,1,4.248,4.248v2.725h16.236a1.341,1.341,0,0,1,1.341,1.341V265.99a1.349,1.349,0,0,1-1.079,1.315l-27.781,5.459a1.741,1.741,0,0,1-.522,0L275.37,267.3a1.349,1.349,0,0,1-1.08-1.315V252.574a1.341,1.341,0,0,1,1.376-1.341Zm36.025-2.725a1.036,1.036,0,0,0-1.019-1.027H296.159a1.045,1.045,0,0,0-1.027,1.027v2.725h16.541Z" transform="translate(-108.626 -84.106)" fill="#a96cfe"/>
      <path id="Trazado_782" data-name="Trazado 782" d="M275.666,251.233h16.245v-2.725a4.257,4.257,0,0,1,4.249-4.248h14.513a4.257,4.257,0,0,1,4.248,4.248v2.725h16.236a1.341,1.341,0,0,1,1.341,1.341V265.99a1.349,1.349,0,0,1-1.079,1.315l-27.781,5.459a1.741,1.741,0,0,1-.522,0L275.37,267.3a1.349,1.349,0,0,1-1.08-1.315V252.574a1.341,1.341,0,0,1,1.376-1.341Zm36.025-2.725a1.036,1.036,0,0,0-1.019-1.027H296.159a1.045,1.045,0,0,0-1.027,1.027v2.725h16.541Z" transform="translate(-108.626 -84.106)" fill="#fff" opacity="0.6"/>
      <rect id="Rectángulo_765" data-name="Rectángulo 765" width="8.305" height="6.199" rx="1.48" transform="translate(198.938 191.19) rotate(180)" fill="#a96cfe"/>
      <rect id="Rectángulo_766" data-name="Rectángulo 766" width="8.305" height="6.199" rx="1.48" transform="translate(198.938 191.19) rotate(180)" fill="#fff" opacity="0.3"/>
      <rect id="Rectángulo_767" data-name="Rectángulo 767" width="55.901" height="24.899" rx="1.56" transform="translate(222.731 40.97) rotate(180)" fill="#a96cfe"/>
      <rect id="Rectángulo_768" data-name="Rectángulo 768" width="55.901" height="24.899" rx="1.56" transform="translate(222.731 40.97) rotate(180)" fill="#fff" opacity="0.6"/>
      <path id="Trazado_783" data-name="Trazado 783" d="M277,78.77h53.176a1.358,1.358,0,0,1,1.358,1.358v7.113l-27.72,5.45a1.28,1.28,0,0,1-.514,0l-27.659-5.45V80.128A1.358,1.358,0,0,1,277,78.77Z" transform="translate(-108.8 -62.69)" opacity="0.1"/>
      <path id="Trazado_784" data-name="Trazado 784" d="M275.666,67.273h16.245V64.548a4.257,4.257,0,0,1,4.249-4.248h14.513a4.257,4.257,0,0,1,4.283,4.248v2.725h16.236a1.341,1.341,0,0,1,1.341,1.341V82.03a1.341,1.341,0,0,1-1.08,1.315l-27.815,5.424a1.314,1.314,0,0,1-.522,0L275.37,83.31A1.341,1.341,0,0,1,274.29,82V68.614a1.341,1.341,0,0,1,1.376-1.341Zm36.025-2.725a1.027,1.027,0,0,0-1.019-1.027H296.159a1.036,1.036,0,0,0-1.027,1.019v2.725h16.541Z" transform="translate(-108.626 -60.3)" fill="#a96cfe"/>
      <path id="Trazado_785" data-name="Trazado 785" d="M275.666,67.273h16.245V64.548a4.257,4.257,0,0,1,4.249-4.248h14.513a4.257,4.257,0,0,1,4.283,4.248v2.725h16.236a1.341,1.341,0,0,1,1.341,1.341V82.03a1.341,1.341,0,0,1-1.08,1.315l-27.815,5.424a1.314,1.314,0,0,1-.522,0L275.37,83.31A1.341,1.341,0,0,1,274.29,82V68.614a1.341,1.341,0,0,1,1.376-1.341Zm36.025-2.725a1.027,1.027,0,0,0-1.019-1.027H296.159a1.036,1.036,0,0,0-1.027,1.019v2.725h16.541Z" transform="translate(-108.626 -60.3)" fill="#fff" opacity="0.6"/>
      <rect id="Rectángulo_769" data-name="Rectángulo 769" width="8.305" height="6.199" rx="1.48" transform="translate(198.938 31.037) rotate(180)" fill="#a96cfe"/>
      <rect id="Rectángulo_770" data-name="Rectángulo 770" width="8.305" height="6.199" rx="1.48" transform="translate(198.938 31.037) rotate(180)" fill="#fff" opacity="0.3"/>
      <path id="Trazado_786" data-name="Trazado 786" d="M285.19,195.649h46.228a1.367,1.367,0,0,0,1.358-1.367V172.108a1.348,1.348,0,0,0-.113-.531,1.13,1.13,0,0,0-.122-.226.957.957,0,0,0-.174-.2,1.341,1.341,0,0,0-.958-.4H287.636a57.1,57.1,0,0,1,.357,9.159,9.319,9.319,0,0,1-.078,1.48c-.052.914-.131,1.837-.235,2.751a58.33,58.33,0,0,1-2.49,11.509Z" transform="translate(-110.036 -74.593)" fill="#a96cfe"/>
      <path id="Trazado_787" data-name="Trazado 787" d="M285.19,195.649h46.228a1.367,1.367,0,0,0,1.358-1.367V172.108a1.348,1.348,0,0,0-.113-.531,1.13,1.13,0,0,0-.122-.226.957.957,0,0,0-.174-.2,1.341,1.341,0,0,0-.958-.4H287.636a57.1,57.1,0,0,1,.357,9.159,9.319,9.319,0,0,1-.078,1.48c-.052.914-.131,1.837-.235,2.751a58.33,58.33,0,0,1-2.49,11.509Z" transform="translate(-110.036 -74.593)" fill="#fff" opacity="0.6"/>
      <path id="Trazado_788" data-name="Trazado 788" d="M288,170.75a57.1,57.1,0,0,1,.357,9.159,9.319,9.319,0,0,1-.078,1.48l12.78,2.507,3.9.766a1.027,1.027,0,0,0,.514,0l3.892-.757,23.793-4.684V172.1a1.471,1.471,0,0,0-.1-.522,1.133,1.133,0,0,0-.122-.226.958.958,0,0,0-.174-.2,1.341,1.341,0,0,0-.958-.4Z" transform="translate(-110.4 -74.593)" opacity="0.1"/>
      <path id="Trazado_789" data-name="Trazado 789" d="M285.895,159.253h7.513v-2.725a4.257,4.257,0,0,1,4.249-4.248h14.5a4.257,4.257,0,0,1,4.257,4.248v2.725h16.236a1.341,1.341,0,0,1,1.341,1.341V174a1.349,1.349,0,0,1-1.079,1.323h-.061l-23.793,4.692-3.926.749a1.28,1.28,0,0,1-.514,0l-3.9-.766-12.685-2.5a58.329,58.329,0,0,0-2.176-18.282Zm27.293-2.725a1.036,1.036,0,0,0-1.027-1.019h-14.5a1.027,1.027,0,0,0-1.019,1.019v2.725h16.541Z" transform="translate(-110.123 -72.203)" fill="#a96cfe"/>
      <path id="Trazado_790" data-name="Trazado 790" d="M285.895,159.253h7.513v-2.725a4.257,4.257,0,0,1,4.249-4.248h14.5a4.257,4.257,0,0,1,4.257,4.248v2.725h16.236a1.341,1.341,0,0,1,1.341,1.341V174a1.349,1.349,0,0,1-1.079,1.323h-.061l-23.793,4.692-3.926.749a1.28,1.28,0,0,1-.514,0l-3.9-.766-12.685-2.5a58.329,58.329,0,0,0-2.176-18.282Zm27.293-2.725a1.036,1.036,0,0,0-1.027-1.019h-14.5a1.027,1.027,0,0,0-1.019,1.019v2.725h16.541Z" transform="translate(-110.123 -72.203)" fill="#fff" opacity="0.6"/>
      <rect id="Rectángulo_771" data-name="Rectángulo 771" width="8.305" height="6.199" rx="1.48" transform="translate(198.938 111.122) rotate(180)" fill="#a96cfe"/>
      <rect id="Rectángulo_772" data-name="Rectángulo 772" width="8.305" height="6.199" rx="1.48" transform="translate(198.938 111.122) rotate(180)" fill="#fff" opacity="0.3"/>
      <rect id="Rectángulo_773" data-name="Rectángulo 773" width="80.321" height="35.772" rx="2.24" transform="translate(74.592 90.75)" fill="#a96cfe"/>
      <path id="Trazado_791" data-name="Trazado 791" d="M223.794,155.431H202.944a5.972,5.972,0,0,1-5.964-5.964v-5.354a5.972,5.972,0,0,1,5.964-5.964h20.851a5.964,5.964,0,0,1,5.964,5.964v5.328a5.964,5.964,0,0,1-5.964,5.99Zm-20.851-12.9a1.611,1.611,0,0,0-1.593,1.584v5.328a1.611,1.611,0,0,0,1.611,1.611h20.851a1.611,1.611,0,0,0,1.611-1.611v-5.328a1.611,1.611,0,0,0-1.611-1.611Z" transform="translate(-98.621 -70.375)" fill="#a96cfe"/>
      <path id="Trazado_792" data-name="Trazado 792" d="M248.042,164.54h-76.4a1.95,1.95,0,0,0-1.959,1.95V176.72l39.786,7.835a1.741,1.741,0,0,0,.74,0L250,176.72V166.49a1.95,1.95,0,0,0-1.959-1.95Z" transform="translate(-95.088 -73.79)" opacity="0.2"/>
      <path id="Trazado_793" data-name="Trazado 793" d="M249.806,172.573l-39.864,7.835a2.159,2.159,0,0,1-.749,0l-39.864-7.835a1.933,1.933,0,0,1-1.558-1.889v-19.24a1.924,1.924,0,0,1,1.924-1.924h79.763a1.924,1.924,0,0,1,1.924,1.924v19.275a1.924,1.924,0,0,1-1.576,1.854Z" transform="translate(-94.841 -71.846)" fill="#a96cfe"/>
      <rect id="Rectángulo_774" data-name="Rectángulo 774" width="11.936" height="8.906" rx="2.12" transform="translate(108.789 103.348)" fill="#a96cfe"/>
      <rect id="Rectángulo_775" data-name="Rectángulo 775" width="11.936" height="8.906" rx="2.12" transform="translate(108.789 103.348)" opacity="0.4"/>
    </g>
    <g id="freepik--Character--inject-2" transform="translate(115.531 88.195)">
      <path id="Trazado_794" data-name="Trazado 794" d="M379.586,187.21c1,2.063,1.741,4.013,2.612,6.051s1.506,4.066,2.185,6.146a78.506,78.506,0,0,1,3.038,12.937c.087.548.131,1.14.192,1.741l.087.871v1.019a18.282,18.282,0,0,1-.34,3.935,42.212,42.212,0,0,1-1.837,6.616,72.259,72.259,0,0,1-5.537,11.8l-4.423-1.872c.984-3.97,1.976-8.018,2.725-11.927a50.05,50.05,0,0,0,.775-5.668,13.216,13.216,0,0,0-.052-2.333l-.1-.548-.122-.7c-.1-.461-.157-.923-.27-1.393a88.792,88.792,0,0,0-3.36-11.318c-.662-1.889-1.393-3.77-2.124-5.659s-1.541-3.787-2.29-5.528Z" transform="translate(-163.511 -105.304)" fill="#7f3e3b"/>
      <path id="Trazado_795" data-name="Trazado 795" d="M376,242.44l-3.4,3.308,7.409,3.482s1.793-3.134.557-5.972Z" transform="translate(-163.75 -112.452)" fill="#7f3e3b"/>
      <path id="Trazado_796" data-name="Trazado 796" d="M369.46,251.176l6.251,2.56,3.891-4.048-7.409-3.448Z" transform="translate(-163.344 -112.944)" fill="#7f3e3b"/>
      <path id="Trazado_797" data-name="Trazado 797" d="M213.454,229.232a62.682,62.682,0,1,0-69.273-55.343,62.682,62.682,0,0,0,69.273,55.343Z" transform="translate(-134.139 -94.569)" fill="#a96cfe" opacity="0.2"/>
      <path id="Trazado_798" data-name="Trazado 798" d="M171.42,118.047l95.33,76.142c.409-.871.792-1.741,1.167-2.612a61.866,61.866,0,0,0,4.527-17.83h0L190.1,108a62.152,62.152,0,0,0-18.683,10.047Z" transform="translate(-137.715 -95.054)" fill="#fff" opacity="0.1"/>
      <path id="Trazado_799" data-name="Trazado 799" d="M146.16,154.134l89.618,71.606a62.682,62.682,0,0,0,21.573-18.526L159.48,129A62.682,62.682,0,0,0,146.16,154.134Z" transform="translate(-134.446 -97.771)" fill="#fff" opacity="0.1"/>
      <path id="Trazado_800" data-name="Trazado 800" d="M359.463,235.9a9.3,9.3,0,0,0-1.506-4.44,6.425,6.425,0,0,0-2.568-2.272l-5.946-2.916c-3.952-1.959-7.931-3.865-11.91-5.772s-7.983-3.778-11.971-5.668-8.009-3.726-12.04-5.528q-12.066-5.467-24.289-10.639c-4.074-1.741-8.157-3.413-12.275-5.049h0a5.093,5.093,0,0,1-2.986-6.286,72.32,72.32,0,1,0-9.681,19.6,5.1,5.1,0,0,1,6.817-1.454h0q5.711,3.4,11.474,6.677,11.518,6.564,23.21,12.8c3.892,2.107,7.835,4.135,11.709,6.2s7.835,4.074,11.779,6.094,7.835,4,11.831,5.946l5.929,2.943a6.391,6.391,0,0,0,3.369.662,9.211,9.211,0,0,0,4.431-1.506A9.812,9.812,0,0,0,359.463,235.9ZM179.8,216.64a57.058,57.058,0,1,1,76.412-25.909A57.058,57.058,0,0,1,179.8,216.64Z" transform="translate(-132.705 -93.129)" fill="#a96cfe"/>
      <path id="Trazado_801" data-name="Trazado 801" d="M343.009,156.16c0,.514-.27.932-.609.932s-.609-.418-.609-.932.27-.94.609-.94S343.009,155.638,343.009,156.16Z" transform="translate(-159.763 -101.165)" fill="#263238"/>
      <path id="Trazado_802" data-name="Trazado 802" d="M342.565,157.37a18.422,18.422,0,0,1-2.455,4.414,2.969,2.969,0,0,0,2.464.461Z" transform="translate(-159.545 -101.443)" fill="#630f0f"/>
      <path id="Trazado_803" data-name="Trazado 803" d="M344.877,152.828a.3.3,0,0,0,.174-.548,3.038,3.038,0,0,0-2.725-.47.3.3,0,1,0,.218.566h0a2.429,2.429,0,0,1,2.159.392A.27.27,0,0,0,344.877,152.828Z" transform="translate(-159.803 -100.705)" fill="#263238"/>
      <path id="Trazado_804" data-name="Trazado 804" d="M361.278,160.76c-.923,4.684-1.837,13.259,1.436,16.376,0,0-1.28,4.745-9.968,4.745-9.576,0-4.571-4.745-4.571-4.745,5.224-1.245,5.084-5.119,4.17-8.706Z" transform="translate(-160.42 -101.881)" fill="#7f3e3b"/>
      <path id="Trazado_805" data-name="Trazado 805" d="M364.488,176.15c.723.235-.218,4.536-.218,4.536s-1.193,3-16.01,1.959c-1.14-.087-.705-4.214.383-4.814C352.152,175.915,362.155,175.384,364.488,176.15Z" transform="translate(-160.513 -103.829)" fill="#263238"/>
      <path id="Trazado_806" data-name="Trazado 806" d="M401.47,382.465c.8-.078,1.968-1.55,2.3-2.089a.148.148,0,0,0,0-.157.139.139,0,0,0-.148-.07c-.087,0-2.194.4-2.708,1.219a.731.731,0,0,0-.087.583c.113.383.331.488.5.514Zm1.837-1.941c-.566.784-1.5,1.7-1.941,1.637-.044,0-.174,0-.252-.3a.4.4,0,0,1,.052-.34,4.1,4.1,0,0,1,2.142-1Z" transform="translate(-167.399 -130.273)" fill="#a96cfe"/>
      <path id="Trazado_807" data-name="Trazado 807" d="M403.187,380.357a2.807,2.807,0,0,0,.461-.078.151.151,0,0,0,.052-.261c-.052-.052-1.463-1.254-2.42-1.158h0a.818.818,0,0,0-.592.313.479.479,0,0,0-.061.618C400.941,380.287,402.316,380.444,403.187,380.357Zm.07-.3c-.871.1-2.142-.07-2.385-.427a.241.241,0,0,1,.052-.27.575.575,0,0,1,.392-.2h0a3.674,3.674,0,0,1,1.941.9Z" transform="translate(-167.366 -130.105)" fill="#a96cfe"/>
      <path id="Trazado_808" data-name="Trazado 808" d="M332.527,408.881a11.689,11.689,0,0,0,1.968-.174.174.174,0,0,0,.122-.122.148.148,0,0,0-.078-.157c-.1-.061-2.324-1.332-3.4-1.045a.783.783,0,0,0-.479.357.574.574,0,0,0,0,.662C330.943,408.785,331.709,408.881,332.527,408.881Zm1.48-.4c-1.193.165-2.812.157-3.108-.252-.044-.052-.078-.148,0-.34a.444.444,0,0,1,.3-.209,5.408,5.408,0,0,1,2.812.8Z" transform="translate(-158.31 -133.792)" fill="#a96cfe"/>
      <path id="Trazado_809" data-name="Trazado 809" d="M334.661,408.483a.114.114,0,0,0,.157-.139,4.314,4.314,0,0,0-.992-2.464,1.158,1.158,0,0,0-.871-.261c-.418.044-.531.252-.566.427-.113.723,1.419,2.107,2.185,2.455Zm-1.558-2.612a.871.871,0,0,1,.531.2,3.613,3.613,0,0,1,.871,1.968c-.792-.47-1.828-1.558-1.741-1.994,0,0,0-.139.3-.165Z" transform="translate(-158.546 -133.568)" fill="#a96cfe"/>
      <path id="Trazado_810" data-name="Trazado 810" d="M342.074,406.537h-6.39l-.644-14.817h6.4Z" transform="translate(-158.889 -131.77)" fill="#7f3e3b"/>
      <path id="Trazado_811" data-name="Trazado 811" d="M408,373.72l-4.988,4-12.693-8.81,5-4Z" transform="translate(-166.043 -128.301)" fill="#7f3e3b"/>
      <path id="Trazado_812" data-name="Trazado 812" d="M403.2,378.555l5.1-5.058a.566.566,0,0,1,.7-.07l4.9,3.152a.932.932,0,0,1,.131,1.463c-1.811,1.741-2.777,2.49-5.023,4.71-1.376,1.376-4.745,5.467-6.651,7.357s-4.031.252-3.413-.7c2.742-4.231,3.674-7.722,3.8-9.846a1.576,1.576,0,0,1,.461-1.01Z" transform="translate(-167.145 -129.391)" fill="#263238"/>
      <path id="Trazado_813" data-name="Trazado 813" d="M333.521,407.89h6.965a.548.548,0,0,1,.54.435l1.262,5.685a.923.923,0,0,1-.914,1.132c-2.525,0-6.164-.183-9.333-.183-3.7,0-6.9.2-11.239.2-2.612,0-3.352-2.655-2.255-2.9,5.006-1.088,9.089-1.21,13.407-3.874A3,3,0,0,1,333.521,407.89Z" transform="translate(-156.692 -133.863)" fill="#263238"/>
      <path id="Trazado_814" data-name="Trazado 814" d="M378.057,181.662c5.546,2.612,7.835,20.511,7.835,20.511l-12.754,5.006a102.033,102.033,0,0,1-4.8-14.931C366.556,184.17,372.355,178.946,378.057,181.662Z" transform="translate(-163.156 -104.493)" fill="#a96cfe"/>
      <path id="Trazado_815" data-name="Trazado 815" d="M378.057,181.662c5.546,2.612,7.835,20.511,7.835,20.511l-12.754,5.006a102.033,102.033,0,0,1-4.8-14.931C366.556,184.17,372.355,178.946,378.057,181.662Z" transform="translate(-163.156 -104.493)" fill="#fff" opacity="0.3"/>
      <path id="Trazado_816" data-name="Trazado 816" d="M369.8,187.726a7.121,7.121,0,0,0-1.358-.5,11.718,11.718,0,0,0-.052,5.833,101.4,101.4,0,0,0,4.788,14.931l4.2-1.645C376.607,201.673,374.231,189.85,369.8,187.726Z" transform="translate(-163.161 -105.307)" opacity="0.2"/>
      <path id="Trazado_817" data-name="Trazado 817" d="M336.6,181.315S329.795,189,336.22,236.6h34.214c.235-5.224-3.064-30.871,2-55.613a89.55,89.55,0,0,0-11.457-1.445,126.472,126.472,0,0,0-14.539,0,63.986,63.986,0,0,0-9.838,1.776Z" transform="translate(-158.685 -104.285)" fill="#a96cfe"/>
      <path id="Trazado_818" data-name="Trazado 818" d="M336.6,181.315S329.795,189,336.22,236.6h34.214c.235-5.224-3.064-30.871,2-55.613a89.55,89.55,0,0,0-11.457-1.445,126.472,126.472,0,0,0-14.539,0,63.986,63.986,0,0,0-9.838,1.776Z" transform="translate(-158.685 -104.285)" fill="#fff" opacity="0.3"/>
      <path id="Trazado_819" data-name="Trazado 819" d="M343.509,192.622c-1.55-4.649-5.276-6.138-9.072-3.378-.766,4.51-1.306,11.779-.688,23.306l6.677-.061S345.8,199.543,343.509,192.622Z" transform="translate(-158.688 -105.388)" opacity="0.2"/>
      <path id="Trazado_820" data-name="Trazado 820" d="M338.6,190.95c-.279,2.333-.662,4.449-1.088,6.651s-.923,4.353-1.489,6.521a74.745,74.745,0,0,1-4.544,12.9c-.5,1.071-1.071,2.124-1.68,3.178-.313.531-.627,1.062-.984,1.584a11,11,0,0,1-1.628,1.994,11.553,11.553,0,0,1-4.179,2.481,18.84,18.84,0,0,1-3.892.914,32.142,32.142,0,0,1-7.13.087,33.465,33.465,0,0,1-3.4-.444c-1.132-.2-2.2-.409-3.369-.714l.566-4.771a56.814,56.814,0,0,0,11.77-1.741,13.4,13.4,0,0,0,2.272-.905,3.264,3.264,0,0,0,1.219-.966c-.07.061.566-.992.94-1.741s.792-1.741,1.149-2.612c.731-1.793,1.358-3.691,1.933-5.633s1.08-3.918,1.55-5.92.871-4.022,1.306-6.094.749-4.127,1.062-6.051Z" transform="translate(-155.03 -105.623)" fill="#7f3e3b"/>
      <path id="Trazado_821" data-name="Trazado 821" d="M343.782,186.246c1.8,5.842-5.511,23.253-5.511,23.253l-15.4-3.874a71.233,71.233,0,0,1,4.727-16.01C332.56,178.75,341.614,179.2,343.782,186.246Z" transform="translate(-157.314 -104.523)" fill="#a96cfe"/>
      <path id="Trazado_822" data-name="Trazado 822" d="M343.782,186.246c1.8,5.842-5.511,23.253-5.511,23.253l-15.4-3.874a71.233,71.233,0,0,1,4.727-16.01C332.56,178.75,341.614,179.2,343.782,186.246Z" transform="translate(-157.314 -104.523)" fill="#fff" opacity="0.3"/>
      <path id="Trazado_823" data-name="Trazado 823" d="M305.043,226.043l-7.243-.183,3.482,7.531s2.943.392,5.363-3.587l2.551-3.038-2.934-.592a7.153,7.153,0,0,0-1.219-.131Z" transform="translate(-154.07 -110.306)" fill="#7f3e3b"/>
      <path id="Trazado_824" data-name="Trazado 824" d="M292.55,227.262,296.7,233.5l3.909-.113-3.491-7.531Z" transform="translate(-153.391 -110.306)" fill="#7f3e3b"/>
      <path id="Trazado_825" data-name="Trazado 825" d="M335.05,391.73l.322,7.635h6.4l-.331-7.635Z" transform="translate(-158.891 -131.772)" opacity="0.2"/>
      <path id="Trazado_826" data-name="Trazado 826" d="M395.317,364.91l-5,4,6.547,4.544,5-4Z" transform="translate(-166.043 -128.301)" opacity="0.2"/>
      <path id="Trazado_827" data-name="Trazado 827" d="M360.3,153.615c-.383,6.338-.279,10.064-3.482,13.32-4.806,4.893-12.632,2-14.147-4.353-1.367-5.694-.5-15.1,5.694-17.629a8.654,8.654,0,0,1,11.936,8.662Z" transform="translate(-159.804 -99.751)" fill="#7f3e3b"/>
      <path id="Trazado_828" data-name="Trazado 828" d="M365.5,147.024a3.661,3.661,0,0,1,2.29,4.8c-1.576,5.781-5.284,12.432-10.073,12.85-5.964.531-8.654-5.624-9.437-11.988-3.569-2.446-6.216-4.736-5.363-7.278,1.306-3.918,6.042-7.3,13.581-6.425S367.789,144.725,365.5,147.024Z" transform="translate(-159.888 -99.045)" fill="#263238"/>
      <path id="Trazado_829" data-name="Trazado 829" d="M352.535,155.843a7.174,7.174,0,0,1-1.793,4.24c-1.393,1.532-2.856.575-3.1-1.288-.218-1.689.235-4.518,1.941-5.363S352.648,153.946,352.535,155.843Z" transform="translate(-160.514 -100.9)" fill="#7f3e3b"/>
      <path id="Trazado_830" data-name="Trazado 830" d="M350.488,245.11s-2.159,43.112,2.046,61.377c6.66,28.921,35.938,52.1,35.938,52.1l9.4-7.531s-24.089-17.925-26.257-42.006c-1.941-21.625.932-46.463.932-63.936Z" transform="translate(-160.817 -112.797)" fill="#a96cfe"/>
      <path id="Trazado_831" data-name="Trazado 831" d="M350.488,245.11s-2.159,43.112,2.046,61.377c6.66,28.921,35.938,52.1,35.938,52.1l9.4-7.531s-24.089-17.925-26.257-42.006c-1.941-21.625.932-46.463.932-63.936Z" transform="translate(-160.817 -112.797)" opacity="0.2"/>
      <path id="Trazado_832" data-name="Trazado 832" d="M353.7,259.731c-.871-1.68-2.568,3.326-3.752,9.751,0,8.863.157,18.944.932,27.484C356.793,286.04,355.539,263.214,353.7,259.731Z" transform="translate(-160.819 -114.647)" opacity="0.2"/>
      <path id="Trazado_833" data-name="Trazado 833" d="M389.3,371.984l3.569,2.768,10.856-8.8L400.47,363Z" transform="translate(-165.911 -128.054)" fill="#2c6bdb"/>
      <path id="Trazado_834" data-name="Trazado 834" d="M389.3,371.984l3.569,2.768,10.856-8.8L400.47,363Z" transform="translate(-165.911 -128.054)" fill="#fafafa" opacity="0.4"/>
      <path id="Trazado_835" data-name="Trazado 835" d="M335.09,245.11s-9.629,40.831-10.308,60.332c-.757,21.878,6.869,73.469,6.869,73.469H342.49s1.332-51.992,1.82-71.919c.522-21.721,13.268-61.881,13.268-61.881Z" transform="translate(-157.555 -112.797)" fill="#a96cfe"/>
      <path id="Trazado_836" data-name="Trazado 836" d="M335.09,245.11s-9.629,40.831-10.308,60.332c-.757,21.878,6.869,73.469,6.869,73.469H342.49s1.332-51.992,1.82-71.919c.522-21.721,13.268-61.881,13.268-61.881Z" transform="translate(-157.555 -112.797)" opacity="0.2"/>
      <path id="Trazado_837" data-name="Trazado 837" d="M330.29,393.84c-.052,0,.609,4.5.609,4.5H344.08l.357-4.013Z" transform="translate(-158.274 -132.045)" fill="#2c6bdb"/>
      <path id="Trazado_838" data-name="Trazado 838" d="M330.29,393.84c-.052,0,.609,4.5.609,4.5H344.08l.357-4.013Z" transform="translate(-158.274 -132.045)" fill="#fafafa" opacity="0.4"/>
    </g>
  </g>
</svg>
