<svg id="como_funciona_1" data-name="como funciona 1" xmlns="http://www.w3.org/2000/svg" width="247.38" height="205.343" viewBox="0 0 247.38 205.343">
  <g id="freepik--background-complete--inject-37" transform="translate(0 25.647)">
    <path id="Trazado_409" data-name="Trazado 409" d="M114.8,380.659c8.949-6.613,10.643-18.393,9.939-28.906-.118-1.756,0-3.619-.878-5.127s-2.91-2.5-4.5-1.688c-1.3.659-1.829,2.195-2.527,3.473a10.356,10.356,0,0,1-4.047,4.075,4.016,4.016,0,0,1-3.647.45c-1.565-.788-1.812-2.876-1.857-4.621l-.253-9.776a16.274,16.274,0,0,0-.7-5.172,5.455,5.455,0,0,0-3.574-3.551,3.345,3.345,0,0,0-4.052,2.341,15.645,15.645,0,0,0,0,2.178A1.8,1.8,0,0,1,97.66,336.1a2.178,2.178,0,0,1-1.97-.737,22.954,22.954,0,0,1-4.429-6.163,32.09,32.09,0,0,0-4.154-6.365,9.628,9.628,0,0,0-6.607-3.377c-2.538-.056-5.189,1.576-5.752,4.052s.974,4.936,2.623,6.878a39.34,39.34,0,0,0,8.482,7.474,3.2,3.2,0,0,1,1.424,1.413c.507,1.131-.619,2.324-1.745,2.747a20.843,20.843,0,0,1-4.114.6c-1.373.208-2.853.855-3.337,2.161-.664,1.812.912,3.63,2.437,4.806a34.033,34.033,0,0,0,10.209,5.381,11.536,11.536,0,0,1,3.782,1.66,3.218,3.218,0,0,1,1.171,3.675,3.368,3.368,0,0,1-3.585,1.491,23.539,23.539,0,0,1-3.94-1.334c-2.46-.827-5.628-.563-7.091,1.57a5.493,5.493,0,0,0-.439,4.913,12.815,12.815,0,0,0,2.814,4.227,34.028,34.028,0,0,0,14.87,9.6c5.707,1.745,10.952,2.1,16.5-.113" transform="translate(-51.149 -222.649)" fill="#ebebeb"/>
    <path id="Trazado_410" data-name="Trazado 410" d="M79.35,322.21l.174.158.563.445c.478.388,1.182.962,2.066,1.722a64.92,64.92,0,0,1,7.007,6.979c1.373,1.57,2.814,3.377,4.306,5.307s3.079,4.047,4.66,6.309a77.725,77.725,0,0,1,4.615,7.317c.726,1.311,1.385,2.69,2.049,4.1l2.021,4.272a158.154,158.154,0,0,1,6.855,16.614,77.489,77.489,0,0,1,3.416,14.245,56.571,56.571,0,0,1,.473,9.872c-.056,1.165-.118,2.071-.186,2.685a5.69,5.69,0,0,1-.062.7.792.792,0,0,0,0,.236s.219-1.278.36-3.613a53.877,53.877,0,0,0-.394-9.9,75.783,75.783,0,0,0-3.377-14.3,156.2,156.2,0,0,0-6.844-16.648c-.687-1.441-1.356-2.865-2.026-4.272s-1.323-2.814-2.054-4.109a78.574,78.574,0,0,0-4.683-7.333c-1.593-2.251-3.186-4.356-4.694-6.3s-2.949-3.726-4.334-5.3a62.214,62.214,0,0,0-7.058-6.934c-.895-.749-1.61-1.311-2.1-1.688l-.563-.428Z" transform="translate(-53.213 -223.852)" fill="#e0e0e0"/>
    <path id="Trazado_411" data-name="Trazado 411" d="M121.165,357.136a5.065,5.065,0,0,0,.135-.754c.073-.49.158-1.193.253-2.071.186-1.745.366-4.171.563-6.844s.411-5.065.642-6.827c.107-.872.208-1.576.281-2.06a4.121,4.121,0,0,0,.084-.76,4.064,4.064,0,0,0-.186.743c-.107.478-.231,1.182-.366,2.049-.276,1.739-.529,4.159-.72,6.838s-.36,5.065-.484,6.844c-.068.839-.124,1.536-.169,2.077a3.748,3.748,0,0,0-.034.765Z" transform="translate(-71.491 -230.677)" fill="#e0e0e0"/>
    <path id="Trazado_412" data-name="Trazado 412" d="M80.47,365.964a.691.691,0,0,0,.236.034l.675.034c.563.028,1.435.068,2.482.146,2.094.152,4.981.456,8.144.94s6.011,1.052,8.06,1.52c1.024.231,1.846.433,2.414.563l.658.163a1.007,1.007,0,0,0,.236.039.765.765,0,0,0-.219-.09l-.647-.208c-.563-.174-1.379-.405-2.4-.658-2.037-.518-4.885-1.126-8.06-1.6s-6.067-.76-8.172-.861c-1.047-.056-1.9-.068-2.488-.062h-.681a1.012,1.012,0,0,0-.236.045Z" transform="translate(-53.703 -242.961)" fill="#e0e0e0"/>
    <path id="Trazado_413" data-name="Trazado 413" d="M140.23,393.331a2.018,2.018,0,0,0,.141-.281c.09-.219.214-.49.36-.827.3-.72.726-1.773,1.233-3.079,1.007-2.611,2.291-6.264,3.658-10.311s2.617-7.7,3.58-10.328c.478-1.289.872-2.341,1.154-3.107.129-.343.231-.625.31-.844a1.469,1.469,0,0,0,.1-.3,1.458,1.458,0,0,0-.141.281l-.36.827c-.31.72-.726,1.773-1.233,3.079-1.007,2.611-2.291,6.264-3.658,10.311s-2.617,7.7-3.58,10.328c-.478,1.289-.872,2.341-1.154,3.107-.129.343-.231.625-.315.844A1.211,1.211,0,0,0,140.23,393.331Z" transform="translate(-79.829 -242.232)" fill="#e0e0e0"/>
    <path id="Trazado_414" data-name="Trazado 414" d="M85.92,400.6a1.855,1.855,0,0,0,.3.107l.889.253,3.281.923c2.763.777,6.568,1.9,10.772,3.152s8.02,2.353,10.8,3.084c1.39.366,2.516.653,3.3.839l.9.208a1.827,1.827,0,0,0,.321.056,1.356,1.356,0,0,0-.31-.107l-.889-.259-3.276-.917c-2.763-.782-6.568-1.9-10.772-3.157s-8.02-2.347-10.772-3.079c-1.39-.371-2.516-.658-3.3-.839l-.9-.208A1.334,1.334,0,0,0,85.92,400.6Z" transform="translate(-56.085 -258.123)" fill="#e0e0e0"/>
    <rect id="Rectángulo_609" data-name="Rectángulo 609" width="89.471" height="59.923" transform="translate(0 1.784)" fill="#ebebeb"/>
    <rect id="Rectángulo_610" data-name="Rectángulo 610" width="89.471" height="5.988" transform="translate(0 1.784)" fill="#e0e0e0"/>
    <path id="Trazado_415" data-name="Trazado 415" d="M38.674,155.419a.726.726,0,1,1-.726-.67.7.7,0,0,1,.726.67Z" transform="translate(-34.796 -150.641)" fill="#fafafa"/>
    <path id="Trazado_416" data-name="Trazado 416" d="M42.874,155.419a.726.726,0,1,1-.726-.67.7.7,0,0,1,.726.67Z" transform="translate(-36.632 -150.641)" fill="#fafafa"/>
    <path id="Trazado_417" data-name="Trazado 417" d="M46.964,155.419a.726.726,0,1,1-.72-.67.692.692,0,0,1,.72.67Z" transform="translate(-38.42 -150.641)" fill="#fafafa"/>
    <rect id="Rectángulo_611" data-name="Rectángulo 611" width="89.471" height="59.923" transform="translate(157.746)" fill="#ebebeb"/>
    <rect id="Rectángulo_612" data-name="Rectángulo 612" width="89.471" height="5.988" transform="translate(157.746)" fill="#e0e0e0"/>
    <path id="Trazado_418" data-name="Trazado 418" d="M318.946,152.256a.726.726,0,1,1-.723-.662A.726.726,0,0,1,318.946,152.256Z" transform="translate(-157.328 -149.261)" fill="#fafafa"/>
    <path id="Trazado_419" data-name="Trazado 419" d="M323.093,152.245a.726.726,0,1,1-.726-.675.7.7,0,0,1,.726.675Z" transform="translate(-159.14 -149.251)" fill="#fafafa"/>
    <path id="Trazado_420" data-name="Trazado 420" d="M327.243,152.245a.726.726,0,1,1-.726-.675.7.7,0,0,1,.726.675Z" transform="translate(-160.954 -149.251)" fill="#fafafa"/>
  </g>
  <g id="freepik--Windows--inject-37" transform="translate(18.145 0)">
    <rect id="Rectángulo_613" data-name="Rectángulo 613" width="114.161" height="76.458" transform="translate(0 13.395)" fill="#fff"/>
    <rect id="Rectángulo_614" data-name="Rectángulo 614" width="114.161" height="7.637" transform="translate(0.113 12.849)" fill="#ebebeb"/>
    <path id="Trazado_421" data-name="Trazado 421" d="M74.648,129.861a.923.923,0,1,1-.923-.861A.9.9,0,0,1,74.648,129.861Z" transform="translate(-68.496 -113.736)" fill="#fafafa"/>
    <path id="Trazado_422" data-name="Trazado 422" d="M79.938,129.861a.923.923,0,1,1-.923-.861A.9.9,0,0,1,79.938,129.861Z" transform="translate(-70.809 -113.736)" fill="#fafafa"/>
    <path id="Trazado_423" data-name="Trazado 423" d="M85.228,129.86a.923.923,0,1,1-.934-.861.889.889,0,0,1,.934.861Z" transform="translate(-73.121 -113.736)" fill="#fafafa"/>
    <path id="Trazado_424" data-name="Trazado 424" d="M179.446,200.995v-5.42c0-3.535,0-8.729-.034-15.376,0-13.282-.039-32.379-.068-55.668l.129.129L65.3,124.694h0l.163-.163v76.464l-.146-.152,82.255.073,23.492.039h.1l-23.458.039-82.357.073H65.2V124.3H179.654v.129c-.028,23.323-.056,42.448-.073,55.752,0,6.63,0,11.819-.028,15.342v4.007A8.485,8.485,0,0,1,179.446,200.995Z" transform="translate(-65.172 -111.682)" fill="#263238"/>
    <rect id="Rectángulo_615" data-name="Rectángulo 615" width="25.957" height="1.739" transform="translate(7.547 55.522)" fill="#a96cfe"/>
    <rect id="Rectángulo_616" data-name="Rectángulo 616" width="25.957" height="1.739" transform="translate(41.074 31.416)" fill="#a96cfe"/>
    <path id="Trazado_425" data-name="Trazado 425" d="M202.691,169.063c0,.09-14.453.163-32.277.163s-32.283-.073-32.283-.163,14.447-.163,32.283-.163S202.691,168.956,202.691,169.063Z" transform="translate(-97.056 -131.18)" fill="#263238"/>
    <path id="Trazado_426" data-name="Trazado 426" d="M202.691,175.8c0,.084-14.453.158-32.277.158s-32.283-.073-32.283-.158,14.447-.163,32.283-.163S202.691,175.713,202.691,175.8Z" transform="translate(-97.056 -134.127)" fill="#263238"/>
    <path id="Trazado_427" data-name="Trazado 427" d="M202.691,182.533c0,.09-14.453.163-32.277.163s-32.283-.073-32.283-.163,14.447-.163,32.283-.163S202.691,182.443,202.691,182.533Z" transform="translate(-97.056 -137.069)" fill="#263238"/>
    <path id="Trazado_428" data-name="Trazado 428" d="M202.691,189.273c0,.09-14.453.163-32.277.163s-32.283-.073-32.283-.163,14.447-.163,32.283-.163S202.691,189.183,202.691,189.273Z" transform="translate(-97.056 -140.016)" fill="#263238"/>
    <path id="Trazado_429" data-name="Trazado 429" d="M202.691,196.013c0,.09-14.453.158-32.277.158s-32.283-.068-32.283-.158,14.447-.163,32.283-.163S202.691,195.934,202.691,196.013Z" transform="translate(-97.056 -142.962)" fill="#263238"/>
    <path id="Trazado_430" data-name="Trazado 430" d="M163.333,202.748c0,.09-5.628.163-12.6.163s-12.6-.073-12.6-.163,5.628-.158,12.6-.158S163.333,202.658,163.333,202.748Z" transform="translate(-97.056 -145.909)" fill="#263238"/>
    <path id="Trazado_431" data-name="Trazado 431" d="M219.036,215.873c0,.09-9.5.163-21.218.163s-21.218-.073-21.218-.163,9.5-.163,21.218-.163S219.036,215.755,219.036,215.873Z" transform="translate(-113.874 -151.645)" fill="#263238"/>
    <path id="Trazado_432" data-name="Trazado 432" d="M219.036,222.973c0,.09-9.5.163-21.218.163s-21.218-.073-21.218-.163,9.5-.163,21.218-.163S219.036,222.883,219.036,222.973Z" transform="translate(-113.874 -154.749)" fill="#263238"/>
    <path id="Trazado_433" data-name="Trazado 433" d="M219.036,230.123c0,.09-9.5.163-21.218.163s-21.218-.073-21.218-.163,9.5-.163,21.218-.163S219.036,230.033,219.036,230.123Z" transform="translate(-113.874 -157.875)" fill="#263238"/>
    <path id="Trazado_434" data-name="Trazado 434" d="M219.036,237.273c0,.09-9.5.163-21.218.163s-21.218-.073-21.218-.163,9.5-.163,21.218-.163S219.036,237.183,219.036,237.273Z" transform="translate(-113.874 -161.001)" fill="#263238"/>
    <path id="Trazado_435" data-name="Trazado 435" d="M105.143,215.138c0,.09-5.662.163-12.646.163s-12.646-.073-12.646-.163,5.662-.158,12.646-.158S105.143,215.048,105.143,215.138Z" transform="translate(-71.577 -151.326)" fill="#263238"/>
    <path id="Trazado_436" data-name="Trazado 436" d="M105.143,220.753c0,.09-5.662.163-12.646.163s-12.646-.073-12.646-.163,5.662-.163,12.646-.163S105.143,220.663,105.143,220.753Z" transform="translate(-71.577 -153.778)" fill="#263238"/>
    <path id="Trazado_437" data-name="Trazado 437" d="M105.143,226.373c0,.084-5.662.158-12.646.158s-12.646-.073-12.646-.158,5.662-.163,12.646-.163S105.143,226.283,105.143,226.373Z" transform="translate(-71.577 -156.235)" fill="#263238"/>
    <path id="Trazado_438" data-name="Trazado 438" d="M105.143,231.983c0,.09-5.662.163-12.646.163s-12.646-.073-12.646-.163,5.662-.163,12.646-.163S105.143,231.921,105.143,231.983Z" transform="translate(-71.577 -158.688)" fill="#263238"/>
    <path id="Trazado_439" data-name="Trazado 439" d="M105.143,237.6c0,.09-5.662.163-12.646.163s-12.646-.073-12.646-.163,5.662-.163,12.646-.163S105.143,237.513,105.143,237.6Z" transform="translate(-71.577 -161.145)" fill="#263238"/>
    <rect id="Rectángulo_617" data-name="Rectángulo 617" width="18.415" height="17.819" transform="translate(41.057 62.281)" fill="#a96cfe"/>
    <g id="Grupo_53" data-name="Grupo 53" transform="translate(42.487 69.401)" opacity="0.3">
      <path id="Trazado_440" data-name="Trazado 440" d="M140.64,234.358l5.093-9.168,4.165,5.865,2.533-3.112,3.765,6.416Z" transform="translate(-140.64 -225.19)"/>
    </g>
    <g id="Grupo_54" data-name="Grupo 54" transform="translate(50.867 66.277)" opacity="0.3">
      <path id="Trazado_441" data-name="Trazado 441" d="M158.186,220.968a1.328,1.328,0,1,1-1.328-1.328A1.328,1.328,0,0,1,158.186,220.968Z" transform="translate(-155.53 -219.64)"/>
    </g>
    <path id="Trazado_442" data-name="Trazado 442" d="M156.174,229.888V225.78c0-2.6,0-6.309-.039-10.755l.073.073H140.652l.084-.084h0v14.853l-.073-.073,11.256.039h.045l-11.3.039h-.079V214.94h0l.09-.09h15.635v.079c0,4.469,0,8.189-.039,10.806v4C156.18,229.872,156.18,229.888,156.174,229.888Z" transform="translate(-98.131 -151.269)" opacity="0.3"/>
    <rect id="Rectángulo_618" data-name="Rectángulo 618" width="26.025" height="25.175" transform="translate(6.489 26.447)" fill="#a96cfe"/>
    <g id="Grupo_55" data-name="Grupo 55" transform="translate(8.504 36.515)" opacity="0.3">
      <path id="Trazado_443" data-name="Trazado 443" d="M80.26,179.716l7.2-12.956,5.893,8.279,3.574-4.4,5.324,9.073Z" transform="translate(-80.26 -166.76)"/>
    </g>
    <g id="Grupo_56" data-name="Grupo 56" transform="translate(20.351 32.12)" opacity="0.3">
      <circle id="Elipse_99" data-name="Elipse 99" cx="1.874" cy="1.874" r="1.874"/>
    </g>
    <path id="Trazado_444" data-name="Trazado 444" d="M102.172,173.456a.793.793,0,0,1,0-.1v-1.418c0-1,0-2.443-.028-4.277,0-3.675-.034-8.909-.056-15.2l.107.1H80.211a1.366,1.366,0,0,1,.118-.124h0v21l-.107-.107,15.9.056,4.5.028h.023l-4.463.028-15.967.056H80.11V152.412h0c-.107.113.152-.152.129-.124h22.09v.107c0,6.315-.039,11.571-.056,15.269v5.656A.518.518,0,0,1,102.172,173.456Z" transform="translate(-71.679 -123.917)" opacity="0.3"/>
    <rect id="Rectángulo_619" data-name="Rectángulo 619" width="110.548" height="74.038" transform="translate(100.783 17.048)" fill="#fff"/>
    <rect id="Rectángulo_620" data-name="Rectángulo 620" width="110.548" height="7.395" transform="translate(100.89 16.524)" fill="#ebebeb"/>
    <path id="Trazado_445" data-name="Trazado 445" d="M253.411,136.232a.895.895,0,1,1-.895-.833.861.861,0,0,1,.895.833Z" transform="translate(-146.674 -116.534)" fill="#fafafa"/>
    <path id="Trazado_446" data-name="Trazado 446" d="M258.541,136.233a.895.895,0,1,1-.895-.833.867.867,0,0,1,.895.833Z" transform="translate(-148.916 -116.534)" fill="#fafafa"/>
    <path id="Trazado_447" data-name="Trazado 447" d="M263.661,136.232a.895.895,0,1,1-.895-.833.861.861,0,0,1,.895.833Z" transform="translate(-151.155 -116.534)" fill="#fafafa"/>
    <path id="Trazado_448" data-name="Trazado 448" d="M354.884,205.179v-5.251c0-3.422,0-8.442-.034-14.886,0-12.866-.039-31.36-.068-53.906l.129.129-110.537.034h0l.163-.163v74.044l-.152-.152,79.655.073,22.749.039h.068l-22.721.039-79.751.073h-.146V131h.169l110.537.034h.129v.129c-.028,22.58-.051,41.086-.068,53.985,0,6.427,0,11.442-.034,14.858v3.883A6.686,6.686,0,0,1,354.884,205.179Z" transform="translate(-143.445 -114.611)" fill="#263238"/>
    <rect id="Rectángulo_621" data-name="Rectángulo 621" width="25.135" height="1.683" transform="translate(108.089 57.846)" fill="#a96cfe"/>
    <rect id="Rectángulo_622" data-name="Rectángulo 622" width="25.135" height="1.683" transform="translate(140.557 34.501)" fill="#a96cfe"/>
    <path id="Trazado_449" data-name="Trazado 449" d="M377.438,174.183c0,.09-14,.163-31.259.163s-31.259-.073-31.259-.163,13.992-.163,31.259-.163S377.438,174.093,377.438,174.183Z" transform="translate(-174.346 -133.419)" fill="#263238"/>
    <path id="Trazado_450" data-name="Trazado 450" d="M377.438,180.708c0,.09-14,.163-31.259.163s-31.259-.073-31.259-.163,13.992-.158,31.259-.158S377.438,180.618,377.438,180.708Z" transform="translate(-174.346 -136.273)" fill="#263238"/>
    <path id="Trazado_451" data-name="Trazado 451" d="M377.438,187.233c0,.09-14,.158-31.259.158s-31.259-.068-31.259-.158,13.992-.163,31.259-.163S377.438,187.143,377.438,187.233Z" transform="translate(-174.346 -139.124)" fill="#263238"/>
    <path id="Trazado_452" data-name="Trazado 452" d="M377.438,193.753c0,.09-14,.163-31.259.163s-31.259-.073-31.259-.163,13.992-.163,31.259-.163S377.438,193.663,377.438,193.753Z" transform="translate(-174.346 -141.974)" fill="#263238"/>
    <path id="Trazado_453" data-name="Trazado 453" d="M377.438,200.278c0,.09-14,.163-31.259.163s-31.259-.073-31.259-.163,13.992-.158,31.259-.158S377.438,200.193,377.438,200.278Z" transform="translate(-174.346 -144.829)" fill="#263238"/>
    <path id="Trazado_454" data-name="Trazado 454" d="M339.294,206.8c0,.09-5.465.163-12.2.163s-12.2-.073-12.2-.163,5.459-.163,12.2-.163S339.294,206.713,339.294,206.8Z" transform="translate(-174.333 -147.679)" fill="#263238"/>
    <path id="Trazado_455" data-name="Trazado 455" d="M393.241,219.463c0,.09-9.2.163-20.543.163s-20.548-.073-20.548-.163,9.2-.163,20.548-.163S393.241,219.373,393.241,219.463Z" transform="translate(-190.622 -153.214)" fill="#263238"/>
    <path id="Trazado_456" data-name="Trazado 456" d="M393.241,226.388c0,.09-9.2.163-20.543.163s-20.548-.073-20.548-.163,9.2-.158,20.548-.158S393.241,226.3,393.241,226.388Z" transform="translate(-190.622 -156.244)" fill="#263238"/>
    <path id="Trazado_457" data-name="Trazado 457" d="M393.241,233.313c0,.09-9.2.163-20.543.163s-20.548-.073-20.548-.163,9.2-.163,20.548-.163S393.241,233.223,393.241,233.313Z" transform="translate(-190.622 -159.269)" fill="#263238"/>
    <path id="Trazado_458" data-name="Trazado 458" d="M393.241,240.238c0,.09-9.2.163-20.543.163s-20.548-.073-20.548-.163,9.2-.158,20.548-.158S393.241,240.148,393.241,240.238Z" transform="translate(-190.622 -162.299)" fill="#263238"/>
    <path id="Trazado_459" data-name="Trazado 459" d="M282.969,218.8c0,.09-5.487.158-12.247.158s-12.252-.068-12.252-.158,5.482-.163,12.252-.163S282.969,218.713,282.969,218.8Z" transform="translate(-149.667 -152.926)" fill="#263238"/>
    <path id="Trazado_460" data-name="Trazado 460" d="M282.969,224.238c0,.09-5.487.163-12.247.163s-12.252-.073-12.252-.163,5.482-.158,12.252-.158S282.969,224.153,282.969,224.238Z" transform="translate(-149.667 -155.304)" fill="#263238"/>
    <path id="Trazado_461" data-name="Trazado 461" d="M282.969,229.678c0,.09-5.487.163-12.247.163s-12.252-.073-12.252-.163,5.482-.158,12.252-.158S282.969,229.588,282.969,229.678Z" transform="translate(-149.667 -157.682)" fill="#263238"/>
    <path id="Trazado_462" data-name="Trazado 462" d="M282.969,235.113c0,.09-5.487.163-12.247.163s-12.252-.073-12.252-.163,5.482-.163,12.252-.163S282.969,235.023,282.969,235.113Z" transform="translate(-149.667 -160.056)" fill="#263238"/>
    <path id="Trazado_463" data-name="Trazado 463" d="M282.969,240.553c0,.09-5.487.163-12.247.163s-12.252-.073-12.252-.163,5.482-.163,12.252-.163S282.969,240.463,282.969,240.553Z" transform="translate(-149.667 -162.435)" fill="#263238"/>
    <rect id="Rectángulo_623" data-name="Rectángulo 623" width="17.836" height="17.256" transform="translate(140.541 64.386)" fill="#a96cfe"/>
    <g id="Grupo_57" data-name="Grupo 57" transform="translate(141.925 71.286)" opacity="0.3">
      <path id="Trazado_464" data-name="Trazado 464" d="M317.32,237.421l4.93-8.881,4.035,5.679,2.454-3.017,3.647,6.219Z" transform="translate(-317.32 -228.54)"/>
    </g>
    <g id="Grupo_58" data-name="Grupo 58" transform="translate(150.046 68.275)" opacity="0.3">
      <path id="Trazado_465" data-name="Trazado 465" d="M334.316,224.473a1.283,1.283,0,1,1-1.283-1.283,1.283,1.283,0,0,1,1.283,1.283Z" transform="translate(-331.75 -223.19)"/>
    </g>
    <path id="Trazado_466" data-name="Trazado 466" d="M332.349,233.15a.616.616,0,0,0,0-.068v-3.912c0-2.516,0-6.107-.039-10.418l.073.073H317.316s.158-.158.084-.079h0v14.391l-.073-.073,10.9.039h.045l-10.941.034h-.073v-14.38h0c-.079.073.1-.107.084-.09h15.14v.073c0,4.328-.028,7.936-.039,10.468v3.867a.18.18,0,0,1-.09.073Z" transform="translate(-175.358 -152.938)" opacity="0.3"/>
    <rect id="Rectángulo_624" data-name="Rectángulo 624" width="145.375" height="97.367" transform="translate(38.958 0.855)" fill="#fff"/>
    <rect id="Rectángulo_625" data-name="Rectángulo 625" width="145.375" height="9.725" transform="translate(39.099 0.163)" fill="#e0e0e0"/>
    <path id="Trazado_467" data-name="Trazado 467" d="M146.455,108.731a1.176,1.176,0,1,1-1.171-1.092,1.126,1.126,0,0,1,1.171,1.092Z" transform="translate(-99.668 -104.397)" fill="#fafafa"/>
    <path id="Trazado_468" data-name="Trazado 468" d="M153.175,108.731A1.176,1.176,0,1,1,152,107.639a1.126,1.126,0,0,1,1.176,1.092Z" transform="translate(-102.606 -104.397)" fill="#fafafa"/>
    <path id="Trazado_469" data-name="Trazado 469" d="M159.926,108.731a1.182,1.182,0,1,1-1.176-1.092,1.126,1.126,0,0,1,1.176,1.092Z" transform="translate(-105.553 -104.397)" fill="#fafafa"/>
    <path id="Trazado_470" data-name="Trazado 470" d="M279.9,199.41c0-1.058-.051-38.058-.129-97.367l.129.129-145.364.034h0l.163-.163V199.41l-.152-.146,145.375.146-145.375.146H134.4V101.88h.169l145.364.034h.129v.129C279.944,161.353,279.9,198.352,279.9,199.41Z" transform="translate(-95.425 -101.88)" fill="#263238"/>
    <rect id="Rectángulo_626" data-name="Rectángulo 626" width="33.054" height="2.212" transform="translate(48.565 54.503)" fill="#a96cfe"/>
    <rect id="Rectángulo_627" data-name="Rectángulo 627" width="33.054" height="2.212" transform="translate(91.26 23.801)" fill="#a96cfe"/>
    <path id="Trazado_471" data-name="Trazado 471" d="M309.529,158.683c0,.084-18.4.158-41.085.158s-41.114-.073-41.114-.158,18.4-.163,41.114-.163S309.529,158.593,309.529,158.683Z" transform="translate(-136.053 -126.642)" fill="#263238"/>
    <path id="Trazado_472" data-name="Trazado 472" d="M309.529,167.258c0,.09-18.4.163-41.085.163s-41.114-.073-41.114-.163,18.4-.158,41.114-.158S309.529,167.173,309.529,167.258Z" transform="translate(-136.053 -130.393)" fill="#263238"/>
    <path id="Trazado_473" data-name="Trazado 473" d="M309.529,175.878c0,.09-18.4.163-41.085.163s-41.114-.073-41.114-.163,18.4-.158,41.114-.158S309.529,175.765,309.529,175.878Z" transform="translate(-136.053 -134.162)" fill="#263238"/>
    <path id="Trazado_474" data-name="Trazado 474" d="M309.529,184.418c0,.09-18.4.163-41.085.163s-41.114-.073-41.114-.163,18.4-.158,41.114-.158S309.529,184.328,309.529,184.418Z" transform="translate(-136.053 -137.895)" fill="#263238"/>
    <path id="Trazado_475" data-name="Trazado 475" d="M309.529,192.993c0,.09-18.4.163-41.085.163s-41.114-.073-41.114-.163,18.4-.163,41.114-.163S309.529,192.926,309.529,192.993Z" transform="translate(-136.053 -141.642)" fill="#263238"/>
    <path id="Trazado_476" data-name="Trazado 476" d="M259.392,201.573c0,.09-7.182.163-16.046.163s-16.046-.073-16.046-.163,7.182-.163,16.046-.163S259.392,201.483,259.392,201.573Z" transform="translate(-136.04 -145.393)" fill="#263238"/>
    <path id="Trazado_477" data-name="Trazado 477" d="M330.34,218.223c0,.09-12.095.163-27.015.163s-27.015-.073-27.015-.163,12.095-.163,27.015-.163S330.34,218.133,330.34,218.223Z" transform="translate(-157.466 -152.672)" fill="#263238"/>
    <path id="Trazado_478" data-name="Trazado 478" d="M330.34,227.333c0,.09-12.095.163-27.015.163s-27.015-.073-27.015-.163,12.095-.163,27.015-.163S330.34,227.243,330.34,227.333Z" transform="translate(-157.466 -156.655)" fill="#263238"/>
    <path id="Trazado_479" data-name="Trazado 479" d="M330.34,236.438c0,.09-12.095.163-27.015.163s-27.015-.073-27.015-.163,12.095-.158,27.015-.158S330.34,236.353,330.34,236.438Z" transform="translate(-157.466 -160.638)" fill="#263238"/>
    <path id="Trazado_480" data-name="Trazado 480" d="M330.34,245.543c0,.09-12.095.163-27.015.163s-27.015-.073-27.015-.163,12.095-.163,27.015-.163S330.34,245.453,330.34,245.543Z" transform="translate(-157.466 -164.616)" fill="#263238"/>
    <path id="Trazado_481" data-name="Trazado 481" d="M185.3,217.353c0,.09-7.21.163-16.108.163s-16.108-.073-16.108-.163,7.215-.163,16.108-.163S185.3,217.263,185.3,217.353Z" transform="translate(-103.592 -152.292)" fill="#263238"/>
    <path id="Trazado_482" data-name="Trazado 482" d="M185.3,224.5c0,.09-7.21.163-16.108.163s-16.108-.073-16.108-.163,7.215-.163,16.108-.163S185.3,224.413,185.3,224.5Z" transform="translate(-103.592 -155.418)" fill="#263238"/>
    <path id="Trazado_483" data-name="Trazado 483" d="M185.3,231.658c0,.09-7.21.163-16.108.163s-16.108-.073-16.108-.163,7.215-.158,16.108-.158S185.3,231.568,185.3,231.658Z" transform="translate(-103.592 -158.548)" fill="#263238"/>
    <path id="Trazado_484" data-name="Trazado 484" d="M185.3,238.808c0,.09-7.21.163-16.108.163s-16.108-.073-16.108-.163,7.215-.158,16.108-.158S185.3,238.723,185.3,238.808Z" transform="translate(-103.592 -161.674)" fill="#263238"/>
    <path id="Trazado_485" data-name="Trazado 485" d="M185.3,245.963c0,.09-7.21.158-16.108.158s-16.108-.068-16.108-.158,7.215-.163,16.108-.163S185.3,245.873,185.3,245.963Z" transform="translate(-103.592 -164.8)" fill="#263238"/>
    <rect id="Rectángulo_628" data-name="Rectángulo 628" width="23.452" height="22.687" transform="translate(91.238 63.108)" fill="#a96cfe"/>
    <g id="Grupo_59" data-name="Grupo 59" transform="translate(93.061 72.175)" opacity="0.3">
      <path id="Trazado_486" data-name="Trazado 486" d="M230.5,241.8l6.484-11.678,5.307,7.463,3.225-3.962,4.8,8.178Z" transform="translate(-230.5 -230.12)"/>
    </g>
    <g id="Grupo_60" data-name="Grupo 60" transform="translate(103.738 68.219)" opacity="0.3">
      <path id="Trazado_487" data-name="Trazado 487" d="M252.847,224.778a1.688,1.688,0,1,1-1.688-1.688A1.688,1.688,0,0,1,252.847,224.778Z" transform="translate(-249.47 -223.09)"/>
    </g>
    <path id="Trazado_488" data-name="Trazado 488" d="M250.256,236.2v-5.229c0-3.315-.028-8.037-.051-13.7l.1.1H230.49l.107-.107h0v18.922l-.1-.1,14.324.051h.062l-14.386.051h-.1V217.271h0c-.1.1.135-.141.113-.113H250.42v.1c0,5.7-.034,10.435-.045,13.761,0,1.643,0,2.938-.028,3.833v1.261C250.347,236.176,250.262,236.2,250.256,236.2Z" transform="translate(-137.384 -152.277)" opacity="0.3"/>
    <rect id="Rectángulo_629" data-name="Rectángulo 629" width="33.139" height="32.064" transform="translate(47.22 17.475)" fill="#a96cfe"/>
    <g id="Grupo_61" data-name="Grupo 61" transform="translate(49.787 30.296)" opacity="0.3">
      <path id="Trazado_489" data-name="Trazado 489" d="M153.61,172.206l9.168-16.5,7.5,10.542,4.559-5.6,6.776,11.555Z" transform="translate(-153.61 -155.71)"/>
    </g>
    <g id="Grupo_62" data-name="Grupo 62" transform="translate(64.876 24.696)" opacity="0.3">
      <path id="Trazado_490" data-name="Trazado 490" d="M185.193,148.146a2.381,2.381,0,1,1-.7-1.689,2.386,2.386,0,0,1,.7,1.689Z" transform="translate(-180.42 -145.76)"/>
    </g>
    <path id="Trazado_491" data-name="Trazado 491" d="M181.513,164.281a1.167,1.167,0,0,1,0-.129v-1.818c0-1.272,0-3.112-.034-5.448,0-4.683-.045-11.346-.073-19.355l.135.135H153.547l.152-.152h0v26.739l-.141-.135,20.261.068,5.713.034h.039l-5.679.034-20.335.068h-.135V137.541h0c-.141.135.191-.2.163-.163h28.13v.135c0,8.043-.051,14.74-.068,19.445,0,2.319,0,4.148-.034,5.414v1.773A.478.478,0,0,1,181.513,164.281Z" transform="translate(-103.726 -117.398)" opacity="0.3"/>
  </g>
  <g id="freepik--Floor--inject-37" transform="translate(3.118 205)">
    <path id="Trazado_492" data-name="Trazado 492" d="M282.712,466.294c0,.1-54.689.169-122.131.169S38.45,466.39,38.45,466.294s54.672-.174,122.131-.174S282.712,466.2,282.712,466.294Z" transform="translate(-38.45 -466.12)" fill="#263238"/>
  </g>
  <g id="freepik--Character--inject-37" transform="translate(67.683 29.291)">
    <path id="Trazado_493" data-name="Trazado 493" d="M257.955,457.366l-1.435,4.778,10.221-.118.456-5.116Z" transform="translate(-198.352 -286.385)" fill="#a96cfe"/>
    <path id="Trazado_494" data-name="Trazado 494" d="M267.131,464.067a6.981,6.981,0,0,1-1.486.118h-3.6l-3.585-.113A7.475,7.475,0,0,1,257,463.91a6.8,6.8,0,0,1,1.486-.113h3.6l3.585.113a7.271,7.271,0,0,1,1.463.158Z" transform="translate(-198.561 -289.394)" fill="#263238"/>
    <path id="Trazado_495" data-name="Trazado 495" d="M266.983,456.57a7.473,7.473,0,0,1,.039,2.156,7.12,7.12,0,0,1-.281,2.139,7.259,7.259,0,0,1-.039-2.156,7.08,7.08,0,0,1,.281-2.139Z" transform="translate(-202.776 -286.236)" fill="#263238"/>
    <path id="Trazado_496" data-name="Trazado 496" d="M256.52,465.266l10.221-.118.09-.968-10.142-.129-.169,1.1" transform="translate(-198.352 -289.507)" fill="#fff" opacity="0.6"/>
    <path id="Trazado_497" data-name="Trazado 497" d="M289.462,378.411l-17.644-91.418h0l-.1-.394h0c-2.707-10.75-4.846-13.389-4.846-13.389l-26.419.72c-2.077,3.726-2.336,12.669-2.336,12.669-.287,1.069,11.752,90.692,11.752,90.692l9.056-.743-3.084-84.321,23.638,86.4Z" transform="translate(-190.304 -206.074)" fill="#263238"/>
    <path id="Trazado_498" data-name="Trazado 498" d="M271.735,301.925c0,.09-2.921.923-6.568,1.869s-6.624,1.638-6.647,1.553,2.915-.923,6.568-1.869S271.735,301.84,271.735,301.925Z" transform="translate(-199.226 -218.625)" fill="#455a64"/>
    <path id="Trazado_499" data-name="Trazado 499" d="M201.779,202.8l-20.261,1.233-17.447-15.629-.18-.563c-.107-.293-.214-.619-.321-1a3.94,3.94,0,0,1-.152-1.334,6.19,6.19,0,0,1,.242-1.688c.2-.478-.276-.946-.67-.7a4.345,4.345,0,0,0-.889,3.214c.062,1.666-1.621-.3-2.251-1.007s-2.668-2.786-3.028-2.758c-.535.039-.6.63.051,1.317s2.426,2.893,2.049,3.214-3.523-3.309-3.523-3.309-.563-.889-1-.529c-.81.647,2.814,4.249,3.163,4.581.242.236-.158.6-.405.338s-3.056-3.7-3.889-3.045c-.636.5,2.955,2.989,3.146,4.03s-2.533-2.172-3.124-1.688c-.219.186-.36.355,1.469,1.97a47,47,0,0,0,3.855,3.309h0l18.246,20.137,25.49,2.251Z" transform="translate(-153.167 -166.447)" fill="#ffbe9d"/>
    <path id="Trazado_500" data-name="Trazado 500" d="M318.538,157.71c-.709-.315-2.437,3.534-2.538,2.476s2.656-4.446,1.9-4.745c-.979-.394-2.718,3.67-2.893,4s-.647.084-.478-.208c.248-.422,2.724-4.885,1.767-5.279-.529-.219-.81.782-.81.782s-2.021,4.362-2.465,4.159.647-2.814,1.075-3.658.208-1.39-.315-1.283c-.355.079-1.739,2.645-2.144,3.5s-1.486,3.2-1.885,1.587-1.3-2.713-1.745-2.814a.515.515,0,0,0-.45.861,6.417,6.417,0,0,1,.7,1.525,3.939,3.939,0,0,1,.22,1.328c0,.388,0,.732-.028,1.041l-.028.563L295.974,181.41l-19.794,4.424,3.523,12.759,23.239-9.911,11.971-24.421h0a48.085,48.085,0,0,0,2.786-4.244C318.977,157.957,318.8,157.828,318.538,157.71Z" transform="translate(-206.947 -153.924)" fill="#ffbe9d"/>
    <path id="Trazado_501" data-name="Trazado 501" d="M257.741,224.245l.321-1.171c.81-.507,10.35-6.455,10.693-6.512s-4.26-10.952-4.26-10.952l-10.857,1.553a11,11,0,0,0-1.835-.366l-12.759-.107s-3.377.563-4.846,1.627l-11.549,4.356,2.634,13.418,9.078-.782c.124,1.007.681,4.829.923,5.82.8,3.287,1.283,7.682-.428,10.587,0,0-3.5,6.979-3.506,12.81l32.2-3.765s-1.385-5.656-7.232-13.181l.281-7.941Z" transform="translate(-183.544 -176.52)" fill="#455a64"/>
    <path id="Trazado_502" data-name="Trazado 502" d="M246.49,161c-2.679,1.216-3.754,4.176-4.018,6.889s0,5.549-1.03,8.093c-.884,2.144-2.7,4.1-2.5,6.4.152,1.688,1.43,3.219,1.66,4.925.45,3.3-3.056,6.259-2.414,9.568A5.934,5.934,0,0,0,241,200.544a19.7,19.7,0,0,0,4.559,1.959c2.127.715,4.5,1.413,6.585.67,1.857-.659,3.124-2.353,5.065-2.842s3.8.3,5.729.338a6.444,6.444,0,0,0,4.739-1.8,4.277,4.277,0,0,0,.979-4.5c-.855-2.116-3.5-3.478-3.906-5.7-.366-2,1.266-4,.754-5.977-.563-2.206-3.529-3.377-4.244-5.544-.855-2.606,1.88-5.386.816-7.936-.63-1.5-2.431-2.443-2.921-3.979-.332-1.058.028-2.195-.214-3.27-.411-1.857-2.5-3.056-4.542-3.478a10.643,10.643,0,0,0-7.35,1.024,7.5,7.5,0,0,0-3.838,5.684" transform="translate(-190.303 -155.808)" fill="#263238"/>
    <path id="Trazado_503" data-name="Trazado 503" d="M260.09,159.326A9.005,9.005,0,0,1,272.151,166c.411,2.071.107,4.306,1.007,6.191.974,2.077,3.27,3.5,3.613,5.763s-1.294,4.176-1.632,6.365c-.355,2.251.715,4.576.456,6.866a5.966,5.966,0,0,1-10.367,3.321" transform="translate(-199.912 -156.024)" fill="#263238"/>
    <path id="Trazado_504" data-name="Trazado 504" d="M239.571,197.929a.223.223,0,0,0-.034-.09,2.085,2.085,0,0,1-.056-.276,2.493,2.493,0,0,1,.152-1.075,7.319,7.319,0,0,1,.81-1.508,7.316,7.316,0,0,0,1.007-1.964,4.289,4.289,0,0,0-.2-2.6,12.155,12.155,0,0,0-1.486-2.7,12.326,12.326,0,0,1-1.655-3.073,6.039,6.039,0,0,1,.079-3.754,5.876,5.876,0,0,1,.917-1.688,17.2,17.2,0,0,1,1.244-1.362,8.053,8.053,0,0,0,1.092-1.345,3.377,3.377,0,0,0,.49-1.525,14.987,14.987,0,0,0-.405-3.062,6.264,6.264,0,0,1,.152-2.752,6.619,6.619,0,0,1,2.15-3.3,5.742,5.742,0,0,1,.9-.6,1.418,1.418,0,0,1,.349-.152,11.731,11.731,0,0,0-1.165.844,6.7,6.7,0,0,0-2.037,3.264,6.157,6.157,0,0,0-.107,2.645,14.634,14.634,0,0,1,.439,3.129,3.613,3.613,0,0,1-.523,1.688,8.651,8.651,0,0,1-1.126,1.4,17.231,17.231,0,0,0-1.221,1.34,5.657,5.657,0,0,0-.867,1.6,5.769,5.769,0,0,0-.079,3.551,11.955,11.955,0,0,0,1.6,3,12.156,12.156,0,0,1,1.491,2.78,4.531,4.531,0,0,1,.169,2.752,7.435,7.435,0,0,1-1.075,2,8.076,8.076,0,0,0-.844,1.452,2.814,2.814,0,0,0-.158,1.373Z" transform="translate(-190.188 -158.81)" fill="#263238"/>
    <path id="Trazado_505" data-name="Trazado 505" d="M271.614,201.188s.129-.135.355-.411a3.321,3.321,0,0,0,.625-1.385,4.041,4.041,0,0,0-.242-2.369,3.3,3.3,0,0,0-.855-1.21,3.478,3.478,0,0,0-1.48-.749,9.761,9.761,0,0,1-1.823-.608,1.869,1.869,0,0,1-1.041-1.8,3.7,3.7,0,0,1,1.007-2.02c.518-.563,1.126-1.058,1.615-1.688a2.279,2.279,0,0,0,.6-2.127,3.353,3.353,0,0,0-1.688-1.688,10.653,10.653,0,0,1-2.251-1.458,2.521,2.521,0,0,1-.726-1.227,3.247,3.247,0,0,1,0-1.435c.208-.929.625-1.756.855-2.6a2.561,2.561,0,0,0-.326-2.381c-1.086-1.272-3.028-1.475-4.1-2.814a4.953,4.953,0,0,1-.968-2.178,9.745,9.745,0,0,1-.158-2.251c.056-1.435.248-2.741.169-3.94a4.818,4.818,0,0,0-1.019-2.966,3.692,3.692,0,0,0-2.043-1.2,2.324,2.324,0,0,0-1.486.18c-.315.158-.445.3-.462.287a.444.444,0,0,1,.1-.1,1.514,1.514,0,0,1,.326-.242,2.285,2.285,0,0,1,1.536-.248,3.765,3.765,0,0,1,2.161,1.2,5.066,5.066,0,0,1,1.126,3.073,38.841,38.841,0,0,1-.129,3.94,9.506,9.506,0,0,0,.169,2.167,4.57,4.57,0,0,0,.917,2.043,5.55,5.55,0,0,0,1.947,1.356,6.4,6.4,0,0,1,2.167,1.458,2.476,2.476,0,0,1,.529,1.283,3.822,3.822,0,0,1-.135,1.385c-.248.884-.658,1.688-.85,2.583a2.347,2.347,0,0,0,.625,2.364,10.271,10.271,0,0,0,2.189,1.413,6.71,6.71,0,0,1,1.092.749,2.471,2.471,0,0,1,.737,1.126,2.1,2.1,0,0,1,0,1.317,3.76,3.76,0,0,1-.636,1.092c-.507.642-1.126,1.126-1.632,1.688a3.377,3.377,0,0,0-.951,1.852,1.6,1.6,0,0,0,.895,1.559,9.244,9.244,0,0,0,1.767.608,3.742,3.742,0,0,1,1.553.816,3.455,3.455,0,0,1,.884,1.294,4.126,4.126,0,0,1,.2,2.465,3.22,3.22,0,0,1-.7,1.4A2.471,2.471,0,0,1,271.614,201.188Z" transform="translate(-198.199 -156.807)" fill="#455a64"/>
    <path id="Trazado_506" data-name="Trazado 506" d="M250.654,203.111a2.465,2.465,0,0,1-.2-.428c-.124-.287-.293-.709-.49-1.261a16.931,16.931,0,0,1-.563-2.054,9.214,9.214,0,0,1-.22-2.814,5.69,5.69,0,0,1,1.328-3.174,13.643,13.643,0,0,0,1.159-1.486,3.4,3.4,0,0,0,.5-1.846,8.983,8.983,0,0,0-1.43-3.973,10.2,10.2,0,0,1-1.621-4.4,3.428,3.428,0,0,1,.7-2.324,10.233,10.233,0,0,1,1.79-1.48,2.814,2.814,0,0,0,1.092-1.745,5.026,5.026,0,0,0-.084-2.049c-.281-1.34-.8-2.561-1.036-3.793a11.161,11.161,0,0,1,1.61-8.1,9,9,0,0,1,.816-1.075,2.674,2.674,0,0,1,.332-.338,12.319,12.319,0,0,0-1.041,1.48,11.386,11.386,0,0,0-1.587,4.615,11.11,11.11,0,0,0,.135,3.377c.236,1.193.76,2.409,1.064,3.782a5.364,5.364,0,0,1,.1,2.167,3.174,3.174,0,0,1-1.193,1.936,10.659,10.659,0,0,0-1.739,1.43,3.1,3.1,0,0,0-.63,2.111,9.708,9.708,0,0,0,1.576,4.261,8.888,8.888,0,0,1,1.452,4.125,3.732,3.732,0,0,1-.563,2,14.123,14.123,0,0,1-1.2,1.508,5.425,5.425,0,0,0-1.306,3.028,8.965,8.965,0,0,0,.163,2.775,19.975,19.975,0,0,0,.563,2.054c.18.529.321.957.428,1.278A2.6,2.6,0,0,1,250.654,203.111Z" transform="translate(-195.114 -156.917)" fill="#455a64"/>
    <path id="Trazado_507" data-name="Trazado 507" d="M322.128,460.931l-.039-1.041-10.558.3.1,3.433h.653c2.9.073,14.768.174,16.693-.422C331.116,462.558,322.128,460.931,322.128,460.931Z" transform="translate(-222.401 -287.688)" fill="#a96cfe"/>
    <g id="Grupo_63" data-name="Grupo 63" transform="translate(89.146 173.052)" opacity="0.6">
      <path id="Trazado_508" data-name="Trazado 508" d="M315.443,464.113a3.377,3.377,0,0,0-1.407-2.049,3.732,3.732,0,0,0-2.476-.647l.084,2.735Z" transform="translate(-311.56 -461.4)" fill="#fff"/>
    </g>
    <g id="Grupo_64" data-name="Grupo 64" transform="translate(89.224 174.183)" opacity="0.6">
      <path id="Trazado_509" data-name="Trazado 509" d="M326.6,463.41s3.157.754,2.78,1.244-12.382.8-17.678.512v-.214l14-.259S325.984,463.449,326.6,463.41Z" transform="translate(-311.7 -463.41)" fill="#fff"/>
    </g>
    <path id="Trazado_510" data-name="Trazado 510" d="M311.42,465.782h.7l1.908.028c1.615,0,3.85,0,6.309-.062s4.694-.169,6.309-.259l1.908-.124.518-.045h-.523l-1.908.09c-1.615.073-3.844.163-6.3.225s-4.694.084-6.309.1H311.6Z" transform="translate(-222.353 -290.062)" fill="#263238"/>
    <path id="Trazado_511" data-name="Trazado 511" d="M336.578,464.793a2.567,2.567,0,0,1,.962-1.553,1.368,1.368,0,0,0-.743.636A1.227,1.227,0,0,0,336.578,464.793Z" transform="translate(-233.345 -289.152)" fill="#263238"/>
    <path id="Trazado_512" data-name="Trazado 512" d="M331,462.856a1.248,1.248,0,0,0,.321-.383c.146-.231.242-.428.208-.445s-.169.158-.315.388A1.784,1.784,0,0,0,331,462.856Z" transform="translate(-230.913 -288.623)" fill="#263238"/>
    <path id="Trazado_513" data-name="Trazado 513" d="M329.467,462.361a1.67,1.67,0,0,0,.36-.236c.174-.152.3-.3.276-.326s-.186.084-.36.236S329.439,462.338,329.467,462.361Z" transform="translate(-230.241 -288.521)" fill="#263238"/>
    <path id="Trazado_514" data-name="Trazado 514" d="M328.46,461.129a2.71,2.71,0,1,0,.563-.068A1.328,1.328,0,0,0,328.46,461.129Z" transform="translate(-229.803 -288.195)" fill="#263238"/>
    <path id="Trazado_515" data-name="Trazado 515" d="M328.1,460a1.626,1.626,0,0,0,1.244.056,3.147,3.147,0,0,0-.625,0A3.292,3.292,0,0,0,328.1,460Z" transform="translate(-229.645 -287.736)" fill="#263238"/>
    <path id="Trazado_516" data-name="Trazado 516" d="M331.59,461.31a1.857,1.857,0,0,0,.675,0,4.22,4.22,0,0,0,.715-.163,2.01,2.01,0,0,0,.405-.169.338.338,0,0,0,.163-.2.253.253,0,0,0-.113-.253,1.294,1.294,0,0,0-1.52.377,1.048,1.048,0,0,0-.208.428v.169a1.689,1.689,0,0,1,.293-.563,1.182,1.182,0,0,1,.563-.366,1.125,1.125,0,0,1,.8,0c.113.073.073.191-.045.259a2.011,2.011,0,0,1-.371.163,5.633,5.633,0,0,1-.692.186A4.238,4.238,0,0,0,331.59,461.31Z" transform="translate(-231.171 -287.921)" fill="#263238"/>
    <path id="Trazado_517" data-name="Trazado 517" d="M331.2,461.069a.563.563,0,0,0,.068-.439,1.019,1.019,0,0,0-.2-.45.681.681,0,0,0-.563-.31.253.253,0,0,0-.2.3.693.693,0,0,0,.124.276,1.836,1.836,0,0,0,.332.371,1.087,1.087,0,0,0,.394.248s-.141-.113-.332-.3a2.376,2.376,0,0,1-.293-.371c-.1-.129-.169-.366,0-.4a.642.642,0,0,1,.456.253,1.053,1.053,0,0,1,.2.405A2.343,2.343,0,0,1,331.2,461.069Z" transform="translate(-230.603 -287.679)" fill="#263238"/>
    <path id="Trazado_518" data-name="Trazado 518" d="M311.66,461.314a4.688,4.688,0,0,1,.777,0,3.528,3.528,0,0,1,1.688.608,3.2,3.2,0,0,1,1.126,1.362,6.759,6.759,0,0,1,.22.692.562.562,0,0,0,0-.2,2.4,2.4,0,0,0-.129-.523,3,3,0,0,0-1.126-1.43,3.377,3.377,0,0,0-1.784-.6,3.95,3.95,0,0,0-.563.028A.614.614,0,0,0,311.66,461.314Z" transform="translate(-222.458 -288.273)" fill="#263238"/>
    <path id="Trazado_519" data-name="Trazado 519" d="M320.76,464.41a6.157,6.157,0,0,0,1.536.1,6.5,6.5,0,0,0,1.537-.152,13.356,13.356,0,0,0-1.536.034C321.452,464.427,320.766,464.376,320.76,464.41Z" transform="translate(-226.436 -289.636)" fill="#263238"/>
    <path id="Trazado_520" data-name="Trazado 520" d="M317.1,464.547a1.957,1.957,0,0,0,.135.281c.073.146.118.27.152.27s.051-.158-.039-.326S317.122,464.525,317.1,464.547Z" transform="translate(-224.836 -289.722)" fill="#263238"/>
    <path id="Trazado_521" data-name="Trazado 521" d="M315.67,463a.5.5,0,0,0,.158.225c.107.1.225.163.248.135s-.045-.124-.158-.219A.6.6,0,0,0,315.67,463Z" transform="translate(-224.211 -289.048)" fill="#263238"/>
    <path id="Trazado_522" data-name="Trazado 522" d="M313.68,462.274c0,.028.146.028.3.073s.27.118.293.1-.062-.158-.259-.208S313.668,462.24,313.68,462.274Z" transform="translate(-223.341 -288.704)" fill="#263238"/>
    <path id="Trazado_523" data-name="Trazado 523" d="M312.26,461.985c0,.028.051.079.141.107s.169.028.18,0-.051-.079-.141-.113A.276.276,0,0,0,312.26,461.985Z" transform="translate(-222.72 -288.595)" fill="#263238"/>
  </g>
  <g id="freepik--Plant--inject-37" transform="translate(196.019 170.351)">
    <path id="Trazado_524" data-name="Trazado 524" d="M410.4,441.492a8.285,8.285,0,0,1,5.155-.619A4.289,4.289,0,0,1,418.1,442a1.827,1.827,0,0,1,.028,2.538,2.437,2.437,0,0,1-1.6.411c-1.362,0-2.87-.259-3.94.563-.619.467-1.03,1.244-1.773,1.475a1.75,1.75,0,0,1-1.93-.861,3.005,3.005,0,0,1-.22-2.212A3.377,3.377,0,0,1,410.4,441.492Z" transform="translate(-393.15 -420.362)" fill="#a96cfe"/>
    <path id="Trazado_525" data-name="Trazado 525" d="M410.4,441.492a8.285,8.285,0,0,1,5.155-.619A4.289,4.289,0,0,1,418.1,442a1.827,1.827,0,0,1,.028,2.538,2.437,2.437,0,0,1-1.6.411c-1.362,0-2.87-.259-3.94.563-.619.467-1.03,1.244-1.773,1.475a1.75,1.75,0,0,1-1.93-.861,3.005,3.005,0,0,1-.22-2.212A3.377,3.377,0,0,1,410.4,441.492Z" transform="translate(-393.15 -420.362)" fill="#fff" opacity="0.2"/>
    <path id="Trazado_526" data-name="Trazado 526" d="M404.749,418.753c.962,1.373,2.814.917,3.686.084a6.869,6.869,0,0,0,1.559-3.2c.76-2.634,1.525-5.4.962-8.088a4.5,4.5,0,0,0-1.036-2.2,2.347,2.347,0,0,0-2.223-.743,3.445,3.445,0,0,0-1.947,2.043,19.265,19.265,0,0,0-1.9,8.29,6.692,6.692,0,0,0,.9,3.827" transform="translate(-391.091 -404.556)" fill="#a96cfe"/>
    <path id="Trazado_527" data-name="Trazado 527" d="M404.749,418.753c.962,1.373,2.814.917,3.686.084a6.869,6.869,0,0,0,1.559-3.2c.76-2.634,1.525-5.4.962-8.088a4.5,4.5,0,0,0-1.036-2.2,2.347,2.347,0,0,0-2.223-.743,3.445,3.445,0,0,0-1.947,2.043,19.265,19.265,0,0,0-1.9,8.29,6.692,6.692,0,0,0,.9,3.827" transform="translate(-391.091 -404.556)" opacity="0.3"/>
    <path id="Trazado_528" data-name="Trazado 528" d="M392.222,424.129a4.981,4.981,0,0,0,.777-4.581,8.825,8.825,0,0,0-2.718-3.94,14.634,14.634,0,0,0-4.857-2.87,5.3,5.3,0,0,0-2.184-.372,2.291,2.291,0,0,0-1.835,1.126c-.512.974,0,2.156.507,3.124a37.048,37.048,0,0,0,3.191,4.857,8.648,8.648,0,0,0,3.512,3.005c1.458.557,2.972.5,3.748-.518" transform="translate(-381.193 -407.969)" fill="#a96cfe"/>
    <path id="Trazado_529" data-name="Trazado 529" d="M405.318,456.688a3.3,3.3,0,0,0,.084-.625l.169-1.688a24.538,24.538,0,0,1,.377-2.488,19.489,19.489,0,0,1,.906-2.938,10.692,10.692,0,0,1,1.5-2.662,5.628,5.628,0,0,1,1.9-1.576,5.337,5.337,0,0,1,1.593-.5,2.865,2.865,0,0,0,.619-.09,2.853,2.853,0,0,0-.63,0,4.9,4.9,0,0,0-1.688.433,5.628,5.628,0,0,0-2,1.593,10.525,10.525,0,0,0-1.553,2.713,17.955,17.955,0,0,0-.9,2.983,21.53,21.53,0,0,0-.332,2.521c-.051.72-.073,1.3-.084,1.688a3.1,3.1,0,0,0,.039.63Z" transform="translate(-391.721 -421.848)" fill="#263238"/>
    <path id="Trazado_530" data-name="Trazado 530" d="M405.455,442.351a1.989,1.989,0,0,0,0-.293c0-.214,0-.49,0-.822,0-.715,0-1.75.039-3.034.062-2.555.281-5.313.709-9.2.4-3.647.94-7.879,1.514-10.66.124-.625.242-1.193.36-1.688s.208-.923.3-1.272.141-.591.191-.8a1.688,1.688,0,0,0,.051-.287,1.126,1.126,0,0,0-.1.27l-.236.794c-.107.343-.22.765-.343,1.261s-.265,1.058-.4,1.688a95.331,95.331,0,0,0-1.581,9.889c-.422,3.889-.619,7.435-.636,10,0,1.283,0,2.319.045,3.034,0,.338.039.608.051.827A1.124,1.124,0,0,0,405.455,442.351Z" transform="translate(-391.741 -408.816)" fill="#263238"/>
    <path id="Trazado_531" data-name="Trazado 531" d="M398.494,437.144a6.305,6.305,0,0,0,0-.861c-.034-.563-.113-1.356-.265-2.336a32.518,32.518,0,0,0-.76-3.4,28.2,28.2,0,0,0-1.424-4.024,21.5,21.5,0,0,0-4.176-6.506,10.792,10.792,0,0,0-.985-.912c-.152-.129-.281-.253-.416-.355l-.383-.265a5.577,5.577,0,0,0-.726-.462,25.212,25.212,0,0,1,2.375,2.122,22.513,22.513,0,0,1,4.075,6.478,31.477,31.477,0,0,1,1.43,3.99,33.115,33.115,0,0,1,.81,3.377c.18.974.281,1.767.343,2.313a5.476,5.476,0,0,0,.1.844Z" transform="translate(-384.763 -410.443)" fill="#263238"/>
  </g>
</svg>
