<svg xmlns="http://www.w3.org/2000/svg" xmlns:xlink="http://www.w3.org/1999/xlink" width="193.653" height="151.047" viewBox="0 0 193.653 151.047">
  <defs>
    <clipPath id="clip-path">
      <path id="Trazado_60" data-name="Trazado 60" d="M226.153,197.79c.209.8.426,1.592.644,2.368,2.268,8.165,5.217,23.7,5.217,23.7,14.516,3.062,29.826,0,29.826,0a114.775,114.775,0,0,0-.789-12.547c2.377-.658,4.083-2.853,4.191-6.5a143.343,143.343,0,0,0-1.134-16.1c-.395-3.271-.113-5.217-5.18-7.712-2.54-1.465-6.759-2.159-11.944-2.853-10.206-1.361-17.573.7-20.186,1.814-2.073-.544-2.649,1.887-2.649,1.887-1.148-.866-2.481,2.808-2.481,2.808-3.357,4.282-6,11.495-6.877,14.062a3,3,0,0,1-1.025,1.411,3.088,3.088,0,0,0-1.057,4.06l4.876,1.492s2.363.617,4.169-2.49C223.259,200.589,225.727,196.184,226.153,197.79Z" transform="translate(-212.34 -177.691)" fill="#a96cfe" stroke="#263238" stroke-linecap="round" stroke-linejoin="round" stroke-width="1"/>
    </clipPath>
    <clipPath id="clip-path-2">
      <path id="Trazado_79" data-name="Trazado 79" d="M272.816,176.071c-.426-1.492-2.372-1.91-2.372-1.91-9.3-1.588-11.263,1.814-11.263,1.814a13.69,13.69,0,0,0,0,9.526s2.645-1.1,3.1,0,1.284,3.438,1.284,3.438a10.487,10.487,0,0,0,3.234-2.835c1.438-1.892,4.813,0,4.813,0C273.8,182.327,272.816,176.071,272.816,176.071Zm-2.268-.109c-3.6,11.3-6.777,11.794-6.777,11.794-1.057-4.155-1.964-3.248-3.4-5.847a8.84,8.84,0,0,1-.562-5.693.794.794,0,0,1,.408-.544c3.574-1.814,7.947-1.148,9.748-.753a.807.807,0,0,1,.6,1.043Z" transform="translate(-258.325 -173.739)" fill="#a96cfe" stroke="#263238" stroke-linecap="round" stroke-linejoin="round" stroke-width="1"/>
    </clipPath>
    <clipPath id="clip-path-3">
      <circle id="Elipse_65" data-name="Elipse 65" cx="11.286" cy="11.286" r="11.286" transform="translate(0 21.957) rotate(-76.59)" fill="#a96cfe" stroke="#263238" stroke-linecap="round" stroke-linejoin="round" stroke-width="0.75"/>
    </clipPath>
    <clipPath id="clip-path-4">
      <circle id="Elipse_69" data-name="Elipse 69" cx="9.63" cy="9.63" r="9.63" transform="matrix(0.228, -0.974, 0.974, 0.228, 0, 18.755)" fill="#a96cfe" stroke="#263238" stroke-linecap="round" stroke-linejoin="round" stroke-width="0.75"/>
    </clipPath>
    <clipPath id="clip-path-5">
      <circle id="Elipse_73" data-name="Elipse 73" cx="9.608" cy="9.608" r="9.608" transform="translate(0 18.692) rotate(-76.59)" fill="#a96cfe" stroke="#263238" stroke-linecap="round" stroke-linejoin="round" stroke-width="0.75"/>
    </clipPath>
    <clipPath id="clip-path-6">
      <rect id="Rectángulo_505" data-name="Rectángulo 505" width="13.35" height="6.741" transform="translate(13.35 6.741) rotate(180)" fill="#a96cfe" stroke="#263238" stroke-miterlimit="10" stroke-width="1"/>
    </clipPath>
  </defs>
  <g id="Programmer-bro" transform="translate(0 0.375)">
    <g id="freepik--background-simple--inject-16" transform="translate(7.899 0.302)">
      <path id="Trazado_21" data-name="Trazado 21" d="M111.268,189.233C89.644,182.569,40.135,166.924,49.575,123c10.887-50.733,70.865-16.33,107.658-33.5,26.042-12.143,80.4-24.949,76.413,29.876-3.883,53.328-6.11,91.963-37.71,101.13S143.969,199.3,111.268,189.233Z" transform="translate(-48.392 -78.906)" fill="#a96cfe"/>
      <path id="Trazado_22" data-name="Trazado 22" d="M111.268,189.233C89.644,182.569,40.135,166.924,49.575,123c10.887-50.733,70.865-16.33,107.658-33.5,26.042-12.143,80.4-24.949,76.413,29.876-3.883,53.328-6.11,91.963-37.71,101.13S143.969,199.3,111.268,189.233Z" transform="translate(-48.392 -78.906)" fill="#fff" opacity="0.7"/>
    </g>
    <g id="freepik--Floor--inject-16" transform="translate(5.553 149.818)">
      <line id="Línea_49" data-name="Línea 49" x2="187.6" fill="none" stroke="#263238" stroke-linecap="round" stroke-linejoin="round" stroke-width="1"/>
    </g>
    <g id="freepik--Plant--inject-16" transform="translate(0 73.174)">
      <path id="Trazado_23" data-name="Trazado 23" d="M96.848,264.481c2.722,2.268,1.814,15.6,10.324,9.866s-5.988-9.136-5.162-12.388c1.161-4.536,20.309.907,17.1-7.8s-14.661,4.391-17.669,1.148c-2.767-2.985,11.014-13.772,4.591-15.6s-5.058,13.767-9.181,13.767c-3.221,0-2.617-14.915-8.537-9.639s7.018,10.479,5.326,13.754c-1.288,2.49-11.472-3.656-11.014,2.082S93.944,262.081,96.848,264.481Z" transform="translate(-59.187 -239.55)" fill="#a96cfe"/>
      <path id="Trazado_24" data-name="Trazado 24" d="M111.313,279.47s-6.187,7.5-5.5,27.934" transform="translate(-71.839 -261.361)" fill="none" stroke="#263238" stroke-linecap="round" stroke-linejoin="round" stroke-width="1"/>
      <path id="Trazado_25" data-name="Trazado 25" d="M136.694,286.148c-1.1-2.209-10.2-3.72-4.99-8.514s5.194,5.484,7.512,5.444c3.243-.054,2.613-13.8,7.966-10.252s-5.289,9.159-3.584,11.694c1.565,2.336,11.009-5.212,11.223-.6s-10.061,1.2-10.719,3.978c-.513,2.164,9.612,4.133,5.121,7.258s-5.929-6.382-8.4-5.766c-1.883.454.631,8.3-3.153,7.072S137.846,288.462,136.694,286.148Z" transform="translate(-85.139 -257.411)" fill="#a96cfe"/>
      <path id="Trazado_26" data-name="Trazado 26" d="M136.694,286.148c-1.1-2.209-10.2-3.72-4.99-8.514s5.194,5.484,7.512,5.444c3.243-.054,2.613-13.8,7.966-10.252s-5.289,9.159-3.584,11.694c1.565,2.336,11.009-5.212,11.223-.6s-10.061,1.2-10.719,3.978c-.513,2.164,9.612,4.133,5.121,7.258s-5.929-6.382-8.4-5.766c-1.883.454.631,8.3-3.153,7.072S137.846,288.462,136.694,286.148Z" transform="translate(-85.139 -257.411)" opacity="0.3"/>
      <path id="Trazado_27" data-name="Trazado 27" d="M131.664,303.052s-17.632-1.837-19.374,17.21" transform="translate(-75.405 -274.22)" fill="none" stroke="#263238" stroke-linecap="round" stroke-linejoin="round" stroke-width="1"/>
      <path id="Trazado_28" data-name="Trazado 28" d="M53.6,268.53c-2.722,2.268-1.814,15.6-10.324,9.866s5.992-9.14,5.162-12.388c-1.157-4.536-20.309.907-17.092-7.8S46,262.6,49.033,259.354c2.763-2.98-11.014-13.767-4.591-15.6s5.04,13.772,9.177,13.772c3.221,0,2.622-14.92,8.542-9.639s-7.022,10.479-5.326,13.754c1.284,2.49,11.472-3.656,11.014,2.078S56.486,266.131,53.6,268.53Z" transform="translate(-30.979 -241.762)" fill="#a96cfe"/>
      <path id="Trazado_29" data-name="Trazado 29" d="M53.6,268.53c-2.722,2.268-1.814,15.6-10.324,9.866s5.992-9.14,5.162-12.388c-1.157-4.536-20.309.907-17.092-7.8S46,262.6,49.033,259.354c2.763-2.98-11.014-13.767-4.591-15.6s5.04,13.772,9.177,13.772c3.221,0,2.622-14.92,8.542-9.639s-7.022,10.479-5.326,13.754c1.284,2.49,11.472-3.656,11.014,2.078S56.486,266.131,53.6,268.53Z" transform="translate(-30.979 -241.762)" fill="#fff" opacity="0.3"/>
      <path id="Trazado_30" data-name="Trazado 30" d="M76.54,283.52s8.029,10.724,9.866,28.619" transform="translate(-55.872 -263.574)" fill="none" stroke="#263238" stroke-linecap="round" stroke-linejoin="round" stroke-width="1"/>
      <path id="Trazado_31" data-name="Trazado 31" d="M81.285,369.361h12.52a4.618,4.618,0,0,0,4.622-4.237L100.4,341.99A4.618,4.618,0,0,0,95.8,337H79.317a4.613,4.613,0,0,0-4.6,4.99l1.969,23.135A4.613,4.613,0,0,0,81.285,369.361Z" transform="translate(-54.87 -292.795)" fill="#a96cfe" stroke="#263238" stroke-linecap="round" stroke-linejoin="round" stroke-width="1"/>
    </g>
    <g id="freepik--Character--inject-16" transform="translate(74.79 23.817)">
      <path id="Trazado_32" data-name="Trazado 32" d="M276.281,331.822c-4.187,0-16.271-2.722-16.271-2.722h32.543S280.464,331.822,276.281,331.822Z" transform="translate(-230.906 -239.121)" fill="#263238" stroke="#263238" stroke-linecap="round" stroke-linejoin="round" stroke-width="1"/>
      <rect id="Rectángulo_496" data-name="Rectángulo 496" width="7.458" height="5.112" transform="translate(41.646 91.335)" fill="#858585" stroke="#263238" stroke-linecap="round" stroke-linejoin="round" stroke-width="1"/>
      <rect id="Rectángulo_497" data-name="Rectángulo 497" width="9.662" height="21.978" transform="translate(40.544 96.447)" fill="#999" stroke="#263238" stroke-linecap="round" stroke-linejoin="round" stroke-width="1"/>
      <path id="Trazado_33" data-name="Trazado 33" d="M328.3,298.925H322c.7-4.328,1.216-8.737,1.533-13.105h6.278C329.512,290.188,329,294.6,328.3,298.925Z" transform="translate(-264.776 -215.474)" fill="#858585" stroke="#263238" stroke-linecap="round" stroke-linejoin="round" stroke-width="1"/>
      <path id="Trazado_34" data-name="Trazado 34" d="M318.582,200.48H291.51a4.7,4.7,0,0,0-4.65,5.856,205.793,205.793,0,0,1,3.094,29.277,5.058,5.058,0,0,0,5.1,5.081h22.79a5.942,5.942,0,0,0,5.82-5.081,203.6,203.6,0,0,0,1.189-29.277A6.424,6.424,0,0,0,318.582,200.48Z" transform="translate(-245.518 -168.846)" fill="#858585" stroke="#263238" stroke-linecap="round" stroke-linejoin="round" stroke-width="1"/>
      <path id="Trazado_35" data-name="Trazado 35" d="M320.061,206.336a203.589,203.589,0,0,1-1.188,29.277,5.942,5.942,0,0,1-5.82,5.081H295.062a5.058,5.058,0,0,1-5.1-5.081,205.789,205.789,0,0,0-3.089-29.277,4.692,4.692,0,0,1,4.65-5.856h22.268A6.424,6.424,0,0,1,320.061,206.336Z" transform="translate(-245.523 -168.846)" fill="#999" stroke="#263238" stroke-linecap="round" stroke-linejoin="round" stroke-width="1"/>
      <path id="Trazado_36" data-name="Trazado 36" d="M292.553,395.166a.807.807,0,0,1-.98.789c-2.962-.644-11.83-2.513-15.292-2.513s-12.334,1.869-15.3,2.513a.8.8,0,0,1-.975-.789h0a2.118,2.118,0,0,1,1.674-2.073c3.466-.744,11.372-2.363,14.6-2.363s11.132,1.62,14.6,2.363A2.123,2.123,0,0,1,292.553,395.166Z" transform="translate(-230.906 -272.795)" fill="#263238" stroke="#263238" stroke-linecap="round" stroke-linejoin="round" stroke-width="1"/>
      <path id="Trazado_37" data-name="Trazado 37" d="M256.64,396.91a2.785,2.785,0,1,0,2.781,2.781A2.785,2.785,0,0,0,256.64,396.91Zm0,4.291a1.511,1.511,0,1,1,1.506-1.511A1.511,1.511,0,0,1,256.64,401.2Z" transform="translate(-227.541 -276.171)" fill="#858585" stroke="#263238" stroke-linecap="round" stroke-linejoin="round" stroke-width="1"/>
      <path id="Trazado_38" data-name="Trazado 38" d="M292.514,396.91a2.785,2.785,0,1,0,2.776,2.763A2.785,2.785,0,0,0,292.514,396.91Zm0,4.291a1.511,1.511,0,1,1,1.072-.45A1.511,1.511,0,0,1,292.514,401.2Z" transform="translate(-247.139 -276.171)" fill="#858585" stroke="#263238" stroke-linecap="round" stroke-linejoin="round" stroke-width="1"/>
      <path id="Trazado_39" data-name="Trazado 39" d="M327.645,396.91a2.781,2.781,0,1,0,1.969.813A2.785,2.785,0,0,0,327.645,396.91Zm0,4.291a1.511,1.511,0,1,1,1.511-1.511A1.511,1.511,0,0,1,327.645,401.2Z" transform="translate(-266.339 -276.171)" fill="#858585" stroke="#263238" stroke-linecap="round" stroke-linejoin="round" stroke-width="1"/>
      <path id="Trazado_40" data-name="Trazado 40" d="M270.064,310.973a214.6,214.6,0,0,1-32.52-1.438,3.4,3.4,0,0,0-4.005,3.443v.531a4.786,4.786,0,0,0,4.005,4.609,215.2,215.2,0,0,0,32.52,1.438Z" transform="translate(-216.442 -228.402)" fill="#999" stroke="#263238" stroke-linecap="round" stroke-linejoin="round" stroke-width="1"/>
      <path id="Trazado_41" data-name="Trazado 41" d="M323.707,317.82c-6.741.844-13.423,1.4-20.209,1.692a2.908,2.908,0,0,1-3-2.926v-2.608a3.075,3.075,0,0,1,3-3.044c6.8-.295,13.468-.853,20.209-1.7a2.513,2.513,0,0,1,2.976,2.545v2.608a3.575,3.575,0,0,1-2.976,3.429Z" transform="translate(-253.029 -228.245)" fill="#858585" stroke="#263238" stroke-linecap="round" stroke-linejoin="round" stroke-width="1"/>
      <path id="Trazado_42" data-name="Trazado 42" d="M223.131,385.7a21.06,21.06,0,0,0-2.118-8.46l-2.327-8.392-7.258,3.1,2.041,6.428s-6.237,2.976-8.542,3.779c-1.533.535-6.124,1.588-5.9,3.556h0a1.057,1.057,0,0,0,1.057,1.057H222.07a1.057,1.057,0,0,0,1.061-1.066Z" transform="translate(-197.584 -260.84)" fill="#fff" stroke="#263238" stroke-linecap="round" stroke-linejoin="round" stroke-width="1"/>
      <path id="Trazado_43" data-name="Trazado 43" d="M219.135,392.258c-1.134.835-7.181,1.892-5.666.68s0-3.1,0-3.1-6.237,2.976-8.542,3.779c-1.533.535-6.124,1.588-5.9,3.556a1.057,1.057,0,0,0,1.057,1.057H222.07a1.052,1.052,0,0,0,1.057-1.066,20.018,20.018,0,0,0-1.388-6.7C220.491,390.475,220.269,391.428,219.135,392.258Z" transform="translate(-197.584 -272.308)" fill="#a96cfe" stroke="#263238" stroke-linecap="round" stroke-linejoin="round" stroke-width="1"/>
      <path id="Trazado_44" data-name="Trazado 44" d="M262.906,388.807h16.1a.694.694,0,0,0,.68-.562c.245-1.279.19-4.142-1.261-7.943l-.145-7.712-8.247,1.4,1.043,6.578s-3.32,3.656-4.9,4.309c-1.107.454-3.629.508-3.965,3.175a.689.689,0,0,0,.69.753Z" transform="translate(-232.11 -262.883)" fill="#fff" stroke="#263238" stroke-linecap="round" stroke-linejoin="round" stroke-width="1"/>
      <path id="Trazado_45" data-name="Trazado 45" d="M275.745,392.169c-1.7,1.189-2.958,1.329-2.164-.454s-2.463-1.846-2.463-1.846-3.321,3.656-4.9,4.309c-1.107.454-3.629.508-3.965,3.175a.689.689,0,0,0,.689.771h16.1a.694.694,0,0,0,.68-.562c.245-1.279.191-4.142-1.261-7.943C277.206,389.91,277.432,390.976,275.745,392.169Z" transform="translate(-232.13 -272.188)" fill="#a96cfe" stroke="#263238" stroke-linecap="round" stroke-linejoin="round" stroke-width="1"/>
      <path id="Trazado_46" data-name="Trazado 46" d="M225.874,277.2s-1.624,1.66-8.26,2.722-20.413,4.382-20.245,9.825,12.856,34.475,12.856,34.475,6.351-1.207,9.3-3.021c0,0-5.112-20.717-8.945-26.16,0,0,17.206-2.118,26.723-6.047s3.919-12.883,3.919-12.883Z" transform="translate(-196.679 -210.169)" fill="#263238" stroke="#263238" stroke-linecap="round" stroke-linejoin="round" stroke-width="1"/>
      <path id="Trazado_47" data-name="Trazado 47" d="M271.372,276.421s2.44,4.083.617,6.351-12.18,6.5-11.009,11.644,5.035,12.4,7.553,29.635a50.492,50.492,0,0,0,9.794-2.572s.653-17.537-3.906-25.1c0,0,13.055-2.418,14.38-6.8s-1.152-11.091-1.2-13.486Z" transform="translate(-231.386 -210.158)" fill="#263238" stroke="#263238" stroke-linecap="round" stroke-linejoin="round" stroke-width="1"/>
      <path id="Trazado_48" data-name="Trazado 48" d="M265.607,291.119a6.042,6.042,0,0,0-.907,0" transform="translate(-233.469 -218.36)" fill="none" stroke="#7f7f7f" stroke-linecap="round" stroke-linejoin="round" stroke-width="0.75"/>
      <path id="Trazado_49" data-name="Trazado 49" d="M268,285.17a6.192,6.192,0,0,1,3.733,4.287.281.281,0,0,1-.454.281,6.469,6.469,0,0,0-2.581-1.624" transform="translate(-235.272 -215.119)" fill="none" stroke="#7f7f7f" stroke-linecap="round" stroke-linejoin="round" stroke-width="0.75"/>
      <path id="Trazado_50" data-name="Trazado 50" d="M217.761,312.736c0-1.474-6.351-2.268-4.65-3.629s5.557,3.062,5.557,3.062" transform="translate(-205.124 -228.055)" fill="none" stroke="#7f7f7f" stroke-linecap="round" stroke-linejoin="round" stroke-width="0.75"/>
      <path id="Trazado_51" data-name="Trazado 51" d="M285.542,324.474c0-1.687-6.069-2.608-5.766-4.423s4.16,1.76,4.16,1.76" transform="translate(-241.701 -233.896)" fill="none" stroke="#7f7f7f" stroke-linecap="round" stroke-linejoin="round" stroke-width="0.75"/>
      <path id="Trazado_52" data-name="Trazado 52" d="M224.193,377.614l.667,1.542a.4.4,0,0,0,.454.231c1.465-.331,7.58-1.774,9.726-3.316a.386.386,0,0,0,.145-.408l-.417-1.719a.395.395,0,0,0-.576-.254c-.966.526-3.656,1.783-9.73,3.379a.4.4,0,0,0-.268.544Z" transform="translate(-211.32 -263.457)" fill="#999" stroke="#263238" stroke-linecap="round" stroke-linejoin="round" stroke-width="1"/>
      <path id="Trazado_53" data-name="Trazado 53" d="M276.146,376.364a.313.313,0,0,1,.413-.34,3.987,3.987,0,0,0,2.268.032c1.683-.381,6.5-1.905,7.929-2.363a.313.313,0,0,1,.408.3V376a.308.308,0,0,1-.186.286c-1.125.5-7.154,3.085-10.306,2.382a.308.308,0,0,1-.236-.263Z" transform="translate(-239.721 -263.477)" fill="#999" stroke="#263238" stroke-linecap="round" stroke-linejoin="round" stroke-width="1"/>
      <path id="Trazado_54" data-name="Trazado 54" d="M274.223,287a3.175,3.175,0,0,1-.658,1.724c-1.334,1.656-7.2,4.355-9.825,7.712" transform="translate(-232.944 -216.119)" fill="none" stroke="#7f7f7f" stroke-linecap="round" stroke-linejoin="round" stroke-width="1"/>
      <path id="Trazado_55" data-name="Trazado 55" d="M286.22,282a7.261,7.261,0,0,1,.231,1.021" transform="translate(-245.227 -213.387)" fill="none" stroke="#7f7f7f" stroke-linecap="round" stroke-linejoin="round" stroke-width="1"/>
      <path id="Trazado_56" data-name="Trazado 56" d="M209.64,400.42a7.748,7.748,0,0,1,.794,2.155h16.38a2.894,2.894,0,0,1,.907-1.869" transform="translate(-203.385 -278.089)" fill="none" stroke="#263238" stroke-linecap="round" stroke-linejoin="round" stroke-width="1"/>
      <path id="Trazado_57" data-name="Trazado 57" d="M272.39,400.42a3.9,3.9,0,0,1,3.116,2.155h8.564a5.57,5.57,0,0,0,.454-1.869" transform="translate(-237.671 -278.089)" fill="none" stroke="#263238" stroke-linecap="round" stroke-linejoin="round" stroke-width="1"/>
      <path id="Trazado_58" data-name="Trazado 58" d="M226.153,197.79c.209.8.426,1.592.644,2.368,2.268,8.165,5.217,23.7,5.217,23.7,14.516,3.062,29.826,0,29.826,0a114.775,114.775,0,0,0-.789-12.547c2.377-.658,4.083-2.853,4.191-6.5a143.343,143.343,0,0,0-1.134-16.1c-.395-3.271-.113-5.217-5.18-7.712-2.54-1.465-6.759-2.159-11.944-2.853-10.206-1.361-17.573.7-20.186,1.814-2.073-.544-2.649,1.887-2.649,1.887-1.148-.866-2.481,2.808-2.481,2.808-3.357,4.282-6,11.495-6.877,14.062a3,3,0,0,1-1.025,1.411,3.088,3.088,0,0,0-1.057,4.06l4.876,1.492s2.363.617,4.169-2.49C223.259,200.589,225.727,196.184,226.153,197.79Z" transform="translate(-204.861 -156.394)" fill="#a96cfe"/>
      <g id="Grupo_39" data-name="Grupo 39" transform="translate(7.48 21.296)" clip-path="url(#clip-path)">
        <path id="Trazado_59" data-name="Trazado 59" d="M222.755,223.76s-.113-2.268-1.928-2.663.508-1.075,1.928-.735,1.089-.907,2.3-2.949,1.814-3.656,2.84-2.481,2.091,1.361,2.527,2.967-1.719,5.443-1.719,5.443l-3.384,2.626-1.719.962H221.04l-.88-2.218Z" transform="translate(-216.613 -197.822)" opacity="0.3"/>
      </g>
      <path id="Trazado_61" data-name="Trazado 61" d="M226.153,197.79c.209.8.426,1.592.644,2.368,2.268,8.165,5.217,23.7,5.217,23.7,14.516,3.062,29.826,0,29.826,0a114.775,114.775,0,0,0-.789-12.547c2.377-.658,4.083-2.853,4.191-6.5a143.343,143.343,0,0,0-1.134-16.1c-.395-3.271-.113-5.217-5.18-7.712-2.54-1.465-6.759-2.159-11.944-2.853-10.206-1.361-17.573.7-20.186,1.814-2.073-.544-2.649,1.887-2.649,1.887-1.148-.866-2.481,2.808-2.481,2.808-3.357,4.282-6,11.495-6.877,14.062a3,3,0,0,1-1.025,1.411,3.088,3.088,0,0,0-1.057,4.06l4.876,1.492s2.363.617,4.169-2.49C223.259,200.589,225.727,196.184,226.153,197.79Z" transform="translate(-204.861 -156.394)" fill="none" stroke="#263238" stroke-linecap="round" stroke-linejoin="round" stroke-width="1"/>
      <path id="Trazado_62" data-name="Trazado 62" d="M282.853,266.112a82.017,82.017,0,0,0-.431-8.728c.494,6.909-13.89,9.072-14.343,5.326s13.985-9.145,6.128-7.258c-6.854,1.647-20.141.073-23.407-.354,1.257,5.9,2.227,11.014,2.227,11.014C267.543,269.174,282.853,266.112,282.853,266.112Z" transform="translate(-225.874 -198.669)" opacity="0.3"/>
      <path id="Trazado_63" data-name="Trazado 63" d="M297.5,202.92s-2.055,6.01-2.05,9.186-5.756,5.307-5.77,5.307c3.089-.626,6.092-1.456,7.526-1.873a1.1,1.1,0,0,0,.8-1.157,110.61,110.61,0,0,1-.5-11.463Z" transform="translate(-247.118 -170.179)" opacity="0.3"/>
      <path id="Trazado_64" data-name="Trazado 64" d="M236.245,199.59a24.469,24.469,0,0,0,1.511,8.3.39.39,0,0,1-.59.454,9.221,9.221,0,0,1-2.876-3.978" transform="translate(-216.854 -168.36)" fill="none" stroke="#263238" stroke-linecap="round" stroke-linejoin="round" stroke-width="0.75"/>
      <path id="Trazado_65" data-name="Trazado 65" d="M317.324,233.32c-1.2-3.969-3.271-4.963-4.876-5.062a.254.254,0,0,1-.118-.454c.934-.5,2.753-.907,4.99,1.57" transform="translate(-259.438 -183.568)" fill="none" stroke="#263238" stroke-linecap="round" stroke-linejoin="round" stroke-width="0.75"/>
      <path id="Trazado_66" data-name="Trazado 66" d="M271.085,214.46a.685.685,0,1,1-.315-.658.685.685,0,0,1,.315.658Z" transform="translate(-236.212 -176.067)" fill="#999" stroke="#263238" stroke-linecap="round" stroke-linejoin="round" stroke-width="0.75"/>
      <path id="Trazado_67" data-name="Trazado 67" d="M273.121,231.58a.68.68,0,1,1-.68-.68A.68.68,0,0,1,273.121,231.58Z" transform="translate(-237.326 -185.467)" fill="#999" stroke="#263238" stroke-linecap="round" stroke-linejoin="round" stroke-width="0.75"/>
      <path id="Trazado_68" data-name="Trazado 68" d="M278.14,272.6a.685.685,0,1,1-.685-.68A.685.685,0,0,1,278.14,272.6Z" transform="translate(-240.064 -207.879)" fill="#999" stroke="#263238" stroke-linecap="round" stroke-linejoin="round" stroke-width="1"/>
      <path id="Trazado_69" data-name="Trazado 69" d="M249.32,243.14s-2.227,2.123-1.166,2.159,2.4-1.424,3.629-1.592-.758-.907-.758-.907Z" transform="translate(-224.272 -191.969)" fill="#fff" stroke="#263238" stroke-linecap="round" stroke-linejoin="round" stroke-width="1"/>
      <path id="Trazado_70" data-name="Trazado 70" d="M253.084,236.542a.975.975,0,0,0-.739-.245c-1.089.091-4.219.327-5.4.254-2.1-.132-8.27-1.438-8.27-1.438a.971.971,0,0,0-.426.023l-3.824,1.125a.907.907,0,0,0-.372.213l-2.313,2.123a.99.99,0,0,0-.191.245l-.481.88a.944.944,0,0,0,.168,1.13h0l3.82.1a.907.907,0,0,0,.644-.227l1.134-.971a1.034,1.034,0,0,0,.2-.227,3.531,3.531,0,0,1,3.039-1.814s-3.629,1.928-2.944,2.722,3.461-1.474,4.368-1.247.966,2.454,5.9,1.647a1.551,1.551,0,0,1,.662.032l4.491,1.257a1.039,1.039,0,0,0,1.284-.744C254.177,240.09,254.485,237.822,253.084,236.542Z" transform="translate(-215.03 -187.761)" fill="#fff" stroke="#263238" stroke-linecap="round" stroke-linejoin="round" stroke-width="1"/>
      <path id="Trazado_71" data-name="Trazado 71" d="M242.622,236.92l-.962.163a2.586,2.586,0,0,0-1.266.6l-1.021.875a2.675,2.675,0,0,0-.454.531l-.658,1a2.382,2.382,0,0,1-.24.313c-.39.454-1.465,1.71-.3,1.538" transform="translate(-218.441 -188.756)" fill="#fff" stroke="#263238" stroke-linecap="round" stroke-linejoin="round" stroke-width="1"/>
      <path id="Trazado_72" data-name="Trazado 72" d="M237.919,237.67l-.993.272a1.815,1.815,0,0,0-.826.454l-.776.744a1.362,1.362,0,0,0-.2.227l-1.275,1.692s-.68,1.2,0,1.22" transform="translate(-216.446 -189.166)" fill="#fff" stroke="#263238" stroke-linecap="round" stroke-linejoin="round" stroke-width="1"/>
      <path id="Trazado_73" data-name="Trazado 73" d="M293.341,200.8a104.13,104.13,0,0,0,.454,12.425,1.1,1.1,0,0,1-.8,1.157,85.006,85.006,0,0,1-11,2.472" transform="translate(-242.921 -169.021)" fill="none" stroke="#263238" stroke-linecap="round" stroke-linejoin="round" stroke-width="1"/>
      <path id="Trazado_74" data-name="Trazado 74" d="M307.305,194.6c-.059.454-.109.948-.145,1.452" transform="translate(-256.668 -165.633)" fill="none" stroke="#263238" stroke-linecap="round" stroke-linejoin="round" stroke-width="0.75"/>
      <path id="Trazado_75" data-name="Trazado 75" d="M309.415,185.24a4.608,4.608,0,0,0-1.175,2.363" transform="translate(-257.258 -160.519)" fill="none" stroke="#263238" stroke-linecap="round" stroke-linejoin="round" stroke-width="0.75"/>
      <path id="Trazado_76" data-name="Trazado 76" d="M260.3,176.723s.286-.907,1.814-1.42,6.832-1.325,9.558,0-2.495,8.533-2.495,8.533l-2.418,3.348L264.6,188.8l-.962-2.871-1.247-1.3s-2.695-2.209-2.468-4.391S260.3,176.723,260.3,176.723Z" transform="translate(-230.852 -154.697)" fill="#fff"/>
      <path id="Trazado_77" data-name="Trazado 77" d="M272.816,176.071c-.426-1.492-2.372-1.91-2.372-1.91-9.3-1.588-11.263,1.814-11.263,1.814a13.69,13.69,0,0,0,0,9.526s2.645-1.1,3.1,0,1.284,3.438,1.284,3.438a10.487,10.487,0,0,0,3.234-2.835c1.438-1.892,4.813,0,4.813,0C273.8,182.327,272.816,176.071,272.816,176.071Zm-2.268-.109c-3.6,11.3-6.777,11.794-6.777,11.794-1.057-4.155-1.964-3.248-3.4-5.847a8.84,8.84,0,0,1-.562-5.693.794.794,0,0,1,.408-.544c3.574-1.814,7.947-1.148,9.748-.753a.807.807,0,0,1,.6,1.043Z" transform="translate(-229.986 -154.236)" fill="#a96cfe"/>
      <g id="Grupo_40" data-name="Grupo 40" transform="translate(28.339 19.504)" clip-path="url(#clip-path-2)">
        <path id="Trazado_78" data-name="Trazado 78" d="M272.816,176.071c-.426-1.492-2.372-1.91-2.372-1.91-9.3-1.588-11.263,1.814-11.263,1.814a13.69,13.69,0,0,0,0,9.526s2.645-1.1,3.1,0,1.284,3.438,1.284,3.438a10.487,10.487,0,0,0,3.234-2.835c1.438-1.892,4.813,0,4.813,0C273.8,182.327,272.816,176.071,272.816,176.071Zm-2.268-.109c-3.6,11.3-6.777,11.794-6.777,11.794-1.057-4.155-1.964-3.248-3.4-5.847a8.84,8.84,0,0,1-.562-5.693.794.794,0,0,1,.408-.544c3.574-1.814,7.947-1.148,9.748-.753a.807.807,0,0,1,.6,1.043Z" transform="translate(-258.325 -173.739)" fill="#fff" opacity="0.4"/>
      </g>
      <path id="Trazado_80" data-name="Trazado 80" d="M272.816,176.071c-.426-1.492-2.372-1.91-2.372-1.91-9.3-1.588-11.263,1.814-11.263,1.814a13.69,13.69,0,0,0,0,9.526s2.645-1.1,3.1,0,1.284,3.438,1.284,3.438a10.487,10.487,0,0,0,3.234-2.835c1.438-1.892,4.813,0,4.813,0C273.8,182.327,272.816,176.071,272.816,176.071Zm-2.268-.109c-3.6,11.3-6.777,11.794-6.777,11.794-1.057-4.155-1.964-3.248-3.4-5.847a8.84,8.84,0,0,1-.562-5.693.794.794,0,0,1,.408-.544c3.574-1.814,7.947-1.148,9.748-.753a.807.807,0,0,1,.6,1.043Z" transform="translate(-229.986 -154.236)" fill="none" stroke="#263238" stroke-linecap="round" stroke-linejoin="round" stroke-width="1"/>
      <path id="Trazado_81" data-name="Trazado 81" d="M250.864,140.8s-8.015,1.606-3.6,6.8C252.157,153.4,250.864,140.8,250.864,140.8Z" transform="translate(-223.217 -136.238)" fill="#263238" stroke="#263238" stroke-linecap="round" stroke-linejoin="round" stroke-width="1"/>
      <path id="Trazado_82" data-name="Trazado 82" d="M249.228,150.764s-1.905-7.712,1.724-11.418,7.562-4.459,10.51-2.645,4.173,6.351,3.72,8.691-.236,10.733-4.278,14.212-6.528,2.622-9.2-2.118C249.931,154.379,249.092,153.485,249.228,150.764Z" transform="translate(-224.742 -133.482)" fill="#fff" stroke="#263238" stroke-linecap="round" stroke-linejoin="round" stroke-width="1"/>
      <path id="Trazado_83" data-name="Trazado 83" d="M260.758,146.514a16.954,16.954,0,0,1-3.983-6.577c-.934-3.552-1.461-4.16-4.94-2.422s-8.9-.6-7.485-4.99c1.492-4.609,6.051,1.361,10.433-.15s7.5,1.211,7.5,5.217c0,0,2.649,2.572,0,9.222Z" transform="translate(-222.224 -130.743)" fill="#263238" stroke="#263238" stroke-linecap="round" stroke-linejoin="round" stroke-width="1"/>
      <path id="Trazado_84" data-name="Trazado 84" d="M278.69,159.737s.771-4.228,2.912-3.838.612,6.632-1.91,5.952" transform="translate(-241.113 -144.474)" fill="#fff" stroke="#263238" stroke-linecap="round" stroke-linejoin="round" stroke-width="1"/>
      <path id="Trazado_85" data-name="Trazado 85" d="M255.47,167.55s-.844,3.924-.567,4.6,2.867.159,2.867.159" transform="translate(-228.086 -150.854)" fill="#fff" stroke="#263238" stroke-linecap="round" stroke-linejoin="round" stroke-width="1"/>
      <path id="Trazado_86" data-name="Trazado 86" d="M262.09,179.549s2.032.8,3.824-1.869" transform="translate(-232.043 -156.389)" fill="#fff" stroke="#263238" stroke-linecap="round" stroke-linejoin="round" stroke-width="1"/>
      <path id="Trazado_87" data-name="Trazado 87" d="M252.268,167.555c.073.363-.023.694-.213.735s-.413-.222-.49-.59,0-.694.213-.735S252.2,167.187,252.268,167.555Z" transform="translate(-226.276 -150.532)" fill="#263238"/>
      <path id="Trazado_88" data-name="Trazado 88" d="M263.233,166.675c.077.363,0,.694-.213.735s-.408-.227-.485-.59,0-.694.213-.735S263.183,166.307,263.233,166.675Z" transform="translate(-232.27 -150.051)" fill="#263238"/>
      <path id="Trazado_89" data-name="Trazado 89" d="M249.437,166.5c.1,1.03-.907,1.973-2.3,2.109s-2.577-.581-2.681-1.61.98-1.479,2.359-1.619S249.337,165.471,249.437,166.5Z" transform="translate(-222.402 -149.645)" fill="none" stroke="#263238" stroke-linecap="round" stroke-linejoin="round" stroke-width="1"/>
      <path id="Trazado_90" data-name="Trazado 90" d="M263.587,165.087c.1,1.025-.93,1.973-2.3,2.109s-2.577-.585-2.681-1.61.98-1.483,2.359-1.619S263.487,164.058,263.587,165.087Z" transform="translate(-230.133 -148.876)" fill="none" stroke="#263238" stroke-linecap="round" stroke-linejoin="round" stroke-width="1"/>
      <line id="Línea_50" data-name="Línea 50" y1="0.141" x2="1.433" transform="translate(27.035 16.71)" fill="#fff" stroke="#263238" stroke-linecap="round" stroke-linejoin="round" stroke-width="1"/>
      <line id="Línea_51" data-name="Línea 51" y1="3.107" x2="5.271" transform="translate(33.281 12.586)" fill="#fff" stroke="#263238" stroke-linecap="round" stroke-linejoin="round" stroke-width="1"/>
      <line id="Línea_52" data-name="Línea 52" x2="0.249" y2="0.603" transform="translate(39.455 20.534)" fill="#fff" stroke="#263238" stroke-linecap="round" stroke-linejoin="round" stroke-width="1"/>
      <path id="Trazado_91" data-name="Trazado 91" d="M248.9,163.44s.8-1.021,1.787-.531" transform="translate(-224.836 -148.246)" fill="#fff" stroke="#263238" stroke-linecap="round" stroke-linejoin="round" stroke-width="1"/>
      <path id="Trazado_92" data-name="Trazado 92" d="M263.662,162.335s-1.411-1.361-2.772-.4" transform="translate(-231.387 -147.598)" fill="#fff" stroke="#263238" stroke-linecap="round" stroke-linejoin="round" stroke-width="1"/>
      <path id="Trazado_93" data-name="Trazado 93" d="M252.83,135.8c2.146.68,5.756,1.515,8.7.621,4.536-1.361,2.98,3.72,4,5.121" transform="translate(-226.983 -133.506)" fill="none" stroke="#7f7f7f" stroke-linecap="round" stroke-linejoin="round" stroke-width="1"/>
      <path id="Trazado_94" data-name="Trazado 94" d="M248.73,134.3s.358.159.971.377" transform="translate(-224.743 -132.687)" fill="none" stroke="#7f7f7f" stroke-linecap="round" stroke-linejoin="round" stroke-width="1"/>
      <path id="Trazado_95" data-name="Trazado 95" d="M260.68,141.059c.24-.073.49-.159.753-.259" transform="translate(-231.273 -136.238)" fill="none" stroke="#7f7f7f" stroke-linecap="round" stroke-linejoin="round" stroke-width="1"/>
      <path id="Trazado_96" data-name="Trazado 96" d="M249.83,140.05s.962,1.483,4.055.826" transform="translate(-225.344 -135.828)" fill="none" stroke="#7f7f7f" stroke-linecap="round" stroke-linejoin="round" stroke-width="1"/>
      <path id="Trazado_97" data-name="Trazado 97" d="M275.23,146.46a10.94,10.94,0,0,0,1.923,4.858" transform="translate(-239.222 -139.331)" fill="none" stroke="#7f7f7f" stroke-linecap="round" stroke-linejoin="round" stroke-width="1"/>
      <path id="Trazado_98" data-name="Trazado 98" d="M275,142.92a7.2,7.2,0,0,0,.027.812" transform="translate(-239.094 -137.396)" fill="none" stroke="#7f7f7f" stroke-linecap="round" stroke-linejoin="round" stroke-width="1"/>
      <path id="Trazado_99" data-name="Trazado 99" d="M283.633,247.206a.526.526,0,0,0,.336.93c3.066,0,11.341.036,14.516-.15,3.969-.227.939-4.536-2.268-2.894C293.308,246.611,287.121,244.08,283.633,247.206Z" transform="translate(-243.71 -193.018)" opacity="0.3"/>
      <path id="Trazado_100" data-name="Trazado 100" d="M207.71,235.713s1.855-4.94,6.509-4.155,1.1,4.681-1.143,5.026C213.076,236.584,212.736,235.228,207.71,235.713Z" transform="translate(-202.331 -185.78)" fill="#fff" stroke="#263238" stroke-linecap="round" stroke-linejoin="round" stroke-width="1"/>
      <path id="Trazado_101" data-name="Trazado 101" d="M197.28,241.75c-.612.612-2.087.667-1.093-.662a7.027,7.027,0,0,1,3.175-2.345c2.2-.984,3.066-.785,5.062-1.225s2.372.376,3.062.753c1.647.907,2.041,1.061,2.459,1.969s.871,2.087-.417,2.087c-1.17,0-1.247-1.937-2.382-1.86s-1.7,1.86-2.495,1.86h-.3c-.68,0-.717-.567-.3-1.456s.871-1.692.871-1.692a3.479,3.479,0,0,0-1.533,1.61c-.544,1.157-.644,1.642-1.647,1.642s-.907-.744.064-2.386a3.874,3.874,0,0,0-1.384,1.42c-.49.907-.748.862-1.388.862-.844,0-.785-1.388.708-2.3C199.748,240.03,199.416,239.622,197.28,241.75Z" transform="translate(-195.852 -189.013)" fill="#fff" stroke="#263238" stroke-linecap="round" stroke-linejoin="round" stroke-width="1"/>
      <path id="Trazado_102" data-name="Trazado 102" d="M210.727,239.69s-.585-.027-.957.962" transform="translate(-203.456 -190.269)" fill="#fff" stroke="#263238" stroke-linecap="round" stroke-linejoin="round" stroke-width="0.75"/>
    </g>
    <g id="freepik--Code--inject-16" transform="translate(24.256 0)">
      <path id="Trazado_103" data-name="Trazado 103" d="M376.2,145.54a93.326,93.326,0,0,1,8.351,7.412" transform="translate(-243.856 -115.011)" fill="none" stroke="#263238" stroke-linecap="round" stroke-linejoin="round" stroke-width="0.75"/>
      <path id="Trazado_104" data-name="Trazado 104" d="M369.22,140.29c.553.4,1.107.8,1.651,1.216" transform="translate(-240.042 -112.143)" fill="none" stroke="#263238" stroke-linecap="round" stroke-linejoin="round" stroke-width="0.75"/>
      <path id="Trazado_105" data-name="Trazado 105" d="M362.25,135.5q.853.558,1.7,1.143" transform="translate(-236.234 -109.526)" fill="none" stroke="#263238" stroke-linecap="round" stroke-linejoin="round" stroke-width="0.75"/>
      <path id="Trazado_106" data-name="Trazado 106" d="M311.09,111.3a91.892,91.892,0,0,1,21.366,9.794" transform="translate(-208.281 -96.303)" fill="none" stroke="#263238" stroke-linecap="round" stroke-linejoin="round" stroke-width="0.75"/>
      <path id="Trazado_107" data-name="Trazado 107" d="M300.17,108.22q1.361.349,2.744.735" transform="translate(-202.315 -94.62)" fill="none" stroke="#263238" stroke-linecap="round" stroke-linejoin="round" stroke-width="0.75"/>
      <path id="Trazado_108" data-name="Trazado 108" d="M288.93,105.73q1.5.286,2.985.626" transform="translate(-196.174 -93.26)" fill="none" stroke="#263238" stroke-linecap="round" stroke-linejoin="round" stroke-width="0.75"/>
      <path id="Trazado_109" data-name="Trazado 109" d="M278.92,104.06q1.293.186,2.577.4" transform="translate(-190.704 -92.347)" fill="none" stroke="#263238" stroke-linecap="round" stroke-linejoin="round" stroke-width="0.75"/>
      <path id="Trazado_110" data-name="Trazado 110" d="M218.61,103.122a93.252,93.252,0,0,1,25.4-.454" transform="translate(-157.752 -91.228)" fill="none" stroke="#263238" stroke-linecap="round" stroke-linejoin="round" stroke-width="0.75"/>
      <path id="Trazado_111" data-name="Trazado 111" d="M210.36,105.4c.771-.15,1.547-.295,2.318-.426" transform="translate(-153.245 -92.845)" fill="none" stroke="#263238" stroke-linecap="round" stroke-linejoin="round" stroke-width="0.75"/>
      <path id="Trazado_112" data-name="Trazado 112" d="M202.35,107.032c.776-.186,1.547-.358,2.327-.522" transform="translate(-148.868 -93.686)" fill="none" stroke="#263238" stroke-linecap="round" stroke-linejoin="round" stroke-width="0.75"/>
      <path id="Trazado_113" data-name="Trazado 113" d="M192.51,109.482q1.184-.347,2.372-.662" transform="translate(-143.492 -94.948)" fill="none" stroke="#263238" stroke-linecap="round" stroke-linejoin="round" stroke-width="0.75"/>
      <path id="Trazado_114" data-name="Trazado 114" d="M133,124.2A91.931,91.931,0,0,1,157.5,112" transform="translate(-110.977 -96.686)" fill="none" stroke="#263238" stroke-linecap="round" stroke-linejoin="round" stroke-width="0.75"/>
      <path id="Trazado_115" data-name="Trazado 115" d="M125,142.875q1.061-.821,2.146-1.615" transform="translate(-106.606 -112.673)" fill="none" stroke="#263238" stroke-linecap="round" stroke-linejoin="round" stroke-width="0.75"/>
      <path id="Trazado_116" data-name="Trazado 116" d="M116.9,149.054c.776-.671,1.565-1.325,2.359-1.964" transform="translate(-102.18 -115.858)" fill="none" stroke="#263238" stroke-linecap="round" stroke-linejoin="round" stroke-width="0.75"/>
      <path id="Trazado_117" data-name="Trazado 117" d="M105.64,158.148q1.6-1.6,3.248-3.1" transform="translate(-96.028 -120.207)" fill="none" stroke="#263238" stroke-linecap="round" stroke-linejoin="round" stroke-width="0.75"/>
      <circle id="Elipse_63" data-name="Elipse 63" cx="11.286" cy="11.286" r="11.286" transform="translate(20.212 29.738) rotate(-76.59)" fill="#a96cfe"/>
      <g id="Grupo_41" data-name="Grupo 41" transform="translate(20.212 7.781)" clip-path="url(#clip-path-3)">
        <circle id="Elipse_64" data-name="Elipse 64" cx="11.286" cy="11.286" r="11.286" transform="translate(0 21.957) rotate(-76.59)" fill="#fff" opacity="0.3"/>
      </g>
      <circle id="Elipse_66" data-name="Elipse 66" cx="11.286" cy="11.286" r="11.286" transform="translate(20.212 29.738) rotate(-76.59)" fill="none" stroke="#263238" stroke-linecap="round" stroke-linejoin="round" stroke-width="0.75"/>
      <path id="Trazado_118" data-name="Trazado 118" d="M145.836,122.408v-2.826c0-.708-.2-.907-.966-.907v-1.384c.767,0,.966-.213.966-.907v-2.826a1.574,1.574,0,0,1,1.706-1.706h.862v1.361h-.249c-.535,0-.812.245-.812,1.093v2.3a1.275,1.275,0,0,1-.939,1.361V118a1.275,1.275,0,0,1,.939,1.361v2.3c0,.844.277,1.089.812,1.089h.249v1.361h-.862a1.574,1.574,0,0,1-1.706-1.706Z" transform="translate(-117.462 -96.602)" fill="#fff" stroke="#263238" stroke-linecap="round" stroke-linejoin="round" stroke-width="0.75"/>
      <path id="Trazado_119" data-name="Trazado 119" d="M165.23,122.7h.245c.54,0,.816-.245.816-1.089v-2.3a1.279,1.279,0,0,1,.934-1.361v-.032a1.275,1.275,0,0,1-.934-1.361v-2.3c0-.848-.277-1.093-.816-1.093h-.245V111.8h.862a1.574,1.574,0,0,1,1.706,1.706v2.826c0,.708.2.907.966.907v1.384c-.767,0-.966.213-.966.907v2.826a1.574,1.574,0,0,1-1.706,1.706h-.862Z" transform="translate(-128.587 -96.575)" fill="#fff" stroke="#263238" stroke-linecap="round" stroke-linejoin="round" stroke-width="0.75"/>
      <rect id="Rectángulo_498" data-name="Rectángulo 498" width="17.36" height="17.36" rx="8.68" transform="translate(0 35.777)" fill="#a96cfe" stroke="#263238" stroke-linecap="round" stroke-linejoin="round" stroke-width="0.75"/>
      <path id="Trazado_120" data-name="Trazado 120" d="M89.71,174.356v-.839l3.47-1.5v.907l-2.391,1.012,2.391,1.007v.907Z" transform="translate(-87.324 -129.479)" fill="#fff" stroke="#263238" stroke-linecap="round" stroke-linejoin="round" stroke-width="0.75"/>
      <path id="Trazado_121" data-name="Trazado 121" d="M102.07,167.5h1.08l-3.13,7.938H98.94Z" transform="translate(-92.367 -127.01)" fill="#fff" stroke="#263238" stroke-linecap="round" stroke-linejoin="round" stroke-width="0.75"/>
      <path id="Trazado_122" data-name="Trazado 122" d="M109.8,174.935l2.391-1.007-2.391-1.021V172l3.47,1.5v.839l-3.47,1.5Z" transform="translate(-98.301 -129.468)" fill="#fff" stroke="#263238" stroke-linecap="round" stroke-linejoin="round" stroke-width="0.75"/>
      <circle id="Elipse_67" data-name="Elipse 67" cx="9.63" cy="9.63" r="9.63" transform="matrix(0.228, -0.974, 0.974, 0.228, 102.294, 25.999)" fill="#a96cfe"/>
      <g id="Grupo_42" data-name="Grupo 42" transform="translate(102.294 7.244)" clip-path="url(#clip-path-4)">
        <circle id="Elipse_68" data-name="Elipse 68" cx="9.63" cy="9.63" r="9.63" transform="matrix(0.228, -0.974, 0.974, 0.228, 0, 18.755)" opacity="0.2"/>
      </g>
      <circle id="Elipse_70" data-name="Elipse 70" cx="9.63" cy="9.63" r="9.63" transform="matrix(0.228, -0.974, 0.974, 0.228, 102.294, 25.999)" fill="none" stroke="#263238" stroke-linecap="round" stroke-linejoin="round" stroke-width="0.75"/>
      <path id="Trazado_123" data-name="Trazado 123" d="M322.33,117.126v-3.992a1.722,1.722,0,1,1,3.438,0v.785h-1.1v-.857c0-.49-.236-.689-.585-.689s-.581.2-.581.689v4.146c0,.49.231.68.581.68s.585-.191.585-.68v-1.134h1.1v1.052a1.722,1.722,0,1,1-3.438,0Z" transform="translate(-214.423 -96.314)" fill="#fff" stroke="#263238" stroke-linecap="round" stroke-linejoin="round" stroke-width="0.75"/>
      <path id="Trazado_124" data-name="Trazado 124" d="M332.554,117.909H331.13v-.83h1.424V115.65h.826v1.429H334.8v.83H333.38v1.452h-.826Z" transform="translate(-219.231 -98.68)" fill="#fff" stroke="#263238" stroke-linecap="round" stroke-linejoin="round" stroke-width="0.75"/>
      <path id="Trazado_125" data-name="Trazado 125" d="M341.914,117.909H340.49v-.83h1.424V115.65h.826v1.429h1.424v.83H342.74v1.452h-.826Z" transform="translate(-224.345 -98.68)" fill="#fff" stroke="#263238" stroke-linecap="round" stroke-linejoin="round" stroke-width="0.75"/>
      <rect id="Rectángulo_499" data-name="Rectángulo 499" width="21.043" height="21.043" rx="10.522" transform="translate(62.069)" fill="#a96cfe" stroke="#263238" stroke-linecap="round" stroke-linejoin="round" stroke-width="0.75"/>
      <path id="Trazado_126" data-name="Trazado 126" d="M230.53,98.54V94.108a1.924,1.924,0,1,1,3.842,0v.871h-1.225v-.957c0-.54-.263-.762-.649-.762s-.649.222-.649.762V98.63c0,.544.259.758.649.758s.649-.213.649-.758V97.369h1.225v1.17a1.924,1.924,0,1,1-3.842,0Z" transform="translate(-164.265 -85.802)" fill="#fff" stroke="#263238" stroke-linecap="round" stroke-linejoin="round" stroke-width="0.75"/>
      <path id="Trazado_127" data-name="Trazado 127" d="M240.23,98.512v-.454h1.225v.567c0,.59.259.8.671.8s.671-.213.671-.826c0-.685-.259-1.12-1.107-1.864a3.191,3.191,0,0,1-1.438-2.567,1.8,1.8,0,0,1,1.932-2.05c1.261,0,1.887.753,1.887,2.073v.34h-1.225v-.422c0-.59-.236-.812-.649-.812s-.644.222-.644.789.268,1.034,1.116,1.778a3.191,3.191,0,0,1,1.429,2.64c0,1.361-.685,2.1-1.96,2.1S240.23,99.832,240.23,98.512Z" transform="translate(-169.565 -85.824)" fill="#fff" stroke="#263238" stroke-linecap="round" stroke-linejoin="round" stroke-width="0.75"/>
      <path id="Trazado_128" data-name="Trazado 128" d="M249.9,98.512v-.454h1.225v.567c0,.59.259.8.671.8s.671-.213.671-.826c0-.685-.259-1.12-1.107-1.864a3.191,3.191,0,0,1-1.438-2.567,1.8,1.8,0,0,1,1.932-2.05c1.261,0,1.887.753,1.887,2.073v.34h-1.229v-.422c0-.59-.236-.812-.649-.812s-.644.222-.644.789.268,1.034,1.116,1.778a3.191,3.191,0,0,1,1.429,2.64c0,1.361-.685,2.1-1.96,2.1S249.9,99.832,249.9,98.512Z" transform="translate(-174.848 -85.824)" fill="#fff" stroke="#263238" stroke-linecap="round" stroke-linejoin="round" stroke-width="0.75"/>
      <circle id="Elipse_71" data-name="Elipse 71" cx="9.608" cy="9.608" r="9.608" transform="translate(127.766 46.309) rotate(-76.59)" fill="#a96cfe"/>
      <g id="Grupo_43" data-name="Grupo 43" transform="translate(127.766 27.617)" clip-path="url(#clip-path-5)">
        <circle id="Elipse_72" data-name="Elipse 72" cx="9.608" cy="9.608" r="9.608" transform="translate(0 18.692) rotate(-76.59)" fill="#fff" opacity="0.3"/>
      </g>
      <circle id="Elipse_74" data-name="Elipse 74" cx="9.608" cy="9.608" r="9.608" transform="translate(127.766 46.309) rotate(-76.59)" fill="none" stroke="#263238" stroke-linecap="round" stroke-linejoin="round" stroke-width="0.75"/>
      <path id="Trazado_129" data-name="Trazado 129" d="M383.27,162.137v-3.815a1.645,1.645,0,1,1,3.284,0v.753H385.5v-.821c0-.454-.227-.662-.558-.662s-.558.2-.558.662v3.96c0,.454.222.649.558.649s.558-.181.558-.649V161.13h1.052v1a1.645,1.645,0,1,1-3.284,0Z" transform="translate(-247.719 -121.043)" fill="#fff" stroke="#263238" stroke-linecap="round" stroke-linejoin="round" stroke-width="0.75"/>
      <path id="Trazado_130" data-name="Trazado 130" d="M391.929,161.891h-.5l.082-.789h.5l.191-1.855h-.513l.082-.794h.508l.172-1.633h.88l-.172,1.633h.721l.172-1.633h.885l-.172,1.633h.517l-.082.794h-.517l-.2,1.855H395l-.082.789h-.513l-.213,2.028h-.88l.213-2.028h-.721l-.213,2.028h-.88Zm1.683-.789.191-1.855h-.717l-.2,1.855Z" transform="translate(-252.177 -121.174)" fill="#fff" stroke="#263238" stroke-linecap="round" stroke-linejoin="round" stroke-width="0.75"/>
    </g>
    <g id="freepik--Desk--inject-16" transform="translate(30.756 57.805)">
      <path id="Trazado_131" data-name="Trazado 131" d="M138.657,328.05h-1.683l-.454-66.8h2.137Z" transform="translate(-119.4 -236.037)" fill="#858585" stroke="#263238" stroke-linecap="round" stroke-linejoin="round" stroke-width="1"/>
      <path id="Trazado_132" data-name="Trazado 132" d="M142.908,328.05H141.23v-66.8h2.132Z" transform="translate(-121.974 -236.037)" fill="#999" stroke="#263238" stroke-linecap="round" stroke-linejoin="round" stroke-width="1"/>
      <rect id="Rectángulo_500" data-name="Rectángulo 500" width="115.315" height="4.092" transform="translate(0 21.126)" fill="#263238" stroke="#263238" stroke-linecap="round" stroke-linejoin="round" stroke-width="1"/>
      <rect id="Rectángulo_501" data-name="Rectángulo 501" width="25.82" height="4.092" transform="translate(113.591 21.126)" fill="#858585" stroke="#263238" stroke-linecap="round" stroke-linejoin="round" stroke-width="1"/>
      <rect id="Rectángulo_502" data-name="Rectángulo 502" width="114.639" height="6.741" transform="translate(5.906 25.213)" fill="#a96cfe" stroke="#263238" stroke-miterlimit="10" stroke-width="1"/>
      <rect id="Rectángulo_503" data-name="Rectángulo 503" width="13.35" height="6.741" transform="translate(133.895 31.958) rotate(180)" fill="#a96cfe"/>
      <g id="Grupo_44" data-name="Grupo 44" transform="translate(120.545 25.217)" clip-path="url(#clip-path-6)">
        <rect id="Rectángulo_504" data-name="Rectángulo 504" width="13.35" height="6.741" transform="translate(13.35 6.741) rotate(180)" opacity="0.3"/>
      </g>
      <rect id="Rectángulo_506" data-name="Rectángulo 506" width="13.35" height="6.741" transform="translate(133.895 31.958) rotate(180)" fill="none" stroke="#263238" stroke-miterlimit="10" stroke-width="1"/>
      <path id="Trazado_133" data-name="Trazado 133" d="M361.952,328.05h-1.678l-.454-66.8h2.132Z" transform="translate(-241.407 -236.037)" fill="#858585" stroke="#263238" stroke-linecap="round" stroke-linejoin="round" stroke-width="1"/>
      <path id="Trazado_134" data-name="Trazado 134" d="M366.2,328.05H364.52v-66.8h2.137Z" transform="translate(-243.975 -236.037)" fill="#999" stroke="#263238" stroke-linecap="round" stroke-linejoin="round" stroke-width="1"/>
      <path id="Trazado_135" data-name="Trazado 135" d="M109.227,328.05h-1.683l-.454-66.8h2.137Z" transform="translate(-103.32 -236.037)" fill="#858585" stroke="#263238" stroke-linecap="round" stroke-linejoin="round" stroke-width="1"/>
      <path id="Trazado_136" data-name="Trazado 136" d="M113.478,328.05H111.8v-66.8h2.132Z" transform="translate(-105.894 -236.037)" fill="#999" stroke="#263238" stroke-linecap="round" stroke-linejoin="round" stroke-width="1"/>
      <path id="Trazado_137" data-name="Trazado 137" d="M391.377,328.05h-1.683l-.454-66.8h2.137Z" transform="translate(-257.481 -236.037)" fill="#858585" stroke="#263238" stroke-linecap="round" stroke-linejoin="round" stroke-width="1"/>
      <path id="Trazado_138" data-name="Trazado 138" d="M395.628,328.05H393.95v-66.8h2.132Z" transform="translate(-260.055 -236.037)" fill="#999" stroke="#263238" stroke-linecap="round" stroke-linejoin="round" stroke-width="1"/>
      <path id="Trazado_139" data-name="Trazado 139" d="M246.172,249.289H232.659a.5.5,0,0,1-.5-.5V247.67l14.516.454v.662A.5.5,0,0,1,246.172,249.289Z" transform="translate(-171.656 -228.618)" fill="#858585" stroke="#263238" stroke-linecap="round" stroke-linejoin="round" stroke-width="1"/>
      <path id="Trazado_140" data-name="Trazado 140" d="M187.824,226.341H160.657a1.084,1.084,0,0,1-.993-.758l-5.834-18.934a.717.717,0,0,1,.69-.98h27.167a1.08,1.08,0,0,1,.993.753l5.834,18.934a.721.721,0,0,1-.689.984Z" transform="translate(-128.831 -205.669)" fill="#999" stroke="#263238" stroke-linecap="round" stroke-linejoin="round" stroke-width="1"/>
      <path id="Trazado_141" data-name="Trazado 141" d="M223.329,225.357,217.5,206.423a1.08,1.08,0,0,0-.993-.753h-1.2a1.08,1.08,0,0,1,.993.753l5.834,18.934a.721.721,0,0,1-.689.984h1.22a.721.721,0,0,0,.671-.984Z" transform="translate(-162.444 -205.67)" fill="#858585" stroke="#263238" stroke-linecap="round" stroke-linejoin="round" stroke-width="1"/>
      <path id="Trazado_142" data-name="Trazado 142" d="M191.76,226.428a1.456,1.456,0,0,1-1.474,1.683,1.955,1.955,0,0,1-1.887-1.683,1.452,1.452,0,0,1,1.474-1.678,1.96,1.96,0,0,1,1.887,1.678Z" transform="translate(-147.736 -216.094)" fill="#fff" stroke="#263238" stroke-linecap="round" stroke-linejoin="round" stroke-width="1"/>
    </g>
  </g>
</svg>
