<svg xmlns="http://www.w3.org/2000/svg" width="31.183" height="31.176" viewBox="0 0 31.183 31.176">
  <path id="ic_instagram" d="M15.59,9.833a7.993,7.993,0,1,0,7.993,7.993A7.98,7.98,0,0,0,15.59,9.833Zm0,13.19a5.2,5.2,0,1,1,5.2-5.2,5.206,5.206,0,0,1-5.2,5.2ZM25.774,9.506A1.864,1.864,0,1,1,23.91,7.641,1.86,1.86,0,0,1,25.774,9.506ZM31.068,11.4A9.226,9.226,0,0,0,28.55,4.866a9.287,9.287,0,0,0-6.532-2.518c-2.574-.146-10.289-.146-12.863,0A9.274,9.274,0,0,0,2.623,4.859,9.256,9.256,0,0,0,.1,11.391C-.042,13.965-.042,21.68.1,24.254a9.226,9.226,0,0,0,2.518,6.532A9.3,9.3,0,0,0,9.155,33.3c2.574.146,10.289.146,12.863,0a9.226,9.226,0,0,0,6.532-2.518,9.287,9.287,0,0,0,2.518-6.532c.146-2.574.146-10.282,0-12.856ZM27.743,27.015a5.261,5.261,0,0,1-2.964,2.964c-2.052.814-6.922.626-9.19.626s-7.144.181-9.19-.626a5.261,5.261,0,0,1-2.964-2.964c-.814-2.052-.626-6.922-.626-9.19s-.181-7.144.626-9.19A5.261,5.261,0,0,1,6.4,5.673c2.052-.814,6.922-.626,9.19-.626s7.144-.181,9.19.626a5.261,5.261,0,0,1,2.964,2.964c.814,2.052.626,6.922.626,9.19S28.557,24.97,27.743,27.015Z" transform="translate(0.005 -2.238)" fill="#fff"/>
</svg>
