<svg xmlns="http://www.w3.org/2000/svg" width="36.491" height="36.491" viewBox="0 0 36.491 36.491">
  <path class="ic_whatsapp" id="ic_whatsapp"  d="M26.782,26.923A15.614,15.614,0,0,1,2.215,8.086L0,0,8.276,2.173a15.562,15.562,0,0,1,7.46-1.9h.007A15.759,15.759,0,0,1,31.5,15.883,15.671,15.671,0,0,1,26.782,26.923ZM15.743,2.9A12.951,12.951,0,0,0,9.134,4.711l-.471.281L3.755,3.705,5.062,8.494l-.309.492a13,13,0,1,0,24.11,6.9A13.119,13.119,0,0,0,15.743,2.9Zm7.116,9.717c-.387.2-2.306,1.139-2.665,1.266s-.619.2-.879-.2-1.005-1.266-1.237-1.533-.457-.3-.844-.1A10.617,10.617,0,0,0,11.925,16.7c-.4.689.4.64,1.146,2.13a.723.723,0,0,1-.035.682c-.1.2-.879,2.116-1.2,2.9-.316.759-.64.654-.879.668s-.485.014-.745.014a1.445,1.445,0,0,1-1.041-.485A4.383,4.383,0,0,1,7.8,19.35a7.641,7.641,0,0,1,1.589-4.036c.2-.26,2.749-4.2,6.666-5.892,2.475-1.069,3.445-1.16,4.683-.977a4,4,0,0,1,2.63,1.856,3.262,3.262,0,0,1,.225,1.856C23.505,12.333,23.245,12.431,22.858,12.621Z" transform="translate(0 31.021) rotate(-80)" fill="#fff"/>
</svg>
